<svg id="Layer_1" data-name="Layer 1" xmlns="http://www.w3.org/2000/svg" viewBox="0 0 350 500"><defs><style>.cls-1{fill:#fff;}.cls-2{fill:#050505;}.cls-3{fill:#070606;}.cls-4{fill:#c41707;}.cls-5{fill:#dbdce6;}</style></defs><title>Artboard 1</title><polygon class="cls-1" points="80.14 182.88 144.92 224.61 269 224.78 269 182.88 80.14 182.88"/><polygon class="cls-2" points="80.14 182.88 144.92 224.61 144.92 242.18 80.14 197.16 80.14 182.88"/><rect class="cls-3" x="144.92" y="224.61" width="124.08" height="17.57"/><rect class="cls-3" x="80.13" y="188.37" width="10.98" height="95.53" rx="5" ry="5"/><rect class="cls-3" x="141.63" y="233.39" width="10.98" height="107.61" rx="5" ry="5"/><path class="cls-4" d="M96.14,161.37a1.26,1.26,0,0,0,.64,1.53,1.29,1.29,0,0,0,.55,1s-.37,1.53.28,2.17c0,0,.36,4.09.91,5l1.11,9.72s.36,3.69,1,4.09a13.93,13.93,0,0,0,.64,4.49s-.09,4.18,1.1,5.14v1.6s.74,2.73,14.23,2c0,0,9.46-.16,7.72-3.93,0,0,.92-.64,1.19-8.83,0,0,.46-.16,1.2-9.71,0,0,.55-1,.64-5.46,0,0,.37-.24.18-1,0,0,.74,0,.55-3.45,0,0,.55.48.37-2.09a1.4,1.4,0,0,0,.46-1.12s.64.08.55-1.13Z"/><ellipse class="cls-5" cx="112.8" cy="161.44" rx="16.75" ry="2.44"/><path class="cls-4" d="M139,166.86a1.26,1.26,0,0,0,.64,1.53,1.29,1.29,0,0,0,.55,1s-.36,1.53.28,2.17c0,0,.37,4.09.92,5l1.1,9.72s.37,3.69,1,4.09a14.26,14.26,0,0,0,.64,4.49s-.09,4.18,1.1,5.14v1.61s.74,2.72,14.24,2c0,0,9.46-.16,7.71-3.93,0,0,.92-.64,1.2-8.83,0,0,.46-.16,1.19-9.71,0,0,.55-1,.64-5.46,0,0,.37-.24.19-1,0,0,.73,0,.55-3.45,0,0,.55.48.36-2.09a1.36,1.36,0,0,0,.46-1.12s.65.08.55-1.13Z"/><ellipse class="cls-5" cx="155.63" cy="166.93" rx="16.75" ry="2.44"/><path class="cls-4" d="M119,175.84a1.24,1.24,0,0,0,.66,1.51,1.3,1.3,0,0,0,.56,1s-.35,1.53.3,2.16c0,0,.42,4.09,1,5l1.21,9.7s.41,3.69,1.06,4.08a14.12,14.12,0,0,0,.69,4.49s0,4.17,1.16,5.12l0,1.61s.76,2.72,14.25,1.84c0,0,9.46-.27,7.67-4,0,0,.91-.65,1.1-8.84,0,0,.45-.16,1.08-9.72,0,0,.54-1.05.58-5.47,0,0,.37-.24.17-1,0,0,.74,0,.52-3.46,0,0,.55.48.34-2.09a1.43,1.43,0,0,0,.45-1.13s.64.07.53-1.13Z"/><ellipse class="cls-5" cx="135.67" cy="175.72" rx="16.75" ry="2.44" transform="translate(-1.97 1.54) rotate(-0.65)"/><path class="cls-4" d="M185.08,168a1.26,1.26,0,0,0,.64,1.53,1.29,1.29,0,0,0,.55,1s-.37,1.52.28,2.17c0,0,.36,4.09.92,5l1.1,9.71s.37,3.7,1,4.1a14.28,14.28,0,0,0,.64,4.49s-.09,4.18,1.1,5.14v1.6s.74,2.73,14.24,2c0,0,9.46-.16,7.71-3.93,0,0,.92-.64,1.19-8.83,0,0,.46-.16,1.2-9.71,0,0,.55-1.05.64-5.46,0,0,.37-.24.18-1,0,0,.74,0,.56-3.45,0,0,.55.48.36-2.09a1.4,1.4,0,0,0,.46-1.13s.64.09.55-1.12Z"/><ellipse class="cls-5" cx="201.74" cy="168.03" rx="16.75" ry="2.44"/><path class="cls-4" d="M166.41,177.84a1.26,1.26,0,0,0,.64,1.53,1.28,1.28,0,0,0,.56,1s-.37,1.53.27,2.17c0,0,.37,4.09.92,5l1.1,9.72s.37,3.69,1,4.09a14.26,14.26,0,0,0,.64,4.49s-.09,4.18,1.11,5.14v1.61s.73,2.72,14.23,2c0,0,9.46-.16,7.71-3.93,0,0,.92-.64,1.2-8.83,0,0,.46-.16,1.19-9.71,0,0,.55-1,.64-5.46,0,0,.37-.24.19-1,0,0,.73,0,.55-3.45,0,0,.55.48.37-2.09a1.37,1.37,0,0,0,.45-1.12s.65.08.56-1.13Z"/><ellipse class="cls-5" cx="183.08" cy="177.91" rx="16.75" ry="2.44"/><path class="cls-4" d="M141.16,186.63a1.25,1.25,0,0,0,.64,1.52,1.3,1.3,0,0,0,.55,1s-.37,1.52.28,2.16c0,0,.36,4.1.91,5l1.11,9.71s.36,3.69,1,4.09a14,14,0,0,0,.64,4.5s-.09,4.17,1.1,5.14v1.6s.74,2.73,14.23,2c0,0,9.46-.16,7.72-3.94,0,0,.92-.64,1.19-8.82,0,0,.46-.17,1.2-9.72,0,0,.55-1,.64-5.45,0,0,.37-.24.18-1.05,0,0,.74,0,.55-3.45,0,0,.55.48.37-2.08a1.42,1.42,0,0,0,.46-1.13s.64.08.55-1.12Z"/><ellipse class="cls-5" cx="157.82" cy="186.7" rx="16.75" ry="2.44"/></svg>
