<?xml version="1.0" encoding="utf-8"?>
<!-- Generator: Adobe Illustrator 22.1.0, SVG Export Plug-In . SVG Version: 6.00 Build 0)  -->
<svg version="1.1" id="Layer_1" xmlns="http://www.w3.org/2000/svg" xmlns:xlink="http://www.w3.org/1999/xlink" x="0px" y="0px"
	 viewBox="0 0 188.9 190" style="enable-background:new 0 0 188.9 190;" xml:space="preserve">
<style type="text/css">
	.st0{fill:#FFFFFF;}
	.st1{fill:#050505;}
	.st2{fill:#070606;}
	.st3{fill:#C41707;}
	.st4{fill:#DBDCE6;}
</style>
<title>Artboard 1</title>
<polygon class="st0" points="0,31.9 64.8,73.6 188.9,73.8 188.9,31.9 "/>
<polygon class="st1" points="0,31.9 64.8,73.6 64.8,91.2 0,46.2 "/>
<rect x="64.8" y="73.6" class="st2" width="124.1" height="17.6"/>
<path class="st2" d="M5,37.4h1c2.8,0,5,2.2,5,5v85.5c0,2.8-2.2,5-5,5H5c-2.8,0-5-2.2-5-5V42.4C0,39.6,2.2,37.4,5,37.4z"/>
<path class="st2" d="M66.5,82.4h1c2.8,0,5,2.2,5,5V185c0,2.8-2.2,5-5,5h-1c-2.8,0-5-2.2-5-5V87.4C61.5,84.6,63.7,82.4,66.5,82.4z"/>
<path class="st3" d="M16,10.4c-0.2,0.6,0.1,1.3,0.6,1.5c0,0.4,0.2,0.8,0.6,1c0,0-0.4,1.5,0.3,2.2c0,0,0.4,4.1,0.9,5l1.1,9.7
	c0,0,0.4,3.7,1,4.1c0,1.5,0.2,3,0.6,4.5c0,0-0.1,4.2,1.1,5.1v1.6c0,0,0.7,2.7,14.2,2c0,0,9.5-0.2,7.7-3.9c0,0,0.9-0.6,1.2-8.8
	c0,0,0.5-0.2,1.2-9.7c0,0,0.6-1,0.6-5.5c0,0,0.4-0.2,0.2-1c0,0,0.7,0,0.5-3.4c0,0,0.6,0.5,0.4-2.1c0.3-0.3,0.5-0.7,0.5-1.1
	c0,0,0.6,0.1,0.6-1.1L16,10.4z"/>
<ellipse class="st4" cx="32.7" cy="10.4" rx="16.8" ry="2.4"/>
<path class="st3" d="M58.9,15.9c-0.2,0.6,0.1,1.3,0.6,1.5c0,0.4,0.2,0.8,0.6,1c0,0-0.4,1.5,0.3,2.2c0,0,0.4,4.1,0.9,5l1.1,9.7
	c0,0,0.4,3.7,1,4.1c0,1.5,0.2,3,0.6,4.5c0,0-0.1,4.2,1.1,5.1v1.6c0,0,0.7,2.7,14.2,2c0,0,9.5-0.2,7.7-3.9c0,0,0.9-0.6,1.2-8.8
	c0,0,0.5-0.2,1.2-9.7c0,0,0.6-1,0.6-5.5c0,0,0.4-0.2,0.2-1c0,0,0.7,0,0.6-3.4c0,0,0.6,0.5,0.4-2.1c0.3-0.3,0.5-0.7,0.5-1.1
	c0,0,0.6,0.1,0.6-1.1L58.9,15.9z"/>
<ellipse class="st4" cx="75.5" cy="15.9" rx="16.8" ry="2.4"/>
<path class="st3" d="M38.9,24.8c-0.2,0.6,0.1,1.2,0.7,1.5c0,0.4,0.2,0.8,0.6,1c0,0-0.3,1.5,0.3,2.2c0,0,0.4,4.1,1,5l1.2,9.7
	c0,0,0.4,3.7,1.1,4.1c0,1.5,0.2,3,0.7,4.5c0,0,0,4.2,1.2,5.1v1.6c0,0,0.8,2.7,14.3,1.8c0,0,9.5-0.3,7.7-4c0,0,0.9-0.6,1.1-8.8
	c0,0,0.4-0.2,1.1-9.7c0,0,0.5-1.1,0.6-5.5c0,0,0.4-0.2,0.2-1c0,0,0.7,0,0.5-3.5c0,0,0.6,0.5,0.3-2.1c0.3-0.3,0.5-0.7,0.4-1.1
	c0,0,0.6,0.1,0.5-1.1L38.9,24.8z"/>
<ellipse transform="matrix(0.9999 -1.134440e-02 1.134440e-02 0.9999 -0.2767 0.6318)" class="st4" cx="55.6" cy="24.7" rx="16.8" ry="2.4"/>
<path class="st3" d="M105,17c-0.2,0.6,0.1,1.3,0.6,1.5c0,0.4,0.2,0.8,0.6,1c0,0-0.4,1.5,0.3,2.2c0,0,0.4,4.1,0.9,5l1.1,9.7
	c0,0,0.4,3.7,1,4.1c0,1.5,0.2,3,0.6,4.5c0,0-0.1,4.2,1.1,5.1v1.6c0,0,0.7,2.7,14.2,2c0,0,9.5-0.2,7.7-3.9c0,0,0.9-0.6,1.2-8.8
	c0,0,0.5-0.2,1.2-9.7c0,0,0.6-1.1,0.6-5.5c0,0,0.4-0.2,0.2-1c0,0,0.7,0,0.6-3.4c0,0,0.5,0.5,0.4-2.1c0.3-0.3,0.5-0.7,0.5-1.1
	c0,0,0.6,0.1,0.5-1.1L105,17z"/>
<ellipse class="st4" cx="121.6" cy="17" rx="16.8" ry="2.4"/>
<path class="st3" d="M86.3,26.8c-0.2,0.6,0.1,1.3,0.6,1.5c0,0.4,0.2,0.8,0.6,1c0,0-0.4,1.5,0.3,2.2c0,0,0.4,4.1,0.9,5l1.1,9.7
	c0,0,0.4,3.7,1,4.1c0,1.5,0.2,3,0.6,4.5c0,0-0.1,4.2,1.1,5.1v1.6c0,0,0.7,2.7,14.2,2c0,0,9.5-0.2,7.7-3.9c0,0,0.9-0.6,1.2-8.8
	c0,0,0.5-0.2,1.2-9.7c0,0,0.6-1,0.6-5.5c0,0,0.4-0.2,0.2-1c0,0,0.7,0,0.6-3.4c0,0,0.6,0.5,0.4-2.1c0.3-0.3,0.5-0.7,0.4-1.1
	c0,0,0.6,0.1,0.6-1.1L86.3,26.8z"/>
<ellipse class="st4" cx="103" cy="26.9" rx="16.8" ry="2.4"/>
<path class="st3" d="M61,35.6c-0.2,0.6,0.1,1.2,0.6,1.5c0,0.4,0.2,0.8,0.6,1c0,0-0.4,1.5,0.3,2.2c0,0,0.4,4.1,0.9,5l1.1,9.7
	c0,0,0.4,3.7,1,4.1c0,1.5,0.2,3,0.6,4.5c0,0-0.1,4.2,1.1,5.1v1.6c0,0,0.7,2.7,14.2,2c0,0,9.5-0.2,7.7-3.9c0,0,0.9-0.6,1.2-8.8
	c0,0,0.5-0.2,1.2-9.7c0,0,0.6-1,0.6-5.4c0,0,0.4-0.2,0.2-1.1c0,0,0.7,0,0.6-3.4c0,0,0.6,0.5,0.4-2.1c0.3-0.3,0.5-0.7,0.5-1.1
	c0,0,0.6,0.1,0.6-1.1L61,35.6z"/>
<ellipse class="st4" cx="77.7" cy="35.7" rx="16.8" ry="2.4"/>
</svg>
