<?xml version="1.0" encoding="utf-8"?>
<!-- Generator: Adobe Illustrator 22.1.0, SVG Export Plug-In . SVG Version: 6.00 Build 0)  -->
<svg version="1.1" id="Layer_2_1_" xmlns="http://www.w3.org/2000/svg" xmlns:xlink="http://www.w3.org/1999/xlink" x="0px" y="0px"
	 viewBox="0 0 416 218" style="enable-background:new 0 0 416 218;" xml:space="preserve">
<style type="text/css">
	.st0{fill:#211A06;}
	.st1{fill:#42340C;}
</style>
<title>Artboard 1</title>
<path class="st0" d="M169.5,21.4h4.3c5,0,9,4,9,9v119.9c0,5-4,9-9,9h-4.3c-5,0-9-4-9-9V30.4C160.5,25.4,164.6,21.4,169.5,21.4z"/>
<path class="st0" d="M382.8,21.4h4.3c5,0,9,4,9,9v119.9c0,5-4,9-9,9h-4.3c-5,0-9-4-9-9V30.4C373.8,25.4,377.9,21.4,382.8,21.4z"/>
<path class="st0" d="M228.1,70.3h4.3c5,0,9,4,9,9v119.9c0,5-4,9-9,9h-4.3c-5,0-9-4-9-9V79.3C219.1,74.3,223.2,70.3,228.1,70.3z"/>
<path class="st0" d="M27.2,60.5h4.3c5,0,9,4,9,9v119.9c0,5-4,9-9,9h-4.3c-5,0-9-4-9-9V69.5C18.2,64.5,22.2,60.5,27.2,60.5z"/>
<polygon class="st0" points="18.2,60.5 230.3,70.3 396.1,21.4 171.7,18.2 "/>
<polygon class="st1" points="18.2,60.5 18.2,75.8 230.3,87.1 230.3,70.3 "/>
<polygon class="st1" points="396.1,21.4 396.1,38.7 230.3,87.1 230.3,70.3 "/>
</svg>
