<?xml version="1.0" encoding="utf-8"?>
<!-- Generator: Adobe Illustrator 22.1.0, SVG Export Plug-In . SVG Version: 6.00 Build 0)  -->
<svg version="1.1" id="Layer_1" xmlns="http://www.w3.org/2000/svg" xmlns:xlink="http://www.w3.org/1999/xlink" x="0px" y="0px"
	 viewBox="0 0 119.5 165.3" style="enable-background:new 0 0 119.5 165.3;" xml:space="preserve">
<style type="text/css">
	.st0{fill:#E2E8E8;}
	.st1{fill:#BDEFEE;}
	.st2{fill:#A7EAE6;}
	.st3{fill:#69E2DC;}
</style>
<title>Artboard 1</title>
<circle id="_Ellipse_" class="st0" cx="59.6" cy="105.8" r="59.5"/>
<rect x="32.1" y="86.3" class="st1" width="14" height="14"/>
<rect x="46.1" y="86.3" class="st2" width="14" height="14"/>
<rect x="60.1" y="86.3" class="st1" width="14" height="14"/>
<rect x="74.1" y="86.3" class="st3" width="14" height="14"/>
<rect x="32.1" y="100.3" class="st3" width="14" height="14"/>
<rect x="46.1" y="100.3" class="st1" width="14" height="14"/>
<rect x="60.1" y="100.3" class="st2" width="14" height="14"/>
<rect x="74.1" y="100.3" class="st1" width="14" height="14"/>
<rect x="88.1" y="86.3" class="st2" width="14" height="14"/>
<rect x="88.1" y="100.3" class="st3" width="14" height="14"/>
<rect x="18.1" y="100.3" class="st2" width="14" height="14"/>
<rect x="18.1" y="86.3" class="st3" width="14" height="14"/>
<rect x="32.1" y="72.3" class="st3" width="14" height="14"/>
<rect x="46.1" y="72.3" class="st1" width="14" height="14"/>
<rect x="60.1" y="72.3" class="st2" width="14" height="14"/>
<rect x="74.1" y="72.3" class="st1" width="14" height="14"/>
<rect x="88.1" y="72.3" class="st3" width="14" height="14"/>
<rect x="18.1" y="72.3" class="st2" width="14" height="14"/>
<rect x="32.1" y="114.3" class="st1" width="14" height="14"/>
<rect x="46.1" y="114.3" class="st2" width="14" height="14"/>
<rect x="60.1" y="114.3" class="st1" width="14" height="14"/>
<rect x="74.1" y="114.3" class="st3" width="14" height="14"/>
<rect x="88.1" y="114.3" class="st2" width="14" height="14"/>
<rect x="18.1" y="114.3" class="st3" width="14" height="14"/>
<rect x="32.1" y="128.3" class="st3" width="14" height="14"/>
<rect x="46.1" y="128.3" class="st1" width="14" height="14"/>
<rect x="60.1" y="128.3" class="st2" width="14" height="14"/>
<rect x="74.1" y="128.3" class="st1" width="14" height="14"/>
<rect x="88.1" y="128.3" class="st3" width="14" height="14"/>
<rect x="18.1" y="128.3" class="st2" width="14" height="14"/>
<polygon class="st2" points="102.1,142.3 88.1,142.3 88.1,158 "/>
<polyline class="st1" points="32.1,158.3 18.1,142.3 32,142.1 "/>
<rect x="46.1" y="142.3" class="st3" width="14" height="16"/>
<rect x="32.1" y="142.3" class="st2" width="14" height="16"/>
<rect x="60.1" y="142.3" class="st1" width="14" height="16"/>
<rect x="74.1" y="142.3" class="st3" width="14" height="16"/>
<path class="st3" d="M32.1,158.3h14v5.5C46.1,163.7,34.1,161.3,32.1,158.3z"/>
<path class="st1" d="M60.1,158.3v7c0,0-13,0-14-2v-5H60.1z"/>
<path class="st2" d="M74.1,158.3v5.2c-4.6,1-9.3,1.6-14,1.8v-7H74.1z"/>
<path class="st1" d="M88.1,158.3c0,0-8,4-14,5v-5H88.1z"/>
<rect x="4.1" y="100.3" class="st3" width="14" height="14"/>
<rect x="4.1" y="86.3" class="st2" width="14" height="14"/>
<rect x="4.1" y="114.3" class="st2" width="14" height="14"/>
<rect x="102.1" y="86.3" class="st3" width="13" height="14"/>
<rect x="102.1" y="100.3" class="st2" width="14" height="14"/>
<rect x="102.1" y="114.3" class="st3" width="12" height="14"/>
<rect x="74.1" y="53.3" class="st3" width="14" height="19"/>
<rect x="18.1" y="63.3" class="st3" width="14" height="9"/>
<rect x="32.1" y="53.3" class="st1" width="14" height="19"/>
<rect x="46.1" y="53.3" class="st2" width="14" height="19"/>
<rect x="60.1" y="53.3" class="st1" width="14" height="19"/>
<rect x="88.1" y="65.3" class="st2" width="14" height="7"/>
<path class="st3" d="M32.1,53.3c0,0,8-4.9,14-5.5v5.5H32.1z"/>
<path class="st1" d="M60.1,53.3h-14v-5c0,0-1-1,13-2L60.1,53.3z"/>
<path class="st2" d="M74.1,53.3V48c0,0-12-2.8-15-1.8l1,7H74.1z"/>
<path class="st1" d="M88.1,53.3c0,0-8-4-14-5v5H88.1z"/>
<path class="st1" d="M88.1,65.3v-12c0,0,16,10,14,12H88.1z"/>
<path class="st2" d="M102.1,86.3L102,64c0,0,11.2,12.2,12.9,20.4c0.1,0.6,0.2,1.3,0.2,1.9H102.1z"/>
<path class="st1" d="M118.9,100.3c0,0-1.8-15-3.8-16v16H118.9z"/>
<path class="st3" d="M116.1,114.3h2.4c0,0,1.6-11,0.6-14h-3V114.3z"/>
<path class="st1" d="M114.1,114.3h4c0,0,0,8-4,14V114.3z"/>
<path class="st1" d="M102.1,128.3h12c-0.9,5.4-3.6,10.3-7.5,14h-4.5V128.3z"/>
<path class="st3" d="M88.1,158.3l14-16h4C106.1,142.3,102.1,150.3,88.1,158.3z"/>
<path class="st2" d="M17.8,142.3h-5.6c0,0,9.7,12,20,16L17.8,142.3z"/>
<path class="st3" d="M4.1,128.3h14v15h-5C13.1,143.3,7.1,135.8,4.1,128.3z"/>
<path class="st1" d="M4.1,128.3v-14H0.7C0.7,114.3,2.1,124.3,4.1,128.3z"/>
<path class="st2" d="M4.1,100.3H0.4c0,0-1.3,12,0.8,14h3V100.3z"/>
<path class="st3" d="M4.1,86.3v14h-4C0.1,100.3,2.1,85.3,4.1,86.3z"/>
<path class="st1" d="M18.1,86.3v-23c0,0-15,15-14,23H18.1z"/>
<path class="st2" d="M32.1,63.3v-10c-5.4,2.2-10.1,5.7-14,10H32.1z"/>
<path class="st3" d="M60.4,46.1C59.2,31,58.9,15.9,59.5,0.8c0-1-1.5-1-1.5,0c-0.6,15.1-0.3,30.3,0.9,45.4
	C59,47.1,60.5,47.1,60.4,46.1z"/>
</svg>
