<svg id="Layer_1" data-name="Layer 1" xmlns="http://www.w3.org/2000/svg" viewBox="0 0 350 500"><defs><style>.cls-1{fill:#e2e8e8;}.cls-2{fill:#bdefee;}.cls-3{fill:#a7eae6;}.cls-4{fill:#69e2dc;}</style></defs><title>Artboard 1</title><circle id="_Ellipse_" data-name="&lt;Ellipse&gt;" class="cls-1" cx="182.5" cy="247.5" r="59.5"/><rect class="cls-2" x="155" y="228" width="14" height="14"/><rect class="cls-3" x="169" y="228" width="14" height="14"/><rect class="cls-2" x="183" y="228" width="14" height="14"/><rect class="cls-4" x="197" y="228" width="14" height="14"/><rect class="cls-4" x="155" y="242" width="14" height="14"/><rect class="cls-2" x="169" y="242" width="14" height="14"/><rect class="cls-3" x="183" y="242" width="14" height="14"/><rect class="cls-2" x="197" y="242" width="14" height="14"/><rect class="cls-3" x="211" y="228" width="14" height="14"/><rect class="cls-4" x="211" y="242" width="14" height="14"/><rect class="cls-3" x="141" y="242" width="14" height="14"/><rect class="cls-4" x="141" y="228" width="14" height="14"/><rect class="cls-4" x="155" y="214" width="14" height="14"/><rect class="cls-2" x="169" y="214" width="14" height="14"/><rect class="cls-3" x="183" y="214" width="14" height="14"/><rect class="cls-2" x="197" y="214" width="14" height="14"/><rect class="cls-4" x="211" y="214" width="14" height="14"/><rect class="cls-3" x="141" y="214" width="14" height="14"/><rect class="cls-2" x="155" y="256" width="14" height="14"/><rect class="cls-3" x="169" y="256" width="14" height="14"/><rect class="cls-2" x="183" y="256" width="14" height="14"/><rect class="cls-4" x="197" y="256" width="14" height="14"/><rect class="cls-3" x="211" y="256" width="14" height="14"/><rect class="cls-4" x="141" y="256" width="14" height="14"/><rect class="cls-4" x="155" y="270" width="14" height="14"/><rect class="cls-2" x="169" y="270" width="14" height="14"/><rect class="cls-3" x="183" y="270" width="14" height="14"/><rect class="cls-2" x="197" y="270" width="14" height="14"/><rect class="cls-4" x="211" y="270" width="14" height="14"/><rect class="cls-3" x="141" y="270" width="14" height="14"/><polygon class="cls-3" points="225 284 211 284 211 299.74 225 284"/><polyline class="cls-2" points="155 300 141 284 154.82 283.85"/><rect class="cls-4" x="169" y="284" width="14" height="16"/><rect class="cls-3" x="155" y="284" width="14" height="16"/><rect class="cls-2" x="183" y="284" width="14" height="16"/><rect class="cls-4" x="197" y="284" width="14" height="16"/><path class="cls-4" d="M155,300h14v5.46S157,303,155,300Z"/><path class="cls-2" d="M183,300v7s-13,0-14-2v-5Z"/><path class="cls-3" d="M197,300v5.22A79,79,0,0,1,183,307v-7Z"/><path class="cls-2" d="M211,300s-8,4-14,5v-5Z"/><rect class="cls-4" x="127" y="242" width="14" height="14"/><rect class="cls-3" x="127" y="228" width="14" height="14"/><rect class="cls-3" x="127" y="256" width="14" height="14"/><rect class="cls-4" x="225" y="228" width="13" height="14"/><rect class="cls-3" x="225" y="242" width="14" height="14"/><rect class="cls-4" x="225" y="256" width="12" height="14"/><rect class="cls-4" x="197" y="195" width="14" height="19"/><rect class="cls-4" x="141" y="205" width="14" height="9"/><rect class="cls-2" x="155" y="195" width="14" height="19"/><rect class="cls-3" x="169" y="195" width="14" height="19"/><rect class="cls-2" x="183" y="195" width="14" height="19"/><rect class="cls-3" x="211" y="207" width="14" height="7"/><path class="cls-4" d="M155,195s8-4.92,14-5.46V195Z"/><path class="cls-2" d="M183,195H169v-5s-1-1,13-2Z"/><path class="cls-3" d="M197,195v-5.22S185,187,182,188l1,7Z"/><path class="cls-2" d="M211,195s-8-4-14-5v5Z"/><path class="cls-2" d="M211,207V195s16,10,14,12Z"/><path class="cls-3" d="M225,228l-.15-22.29s11.21,12.18,12.93,20.35A9.7,9.7,0,0,1,238,228Z"/><path class="cls-2" d="M241.75,242S240,227,238,226v16Z"/><path class="cls-4" d="M239,256h2.39s1.61-11,.61-14h-3Z"/><path class="cls-2" d="M237,256h4s0,8-4,14Z"/><path class="cls-2" d="M225,270h12a25.38,25.38,0,0,1-7.51,14H225Z"/><path class="cls-4" d="M211,300l14-16h4S225,292,211,300Z"/><path class="cls-3" d="M140.64,284H135s9.74,12,20,16Z"/><path class="cls-4" d="M127,270h14v15h-5S130,277.5,127,270Z"/><path class="cls-2" d="M127,270V256h-3.39S125,266,127,270Z"/><path class="cls-3" d="M127,242h-3.75S122,254,124,256h3Z"/><path class="cls-4" d="M127,228v14h-4S125,227,127,228Z"/><path class="cls-2" d="M141,228V205s-15,15-14,23Z"/><path class="cls-3" d="M155,205V195a38.43,38.43,0,0,0-14,10Z"/><path class="cls-4" d="M183.27,187.86a392.46,392.46,0,0,1-.89-45.37c0-1-1.47-1-1.5,0a392.46,392.46,0,0,0,.89,45.37c.08,1,1.58,1,1.5,0Z"/></svg>
