<svg id="Layer_1" data-name="Layer 1" xmlns="http://www.w3.org/2000/svg" viewBox="0 0 1366 768"><defs><style>.cls-1{fill:#c41707;}.cls-2{fill:#dbdce6;}</style></defs><title>Artboard 1</title><path class="cls-1" d="M570.08,223s-2.7,6.51,4.75,11.25c0,0,0,5.32,4.06,7.69,0,0-2.71,11.25,2,16,0,0,2.71,30.19,6.77,36.7l8.13,71.63s2.71,27.22,7.45,30.18c0,0-.68,17.17,4.74,33.15,0,0-.68,30.78,8.13,37.89V479.3s5.42,20.13,105,14.8c0,0,69.75-1.18,56.89-29,0,0,6.77-4.74,8.8-65.11,0,0,3.39-1.19,8.81-71.63,0,0,4.06-7.69,4.74-40.25,0,0,2.71-1.77,1.35-7.69,0,0,5.42,0,4.06-25.46,0,0,4.07,3.56,2.71-15.39,0,0,4.07-3.55,3.39-8.28,0,0,4.74.59,4.06-8.29Z"/><ellipse class="cls-2" cx="693" cy="223.5" rx="123.5" ry="18"/></svg>
