<?xml version="1.0" encoding="utf-8"?>
<!-- Generator: Adobe Illustrator 22.1.0, SVG Export Plug-In . SVG Version: 6.00 Build 0)  -->
<svg version="1.1" id="Layer_1" xmlns="http://www.w3.org/2000/svg" xmlns:xlink="http://www.w3.org/1999/xlink" x="0px" y="0px"
	 viewBox="0 0 247 300.2" style="enable-background:new 0 0 247 300.2;" xml:space="preserve">
<style type="text/css">
	.st0{fill:#C41707;}
	.st1{fill:#DBDCE6;}
</style>
<title>Artboard 1</title>
<path class="st0" d="M0.6,28.2c0,0-2.7,6.5,4.8,11.3c0,0,0,5.3,4.1,7.7c0,0-2.7,11.3,2,16c0,0,2.7,30.2,6.8,36.7l8.1,71.6
	c0,0,2.7,27.2,7.5,30.2c0,0-0.7,17.2,4.7,33.1c0,0-0.7,30.8,8.1,37.9v11.8c0,0,5.4,20.1,105,14.8c0,0,69.8-1.2,56.9-29
	c0,0,6.8-4.7,8.8-65.1c0,0,3.4-1.2,8.8-71.6c0,0,4.1-7.7,4.7-40.2c0,0,2.7-1.8,1.3-7.7c0,0,5.4,0,4.1-25.5c0,0,4.1,3.6,2.7-15.4
	c0,0,4.1-3.6,3.4-8.3c0,0,4.7,0.6,4.1-8.3H0.6z"/>
<ellipse class="st1" cx="123.5" cy="28.7" rx="123.5" ry="18"/>
</svg>
