<svg id="Layer_1" data-name="Layer 1" xmlns="http://www.w3.org/2000/svg" viewBox="0 0 2449 3500.01"><defs><style>.cls-1{fill:#d18f82;}.cls-2{fill:#fcad95;}.cls-3{fill:#002053;}.cls-4{stroke:#002b6f;}.cls-17,.cls-26,.cls-27,.cls-28,.cls-4,.cls-5,.cls-6{stroke-miterlimit:10;}.cls-27,.cls-5{fill:#fff;}.cls-5,.cls-6{stroke:#fff;}.cls-7{fill:#bd0000;}.cls-8{fill:#700b0b;}.cls-9{fill:#c69d9d;}.cls-10{fill:#a8736c;}.cls-11{fill:#f8f8f8;}.cls-12{fill:#c41707;}.cls-13{fill:#dbdce6;}.cls-14,.cls-17,.cls-28{fill:none;}.cls-15{fill:#f2a694;opacity:0.6;}.cls-15,.cls-20,.cls-21{isolation:isolate;}.cls-16{fill:#eda08e;}.cls-17{stroke:#000;stroke-width:0.01px;}.cls-18{fill:#505151;}.cls-19{fill:#020202;}.cls-20,.cls-21{fill:#5a5b5b;}.cls-20{opacity:0.26;}.cls-21{opacity:0.8;}.cls-22{fill:#dee0e0;}.cls-23{fill:#353536;}.cls-24{fill:#c6c6c9;}.cls-25{fill:#6a696f;}.cls-26{fill:#f7f7e4;stroke:#d4d4d6;}.cls-27{stroke:#edebeb;stroke-width:0.02px;}.cls-28{stroke:#020202;stroke-width:0.1px;}.cls-29{fill:#161616;}.cls-30{fill:#f4f4f4;}.cls-31{fill:#f40b0b;}</style></defs><title>Martin_spritesheet</title><path class="cls-1" d="M172.7,52.9a5.79,5.79,0,0,0,.7,1c1.6,2.1,5.5,7.2,8.7,8.5h-9.4"/><path class="cls-2" d="M187.6,128v16.1L207,154.9c-36.1,32.3-58.4,0-58.4,0L168,144.1V128"/><path class="cls-2" d="M251,305.5s14.4,16.6,12.9,17.5c0,0,1,4.2-3,0l-4.9-5.8.2,21.1s-2.1,3.4-2.5-.6l-.1-9.6v-.9l-.5,13a1.76,1.76,0,0,1-2.4-.5v-.1c-1-1.5.5-13,.5-13l-1.4,11.5a1.76,1.76,0,0,1-2.4-.5v-.1c-.9-1.5,1.4-11.5,1.4-11.5l-.9-1.5-2.3,5.6s-2.8.2-1.8-1.8l1.1-19Z"/><polygon class="cls-3" points="209.8 310.2 135.6 303.6 121.1 483.8 161.8 483.8 166.2 387.7 168.6 389.2 166.2 483.8 200.9 483.8 209.8 310.2"/><ellipse class="cls-4" cx="174" cy="338.3" rx="2.4" ry="3"/><ellipse class="cls-4" cx="174" cy="349" rx="2.4" ry="3"/><path class="cls-4" d="M177.5,335.2s2.8,33.2-6.3,27.1v3.8s9,7,9.2-29.9Z"/><polygon class="cls-5" points="129.5 484.4 132 484.7 142 319.7 139.5 319.5 129.5 484.4"/><polygon class="cls-5" points="135.8 484.4 138.3 484.7 148.3 319.7 145.8 319.5 135.8 484.4"/><path d="M129.3,483.1s-24-4-25.4,7.5L102.5,502h60.3l-.6-18.9Z"/><path d="M205.7,483.1s23.9-4,25.4,7.5l1.4,11.4H172.2l.6-18.9Z"/><circle class="cls-2" cx="176.1" cy="91.1" r="44.1"/><path class="cls-5" d="M163.7,90.8s1.2-14.3-11.9-8.1C151.8,82.8,151.2,93.5,163.7,90.8Z"/><circle class="cls-6" cx="157.9" cy="85.6" r="4.2"/><path d="M163.9,78.1H146.5a1.58,1.58,0,0,1-1.6-1.56h0a1.58,1.58,0,0,1,1.56-1.6H163.9a1.58,1.58,0,0,1,1.6,1.56h0A1.72,1.72,0,0,1,163.9,78.1Z"/><path class="cls-1" d="M176.1,93.8a4.6,4.6,0,0,1,.4.8c1,1.7,3.5,5.6,5.6,6.6h-6"/><path class="cls-7" d="M212.8,67s5.7-38.4-17.4-42.6H158s-16,.6-20.7,18.7V67Z"/><path class="cls-8" d="M175.4,21s2.6-.3,2.5,2.8h-5.6C172.2,23.8,172,20.8,175.4,21Z"/><path class="cls-8" d="M137.3,57.4H104s.1,8.7,7.9,9.3l25.4.3Z"/><path class="cls-8" d="M213.3,52.3s-6.3-1.9-8.7,3.9V67l8.2-.3Z"/><polygon class="cls-9" points="212.9 64.6 204.6 64.6 204.6 67 212.8 67 212.9 64.6"/><path class="cls-5" d="M200.1,84s-11.1-9.2-13.4,5.2C186.7,89.2,195.2,95.8,200.1,84Z"/><circle class="cls-6" cx="192.6" cy="85.7" r="4.2"/><path d="M202,78.1H184.6a1.58,1.58,0,0,1-1.6-1.56h0a1.58,1.58,0,0,1,1.56-1.6H202a1.58,1.58,0,0,1,1.6,1.56h0A1.72,1.72,0,0,1,202,78.1Z"/><path class="cls-10" d="M198.9,112.5s-17.6,5.2-29.4.6c0,0-2.4,9.3,9.8,6.6A73.41,73.41,0,0,0,198.9,112.5Z"/><path class="cls-11" d="M148.8,154s17.3,32.8,58.4,0c0,0,43.1-7.7,39.3,24.1L257,309.3l-15.3,3.9L224.4,195.5s0-16.4-11.5-12.5L210,309.4l-72.8-5.8,1.9-115.8s-12.4-5.8-12.4,7.7L121,237s-1.9,7.7,5.8,6.8l30.7-3.9.9,16.4L121,260.2s-23,3.9-17.3-27l9.6-50.2C113.4,183,116.3,153,148.8,154Z"/><path class="cls-12" d="M165.3,232.4a1.11,1.11,0,0,0,.4,1.1.67.67,0,0,0,.4.7s-.3,1.1.2,1.5a20.83,20.83,0,0,0,.6,3.5l.8,6.8s.3,2.6.7,2.8a10.48,10.48,0,0,0,.4,3.1s-.1,2.9.8,3.6v1.1s.5,1.9,9.9,1.4c0,0,6.6-.1,5.4-2.7,0,0,.6-.4.8-6.1,0,0,.3-.1.8-6.8,0,0,.4-.7.4-3.8,0,0,.3-.2.1-.7,0,0,.5,0,.4-2.4,0,0,.4.3.3-1.5a1.12,1.12,0,0,0,.3-.8s.4.1.4-.8Z"/><ellipse class="cls-13" cx="176.9" cy="232.5" rx="11.6" ry="1.7"/><path class="cls-2" d="M165.5,242.4l1.9.3,18.9,2.9s3,2.7-1,2.4l-9.5-1.4-.9-.1,12.8,2.6a1.73,1.73,0,0,1-.85,2.28h-.1c-1.7.7-12.8-2.6-12.8-2.6L185,252a1.73,1.73,0,0,1-.85,2.28H184c-1.7.7-11.1-3.3-11.1-3.3l-1.7.7,5.2,3.2s-.3,2.8-2.1,1.5l-18.6-4.2-2.7-6.7s7.5-4.7,13.2-7.6h.3l.5,1.4Z"/><path class="cls-11" d="M464,229.5l32-4"/><path class="cls-11" d="M464,179.2l-6,43.3"/><line class="cls-14" x1="497" y1="242.6" x2="458" y2="246.6"/><line class="cls-14" x1="496" y1="225.5" x2="497" y2="242.6"/><polygon class="cls-11" points="531 142 541 152 530 158.4 520 148.7 531 142"/><path class="cls-2" d="M531.6,128v16.1L551,154.9c-36.1,32.3-58.4,0-58.4,0l19.5-10.8V128"/><path class="cls-2" d="M595,305.5s14.4,16.6,12.9,17.5c0,0,1,4.2-3,0l-4.9-5.8.2,21.1s-2.1,3.4-2.5-.6l-.1-9.6v-.9l-.5,13a1.76,1.76,0,0,1-2.4-.5v-.1c-1-1.5.5-13,.5-13l-1.4,11.5a1.76,1.76,0,0,1-2.4-.5v-.1c-.9-1.5,1.4-11.5,1.4-11.5l-1-1.5-2.3,5.6s-2.8.2-1.8-1.8l1.1-19Z"/><polygon class="cls-3" points="553.8 310.2 479.6 303.6 465.1 483.8 505.8 483.8 510.2 387.7 512.6 389.2 510.2 483.8 544.9 483.8 553.8 310.2"/><ellipse class="cls-4" cx="518" cy="338.3" rx="2.4" ry="3"/><ellipse class="cls-4" cx="518" cy="349" rx="2.4" ry="3"/><path class="cls-4" d="M521.5,335.2s2.8,33.2-6.3,27.1v3.8s9,7,9.2-29.9Z"/><polygon class="cls-5" points="473.5 484.4 476 484.7 486 319.7 483.5 319.5 473.5 484.4"/><polygon class="cls-5" points="479.8 484.4 482.3 484.7 492.3 319.7 489.8 319.5 479.8 484.4"/><path d="M473.3,483.1s-24-4-25.4,7.5L446.5,502h60.3l-.6-18.9Z"/><path d="M549.7,483.1s24-4,25.4,7.5l1.4,11.4H516.2l.6-18.9Z"/><circle class="cls-2" cx="520.15" cy="91.17" r="44.1" transform="translate(87.88 394.5) rotate(-45)"/><path class="cls-5" d="M507.7,90.8s1.2-14.3-11.9-8.1C495.8,82.8,495.2,93.5,507.7,90.8Z"/><circle class="cls-6" cx="502" cy="85.6" r="4.2"/><path d="M507.9,78.1H490.5a1.58,1.58,0,0,1-1.6-1.56h0a1.58,1.58,0,0,1,1.56-1.6H507.9a1.58,1.58,0,0,1,1.6,1.56h0A1.72,1.72,0,0,1,507.9,78.1Z"/><path class="cls-1" d="M520.1,93.8a4.6,4.6,0,0,1,.4.8c1,1.7,3.5,5.6,5.6,6.6h-6"/><path class="cls-7" d="M556.8,67s5.7-38.4-17.4-42.6H502s-16,.6-20.7,18.7V67Z"/><path class="cls-8" d="M519.4,21s2.6-.3,2.5,2.8h-5.7S516,20.8,519.4,21Z"/><path class="cls-8" d="M481.3,57.4H448s.1,8.7,7.9,9.3l25.4.3Z"/><path class="cls-8" d="M557.3,52.3s-6.3-1.9-8.7,3.9V67l8.2-.3Z"/><polygon class="cls-9" points="556.9 64.6 548.6 64.6 548.6 67 556.8 67 556.9 64.6"/><path class="cls-5" d="M544.2,84s-11.1-9.2-13.4,5.2C530.7,89.2,539.2,95.8,544.2,84Z"/><circle class="cls-6" cx="536.6" cy="85.7" r="4.2"/><path d="M546,78.1H528.6a1.58,1.58,0,0,1-1.6-1.56h0a1.58,1.58,0,0,1,1.56-1.6H546a1.58,1.58,0,0,1,1.6,1.56h0A1.72,1.72,0,0,1,546,78.1Z"/><path class="cls-10" d="M542.8,112.5s-17.6,5.2-29.3.6c0,0-2.3,9.3,9.8,6.6A71.39,71.39,0,0,0,542.8,112.5Z"/><path class="cls-11" d="M457.4,182.9s2.9-29.9,35.4-28.9c0,0,12.9,24.6,43.2,9.9a80.4,80.4,0,0,0,15.3-9.9s43.1-7.7,39.3,24.1l10.5,131.2-15.3,3.9L568.5,195.5s0-16.4-11.5-12.5l-2.9,126.4-72.8-5.8,1.9-115.8s-12.5-5.8-12.5,7.7c0,0,25.9-21.2,42.1-22.2l22-13.4,9.6,9.6-23,13.4-41.2,22C480.3,204.9,442.1,223.2,457.4,182.9Z"/><path class="cls-12" d="M537.3,147.6a1,1,0,0,0,.9.7.67.67,0,0,0,.7.4s.3,1,.9,1.2a14.28,14.28,0,0,0,2.2,2.7l3.9,5.6s1.5,2.1,2,2.2a9.46,9.46,0,0,0,1.9,2.5s1.3,2.6,2.4,2.8l.5,1s1.4,1.4,9.4-3.5c0,0,5.7-3.3,3.4-5,0,0,.3-.7-2.2-5.8,0,0,.2-.3-2.5-6.3,0,0,0-.8-1.4-3.6,0,0,.2-.3-.2-.7,0,0,.5-.3-.8-2.3,0,0,.5.1-.5-1.4a.78.78,0,0,0-.1-.8s.4-.2,0-.9Z"/><ellipse class="cls-13" cx="547.46" cy="141.99" rx="11.7" ry="1.7" transform="translate(-0.98 280.16) rotate(-28.68)"/><path class="cls-2" d="M542.3,156.3l1.8-.7,18-6.6s4,.9.3,2.5l-9,3.3-.9.3,12.5-3.9a1.77,1.77,0,0,1,.33,2.47h0v.1c-1.1,1.4-12.5,3.9-12.5,3.9l11.3-2.5a1.77,1.77,0,0,1,.33,2.47h0c-1.1,1.4-11.3,2.5-11.3,2.5l-1.1,1.4,6.1.3s1.1,2.6-1.1,2.3l-18.3,5.3L533,165s2.4-4.3,5.2-8.7l.5-.8a4.38,4.38,0,0,0,.4-.7c.6-1,1.3-2,1.9-2.9l1.3.9Z"/><polygon class="cls-15" points="531.6 142.6 531 142 536.7 133 537 133.4 531.6 142.6"/><path class="cls-2" d="M889.6,128v16.1L909,154.9c-36.1,32.3-58.4,0-58.4,0l19.5-10.8V128"/><path class="cls-2" d="M953,305.5s14.4,16.6,12.9,17.5c0,0,1,4.2-3,0l-4.9-5.8.2,21.1s-2.1,3.4-2.5-.6l-.1-9.6v-.9l-.5,13a1.76,1.76,0,0,1-2.4-.5v-.1c-1-1.5.5-13,.5-13l-1.4,11.5a1.76,1.76,0,0,1-2.4-.5v-.1c-.9-1.5,1.4-11.5,1.4-11.5l-1-1.5-2.3,5.6s-2.8.2-1.8-1.8l1.1-19Z"/><polygon class="cls-3" points="911.8 310.2 837.6 303.6 823.1 483.8 863.8 483.8 868.2 387.7 870.6 389.2 868.2 483.8 902.9 483.8 911.8 310.2"/><ellipse class="cls-4" cx="876" cy="338.3" rx="2.4" ry="3"/><ellipse class="cls-4" cx="876" cy="349" rx="2.4" ry="3"/><path class="cls-4" d="M879.5,335.2s2.8,33.2-6.3,27.1v3.8s9,7,9.2-29.9Z"/><polygon class="cls-5" points="831.5 484.4 834 484.7 844 319.7 841.5 319.5 831.5 484.4"/><polygon class="cls-5" points="837.8 484.4 840.3 484.7 850.3 319.7 847.8 319.5 837.8 484.4"/><path d="M831.3,483.1s-24-4-25.4,7.5L804.5,502h60.3l-.6-18.9Z"/><path d="M907.7,483.1s24-4,25.4,7.5l1.4,11.4H874.2l.6-18.9Z"/><circle class="cls-2" cx="878.1" cy="91.1" r="44.1"/><path class="cls-5" d="M865.7,90.8s1.2-14.3-11.9-8.1C853.8,82.8,853.2,93.5,865.7,90.8Z"/><circle class="cls-6" cx="860" cy="85.6" r="4.2"/><path d="M865.9,78.1H848.5a1.58,1.58,0,0,1-1.6-1.56h0a1.58,1.58,0,0,1,1.56-1.6H865.9a1.58,1.58,0,0,1,1.6,1.56h0A1.72,1.72,0,0,1,865.9,78.1Z"/><path class="cls-1" d="M878.1,93.8a4.6,4.6,0,0,1,.4.8c1,1.7,3.5,5.6,5.6,6.6h-6"/><path class="cls-7" d="M914.8,67s5.7-38.4-17.4-42.6H860s-16,.6-20.7,18.7V67Z"/><path class="cls-8" d="M877.4,21s2.6-.3,2.5,2.8h-5.7S874,20.8,877.4,21Z"/><path class="cls-8" d="M839.3,57.4H806s.1,8.7,7.9,9.3l25.4.3Z"/><path class="cls-8" d="M915.3,52.3s-6.3-1.9-8.7,3.9V67l8.2-.3Z"/><polygon class="cls-9" points="914.9 64.6 906.6 64.6 906.6 67 914.8 67 914.9 64.6"/><path class="cls-5" d="M902.2,84s-11.1-9.2-13.4,5.2C888.7,89.2,897.2,95.8,902.2,84Z"/><circle class="cls-6" cx="894.6" cy="85.7" r="4.2"/><path d="M904,78.1H886.6a1.58,1.58,0,0,1-1.6-1.56h0a1.58,1.58,0,0,1,1.56-1.6H904a1.58,1.58,0,0,1,1.6,1.56h0A1.72,1.72,0,0,1,904,78.1Z"/><path class="cls-12" d="M888.5,126.8a.84.84,0,0,0,1.1.4.79.79,0,0,0,.8.2s.6.9,1.2.9a11.9,11.9,0,0,0,3,1.9l5.5,4.1s2,1.6,2.6,1.4a12,12,0,0,0,2.6,1.8s2.1,2,3.1,1.9l.8.8s1.7.9,7.8-6.3c0,0,4.4-4.9,1.7-5.8,0,0,.1-.8-3.9-4.8,0,0,.1-.3-4.4-5.2,0,0-.3-.8-2.5-2.9,0,0,.1-.3-.4-.6,0,0,.3-.4-1.5-1.9,0,0,.5,0-.9-1.2a1.12,1.12,0,0,0-.3-.8s.3-.3-.3-.8Z"/><ellipse class="cls-13" cx="896.36" cy="118.35" rx="11.7" ry="1.7" transform="translate(196.89 691.24) rotate(-46.84)"/><path class="cls-2" d="M896,133.4l1.5-1.2,15-11.8s4-.4,1,2.3l-7.6,5.9-.7.6,10.6-7.6a1.75,1.75,0,0,1,1.1,2.2v.1c-.7,1.7-10.6,7.6-10.6,7.6l10-5.9a1.82,1.82,0,0,1,1.1,2.3v.1c-.6,1.7-10,5.9-10,5.9l-.7,1.7,5.8-1.6s1.8,2.1-.3,2.5l-15.8,10.7-6.8-2.6s1-4.9,2.2-9.9c.1-.3.1-.6.2-.9s.1-.5.2-.8c.3-1.1.6-2.3.9-3.3l1.6.5Z"/><path class="cls-11" d="M841.3,187.8l-1.9,115.8,72.8,5.8L915,183c11.5-3.9,11.5,12.5,11.5,12.5l17.3,117.7,15.3-3.9L948.6,178.1c3.8-31.8-39.3-24.1-39.3-24.1a91.35,91.35,0,0,1-15.3,9.9c-30.2,14.7-43.2-9.9-43.2-9.9s-40.2-3.7-30.7,30.8c0,0,3.8,14.4,14.4,11.5l71.8-47.9-20.1-8.6L833.6,179Z"/><circle class="cls-10" cx="886.3" cy="119.6" r="4.8"/><path class="cls-2" d="M1306.6,294s15.1,17.3,13.5,18.3c0,0,1,4.3-3.1-.1l-5.1-6,.3,22s-2.2,3.6-2.6-.6l-.1-10v-1l-.5,13.6a1.76,1.76,0,0,1-2.46-.43v-.17c-1-1.6.5-13.6.5-13.6l-1.5,12a1.84,1.84,0,0,1-2.55-.52h0v-.18c-1-1.6,1.5-12,1.5-12l-1-1.6-2.4,5.9s-2.9.2-1.9-1.9l1.2-19.8Z"/><polygon class="cls-11" points="1237.1 146.8 1246 141 1255 152 1245.6 157.5 1237.1 146.8"/><polygon class="cls-11" points="525 165.7 535 175.4 546 169 536 159 525 165.7"/><polygon class="cls-15" points="1247.1 142.3 1246.6 141.7 1253.1 133.3 1253.4 133.8 1247.1 142.3"/><path class="cls-2" d="M1237.7,124.5v16.3l19.7,10.9c-36.6,32.7-59.1,0-59.1,0l19.7-10.9V124.5"/><polygon class="cls-3" points="1260.2 308.9 1185 302.2 1170.3 484.6 1211.5 484.6 1216 387.3 1218.4 388.8 1216 484.6 1251.1 484.6 1260.2 308.9"/><ellipse class="cls-4" cx="1223.9" cy="337.3" rx="2.4" ry="3"/><ellipse class="cls-4" cx="1223.9" cy="348.1" rx="2.4" ry="3"/><path class="cls-4" d="M1227.4,334.2s2.8,33.6-6.4,27.4v3.8s9.1,7.1,9.3-30.3Z"/><polygon class="cls-5" points="1178.9 485.2 1181.4 485.5 1191.5 318.5 1189 318.2 1178.9 485.2"/><polygon class="cls-5" points="1185.2 485.2 1187.7 485.5 1197.8 318.5 1195.3 318.2 1185.2 485.2"/><path d="M1178.6,483.9s-24.2-4-25.7,7.6l-1.4,11.6h61l-.6-19.1h-33.3Z"/><path d="M1255.9,483.9s24.3-4,25.7,7.6l1.4,11.6h-61l.6-19.1h33.3Z"/><circle class="cls-2" cx="1226.1" cy="87.1" r="44.6"/><path class="cls-5" d="M1213.5,86.8s1.2-14.5-12.1-8.2C1201.4,78.7,1200.8,89.6,1213.5,86.8Z"/><circle class="cls-6" cx="1207.7" cy="81.6" r="4.2"/><path d="M1213.7,73.9h-17.6a1.58,1.58,0,0,1-1.6-1.56h0a1.58,1.58,0,0,1,1.56-1.6h17.64a1.58,1.58,0,0,1,1.6,1.56h0A1.72,1.72,0,0,1,1213.7,73.9Z"/><path class="cls-1" d="M1226.1,89.8a4.6,4.6,0,0,1,.4.8c1,1.7,3.6,5.7,5.7,6.7h-6.1"/><path class="cls-7" d="M1263.2,62.8s5.8-38.9-17.6-43.1h-37.8s-16.3.5-21,18.9V62.8Z"/><path class="cls-8" d="M1225.3,16.1s2.6-.3,2.5,2.8h-5.7S1221.8,15.9,1225.3,16.1Z"/><path class="cls-8" d="M1186.7,53H1153s.1,8.8,8,9.4l25.8.3Z"/><path class="cls-8" d="M1263.7,47.8s-6.4-2-8.8,4v11l8.3-.3Z"/><polygon class="cls-9" points="1263.3 60.3 1254.9 60.3 1254.9 62.8 1263.2 62.8 1263.3 60.3"/><path class="cls-5" d="M1250.4,79.9s-11.2-9.3-13.6,5.3C1236.8,85.2,1245.4,91.9,1250.4,79.9Z"/><circle class="cls-6" cx="1242.7" cy="81.7" r="4.2"/><path d="M1252.2,73.9h-17.6a1.58,1.58,0,0,1-1.6-1.56h0a1.58,1.58,0,0,1,1.56-1.6h17.64a1.58,1.58,0,0,1,1.6,1.56h0a1.58,1.58,0,0,1-1.56,1.6h0Z"/><path class="cls-11" d="M1163.5,180.1s2.9-30.3,35.9-29.3c0,0,13.1,24.9,43.7,10a83,83,0,0,0,15.4-10s43.6-7.8,39.8,24.4L1309,308l-15.5,3.9L1276,192.8s0-16.6-11.6-12.7L1261.5,308l-73.7-5.9,1.9-117.1s-12.6-5.9-12.6,7.8c0,0,26.2-21.5,42.7-22.5l22.3-13.6,9.7,9.7-23.3,13.5-41.7,22.3C1186.8,202.3,1148,220.9,1163.5,180.1Z"/><path class="cls-12" d="M1247.9,143a1,1,0,0,0,.9.8c.1.3.4.4.7.5,0,0,.2,1.1.8,1.3a19.29,19.29,0,0,0,2.1,2.9l3.7,5.8s1.4,2.2,1.9,2.3a10.16,10.16,0,0,0,1.8,2.6s1.2,2.7,2.3,2.9l.5,1s1.3,1.5,9.6-3.1c0,0,5.9-3,3.7-4.9,0,0,.4-.7-2-5.9,0,0,.2-.3-2.3-6.5,0,0,0-.8-1.3-3.6,0,0,.2-.3-.2-.7,0,0,.5-.2-.7-2.4,0,0,.5.1-.4-1.4a1,1,0,0,0-.1-.9s.4-.1,0-.9Z"/><ellipse class="cls-13" cx="1258.49" cy="137.88" rx="11.8" ry="1.7" transform="translate(67.22 566.47) rotate(-26.04)"/><path class="cls-2" d="M1252.6,152l1.9-.6,18.5-5.8s3.9,1.1.2,2.6l-9.3,2.9-.9.3,12.8-3.3a1.76,1.76,0,0,1,.22,2.47h0l-.1.1c-1.2,1.4-12.8,3.4-12.8,3.4l11.6-2a1.76,1.76,0,0,1,.22,2.47h0l-.1.1c-1.2,1.4-11.6,2-11.6,2L1262,158l6.1.6s1,2.7-1.2,2.3l-18.7,4.5-5.5-4.9s2.7-4.3,5.6-8.6l.5-.7.4-.6c.7-1,1.4-2,2-2.9l1.3,1Z"/><path class="cls-10" d="M1227.5,116.5s-.8-2.5,1.7-2.5a9.56,9.56,0,0,0,9,0s2.5,0,1.6,1.7c0,0-2.5,8.2-5.7,9C1234.1,124.7,1229.2,121.4,1227.5,116.5Z"/><path class="cls-2" d="M1577.6,123v16.1l19.4,10.8c-36.1,32.3-58.4,0-58.4,0l19.4-10.8V123"/><path class="cls-2" d="M1641,300.5s14.4,16.6,12.9,17.5c0,0,1,4.2-3,0l-4.9-5.8.2,21.1s-2.1,3.4-2.5-.6l-.1-9.6v-.9l-.5,13a1.76,1.76,0,0,1-2.4-.5v-.1c-1-1.5.5-13,.5-13l-1.4,11.5a1.76,1.76,0,0,1-2.4-.5v-.1c-.9-1.5,1.4-11.5,1.4-11.5l-1-1.5-2.3,5.6s-2.8.2-1.8-1.8l1.1-19Z"/><polygon class="cls-3" points="1599.8 305.2 1525.6 298.6 1511.1 478.8 1551.8 478.8 1556.2 382.7 1558.6 384.2 1556.2 478.8 1590.9 478.8 1599.8 305.2"/><ellipse class="cls-4" cx="1564" cy="333.3" rx="2.4" ry="3"/><ellipse class="cls-4" cx="1564" cy="344" rx="2.4" ry="3"/><path class="cls-4" d="M1567.5,330.2s2.8,33.2-6.3,27.1v3.8s9,7,9.2-29.9Z"/><polygon class="cls-5" points="1519.5 479.4 1522 479.7 1532 314.7 1529.5 314.5 1519.5 479.4"/><polygon class="cls-5" points="1525.8 479.4 1528.3 479.7 1538.3 314.7 1535.8 314.5 1525.8 479.4"/><path d="M1519.3,478.1s-24-4-25.4,7.5l-1.4,11.4h60.3l-.6-18.9Z"/><path d="M1595.7,478.1s24-4,25.4,7.5l1.4,11.4h-60.3l.6-18.9Z"/><circle class="cls-2" cx="1566.1" cy="86.1" r="44.1"/><path class="cls-5" d="M1553.7,85.8s1.2-14.3-11.9-8.1C1541.8,77.8,1541.2,88.5,1553.7,85.8Z"/><circle class="cls-6" cx="1547.9" cy="80.6" r="4.2"/><path d="M1553.9,73.1h-17.4a1.58,1.58,0,0,1-1.6-1.56h0a1.58,1.58,0,0,1,1.56-1.6h17.44a1.58,1.58,0,0,1,1.6,1.56h0A1.72,1.72,0,0,1,1553.9,73.1Z"/><path class="cls-1" d="M1566.1,88.8a4.6,4.6,0,0,1,.4.8c1,1.7,3.5,5.6,5.6,6.6h-6"/><path class="cls-7" d="M1602.8,62s5.7-38.4-17.4-42.6H1548s-16,.6-20.7,18.7V62Z"/><path class="cls-8" d="M1565.4,16s2.6-.3,2.5,2.8h-5.7S1562,15.8,1565.4,16Z"/><path class="cls-8" d="M1527.3,52.4H1494s.1,8.7,7.9,9.3l25.4.3Z"/><path class="cls-8" d="M1603.3,47.3s-6.3-1.9-8.7,3.9V62l8.2-.3Z"/><polygon class="cls-9" points="1602.9 59.6 1594.6 59.6 1594.6 62 1602.8 62 1602.9 59.6"/><path class="cls-5" d="M1590.2,79s-11.1-9.2-13.4,5.2C1576.7,84.2,1585.2,90.8,1590.2,79Z"/><circle class="cls-6" cx="1582.6" cy="80.7" r="4.2"/><path d="M1592,73.1h-17.4a1.58,1.58,0,0,1-1.6-1.56h0a1.58,1.58,0,0,1,1.56-1.6H1592a1.58,1.58,0,0,1,1.6,1.56h0A1.72,1.72,0,0,1,1592,73.1Z"/><path class="cls-10" d="M1588.8,107.5s-17.6,5.2-29.3.6c0,0-2.3,9.3,9.8,6.6A71.39,71.39,0,0,0,1588.8,107.5Z"/><path class="cls-11" d="M1538.8,149s17.3,32.8,58.4,0c0,0,43.1-7.7,39.3,24.1L1647,304.3l-15.3,3.9-17.3-117.7s0-16.4-11.5-12.5L1600,304.4l-72.8-5.8,1.9-115.8s-12.4-5.8-12.4,7.7l-5.8,41.5s-1.9,7.7,5.8,6.8l30.7-3.9,1,16.4-37.4,3.9s-23,3.9-17.3-27l9.6-50.2C1503.4,178,1506.3,148,1538.8,149Z"/><path class="cls-12" d="M1555.3,227.4a1.11,1.11,0,0,0,.4,1.1.67.67,0,0,0,.4.7s-.3,1.1.2,1.5a20.83,20.83,0,0,0,.6,3.5l.8,6.8s.3,2.6.7,2.8a10.48,10.48,0,0,0,.4,3.1s-.1,2.9.8,3.6v1.1s.5,1.9,9.9,1.4c0,0,6.6-.1,5.4-2.7,0,0,.6-.4.8-6.1,0,0,.3-.1.8-6.8,0,0,.4-.7.4-3.8,0,0,.3-.2.1-.7,0,0,.5,0,.4-2.4,0,0,.4.3.3-1.5a1.12,1.12,0,0,0,.3-.8s.4.1.4-.8Z"/><ellipse class="cls-13" cx="1566.9" cy="227.5" rx="11.7" ry="1.7"/><path class="cls-2" d="M1555.5,237.4l1.9.3,18.9,2.9s3.1,2.7-1,2.4l-9.5-1.4-.9-.1,12.8,2.6a1.73,1.73,0,0,1-.85,2.28h-.1c-1.7.7-12.8-2.6-12.8-2.6l11.1,3.3a1.73,1.73,0,0,1-.85,2.28h-.15c-1.7.7-11.1-3.3-11.1-3.3l-1.7.7,5.2,3.2s-.3,2.8-2,1.5l-18.6-4.2-2.7-6.7s7.5-4.7,13.2-7.6h.3l.5,1.4Z"/><path class="cls-2" d="M182.3,618.7v16.6l20,11.1c-37.2,33.3-60.1,0-60.1,0l20.1-11.1V618.7"/><path class="cls-2" d="M247.6,801.6s14.9,17.1,13.3,18.1c0,0,1,4.3-3,0l-5-5.9.2,21.7s-2.2,3.5-2.6-.6l-.1-9.9v-1l-.5,13.4a1.79,1.79,0,0,1-2.46-.53v-.07h0c-1-1.6.5-13.4.5-13.4l-1.5,11.8a1.88,1.88,0,0,1-2.5-.5v-.1c-1-1.6,1.5-11.8,1.5-11.8l-1-1.6L242,827s-2.9.2-1.8-1.8l1.2-19.6Z"/><polygon class="cls-3" points="205.2 806.5 128.7 799.6 113.7 985.3 155.7 985.3 160.2 886.3 162.7 887.8 160.2 985.3 195.9 985.3 205.2 806.5"/><ellipse class="cls-4" cx="165.2" cy="833.3" rx="2.5" ry="3.1"/><ellipse class="cls-4" cx="165.2" cy="844.3" rx="2.5" ry="3.1"/><path class="cls-4" d="M168.8,830.2s2.9,34.2-6.5,27.9V862s9.3,7.2,9.5-30.8Z"/><polygon class="cls-5" points="119.4 983.9 121.9 984.1 132.2 814.2 129.6 813.9 119.4 983.9"/><polygon class="cls-5" points="125.8 983.9 128.4 984.1 138.7 814.2 136.1 813.9 125.8 983.9"/><path d="M119.1,982.5s-24.7-4.1-26.1,7.7L91.6,1002h62.1l-.6-19.5Z"/><path d="M197.8,982.5s24.7-4.1,26.1,7.7l1.4,11.8H163.2l.7-19.5Z"/><circle class="cls-2" cx="170.5" cy="580.65" r="45.4" transform="translate(-424.25 692.46) rotate(-84.28)"/><path d="M157.9,567.2h-18a1.58,1.58,0,0,1-1.6-1.56h0v-.14a1.58,1.58,0,0,1,1.56-1.6h18a1.58,1.58,0,0,1,1.6,1.56h0v.14A1.73,1.73,0,0,1,157.9,567.2Z"/><path class="cls-1" d="M170.5,583.4l.4.8c1,1.7,3.6,5.8,5.8,6.8h-6.2"/><path class="cls-7" d="M208.3,555.9s5.9-39.6-17.9-43.9H151.9s-16.6.5-21.4,19.3v24.6Z"/><path class="cls-8" d="M169.7,508.4s2.7-.3,2.6,2.9h-5.8C166.4,511.3,166.2,508.2,169.7,508.4Z"/><path class="cls-8" d="M130.4,545.9H96.1s.1,9,8.1,9.6l26.2.3Z"/><path class="cls-8" d="M208.8,540.7s-6.5-2-8.9,4v11.2l8.4-.3Z"/><polygon class="cls-9" points="208.4 553.3 199.8 553.3 199.8 555.9 208.3 555.9 208.4 553.3"/><path d="M197.1,567.2h-18a1.58,1.58,0,0,1-1.6-1.56h0v-.14a1.58,1.58,0,0,1,1.56-1.6h18a1.58,1.58,0,0,1,1.6,1.56h0v.14a1.58,1.58,0,0,1-1.56,1.6Z"/><path class="cls-11" d="M138.3,643.5s17.8,33.8,60.2,0c0,0,44.4-8,40.5,24.8l10.9,135.2-15.8,4L216.3,686.2s0-16.9-11.8-12.9l-3,130.2-75-6,2-119.3s-12.8-6-12.8,8l-6,42.8s-2,8,5.9,7l31.6-4,1,16.9-38.5,4S86,756.8,91.9,725l9.9-51.7S104.8,642.5,138.3,643.5Z"/><path class="cls-12" d="M155.3,724.3a1,1,0,0,0,.5,1.1.91.91,0,0,0,.4.8s-.3,1.1.2,1.5a15.29,15.29,0,0,0,.7,3.6l.8,7s.3,2.7.7,2.9a8.49,8.49,0,0,0,.5,3.2s-.1,3,.8,3.7v1.2s.5,2,10.2,1.4c0,0,6.8-.1,5.5-2.8,0,0,.7-.5.9-6.3,0,0,.3-.1.9-7a11.44,11.44,0,0,0,.5-3.9s.3-.2.1-.8c0,0,.5,0,.4-2.5,0,0,.4.3.3-1.5a1.12,1.12,0,0,0,.3-.8s.5.1.4-.8Z"/><ellipse class="cls-13" cx="167.2" cy="724.3" rx="12" ry="1.8"/><path class="cls-2" d="M155.5,734.6l2,.3,19.5,3s3.1,2.7-1,2.4l-9.8-1.5-.9-.1,13.2,2.7a1.84,1.84,0,0,1-.9,2.4h-.1c-1.7.7-13.2-2.7-13.2-2.7l11.4,3.4a1.84,1.84,0,0,1-.9,2.4h-.1c-1.7.7-11.4-3.4-11.4-3.4l-1.7.7,5.3,3.3s-.3,2.9-2.1,1.5l-19.1-4.3-2.8-6.9s7.7-4.8,13.6-7.9h.3l.5,1.5Z"/><path class="cls-16" d="M144.8,576.3s8.4-5.6,15.3,0A13.06,13.06,0,0,1,144.8,576.3Z"/><line class="cls-17" x1="145.2" y1="576.3" x2="159.7" y2="576.3"/><path class="cls-16" d="M180.4,575.3s8.4-5.6,15.3,0A13.06,13.06,0,0,1,180.4,575.3Z"/><line class="cls-17" x1="180.8" y1="575.3" x2="195.2" y2="575.3"/><path class="cls-10" d="M156.6,602.2h33.6a1.38,1.38,0,0,1,1.4,1.36v.24a1.45,1.45,0,0,1-1.4,1.5H156.6a1.38,1.38,0,0,1-1.4-1.36v-.24a1.39,1.39,0,0,1,1.28-1.5Z"/><path class="cls-2" d="M507.3,623.2v16.4l-19.8,11c36.8,32.9,59.4,0,59.4,0l-19.8-11V623.2"/><path class="cls-2" d="M442.8,804s-14.7,16.9-13.1,17.8c0,0-1,4.2,3,0l5-5.9-.2,21.5s2.2,3.5,2.5-.6l.1-9.8v-1l.5,13.3a1.79,1.79,0,0,0,2.48-.57h0c1-1.6-.5-13.3-.5-13.3l1.5,11.7a1.9,1.9,0,0,0,2.5-.5v-.1c1-1.6-1.5-11.7-1.5-11.7l1-1.6,2.3,5.7s2.9.2,1.8-1.8L449,807.8Z"/><polygon class="cls-3" points="484.7 808.8 560.3 802 575 985.5 533.6 985.5 529.1 887.6 526.7 889.2 529.1 985.5 493.8 985.5 484.7 808.8"/><ellipse class="cls-4" cx="524.2" cy="835.3" rx="2.5" ry="3.1"/><ellipse class="cls-4" cx="524.2" cy="846.2" rx="2.5" ry="3.1"/><path class="cls-4" d="M520.6,832.2s-2.8,33.8,6.4,27.6v3.8s-9.2,7.1-9.4-30.5Z"/><polygon class="cls-5" points="569.5 984.1 566.9 984.3 556.8 816.4 559.3 816.1 569.5 984.1"/><polygon class="cls-5" points="563.1 984.1 560.6 984.3 550.4 816.4 553 816.1 563.1 984.1"/><path d="M569.7,982.8s24.4-4,25.8,7.6l1.4,11.6H535.5l.6-19.2Z"/><path d="M491.9,982.8s-24.4-4-25.8,7.6l-1.4,11.6H526l-.6-19.2Z"/><circle class="cls-2" cx="518.95" cy="585.58" r="44.9" transform="translate(-262.07 538.47) rotate(-45)"/><path class="cls-5" d="M519.9,586.3s-1.2-14.6,12.2-8.2C532.1,578.1,532.7,589.1,519.9,586.3Z"/><circle class="cls-6" cx="525.8" cy="581" r="4.3"/><path d="M521.7,569.2h17.7a1.58,1.58,0,0,1,1.6,1.56h0a1.58,1.58,0,0,1-1.56,1.6H521.7a1.58,1.58,0,0,1-1.6-1.56h0a1.58,1.58,0,0,1,1.56-1.6h0Z"/><path class="cls-1" d="M509,588.7a4.6,4.6,0,0,0-.4.8c-1,1.7-3.6,5.7-5.7,6.7H509"/><path class="cls-7" d="M481.6,561.1s-5.8-39.1,17.7-43.3h38.1s16.4.5,21.2,19v24.3Z"/><path class="cls-8" d="M519.8,514.2s-2.7-.3-2.5,2.8h5.8a2.88,2.88,0,0,0-2.93-2.83h0A2.31,2.31,0,0,0,519.8,514.2Z"/><path class="cls-8" d="M558.5,551.3h33.9s-.1,8.8-8,9.5l-25.9.3Z"/><path class="cls-8" d="M481.1,546.1s6.5-2,8.8,4v11l-8.3-.3Z"/><polygon class="cls-9" points="481.5 558.6 490 558.6 490 561.1 481.6 561.1 481.5 558.6"/><path class="cls-5" d="M488.7,577.4s11.3-9.3,13.7,5.3C502.4,582.7,493.7,589.5,488.7,577.4Z"/><circle class="cls-6" cx="496.4" cy="579.2" r="4.3"/><path d="M487.8,569.2h17.7a1.58,1.58,0,0,1,1.6,1.56h0a1.58,1.58,0,0,1-1.56,1.6H487.8a1.58,1.58,0,0,1-1.6-1.56h0a1.58,1.58,0,0,1,1.56-1.6h0Z"/><path class="cls-11" d="M542.8,647.7s-17.6,33.4-59.5,0c0,0-43.9-7.9-40,24.5L432.6,805.8l15.6,3.9,17.6-119.8s0-16.7,11.7-12.8l2.9,128.7,74.1-5.9-2-117.9s12.7-5.9,12.7,7.9l5.8,42.2s2,7.8-5.8,6.9L534,735.1l-1,16.7,38,3.9s23.4,3.9,17.6-27.5l-9.8-51.1S575.9,646.7,542.8,647.7Z"/><path class="cls-12" d="M526,727.5a1,1,0,0,1-.5,1.1.67.67,0,0,1-.4.7s.3,1.1-.2,1.5a13.51,13.51,0,0,1-.7,3.5l-.8,6.9s-.3,2.6-.7,2.9a8.49,8.49,0,0,1-.5,3.2s.1,3-.8,3.6V752s-.5,1.9-10.1,1.4c0,0-6.7-.1-5.5-2.8,0,0-.6-.5-.9-6.3,0,0-.3-.1-.8-6.9,0,0-.4-.7-.5-3.9,0,0-.3-.2-.1-.7,0,0-.5,0-.4-2.5,0,0-.4.3-.3-1.5a1.12,1.12,0,0,1-.3-.8s-.5,0-.4-.8Z"/><ellipse class="cls-13" cx="514.2" cy="727.6" rx="11.9" ry="1.7"/><path class="cls-2" d="M529.8,739.8l-2,.3-19.2,3s-3.1,2.7,1,2.4l9.7-1.5.9-.2-13,2.6a1.84,1.84,0,0,0,.9,2.4h.1c1.7.7,13-2.6,13-2.6l-11.3,3.3a1.84,1.84,0,0,0,.9,2.4h.1c1.7.7,11.3-3.3,11.3-3.3l1.7.7-5.3,3.2s.3,2.8,2.1,1.5l18.9-4.3,2.8-6.8s-7.7-4.7-13.4-7.8h-.3l-.5,1.5Z"/><ellipse class="cls-10" cx="508.5" cy="613.7" rx="5.4" ry="8.8"/><path class="cls-2" d="M851.4,623.1v16.4l-19.6,11c36.3,32.9,58.7,0,58.7,0l-19.6-11V623.1"/><path class="cls-2" d="M787.6,803.9s-14.5,16.9-13,17.9c0,0-1,4.2,3,0l4.9-5.9-.2,21.5s2.1,3.5,2.5-.6l.1-9.8v-1l.5,13.3a1.9,1.9,0,0,0,2.5-.5v-.1c1-1.6-.5-13.3-.5-13.3l1.4,11.7a1.76,1.76,0,0,0,2.4-.5.09.09,0,0,1,.08-.1h0c1-1.6-1.4-11.7-1.4-11.7l1-1.6,2.3,5.7s2.8.2,1.8-1.8l-1.1-19.4Z"/><polygon class="cls-3" points="829 808.7 903.7 801.9 918.3 985.5 877.4 985.5 872.9 887.6 870.5 889.1 872.9 985.5 838 985.5 829 808.7"/><ellipse class="cls-4" cx="868" cy="835.2" rx="2.4" ry="3.1"/><ellipse class="cls-4" cx="868" cy="846.1" rx="2.4" ry="3.1"/><path class="cls-4" d="M864.5,832.1s-2.8,33.8,6.3,27.6v3.8s-9.1,7.1-9.3-30.5Z"/><polygon class="cls-5" points="912.8 984.1 910.3 984.3 900.2 816.3 902.8 816 912.8 984.1"/><polygon class="cls-5" points="906.5 984.1 904 984.3 894 816.3 896.5 816 906.5 984.1"/><path d="M913.1,982.8s24.1-4,25.5,7.6L940,1002H879.3l.6-19.3h33.2Z"/><path d="M836.2,982.8s-24.1-4-25.5,7.6l-1.4,11.6H870l-.6-19.3H836.2Z"/><ellipse class="cls-2" cx="862.9" cy="585.5" rx="44.4" ry="44.9"/><path class="cls-5" d="M867.7,586.2s-1.2-14.6,12-8.2C879.7,577.9,880.3,588.9,867.7,586.2Z"/><ellipse class="cls-6" cx="873.5" cy="580.8" rx="4.2" ry="4.3"/><path d="M870.4,572.9h17.5a1.58,1.58,0,0,1,1.6,1.56h0a1.58,1.58,0,0,1-1.56,1.6H870.4a1.58,1.58,0,0,1-1.6-1.56h0a1.58,1.58,0,0,1,1.56-1.6h0Z"/><path class="cls-1" d="M856,588.5l-.4.8c-1,1.7-3.5,5.7-5.6,6.7h6"/><path class="cls-7" d="M826,561s-5.8-39.1,17.5-43.4h37.6s16.2.5,20.9,19V561Z"/><path class="cls-8" d="M863.7,514s-2.6-.3-2.5,2.8h5.7S867.1,513.8,863.7,514Z"/><path class="cls-8" d="M902,551.1h33.5s-.1,8.8-7.9,9.5L902,561Z"/><path class="cls-8" d="M825.5,545.9s6.4-2,8.7,4v11l-8.2-.3Z"/><polygon class="cls-9" points="825.9 558.4 834.2 558.4 834.2 561 826 561 825.9 558.4"/><path class="cls-5" d="M833,577.2s11.1-9.3,13.5,5.3C846.5,582.5,837.9,589.3,833,577.2Z"/><ellipse class="cls-6" cx="840.6" cy="579" rx="4.2" ry="4.3"/><path d="M833.1,571h17.5a1.58,1.58,0,0,1,1.6,1.56h0a1.58,1.58,0,0,1-1.56,1.6H833.1a1.58,1.58,0,0,1-1.6-1.56h0a1.58,1.58,0,0,1,1.56-1.6h0Z"/><path class="cls-11" d="M886.4,647.5s-17.3,33.4-58.8,0c0,0-43.4-7.9-39.5,24.6L777.5,805.7l15.4,3.9,17.3-119.9s0-16.7,11.6-12.8l2.9,128.7,73.3-5.9-2-117.8s12.5-5.9,12.5,7.9l5.8,42.2s1.9,7.9-5.8,6.9L877.7,735l-1,16.7,37.6,3.9s23.1,3.9,17.3-27.5L922,677S919.1,646.5,886.4,647.5Z"/><path class="cls-12" d="M869.8,727.4a1,1,0,0,1-.5,1.1.67.67,0,0,1-.4.7s.3,1.1-.2,1.5a19,19,0,0,1-.6,3.5l-.8,6.9s-.3,2.6-.7,2.9a8.49,8.49,0,0,1-.5,3.2s.1,3-.8,3.6v1.1s-.5,1.9-10,1.4c0,0-6.6-.1-5.4-2.8,0,0-.7-.5-.8-6.3,0,0-.3-.1-.8-6.9,0,0-.4-.7-.5-3.9,0,0-.3-.2-.1-.7,0,0-.5,0-.4-2.4,0,0-.4.3-.3-1.5a1.12,1.12,0,0,1-.3-.8s-.5.1-.4-.8Z"/><ellipse class="cls-13" cx="858.2" cy="727.5" rx="11.7" ry="1.7"/><path class="cls-2" d="M873.6,739.6l-2,.3-19,2.9s-3.1,2.7,1,2.4l9.6-1.5.9-.2-12.9,2.6a1.84,1.84,0,0,0,.9,2.4h.1c1.7.7,12.9-2.6,12.9-2.6l-11.2,3.3a1.8,1.8,0,0,0,.93,2.37h.07c1.7.7,11.2-3.3,11.2-3.3l1.7.7-5.2,3.2s.3,2.8,2.1,1.5l18.7-4.3,2.8-6.8s-7.6-4.7-13.3-7.8h-.3l-.5,1.5Z"/><path class="cls-10" d="M874.7,616.8a12.19,12.19,0,0,0,10.2-5.7s1.7,6.6-2.8,7A12.57,12.57,0,0,1,874.7,616.8Z"/><path class="cls-2" d="M1206.8,623.1v16.4l-19.8,11c36.8,32.9,59.5,0,59.5,0l-19.8-11V623.1"/><polygon class="cls-3" points="1184.1 808.7 1259.7 801.9 1274.5 985.5 1233.1 985.5 1228.5 887.6 1226.1 889.1 1228.5 985.5 1193.3 985.5 1184.1 808.7"/><ellipse class="cls-4" cx="1223.6" cy="835.2" rx="2.5" ry="3.1"/><ellipse class="cls-4" cx="1223.6" cy="846.1" rx="2.5" ry="3.1"/><path class="cls-4" d="M1220.1,832.1s-2.8,33.8,6.4,27.6v3.8s-9.2,7.1-9.4-30.5Z"/><polygon class="cls-5" points="1269 984.1 1266.4 984.3 1256.2 816.3 1258.8 816 1269 984.1"/><polygon class="cls-5" points="1262.6 984.1 1260.1 984.3 1249.9 816.3 1252.4 816 1262.6 984.1"/><path d="M1269.2,982.8s24.4-4,25.8,7.6l1.4,11.6H1235l.7-19.3h33.5Z"/><path d="M1191.4,982.8s-24.4-4-25.8,7.6l-1.4,11.6h61.4l-.7-19.3h-33.5Z"/><circle class="cls-2" cx="1218.4" cy="585.5" r="44.9"/><path class="cls-5" d="M1223.3,586.2s-1.2-14.6,12.2-8.2C1235.4,577.9,1236.1,588.9,1223.3,586.2Z"/><circle class="cls-6" cx="1229.2" cy="580.8" r="4.3"/><path d="M1226,572.9h17.7a1.58,1.58,0,0,1,1.6,1.56h0a1.58,1.58,0,0,1-1.56,1.6H1226a1.58,1.58,0,0,1-1.6-1.56h0A1.66,1.66,0,0,1,1226,572.9Z"/><path class="cls-1" d="M1211.4,588.5a4.6,4.6,0,0,0-.4.8c-1,1.7-3.6,5.7-5.7,6.7h6.1"/><path class="cls-7" d="M1181.1,561s-5.8-39.1,17.7-43.4h38.1s16.4.5,21.2,19V561Z"/><path class="cls-8" d="M1219.2,514s-2.7-.3-2.5,2.8h5.8S1222.7,513.8,1219.2,514Z"/><path class="cls-8" d="M1258,551.1h33.9s-.1,8.8-8,9.5l-25.9.4Z"/><path class="cls-8" d="M1180.6,545.9s6.4-2,8.8,4v11l-8.3-.3Z"/><polygon class="cls-9" points="1181 558.4 1189.4 558.4 1189.4 561 1181.1 561 1181 558.4"/><path class="cls-5" d="M1188.1,577.2s11.3-9.3,13.7,5.3C1201.8,582.5,1193.1,589.3,1188.1,577.2Z"/><circle class="cls-6" cx="1195.8" cy="579" r="4.3"/><path d="M1188.2,571h17.7a1.58,1.58,0,0,1,1.6,1.56h0a1.58,1.58,0,0,1-1.56,1.6H1188.2a1.58,1.58,0,0,1-1.6-1.56h0a1.58,1.58,0,0,1,1.56-1.6h0Z"/><path class="cls-11" d="M1176.8,677.2l2.3,101.1v2.1l.6,26.3,74.2-5.9-2-118.7s12.7-5.9,12.7,7.9l5.8,42.5s2,7.9-5.8,6.9l-31.2-4-1,16.8,38.1,4s23.4,4,17.6-27.7l-9.8-51.4s-2.9-30.7-36.1-29.7c0,0-17.6,33.6-59.5,0,0,0-43.9-7.9-40,24.7l12,94.3,14.6,34.4,14.6-8.8-.5-1.5-10.2-28.9-6.8-84.5Z"/><path class="cls-12" d="M1225.5,727.4a1,1,0,0,1-.5,1.1.67.67,0,0,1-.4.7s.3,1.1-.2,1.5a13.51,13.51,0,0,1-.7,3.5l-.8,6.9s-.3,2.6-.7,2.9a8.49,8.49,0,0,1-.5,3.2s.1,3-.8,3.6v1.1s-.5,1.9-10.1,1.4c0,0-6.7-.1-5.5-2.8,0,0-.7-.5-.8-6.3,0,0-.3-.1-.8-6.9,0,0-.4-.7-.5-3.9,0,0-.3-.2-.1-.7,0,0-.5,0-.4-2.4,0,0-.4.3-.3-1.5a1.12,1.12,0,0,1-.3-.8s-.5.1-.4-.8Z"/><ellipse class="cls-13" cx="1213.7" cy="727.5" rx="11.9" ry="1.7"/><path class="cls-2" d="M1229.3,739.6l-2,.3-19.3,2.9s-3.1,2.7,1,2.4l9.7-1.5.9-.2-13,2.6a1.84,1.84,0,0,0,.9,2.4h.1c1.7.7,13-2.6,13-2.6l-11.3,3.3a1.84,1.84,0,0,0,.9,2.4h.1c1.7.7,11.3-3.3,11.3-3.3l1.7.7-5.3,3.2s.3,2.8,2.1,1.5l18.9-4.3,2.8-6.8s-7.7-4.7-13.4-7.8h-.3l-.5,1.5Z"/><path class="cls-10" d="M1230.4,616.8a12.35,12.35,0,0,0,10.3-5.7s1.7,6.6-2.8,7A12.89,12.89,0,0,1,1230.4,616.8Z"/><path class="cls-2" d="M1184,810.3l1.5,7.5c.9,5.8-1.8,2.4-1.8,2.4-1.7.6-5.8-21.4-5.8-21.4l6.9-2.5,15.9,11.1"/><polygon class="cls-11" points="1171.3 798 1173.3 802.9 1188 794.1 1186.6 790.1 1171.3 798"/><path class="cls-2" d="M1545.6,624.2v16.3l-19.7,10.9c36.5,32.6,59,0,59,0l-19.7-10.9V624.2"/><polygon class="cls-3" points="1523.1 808.3 1598.1 801.6 1612.8 983.6 1571.6 983.6 1567.1 886.5 1564.8 888 1567.1 983.6 1532.1 983.6 1523.1 808.3"/><ellipse class="cls-4" cx="1562.3" cy="834.6" rx="2.4" ry="3"/><ellipse class="cls-4" cx="1562.3" cy="845.4" rx="2.4" ry="3"/><path class="cls-4" d="M1558.7,831.5s-2.8,33.6,6.4,27.4v3.8s-9.1,7-9.3-30.2Z"/><polygon class="cls-5" points="1607.2 982.2 1604.7 982.5 1594.6 815.8 1597.2 815.6 1607.2 982.2"/><polygon class="cls-5" points="1600.9 982.2 1598.4 982.5 1588.3 815.8 1590.8 815.6 1600.9 982.2"/><path d="M1607.5,980.9s24.2-4,25.6,7.5l1.4,11.5h-60.9l.6-19.1Z"/><path d="M1530.3,980.9s-24.2-4-25.6,7.5l-1.4,11.5h60.9l-.6-19.1Z"/><circle class="cls-2" cx="1557.1" cy="586.9" r="44.6"/><path class="cls-5" d="M1561.9,587.6s-1.2-14.5,12.1-8.2C1574,579.4,1574.6,590.3,1561.9,587.6Z"/><circle class="cls-6" cx="1567.8" cy="582.3" r="4.2"/><path d="M1564.7,574.4h17.6a1.58,1.58,0,0,1,1.6,1.56h0a1.58,1.58,0,0,1-1.56,1.6H1564.7a1.58,1.58,0,0,1-1.6-1.56h0a1.58,1.58,0,0,1,1.56-1.6h0Z"/><path class="cls-1" d="M1550.1,589.9a4.6,4.6,0,0,0-.4.8c-1,1.7-3.5,5.6-5.6,6.7h6.1"/><path class="cls-7" d="M1520.1,562.6s-5.8-38.8,17.6-43h37.8s16.3.5,21,18.9v24.1Z"/><path class="cls-8" d="M1557.9,516s-2.6-.3-2.5,2.8h5.7S1561.3,515.8,1557.9,516Z"/><path class="cls-8" d="M1596.4,552.8H1630s-.1,8.8-7.9,9.4l-25.7.3Z"/><path class="cls-8" d="M1519.6,547.7s6.4-2,8.8,4v11l-8.3-.3Z"/><polygon class="cls-9" points="1520 560.1 1528.3 560.1 1528.3 562.6 1520.1 562.6 1520 560.1"/><path class="cls-5" d="M1527.1,578.7s11.2-9.3,13.6,5.3C1540.6,583.9,1532,590.7,1527.1,578.7Z"/><circle class="cls-6" cx="1534.7" cy="580.5" r="4.2"/><path d="M1527.2,572.5h17.6a1.58,1.58,0,0,1,1.6,1.56h0a1.58,1.58,0,0,1-1.56,1.6H1527.2a1.58,1.58,0,0,1-1.6-1.56h0a1.58,1.58,0,0,1,1.56-1.6h0Z"/><path class="cls-10" d="M1569,617.9a12.31,12.31,0,0,0,10.2-5.6s1.7,6.5-2.8,7A12.76,12.76,0,0,1,1569,617.9Z"/><path class="cls-2" d="M1464.1,739.8s-13.8-17.4-15-16c0,0-4-1.7-.5,2.9l4.8,5.9-20.9-4.1s-3.8,1.5.1,2.6l9.5,1.9.9.2-13-1.9a1.75,1.75,0,0,0,.07,2.47h.1c1.3,1.2,13,1.9,13,1.9l-11.7-.7a1.75,1.75,0,0,0,.07,2.47h.1c1.3,1.2,11.7.7,11.7.7l1.4,1.2-6,1.3s-.7,2.8,1.4,2.1l19.1,2.4Z"/><path class="cls-11" d="M1515.8,677.8l2.3,100.3v2.1l.6,26.1,73.6-5.9-1.9-117.7s12.6-5.9,12.6,7.8l5.8,42.2s1.9,7.8-5.8,6.9l-31-3.9-1,16.7,37.8,3.9s23.2,3.9,17.4-27.5l-9.7-51s-2.9-30.4-35.8-29.4c0,0-17.4,33.3-59,0,0,0-22-3.7-27.8,5.9l-8.7,41.6-2.9,18.4-6.8,18.4h-23.2v16.5h23.2s16.5,1,20.3-2.9Z"/><path class="cls-12" d="M1575.7,730.6a1,1,0,0,1-.5,1.1.67.67,0,0,1-.4.7s.3,1.1-.2,1.5a19,19,0,0,1-.6,3.5l-.8,6.8s-.3,2.6-.7,2.9a11.51,11.51,0,0,1-.4,3.2s.1,2.9-.8,3.6V755s-.5,1.9-10,1.4c0,0-6.7-.1-5.4-2.8,0,0-.7-.5-.8-6.2,0,0-.3-.1-.8-6.8,0,0-.4-.7-.5-3.8,0,0-.3-.2-.1-.7,0,0-.5,0-.4-2.4,0,0-.4.3-.3-1.5a1.12,1.12,0,0,1-.3-.8s-.4.1-.4-.8Z"/><ellipse class="cls-13" cx="1564" cy="730.6" rx="11.8" ry="1.7"/><path class="cls-2" d="M1579.5,742.7l-2,.3-19.1,2.9s-3.1,2.7,1,2.4l9.6-1.5.9-.1-12.9,2.6a1.69,1.69,0,0,0,.79,2.25l.11.05h.1c1.7.7,12.9-2.6,12.9-2.6l-11.2,3.3a1.84,1.84,0,0,0,.9,2.4h.1c1.7.7,11.2-3.3,11.2-3.3l1.7.7-5.2,3.2s.3,2.8,2.1,1.5l18.8-4.2,2.8-6.8s-7.6-4.7-13.3-7.7h-.3l-.5,1.5Z"/><path class="cls-18" d="M1432.1,721.7l16.9-5.9a.87.87,0,0,1,1,.5l7.6,21.6a.87.87,0,0,1-.5,1l-16.9,5.9a.87.87,0,0,1-1-.5l-7.6-21.6A.83.83,0,0,1,1432.1,721.7Z"/><path class="cls-19" d="M1458.9,741.5l-4.7-15.5-4.3-12.6c-1.8-4-5.7-1.8-5.7-1.8l-11.1,4c-5,1.1-2.9,5.4-2.9,5.4l9.3,27a3.9,3.9,0,0,0,5,1.8l12.2-4.7,1.4-.5-.7-1.6"/><path class="cls-20" d="M1433.1,715.6l1.4,3.6,9,24.4,4.5,4.8-3.4,1.3a3.9,3.9,0,0,1-5-1.8l-9.3-27C1430.2,721,1428,716.7,1433.1,715.6Z"/><path class="cls-21" d="M1438.8,716.4l2.7-.8c.2-.1.4,0,.4.2h0c.1.2,0,.4-.2.4l-2.7.8c-.2.1-.4,0-.4-.2h0C1438.5,716.7,1438.6,716.5,1438.8,716.4Z"/><circle class="cls-21" cx="1454.1" cy="746.5" r="1.3"/><path class="cls-19" d="M1454.2,726l5.2,14,.2.6s1.6,2.9-1.9,4.1Z"/><rect class="cls-22" x="1435.48" y="718.39" width="18.1" height="23.4" transform="translate(-160.12 518.47) rotate(-19.3)"/><path class="cls-2" d="M1456.7,732.4l-3.5,2.3s-1.9,0-1-2.3l3.7-2.6Z"/><path class="cls-2" d="M160.6,1126.2v16.3l-19.7,10.9c36.5,32.6,59,0,59,0l-19.6-10.9v-16.3"/><polygon class="cls-3" points="135.1 1308.3 210.1 1301.6 224.8 1483.6 183.6 1483.6 179.1 1386.5 176.8 1388 179.1 1483.6 144.1 1483.6 135.1 1308.3"/><ellipse class="cls-4" cx="177.3" cy="1336.6" rx="2.4" ry="3"/><ellipse class="cls-4" cx="177.3" cy="1347.4" rx="2.4" ry="3"/><path class="cls-4" d="M173.7,1333.5s-2.8,33.6,6.4,27.4v3.8s-9.1,7-9.3-30.2Z"/><polygon class="cls-5" points="219.2 1482.2 216.7 1482.5 206.6 1315.8 209.1 1315.6 219.2 1482.2"/><polygon class="cls-5" points="212.9 1482.2 210.4 1482.5 200.3 1315.8 202.8 1315.6 212.9 1482.2"/><path d="M222.5,1482.9s24.2-4,25.6,7.6l1.4,11.5H188.6l.6-19.1Z"/><path d="M145.3,1482.9s-24.2-4-25.6,7.6l-1.4,11.5h60.9l-.6-19.1Z"/><circle class="cls-2" cx="172.09" cy="1088.83" r="44.6" transform="translate(-928.46 1151.59) rotate(-84.28)"/><path class="cls-5" d="M176.9,1089.6s-1.2-14.5,12.1-8.2C189,1081.4,189.6,1092.3,176.9,1089.6Z"/><circle class="cls-6" cx="182.8" cy="1084.3" r="4.2"/><path d="M179.7,1076.4h17.6a1.58,1.58,0,0,1,1.6,1.56h0a1.58,1.58,0,0,1-1.56,1.6H179.7a1.58,1.58,0,0,1-1.6-1.56h0a1.58,1.58,0,0,1,1.56-1.6h0Z"/><path class="cls-1" d="M165.1,1091.9a4.6,4.6,0,0,0-.4.8c-1,1.7-3.5,5.6-5.6,6.7h6.1"/><path class="cls-7" d="M135.1,1064.6s-5.8-38.8,17.6-43h37.8s16.3.5,21,18.9v24.1Z"/><path class="cls-8" d="M172.9,1018s-2.6-.3-2.5,2.8h5.7S176.3,1017.8,172.9,1018Z"/><path class="cls-8" d="M211.4,1054.8H245s-.1,8.8-7.9,9.4l-25.7.3Z"/><path class="cls-8" d="M134.6,1049.7s6.4-2,8.8,3.9v11l-8.3-.3Z"/><polygon class="cls-9" points="135 1062.1 143.3 1062.1 143.3 1064.6 135.1 1064.6 135 1062.1"/><path class="cls-5" d="M142.1,1080.7s11.2-9.3,13.6,5.3C155.6,1085.9,147,1092.7,142.1,1080.7Z"/><circle class="cls-6" cx="149.7" cy="1082.5" r="4.2"/><path d="M142.2,1074.5h17.6a1.58,1.58,0,0,1,1.6,1.56h0a1.58,1.58,0,0,1-1.56,1.6H142.2a1.58,1.58,0,0,1-1.6-1.56h0a1.58,1.58,0,0,1,1.56-1.6h0Z"/><path class="cls-10" d="M184,1119.9a12.31,12.31,0,0,0,10.2-5.6s1.7,6.5-2.8,7A12.76,12.76,0,0,1,184,1119.9Z"/><path class="cls-2" d="M83.4,1195.6s-6.3-21.3-8-20.5c0,0-3-3.1-1.6,2.6l2.3,7.3-17.9-11.6s-4.1,0-.8,2.4l8.1,5.3.8.5L55,1175a1.84,1.84,0,0,0-.9,2.4v.1c.8,1.6,11.4,6.6,11.4,6.6l-10.6-5a1.84,1.84,0,0,0-.9,2.4v.1c.8,1.6,10.6,5,10.6,5l.8,1.6-6-1.1s-1.7,2.3.6,2.5l16.8,9.3Z"/><path class="cls-11" d="M118.5,1225.6l13.4-45.7,2.3,100.3v2.1l.6,26.1,73.6-5.9-1.9-117.7s12.6-5.9,12.6,7.8l5.8,42.2s1.9,7.8-5.8,6.9l-31-3.9-1,16.7,37.8,3.9s23.2,3.9,17.4-27.5l-9.7-51s-2.9-30.4-35.8-29.4c0,0-17.4,33.3-59,0,0,0-22-3.7-27.8,5.9l-8.7,41.6-2.9,18.4L79,1187l-13,8,15,29S98.9,1255.1,118.5,1225.6Z"/><path class="cls-12" d="M191.7,1232.6a1,1,0,0,1-.5,1.1.67.67,0,0,1-.4.7s.3,1.1-.2,1.5a19,19,0,0,1-.6,3.5l-.8,6.8s-.3,2.6-.7,2.9a11.51,11.51,0,0,1-.4,3.2s.1,2.9-.8,3.6v1.1s-.5,1.9-10,1.4c0,0-6.6-.1-5.4-2.8,0,0-.6-.4-.8-6.2,0,0-.3-.1-.8-6.8,0,0-.4-.7-.5-3.8,0,0-.3-.2-.1-.7,0,0-.5,0-.4-2.4,0,0-.4.3-.3-1.5a1.12,1.12,0,0,1-.3-.8s-.4.1-.4-.8Z"/><ellipse class="cls-13" cx="180" cy="1232.6" rx="11.8" ry="1.7"/><path class="cls-2" d="M191.5,1242.7l-2,.3-19.1,2.9s-3.1,2.7,1,2.4l9.6-1.5.9-.1-12.9,2.6a1.69,1.69,0,0,0,.79,2.25H170c1.7.7,12.9-2.6,12.9-2.6l-11.2,3.3a1.84,1.84,0,0,0,.9,2.4h.1c1.7.7,11.2-3.3,11.2-3.3l1.7.7-5.2,3.2s.3,2.8,2.1,1.5l18.8-4.2,2.8-6.8s-7.6-4.7-13.3-7.7h-.3l-.5,1.5Z"/><path class="cls-19" d="M80.1,1194l-2-16L76,1164.9c-1.1-4.2-5.4-2.7-5.4-2.7l-11.6,2c-5.1.2-3.8,4.8-3.8,4.8l4.6,28.1a3.89,3.89,0,0,0,4.7,2.6l12.8-2.5,1.4-.3-.4-1.7"/><path class="cls-20" d="M58.9,1164.1l.8,3.8,4.7,25.6L68,1199l-3.6.7a4,4,0,0,1-4.7-2.6L55.1,1169C55.2,1168.9,53.8,1164.3,58.9,1164.1Z"/><path class="cls-21" d="M70,1163l2.8-.4c.2,0,.4.1.4.3h0c0,.2-.1.4-.3.4l-2.8.4c-.2,0-.4-.1-.4-.3h0C69.7,1163.2,69.8,1163,70,1163Z"/><circle class="cls-21" cx="70.8" cy="1195.5" r="1.3"/><path class="cls-19" d="M78.1,1177.9l2.7,14.7.1.6s1,3.1-2.6,3.7Z"/><path class="cls-18" d="M57,1169.8l17.7-3a.78.78,0,0,1,.9.6l3.8,22.6a.78.78,0,0,1-.6.9l-17.7,3a.78.78,0,0,1-.9-.6l-3.8-22.6A.81.81,0,0,1,57,1169.8Z"/><rect class="cls-22" x="58.79" y="1168.45" width="18.1" height="23.4" transform="translate(-194.86 27.61) rotate(-9.55)"/><path class="cls-23" d="M64.4,1177.2l5.5-1a1.63,1.63,0,0,1,1.89,1.3v.1l.6,3.6a1.63,1.63,0,0,1-1.3,1.89H71l-5.5,1a1.63,1.63,0,0,1-1.89-1.3v-.1l-.6-3.6a1.56,1.56,0,0,1,1.17-1.87Z"/><circle class="cls-24" cx="67.8" cy="1180" r="2"/><circle class="cls-25" cx="67.8" cy="1180" r="1.3"/><rect class="cls-23" x="64.4" y="1175.67" width="1.8" height="1.3" transform="translate(-199.87 28.42) rotate(-9.83)"/><path class="cls-2" d="M79.4,1184.7l-3.8,1.7s-1.9-.3-.6-2.4l4.1-1.9Z"/><line class="cls-14" x1="441" y1="1149" x2="422" y2="1155"/><path class="cls-2" d="M513.6,1125.2v16.3l-19.7,10.9c36.5,32.6,59,0,59,0l-19.7-10.9v-16.3"/><path class="cls-2" d="M437.9,1157.9s-.4-22.2-2.2-21.9c0,0-2.1-3.8-2.2,2l.3,7.6-14.1-16s-3.9-1.1-1.5,2.1l6.4,7.3.6.7-9.2-9.4a1.87,1.87,0,0,0-1.5,2.1v.1c.3,1.8,9.2,9.4,9.2,9.4l-8.9-7.7a1.87,1.87,0,0,0-1.5,2.1v.1c.3,1.8,8.9,7.7,8.9,7.7l.3,1.8-5.5-2.7s-2.2,1.8-.1,2.6l13.7,13.5Z"/><path class="cls-19" d="M441.1,1150.9l-3.3-15.8-3.2-12.9c-1.5-4.1-5.6-2.3-5.6-2.3l-11.4,3c-5.1.6-3.3,5.1-3.3,5.1l7,27.7a3.9,3.9,0,0,0,4.9,2.2l12.6-3.6,1.4-.4-.5-1.7"/><path class="cls-20" d="M417.6,1122.9l1.1,3.7,6.8,25.1,4,5.2-3.5,1a3.93,3.93,0,0,1-4.9-2.2l-7-27.7C414.2,1128,412.5,1123.6,417.6,1122.9Z"/><path class="cls-21" d="M423.2,1124.2l2.8-.6c.2,0,.4.1.4.3h0c0,.2-.1.4-.3.4l-2.8.6c-.2,0-.4-.1-.4-.3h0C422.9,1124.4,423,1124.2,423.2,1124.2Z"/><circle class="cls-21" cx="432.1" cy="1153.2" r="1.3"/><path class="cls-19" d="M437.8,1135.1l4,14.4.2.6s1.3,3-2.3,3.9Z"/><path class="cls-18" d="M416.1,1128.8l17.3-4.4a.71.71,0,0,1,.89.47h0l5.7,22.2a.71.71,0,0,1-.47.89h0l-17.3,4.4a.71.71,0,0,1-.89-.47h0l-5.7-22.2a.65.65,0,0,1,.34-.85h0Z"/><rect class="cls-22" x="418.71" y="1126.58" width="18.1" height="23.4" transform="translate(-269.12 141.77) rotate(-14.37)"/><path class="cls-23" d="M424.2,1135.5l5.4-1.4a1.64,1.64,0,0,1,2,1.15v0h0l.9,3.5a1.64,1.64,0,0,1-1.15,2h0l-5.4,1.4a1.64,1.64,0,0,1-2-1.15v0h0l-.9-3.5a1.57,1.57,0,0,1,1-2h.19Z"/><circle class="cls-24" cx="427.7" cy="1138" r="2"/><circle class="cls-25" cx="427.7" cy="1138" r="1.3"/><rect class="cls-23" x="424.07" y="1133.85" width="1.8" height="1.3" transform="translate(-273.29 144.49) rotate(-14.66)"/><path class="cls-2" d="M439.7,1141.7l-3.7,2s-1.9-.2-.8-2.3l3.9-2.2Z"/><polygon class="cls-3" points="488.1 1307.3 563.1 1300.6 577.8 1482.6 536.6 1482.6 532.1 1385.5 529.8 1387 532.1 1482.6 497.1 1482.6 488.1 1307.3"/><ellipse class="cls-4" cx="530.3" cy="1335.6" rx="2.4" ry="3"/><ellipse class="cls-4" cx="530.3" cy="1346.4" rx="2.4" ry="3"/><path class="cls-4" d="M526.7,1332.5s-2.8,33.6,6.4,27.4v3.8s-9.1,7-9.3-30.2Z"/><polygon class="cls-5" points="572.2 1481.2 569.7 1481.5 559.6 1314.8 562.2 1314.6 572.2 1481.2"/><polygon class="cls-5" points="565.9 1481.2 563.4 1481.5 553.3 1314.8 555.8 1314.6 565.9 1481.2"/><path d="M575.5,1481.9s24.2-4,25.6,7.6l1.4,11.5H541.6l.6-19.1Z"/><path d="M498.3,1481.9s-24.2-4-25.6,7.6l-1.4,11.5h60.9l-.6-19.1Z"/><path class="cls-11" d="M454.2,1197l8.7-41.6c5.8-9.7,27.8-5.9,27.8-5.9,41.6,33.3,59.1,0,59.1,0,32.9-1,35.8,29.4,35.8,29.4l9.7,51c5.8,31.4-17.4,27.5-17.4,27.5l-37.8-3.9,1-16.7,31,3.9c7.7,1,5.8-6.9,5.8-6.9l-5.8-42.2c0-13.7-12.6-7.8-12.6-7.8l1.9,117.7-73.6,5.9-.6-26.1v-2.1l-2.3-100.3-6,20.5c-11.4,30.2-31,19.2-38.2,13.8a29.77,29.77,0,0,1-2.8-2.2c-3,0-15-55-15-55l14-4,13,45C450,1197,452.3,1200,454.2,1197Z"/><path class="cls-12" d="M544.7,1231.6a1,1,0,0,1-.5,1.1.67.67,0,0,1-.4.7s.3,1.1-.2,1.5a19,19,0,0,1-.6,3.5l-.8,6.8s-.3,2.6-.7,2.9a8.94,8.94,0,0,1-.5,3.2s.1,2.9-.8,3.6v1.1s-.5,1.9-10,1.4c0,0-6.7-.1-5.4-2.8,0,0-.7-.4-.8-6.2,0,0-.3-.1-.8-6.8,0,0-.4-.7-.5-3.8,0,0-.3-.2-.1-.7,0,0-.5,0-.4-2.4,0,0-.4.3-.3-1.5a1.12,1.12,0,0,1-.3-.8s-.5.1-.4-.8Z"/><ellipse class="cls-13" cx="533" cy="1231.6" rx="11.8" ry="1.7"/><path class="cls-2" d="M544.5,1241.7l-2,.3-19.1,2.9s-3.1,2.7,1,2.4l9.6-1.5.9-.1-12.9,2.6a1.69,1.69,0,0,0,.79,2.25H523c1.7.7,12.9-2.6,12.9-2.6l-11.2,3.3a1.84,1.84,0,0,0,.9,2.4h.1c1.7.7,11.2-3.3,11.2-3.3l1.7.7-5.2,3.2s.3,2.8,2.1,1.5l18.8-4.2,2.8-6.8s-7.6-4.7-13.3-7.7h-.3l-.5,1.5Z"/><path class="cls-2" d="M916.6,1124.2v16.3l-19.7,10.9c36.5,32.6,59,0,59,0l-19.7-10.9v-16.3"/><circle class="cls-2" cx="928.1" cy="1086.9" r="44.6"/><path class="cls-5" d="M932.9,1085.6s-1.2-14.5,12.1-8.2C945,1077.4,945.6,1088.3,932.9,1085.6Z"/><circle class="cls-6" cx="938.8" cy="1080.3" r="4.2"/><path d="M934.7,1075.4h17.5a1.58,1.58,0,0,1,1.6,1.56h0a1.58,1.58,0,0,1-1.56,1.6H934.7a1.58,1.58,0,0,1-1.6-1.56h0a1.58,1.58,0,0,1,1.56-1.6h0Z"/><path class="cls-1" d="M921.1,1089.9a4.6,4.6,0,0,0-.4.8c-1,1.7-3.5,5.6-5.6,6.7h6.1"/><path class="cls-7" d="M891.1,1062.6s-5.8-38.8,17.6-43h37.8s16.3.5,21,18.9v24.1Z"/><path class="cls-8" d="M928.9,1016s-2.6-.3-2.5,2.8h5.7S932.3,1015.8,928.9,1016Z"/><path class="cls-8" d="M967.4,1052.8H1001s-.1,8.8-7.9,9.4l-25.7.3Z"/><path class="cls-8" d="M890.6,1047.7s6.4-2,8.8,3.9v11l-8.3-.3Z"/><polygon class="cls-9" points="891 1060.1 899.3 1060.1 899.3 1062.6 891.1 1062.6 891 1060.1"/><path class="cls-5" d="M898.9,1084.7s.1-14.5,12.8-7C911.7,1077.7,911.3,1088.6,898.9,1084.7Z"/><circle class="cls-6" cx="905.2" cy="1080" r="4.2"/><path d="M901.2,1074.5h17.5a1.58,1.58,0,0,1,1.6,1.56h0a1.58,1.58,0,0,1-1.56,1.6H901.2a1.58,1.58,0,0,1-1.6-1.56h0a1.58,1.58,0,0,1,1.56-1.6h0Z"/><path class="cls-10" d="M940,1117.9a12.31,12.31,0,0,0,10.2-5.6s1.7,6.5-2.8,7A12.76,12.76,0,0,1,940,1117.9Z"/><path class="cls-2" d="M840.9,1156.9s-.4-22.2-2.2-21.9c0,0-2.1-3.8-2.2,2l.3,7.6-14.1-16s-3.9-1.1-1.5,2.1l6.4,7.3.6.7-9.2-9.4a1.87,1.87,0,0,0-1.5,2.1v.1c.3,1.8,9.2,9.4,9.2,9.4l-8.8-7.7a1.87,1.87,0,0,0-1.5,2.1v.1c.3,1.8,8.8,7.7,8.8,7.7l.3,1.8-5.5-2.7s-2.2,1.8-.1,2.6l13.7,13.5Z"/><path class="cls-19" d="M844.1,1149.9l-3.3-15.8-3.2-12.9c-1.5-4.1-5.6-2.3-5.6-2.3l-11.4,3c-5.1.6-3.3,5.1-3.3,5.1l7,27.7a3.82,3.82,0,0,0,4.8,2.2l12.6-3.6,1.4-.4-.5-1.7"/><path class="cls-20" d="M820.6,1121.9l1.1,3.7,6.8,25.1,4,5.2-3.5,1a3.79,3.79,0,0,1-4.8-2.2l-7-27.7S815.5,1122.6,820.6,1121.9Z"/><path class="cls-21" d="M826.2,1123.2l2.8-.6c.2,0,.4.1.4.3h0c0,.2-.1.4-.3.4l-2.8.6c-.2,0-.4-.1-.4-.3h0C825.9,1123.4,826,1123.2,826.2,1123.2Z"/><circle class="cls-21" cx="835.1" cy="1152.2" r="1.3"/><path class="cls-19" d="M840.8,1134.1l4,14.4.2.6s1.3,3-2.3,3.9Z"/><path class="cls-18" d="M819.1,1127.8l17.3-4.4a.71.71,0,0,1,.89.47h0l5.7,22.2a.71.71,0,0,1-.47.89h0l-17.3,4.4a.71.71,0,0,1-.89-.47h0l-5.7-22.2a.65.65,0,0,1,.34-.85h0Z"/><rect class="cls-22" x="821.7" y="1125.59" width="18.1" height="23.4" transform="translate(-256.26 241.76) rotate(-14.37)"/><path class="cls-23" d="M827.2,1134.4l5.4-1.4a1.64,1.64,0,0,1,2,1.15v0h0l.9,3.5a1.64,1.64,0,0,1-1.15,2h0l-5.4,1.4a1.64,1.64,0,0,1-2-1.15v0h0l-.9-3.5a1.65,1.65,0,0,1,1.2-2Z"/><circle class="cls-24" cx="830.7" cy="1137" r="2"/><circle class="cls-25" cx="830.7" cy="1137" r="1.3"/><rect class="cls-23" x="825.71" y="1138.4" width="1.8" height="1.3" transform="translate(-258.08 242.3) rotate(-14.45)"/><path class="cls-2" d="M842.7,1140.7l-3.7,2s-1.9-.2-.8-2.3l3.9-2.2Z"/><polygon class="cls-3" points="891.1 1306.3 966.1 1299.6 980.8 1481.6 939.6 1481.6 935.1 1384.5 932.8 1386 935.1 1481.6 900.1 1481.6 891.1 1306.3"/><ellipse class="cls-4" cx="933.3" cy="1334.6" rx="2.4" ry="3"/><ellipse class="cls-4" cx="933.3" cy="1345.4" rx="2.4" ry="3"/><path class="cls-4" d="M929.7,1331.5s-2.8,33.6,6.4,27.4v3.8s-9.1,7-9.3-30.2Z"/><polygon class="cls-5" points="975.2 1480.2 972.7 1480.5 962.6 1313.8 965.2 1313.6 975.2 1480.2"/><polygon class="cls-5" points="968.9 1480.2 966.4 1480.5 956.3 1313.8 958.8 1313.6 968.9 1480.2"/><path d="M978.5,1480.9s24.2-4,25.6,7.6l1.4,11.5H944.6l.6-19.1Z"/><path d="M901.3,1480.9s-24.2-4-25.6,7.6l-1.4,11.5h60.9l-.6-19.1Z"/><path class="cls-11" d="M857.2,1196l8.7-41.6c5.8-9.7,27.8-5.9,27.8-5.9,41.6,33.3,59,0,59,0,32.9-1,35.8,29.4,35.8,29.4l9.7,51c5.8,31.4-17.4,27.5-17.4,27.5l-37.8-3.9,1-16.7,31,3.9c7.7,1,5.8-6.9,5.8-6.9l-5.8-42.2c0-13.7-12.6-7.8-12.6-7.8l1.9,117.7-73.6,5.9-.6-26.1v-2.1l-2.3-100.3-6,20.5c-11.4,30.2-31,19.2-38.2,13.8a29.77,29.77,0,0,1-2.8-2.2c-3,0-15-55-15-55l14-4,13,45C853,1196,855.3,1199,857.2,1196Z"/><path class="cls-12" d="M947.7,1230.6a1,1,0,0,1-.5,1.1.67.67,0,0,1-.4.7s.3,1.1-.2,1.5a19,19,0,0,1-.6,3.5l-.8,6.8s-.3,2.6-.7,2.9a8.94,8.94,0,0,1-.5,3.2s.1,2.9-.8,3.6v1.1s-.5,1.9-10,1.4c0,0-6.7-.1-5.4-2.8,0,0-.7-.4-.8-6.2,0,0-.3-.1-.8-6.8,0,0-.4-.7-.5-3.8,0,0-.3-.2-.1-.7,0,0-.5,0-.4-2.4,0,0-.4.3-.3-1.5a1.12,1.12,0,0,1-.3-.8s-.5.1-.4-.8Z"/><ellipse class="cls-13" cx="936" cy="1230.6" rx="11.8" ry="1.7"/><path class="cls-2" d="M947.5,1240.7l-2,.3-19.1,2.9s-3.1,2.7,1,2.4l9.6-1.5.9-.1-12.9,2.6a1.69,1.69,0,0,0,.79,2.25H926c1.7.7,12.9-2.6,12.9-2.6l-11.2,3.3a1.84,1.84,0,0,0,.9,2.4h.1c1.7.7,11.2-3.3,11.2-3.3l1.7.7-5.2,3.2s.3,2.8,2.1,1.5l18.8-4.2,2.8-6.8s-7.6-4.7-13.3-7.7h-.3l-.5,1.5Z"/><polygon class="cls-26" points="817 1127.9 764.5 1196 791.7 1145.4 747 1170.7 782 1133.8 737.3 1141.6 778.1 1120.2 764.5 1091 817 1127.9"/><path class="cls-2" d="M1917.6,626.2v16.3l-19.7,10.9c36.5,32.6,59,0,59,0l-19.7-10.9V626.2"/><polygon class="cls-3" points="1895.1 810.3 1970.1 803.6 1984.8 985.6 1943.6 985.6 1939.1 888.5 1936.8 890 1939.1 985.6 1904.1 985.6 1895.1 810.3"/><ellipse class="cls-4" cx="1934.3" cy="836.6" rx="2.4" ry="3"/><ellipse class="cls-4" cx="1934.3" cy="847.4" rx="2.4" ry="3"/><path class="cls-4" d="M1930.7,833.5s-2.8,33.6,6.4,27.4v3.8s-9.1,7-9.3-30.2Z"/><polygon class="cls-5" points="1979.2 984.2 1976.7 984.5 1966.6 817.8 1969.2 817.6 1979.2 984.2"/><polygon class="cls-5" points="1972.9 984.2 1970.4 984.5 1960.3 817.8 1962.8 817.6 1972.9 984.2"/><path d="M1979.5,982.9s24.2-4,25.6,7.5l1.4,11.5h-60.9l.6-19.1Z"/><path d="M1902.3,982.9s-24.2-4-25.6,7.5l-1.4,11.5h60.9l-.6-19.1Z"/><circle class="cls-2" cx="1929.1" cy="588.9" r="44.6"/><path class="cls-5" d="M1933.9,589.6s-1.2-14.5,12.1-8.2C1946,581.4,1946.6,592.3,1933.9,589.6Z"/><circle class="cls-6" cx="1939.8" cy="584.3" r="4.2"/><path d="M1936.7,576.4h17.6a1.58,1.58,0,0,1,1.6,1.56h0a1.58,1.58,0,0,1-1.56,1.6H1936.7a1.58,1.58,0,0,1-1.6-1.56h0a1.58,1.58,0,0,1,1.56-1.6h0Z"/><path class="cls-1" d="M1922.1,591.9a4.6,4.6,0,0,0-.4.8c-1,1.7-3.5,5.6-5.6,6.7h6.1"/><path class="cls-7" d="M1892.1,564.6s-5.8-38.8,17.6-43h37.8s16.3.5,21,18.9v24.1Z"/><path class="cls-8" d="M1929.9,518s-2.6-.3-2.5,2.8h5.7S1933.3,517.8,1929.9,518Z"/><path class="cls-8" d="M1968.4,554.8H2002s-.1,8.8-7.9,9.4l-25.7.3Z"/><path class="cls-8" d="M1891.6,549.7s6.4-2,8.8,4v11l-8.3-.3Z"/><polygon class="cls-9" points="1892 562.1 1900.3 562.1 1900.3 564.6 1892.1 564.6 1892 562.1"/><path class="cls-5" d="M1899.1,580.7s11.2-9.3,13.6,5.3C1912.6,585.9,1904,592.7,1899.1,580.7Z"/><circle class="cls-6" cx="1906.7" cy="582.5" r="4.2"/><path d="M1899.2,574.5h17.6a1.58,1.58,0,0,1,1.6,1.56h0a1.58,1.58,0,0,1-1.56,1.6H1899.2a1.58,1.58,0,0,1-1.6-1.56h0a1.58,1.58,0,0,1,1.56-1.6h0Z"/><path class="cls-10" d="M1941,619.9a12.31,12.31,0,0,0,10.2-5.6s1.7,6.5-2.8,7A12.76,12.76,0,0,1,1941,619.9Z"/><path class="cls-2" d="M1836.1,741.8s-13.8-17.4-15-16c0,0-4-1.7-.5,2.9l4.8,5.9-20.9-4.1s-3.8,1.5.1,2.6l9.5,1.9.9.2-13-1.9a1.75,1.75,0,0,0,.07,2.47h.1c1.3,1.2,13,1.9,13,1.9l-11.7-.7a1.75,1.75,0,0,0,.07,2.47h.1c1.3,1.2,11.7.7,11.7.7l1.4,1.2-6,1.3s-.7,2.8,1.4,2.1l19.1,2.4Z"/><path class="cls-11" d="M1887.8,679.8l2.3,100.3v2.1l.6,26.1,73.6-5.9-1.9-117.7s12.6-5.9,12.6,7.8l5.8,42.2s1.9,7.8-5.8,6.9l-31-3.9-1,16.7,37.8,3.9s23.2,3.9,17.4-27.5l-9.7-51s-2.9-30.4-35.8-29.4c0,0-17.4,33.3-59,0,0,0-22-3.7-27.8,5.9l-8.7,41.6-2.9,18.4-6.8,18.4h-23.2v16.5h23.2s16.5,1,20.3-2.9Z"/><path class="cls-12" d="M1951.7,734.6a1,1,0,0,1-.5,1.1.67.67,0,0,1-.4.7s.3,1.1-.2,1.5a19,19,0,0,1-.6,3.5l-.8,6.8s-.3,2.6-.7,2.9a11.51,11.51,0,0,1-.4,3.2s.1,2.9-.8,3.6V759s-.5,1.9-10,1.4c0,0-6.7-.1-5.4-2.8,0,0-.7-.5-.8-6.2,0,0-.3-.1-.8-6.8,0,0-.4-.7-.5-3.8,0,0-.3-.2-.1-.7,0,0-.5,0-.4-2.4,0,0-.4.3-.3-1.5a1.12,1.12,0,0,1-.3-.8s-.4.1-.4-.8Z"/><ellipse class="cls-13" cx="1936" cy="732.6" rx="11.8" ry="1.7"/><path class="cls-2" d="M1951.5,744.7l-2,.3-19.1,2.9s-3.1,2.7,1,2.4l9.6-1.5.9-.1-12.9,2.6a1.69,1.69,0,0,0,.79,2.25l.11.05h.1c1.7.7,12.9-2.6,12.9-2.6l-11.2,3.3a1.84,1.84,0,0,0,.9,2.4h.1c1.7.7,11.2-3.3,11.2-3.3l1.7.7-5.2,3.2s.3,2.8,2.1,1.5l18.8-4.2,2.8-6.8s-7.6-4.7-13.3-7.7h-.3l-.5,1.5Z"/><path class="cls-19" d="M1830.9,743.5l-4.7-15.5-4.3-12.6c-1.8-4-5.7-1.8-5.7-1.8l-11.1,4c-5,1.1-2.9,5.4-2.9,5.4l9.3,27a3.9,3.9,0,0,0,5,1.8l12.2-4.7,1.4-.5-.7-1.6"/><path class="cls-20" d="M1805.1,717.6l1.4,3.6,9,24.4,4.5,4.8-3.4,1.3a3.9,3.9,0,0,1-5-1.8l-9.3-27C1802.2,723,1800,718.7,1805.1,717.6Z"/><path class="cls-21" d="M1810.8,718.4l2.7-.8c.2-.1.4,0,.4.2h0c.1.2,0,.4-.2.4l-2.7.8c-.2.1-.4,0-.4-.2h0C1810.5,718.7,1810.6,718.5,1810.8,718.4Z"/><circle class="cls-21" cx="1826.1" cy="748.5" r="1.3"/><path class="cls-19" d="M1826.2,728l5.2,14,.2.6s1.6,2.9-1.9,4.1Z"/><path class="cls-18" d="M1804.1,723.7l16.9-5.9a.87.87,0,0,1,1,.5l7.6,21.6a.87.87,0,0,1-.5,1l-16.9,5.9a.87.87,0,0,1-1-.5l-7.6-21.6A.83.83,0,0,1,1804.1,723.7Z"/><rect class="cls-22" x="1807.5" y="720.48" width="18.1" height="23.4" transform="translate(-139.91 641.54) rotate(-19.3)"/><path class="cls-23" d="M1812.7,729.6l5.3-1.9a1.6,1.6,0,0,1,2.07.91v.09l1.2,3.4a1.6,1.6,0,0,1-.91,2.07h-.09l-5.3,1.9a1.6,1.6,0,0,1-2.07-.91v-.09l-1.2-3.4a1.6,1.6,0,0,1,.91-2.07Z"/><circle class="cls-24" cx="1816.5" cy="731.8" r="2"/><circle class="cls-25" cx="1816.5" cy="731.8" r="1.3"/><rect class="cls-23" x="1812.47" y="727.91" width="1.8" height="1.3" transform="translate(-139.31 650.17) rotate(-19.59)"/><path class="cls-2" d="M1832.7,736.4l-3.5,2.3s-1.9,0-1-2.3l3.7-2.6Z"/><circle class="cls-2" cx="522.1" cy="1087.9" r="44.6"/><path class="cls-5" d="M526.9,1086.6s-1.2-14.5,12.1-8.2C539,1078.4,539.6,1089.3,526.9,1086.6Z"/><circle class="cls-6" cx="532.8" cy="1081.3" r="4.2"/><path d="M528.7,1076.4h17.5a1.58,1.58,0,0,1,1.6,1.56h0a1.58,1.58,0,0,1-1.56,1.6H528.7a1.58,1.58,0,0,1-1.6-1.56h0a1.58,1.58,0,0,1,1.56-1.6h0Z"/><path class="cls-1" d="M515.1,1090.9a4.6,4.6,0,0,0-.4.8c-1,1.7-3.5,5.6-5.6,6.7h6.1"/><path class="cls-7" d="M485.1,1063.6s-5.8-38.8,17.6-43h37.8s16.3.5,21,18.9v24.1Z"/><path class="cls-8" d="M522.9,1017s-2.6-.3-2.5,2.8h5.7S526.3,1016.8,522.9,1017Z"/><path class="cls-8" d="M561.4,1053.8H595s-.1,8.8-7.9,9.4l-25.7.3Z"/><path class="cls-8" d="M484.6,1048.7s6.4-2,8.8,3.9v11l-8.3-.3Z"/><polygon class="cls-9" points="485 1061.1 493.3 1061.1 493.3 1063.6 485.1 1063.6 485 1061.1"/><path class="cls-5" d="M492.9,1085.7s.1-14.5,12.8-7C505.7,1078.7,505.3,1089.6,492.9,1085.7Z"/><circle class="cls-6" cx="499.2" cy="1081" r="4.2"/><path d="M495.2,1075.5h17.5a1.58,1.58,0,0,1,1.6,1.56h0a1.58,1.58,0,0,1-1.56,1.6H495.2a1.58,1.58,0,0,1-1.6-1.56h0a1.58,1.58,0,0,1,1.56-1.6h0Z"/><path class="cls-10" d="M534,1118.9a12.31,12.31,0,0,0,10.2-5.6s1.7,6.5-2.8,7A12.76,12.76,0,0,1,534,1118.9Z"/><path class="cls-2" d="M122.6,1825.2v16.3l-19.7,10.9c36.5,32.6,59,0,59,0l-19.6-10.9v-16.3"/><circle class="cls-2" cx="134.1" cy="1787.77" r="44.6" transform="translate(-1658.14 1743.11) rotate(-84.28)"/><path class="cls-2" d="M224,1895.8s-1.9-22.1-.1-22c0,0,1.7-4,2.4,1.8l.6,7.6,12.4-17.3s3.8-1.5,1.7,2l-5.6,7.9-.5.8,8.1-10.3a1.87,1.87,0,0,1,1.7,1.9v.1c-.1,1.8-8.1,10.3-8.1,10.3l8-8.5a1.87,1.87,0,0,1,1.7,1.9v.1c-.1,1.8-8,8.5-8,8.5l-.1,1.8,5.2-3.2s2.4,1.5.4,2.5l-12.2,14.8Z"/><path class="cls-11" d="M92.1,1963.6l1.3-78.9s-12.6-5.9-12.6,7.8l-5.9,42.2s-1.9,7.8,5.8,6.9l31-3.9,1,16.7-37.8,3.9s-23.2,3.9-17.4-27.5l9.7-51s2.9-30.4,35.8-29.4c0,0,17.4,33.3,59,0,0,0,22-3.7,27.8,5.9l8.7,41.6,2.9,18.4,19.3-29.4,13,8-15,29s-17.9,31.1-37.5,1.6l-13.4-45.7-1.9,83.8Z"/><path class="cls-7" d="M173.4,1766.6s5.8-38.8-17.6-43H118s-16.3.5-21,18.9v24.1Z"/><path class="cls-8" d="M135.5,1720s2.6-.3,2.5,2.8h-5.7S132.1,1719.8,135.5,1720Z"/><path class="cls-8" d="M97.1,1756.8H63.4s.1,8.8,7.9,9.4l25.7.3Z"/><path class="cls-8" d="M173.9,1751.7s-6.4-2-8.8,3.9v11l8.3-.3Z"/><polygon class="cls-9" points="173.5 1764.1 165.1 1764.1 165.1 1766.6 173.4 1766.6 173.5 1764.1"/><polygon class="cls-3" points="171 2001 220.2 1987.6 198 1979.2 171 1987 171 2001"/><polygon class="cls-3" points="171 1981.4 188.3 1975.5 171 1969 171 1981.4"/><polygon class="cls-3" points="171 2001 104.9 2001 97 1966 171 1966 171 2001"/><path class="cls-2" d="M483.6,1825.2v16.3l-19.7,10.9c36.5,32.6,59,0,59,0l-19.6-10.9v-16.3"/><circle class="cls-2" cx="495.1" cy="1787.9" r="44.6"/><path class="cls-2" d="M609.7,1940.3s20.9-7.6,21.2-5.8c0,0,4.3.6-1.1,2.8l-7.2,2.5,20,7.4s2.5,3.3-1.5,2.1l-9.1-3.4-.9-.3,12.1,5.2a1.74,1.74,0,0,1-1.32,2.08h-.18c-1.8.3-12.1-5.2-12.1-5.2l10.3,5.5a1.74,1.74,0,0,1-1.32,2.08h-.18c-1.8.3-10.3-5.5-10.3-5.5l-1.8.3,4.5,4.2s-.9,2.7-2.3,1.1l-17.5-8Z"/><path class="cls-11" d="M559.7,1898l-8.7-41.6c-5.8-9.7-27.8-5.9-27.8-5.9-41.6,33.3-59,0-59,0-32.9-1-35.8,29.4-35.8,29.4l-9.7,51c-5.8,31.4,17.4,27.5,17.4,27.5l37.8-3.9-1-16.7-31,3.9c-7.7,1-5.8-6.9-5.8-6.9l5.8-42.2c0-13.7,12.6-7.8,12.6-7.8l-1.3,78.9h73.9l1.9-83.8,13.4,45.7L608,1949l3-17-48-18Z"/><path class="cls-7" d="M534.4,1766.6s5.8-38.8-17.6-43H479s-16.3.5-21,18.9v24.1Z"/><path class="cls-8" d="M496.5,1720s2.6-.3,2.5,2.8h-5.7S493.1,1719.8,496.5,1720Z"/><path class="cls-8" d="M458.1,1756.8H424.5s.1,8.8,7.9,9.4l25.7.3Z"/><path class="cls-8" d="M534.9,1751.7s-6.4-2-8.8,3.9v11l8.3-.3Z"/><polygon class="cls-9" points="534.5 1764.1 526.1 1764.1 526.1 1766.6 534.4 1766.6 534.5 1764.1"/><polygon class="cls-3" points="532 2001 581.2 1987.6 559 1979.2 532 1987 532 2001"/><polygon class="cls-3" points="532 1981.4 549.3 1975.5 532 1969 532 1981.4"/><polygon class="cls-3" points="532 2001 465.9 2001 458 1966 532 1966 532 2001"/><path class="cls-2" d="M853.6,1826.2v16.3l-19.7,10.9c36.5,32.6,59,0,59,0l-19.7-10.9v-16.3"/><circle class="cls-2" cx="865.1" cy="1788.9" r="44.6"/><path class="cls-2" d="M955,1896.8s-1.9-22.1-.1-22c0,0,1.7-4,2.4,1.8l.5,7.6,12.4-17.3s3.8-1.5,1.7,2l-5.6,7.9-.5.8,8.2-10.3a1.87,1.87,0,0,1,1.7,1.9v.1c-.1,1.8-8.2,10.3-8.2,10.3l8-8.5a1.87,1.87,0,0,1,1.7,1.9v.1c-.1,1.8-8,8.5-8,8.5l-.2,1.8,5.2-3.2s2.4,1.5.4,2.5l-12.2,14.8Z"/><path class="cls-11" d="M823.1,1964.6l1.3-78.9s-12.6-5.9-12.6,7.8l-5.8,42.2s-1.9,7.8,5.8,6.9l31-3.9,1,16.7-37.8,3.9s-23.2,3.9-17.4-27.5l9.7-51s2.9-30.4,35.8-29.4c0,0,17.4,33.3,59,0,0,0,22-3.7,27.8,5.9l8.7,41.6,2.9,18.4,19.3-29.4,13,8-15,29s-17.9,31.1-37.5,1.6L899,1880.8l-1.9,83.8Z"/><path class="cls-7" d="M904.4,1767.6s5.8-38.8-17.6-43H849s-16.3.5-21,18.9v24.1Z"/><path class="cls-8" d="M866.5,1721s2.6-.3,2.5,2.8h-5.7S863.1,1720.8,866.5,1721Z"/><path class="cls-8" d="M828.1,1757.8H794.5s.1,8.8,7.9,9.4l25.7.3v-9.7Z"/><path class="cls-8" d="M904.9,1752.7s-6.4-2-8.8,3.9v11l8.3-.3Z"/><polygon class="cls-9" points="904.5 1765.1 896.1 1765.1 896.1 1767.6 904.4 1767.6 904.5 1765.1"/><polygon class="cls-3" points="902 2002 951.2 1988.6 929 1980.2 902 1988 902 2002"/><polygon class="cls-3" points="902 1982.4 919.3 1976.5 902 1970 902 1982.4"/><polygon class="cls-3" points="902 2002 835.9 2002 828 1967 902 1967 902 2002"/><path class="cls-19" d="M954.3,1885.6l4.6-15.2,4.3-12.4c1.8-3.9,5.7-1.8,5.7-1.8l11,3.9c5,1.1,2.8,5.3,2.8,5.3l-9.2,26.5a3.9,3.9,0,0,1-5,1.8l-12-4.6-1.3-.5.6-1.6"/><path class="cls-20" d="M979.7,1860.2l-1.4,3.5-8.8,24-4.4,4.7,3.3,1.3a3.81,3.81,0,0,0,5-1.8l9.2-26.5S984.7,1861.3,979.7,1860.2Z"/><path class="cls-21" d="M973.9,1861.7l-2.7-.8c-.2-.1-.3-.3-.2-.4h0c.1-.2.3-.3.4-.2l2.7.8c.2.1.3.3.2.4h0C974.3,1861.6,974.1,1861.7,973.9,1861.7Z"/><circle class="cls-21" cx="967.9" cy="1890.6" r="1.2"/><path class="cls-19" d="M958.9,1870.4l-5.1,13.8-.2.6a2.82,2.82,0,0,0,1.15,3.82h0a3,3,0,0,0,.75.28Z"/><path class="cls-18" d="M972.5,1888.7l-16.6-5.8a.83.83,0,0,1-.5-1l7.4-21.2a.83.83,0,0,1,1-.5l16.6,5.8a.83.83,0,0,1,.5,1l-7.4,21.2a.68.68,0,0,1-.79.57A.86.86,0,0,1,972.5,1888.7Z"/><rect class="cls-22" x="956.8" y="1865.46" width="23" height="17.8" transform="matrix(0.33, -0.94, 0.94, 0.33, -1120.76, 2168.74)"/><rect class="cls-27" x="965.21" y="1868.02" width="8" height="12" transform="translate(-1122.57 2149.3) rotate(-70.15)"/><line class="cls-28" x1="967" y1="1877.7" x2="981" y2="1874.3"/><line class="cls-28" x1="964.7" y1="1868.2" x2="973.3" y2="1879.8"/><path class="cls-2" d="M181.3,2116.7v16.6l20,11.1c-37.2,33.3-60.1,0-60.1,0l20.1-11.1v-16.6"/><path class="cls-2" d="M246.6,2299.6s14.9,17.1,13.3,18.1c0,0,1,4.3-3-.1l-5-5.9.2,21.7s-2.2,3.5-2.6-.6l-.1-9.9v-1l-.5,13.4a1.79,1.79,0,0,1-2.46-.53v-.07h0c-1-1.6.5-13.4.5-13.4l-1.5,11.8a1.88,1.88,0,0,1-2.5-.5v-.1c-1-1.6,1.5-11.8,1.5-11.8l-1-1.6-2.4,5.8s-2.9.2-1.8-1.8l1.2-19.6Z"/><polygon class="cls-3" points="204.2 2304.5 127.7 2297.6 112.7 2483.3 154.7 2483.3 159.2 2384.3 161.7 2385.8 159.2 2483.3 194.9 2483.3 204.2 2304.5"/><ellipse class="cls-4" cx="170.2" cy="2331.3" rx="2.5" ry="3.1"/><ellipse class="cls-4" cx="170.2" cy="2342.3" rx="2.5" ry="3.1"/><path class="cls-4" d="M173.8,2328.2s2.9,34.2-6.5,27.9v3.9s9.3,7.2,9.5-30.8Z"/><polygon class="cls-5" points="124.4 2481.9 126.9 2482.1 137.2 2312.1 134.6 2311.9 124.4 2481.9"/><polygon class="cls-5" points="130.8 2481.9 133.4 2482.1 143.7 2312.1 141.1 2311.9 130.8 2481.9"/><path d="M124.1,2480.5s-24.7-4.1-26.1,7.7L96.6,2500h62.1l-.6-19.5Z"/><path d="M202.8,2480.5s24.7-4.1,26.1,7.7l1.4,11.8H168.2l.7-19.5Z"/><circle class="cls-2" cx="175.5" cy="2078.7" r="45.4"/><path d="M162.9,2065.2h-18a1.58,1.58,0,0,1-1.6-1.56h0v-.14a1.58,1.58,0,0,1,1.56-1.6h18a1.58,1.58,0,0,1,1.6,1.56h0v.14A1.73,1.73,0,0,1,162.9,2065.2Z"/><path class="cls-1" d="M175.5,2081.4l.4.8c1,1.7,3.6,5.8,5.8,6.8h-6.2"/><path class="cls-7" d="M213.3,2053.9s5.9-39.6-17.9-43.9H156.9s-16.6.5-21.4,19.3v24.6Z"/><path class="cls-8" d="M174.7,2006.4s2.7-.3,2.6,2.9h-5.8C171.4,2009.3,171.2,2006.2,174.7,2006.4Z"/><path class="cls-8" d="M135.4,2043.9H101.1s.1,9,8.1,9.6l26.2.3Z"/><path class="cls-8" d="M213.8,2038.7s-6.5-2-8.9,4v11.2l8.4-.3Z"/><polygon class="cls-9" points="213.4 2051.3 204.8 2051.3 204.8 2053.9 213.3 2053.9 213.4 2051.3"/><path d="M202.1,2065.2h-18a1.58,1.58,0,0,1-1.6-1.56h0v-.14a1.58,1.58,0,0,1,1.56-1.6h18a1.58,1.58,0,0,1,1.6,1.56h0v.14a1.58,1.58,0,0,1-1.56,1.6Z"/><path class="cls-11" d="M141.3,2143.5s17.8,33.8,60.2,0c0,0,44.4-7.9,40.5,24.9l10.9,135.2-15.8,4-17.8-121.3s0-16.9-11.8-12.9l-3,130.2-75-6,2-119.3s-12.8-6-12.8,7.9l-5.9,42.8s-2,7.9,5.9,7l31.6-4,1,16.9-38.5,4s-23.7,4-17.8-27.8l9.9-51.7C104.8,2173.4,107.8,2142.5,141.3,2143.5Z"/><path class="cls-12" d="M158.3,2224.3a1,1,0,0,0,.5,1.1.91.91,0,0,0,.4.8s-.3,1.1.2,1.6a15.29,15.29,0,0,0,.7,3.6l.8,7s.3,2.6.7,2.9a8.49,8.49,0,0,0,.5,3.2s-.1,3,.8,3.7v1.2s.5,1.9,10.2,1.4c0,0,6.8-.1,5.5-2.8,0,0,.7-.5.9-6.3,0,0,.3-.1.9-7a11.44,11.44,0,0,0,.5-3.9s.3-.2.1-.8c0,0,.5,0,.4-2.5,0,0,.4.3.3-1.5a1.12,1.12,0,0,0,.3-.8s.5.1.4-.8Z"/><ellipse class="cls-13" cx="170.2" cy="2224.3" rx="12" ry="1.8"/><path class="cls-2" d="M158.5,2234.6l2,.3,19.5,3s3.1,2.7-1,2.4l-9.8-1.5-.9-.1,13.2,2.6a1.84,1.84,0,0,1-.9,2.4h-.1c-1.7.7-13.2-2.6-13.2-2.6l11.4,3.4a1.84,1.84,0,0,1-.9,2.4h-.1c-1.7.7-11.4-3.4-11.4-3.4l-1.7.7,5.3,3.3s-.3,2.9-2.1,1.5l-19.1-4.3-2.8-6.9s7.7-4.8,13.6-7.9h.3l.5,1.5Z"/><path class="cls-16" d="M149.8,2074.3s8.4-5.6,15.3,0A13.06,13.06,0,0,1,149.8,2074.3Z"/><line class="cls-17" x1="150.2" y1="2074.3" x2="164.7" y2="2074.3"/><path class="cls-16" d="M185.4,2073.3s8.4-5.6,15.3,0A13.06,13.06,0,0,1,185.4,2073.3Z"/><line class="cls-17" x1="185.8" y1="2073.3" x2="200.2" y2="2073.3"/><path class="cls-10" d="M161.6,2100.2h33.6a1.37,1.37,0,0,1,1.4,1.33v.17a1.37,1.37,0,0,1-1.33,1.4H161.6a1.37,1.37,0,0,1-1.4-1.33v-.17a1.37,1.37,0,0,1,1.33-1.4Z"/><path class="cls-2" d="M519.3,2120.2v16.4l-19.8,11c36.8,32.9,59.4,0,59.4,0l-19.8-11v-16.4"/><path class="cls-2" d="M454.8,2301s-14.7,16.9-13.1,17.8c0,0-1,4.2,3-.1l5-5.9-.2,21.5s2.2,3.5,2.5-.6l.1-9.8v-1l.5,13.3a1.79,1.79,0,0,0,2.48-.57h0c1-1.6-.5-13.3-.5-13.3l1.5,11.7a1.9,1.9,0,0,0,2.5-.5v-.1c1-1.6-1.5-11.7-1.5-11.7l1-1.6,2.3,5.7s2.9.2,1.8-1.8l-1.2-19.3Z"/><polygon class="cls-3" points="496.7 2305.8 572.3 2299 587 2482.5 545.6 2482.5 541.1 2384.6 538.7 2386.2 541.1 2482.5 505.8 2482.5 496.7 2305.8"/><ellipse class="cls-4" cx="542.2" cy="2332.3" rx="2.5" ry="3.1"/><ellipse class="cls-4" cx="542.2" cy="2343.2" rx="2.5" ry="3.1"/><path class="cls-4" d="M538.6,2329.2s-2.8,33.8,6.4,27.6v3.8s-9.2,7.1-9.4-30.5Z"/><polygon class="cls-5" points="587.5 2481.1 584.9 2481.3 574.8 2313.4 577.3 2313.1 587.5 2481.1"/><polygon class="cls-5" points="581.1 2481.1 578.6 2481.3 568.4 2313.4 571 2313.1 581.1 2481.1"/><path d="M587.7,2479.8s24.4-4,25.8,7.6l1.4,11.6H553.5l.6-19.2Z"/><path d="M509.9,2479.8s-24.4-4-25.8,7.6l-1.4,11.6H544l-.6-19.2Z"/><circle class="cls-2" cx="536.96" cy="2082.42" r="44.9" transform="translate(-1599.01 2332.27) rotate(-82.21)"/><path class="cls-5" d="M537.9,2083.3s-1.2-14.6,12.2-8.2C550.1,2075.1,550.7,2086.1,537.9,2083.3Z"/><circle class="cls-6" cx="543.8" cy="2078" r="4.3"/><path d="M539.7,2066.2h17.7a1.58,1.58,0,0,1,1.6,1.56h0a1.58,1.58,0,0,1-1.56,1.6H539.7a1.58,1.58,0,0,1-1.6-1.56h0a1.58,1.58,0,0,1,1.56-1.6h0Z"/><path class="cls-1" d="M527,2085.7a4.6,4.6,0,0,0-.4.8c-1,1.7-3.6,5.7-5.7,6.7H527"/><path class="cls-7" d="M499.6,2058.1s-5.8-39.1,17.7-43.3h38.1s16.4.5,21.2,19v24.3Z"/><path class="cls-8" d="M537.8,2011.2s-2.7-.3-2.5,2.8h5.8a2.88,2.88,0,0,0-2.93-2.83h0A2.31,2.31,0,0,0,537.8,2011.2Z"/><path class="cls-8" d="M576.5,2048.3h33.9s-.1,8.9-8,9.5l-25.9.3Z"/><path class="cls-8" d="M499.1,2043.1s6.5-2,8.8,4v11l-8.3-.3Z"/><polygon class="cls-9" points="499.5 2055.6 508 2055.6 508 2058.1 499.6 2058.1 499.5 2055.6"/><path class="cls-5" d="M506.7,2074.4s11.3-9.3,13.7,5.3C520.3,2079.7,511.7,2086.5,506.7,2074.4Z"/><circle class="cls-6" cx="514.4" cy="2076.2" r="4.3"/><path d="M505.8,2066.2h17.7a1.58,1.58,0,0,1,1.6,1.56h0a1.58,1.58,0,0,1-1.56,1.6H505.8a1.58,1.58,0,0,1-1.6-1.56h0a1.58,1.58,0,0,1,1.56-1.6h0Z"/><path class="cls-11" d="M558.8,2146.7s-17.6,33.4-59.5,0c0,0-43.9-7.9-40,24.6l-10.7,133.6,15.6,3.9L481.8,2189s0-16.7,11.7-12.8l2.9,128.7,74.1-5.9-2-117.9s12.7-5.9,12.7,7.9l5.8,42.2s2,7.9-5.8,6.9l-31.2-3.9-1,16.7,38,3.9s23.4,3.9,17.6-27.5l-9.8-51.1C594.8,2176.1,591.9,2145.7,558.8,2146.7Z"/><path class="cls-12" d="M542,2226.5a1,1,0,0,1-.5,1.1.67.67,0,0,1-.4.7s.3,1.1-.2,1.5a13.51,13.51,0,0,1-.7,3.5l-.8,6.9s-.3,2.6-.7,2.9a8.52,8.52,0,0,1-.5,3.2s.1,3-.8,3.6v1.1s-.5,1.9-10.1,1.4c0,0-6.7-.1-5.5-2.8,0,0-.7-.5-.8-6.3,0,0-.3-.1-.8-6.9,0,0-.4-.7-.5-3.9,0,0-.3-.2-.1-.7,0,0-.5,0-.4-2.4,0,0-.4.3-.3-1.5a1.12,1.12,0,0,1-.3-.8s-.5,0-.4-.8Z"/><ellipse class="cls-13" cx="530.2" cy="2226.6" rx="11.9" ry="1.7"/><path class="cls-2" d="M541.8,2236.8l-2,.3-19.2,2.9s-3.1,2.7,1,2.4l9.7-1.5.9-.1-13,2.6a1.84,1.84,0,0,0,.9,2.4h.1c1.7.7,13-2.6,13-2.6l-11.3,3.3a1.84,1.84,0,0,0,.9,2.4h.1c1.7.7,11.3-3.3,11.3-3.3l1.7.7-5.3,3.2s.3,2.8,2.1,1.5l18.9-4.3,2.8-6.8s-7.7-4.7-13.4-7.8h-.3l-.5,1.5Z"/><ellipse class="cls-10" cx="526.5" cy="2110.7" rx="5.4" ry="8.8"/><line class="cls-14" x1="887" y1="2235.1" x2="886" y2="2251.8"/><path class="cls-2" d="M856.3,2121.2v16.4l-19.8,11c36.8,32.9,59.4,0,59.4,0l-19.8-11v-16.4"/><path class="cls-2" d="M791.8,2302s-14.7,16.9-13.1,17.8c0,0-1,4.2,3-.1l5-5.9-.2,21.5s2.2,3.5,2.5-.6l.1-9.8v-1l.5,13.3a1.79,1.79,0,0,0,2.48-.57h0c1-1.6-.5-13.3-.5-13.3l1.5,11.7a1.9,1.9,0,0,0,2.5-.5v-.1c1-1.6-1.5-11.7-1.5-11.7l1-1.6,2.3,5.7s2.8.2,1.8-1.8l-1.2-19.3Z"/><polyline class="cls-3" points="885.6 2483.5 881.1 2385.6 878.7 2387.2"/><polyline class="cls-3" points="866 2303.6 906.3 2300 921 2483.5 879.6 2483.5"/><ellipse class="cls-4" cx="885.2" cy="2327.3" rx="2.5" ry="3.1"/><ellipse class="cls-4" cx="885.2" cy="2338.2" rx="2.5" ry="3.1"/><path class="cls-4" d="M881.1,2325.2s-2.8,33.8,6.4,27.6v3.8s-9.2,7.1-9.4-30.5Z"/><polygon class="cls-5" points="921.5 2482.1 918.9 2482.3 908.8 2314.4 911.3 2314.1 921.5 2482.1"/><polygon class="cls-5" points="915.1 2482.1 912.6 2482.3 902.4 2314.4 905 2314.1 915.1 2482.1"/><path d="M846.9,2480.8s-24.4-4-25.8,7.6l-1.4,11.6H881l-.6-19.2Z"/><circle class="cls-2" cx="874" cy="2083.6" r="44.9"/><path class="cls-5" d="M874.9,2084.3s-1.2-14.6,12.2-8.2C887.1,2076.1,887.7,2087.1,874.9,2084.3Z"/><circle class="cls-6" cx="880.8" cy="2079" r="4.3"/><path d="M876.7,2067.2h17.7a1.58,1.58,0,0,1,1.6,1.56h0a1.58,1.58,0,0,1-1.56,1.6H876.7a1.58,1.58,0,0,1-1.6-1.56h0a1.58,1.58,0,0,1,1.56-1.6h0Z"/><path class="cls-1" d="M864,2086.7a4.6,4.6,0,0,0-.4.8c-1,1.7-3.6,5.7-5.7,6.7H864"/><path class="cls-7" d="M836.6,2059.1s-5.8-39.1,17.7-43.3h38.1s16.4.5,21.2,19v24.3Z"/><path class="cls-8" d="M874.8,2012.2s-2.7-.3-2.5,2.8h5.8a2.88,2.88,0,0,0-2.93-2.83h0A2.31,2.31,0,0,0,874.8,2012.2Z"/><path class="cls-8" d="M913.5,2049.3h33.9s-.1,8.9-8,9.5l-25.9.3Z"/><path class="cls-8" d="M836.1,2044.1s6.5-2,8.8,4v11l-8.3-.3Z"/><polygon class="cls-9" points="836.5 2056.6 845 2056.6 845 2059.1 836.6 2059.1 836.5 2056.6"/><path class="cls-5" d="M843.7,2075.4s11.3-9.3,13.7,5.3C857.3,2080.7,848.7,2087.5,843.7,2075.4Z"/><circle class="cls-6" cx="851.4" cy="2077.2" r="4.3"/><path d="M842.8,2067.2h17.7a1.58,1.58,0,0,1,1.6,1.56h0a1.58,1.58,0,0,1-1.56,1.6H842.8a1.58,1.58,0,0,1-1.6-1.56h0a1.58,1.58,0,0,1,1.56-1.6h0Z"/><ellipse class="cls-10" cx="867.6" cy="2114.8" rx="9.4" ry="2.8"/><path class="cls-2" d="M932.1,2289s14.7,16.9,13.1,17.8c0,0,1,4.2-3-.1l-5-5.9.2,21.5s-2.2,3.5-2.5-.6l-.1-9.8v-1l-.5,13.3a1.79,1.79,0,0,1-2.48-.57h0c-1-1.6.5-13.3.5-13.3l-1.5,11.7a1.9,1.9,0,0,1-2.5-.5v-.1c-1-1.6,1.5-11.7,1.5-11.7l-1-1.6-2.3,5.7s-2.8.2-1.8-1.8l1.2-19.4Z"/><path class="cls-11" d="M941.6,2228.2l-9.8-51.1s-2.9-30.5-36.1-29.5c0,0-17.6,33.4-59.5,0,0,0-43.9-7.9-40,24.6l-10.7,133.6,15.6,3.9,17.6-119.8s0-16.7,11.7-12.8l2.9,128.7,74.2-5.9-2-117.9s12.7-5.9,12.7,7.9l5.8,42.2v40.8h15Z"/><polygon class="cls-11" points="924 2267.1 939.3 2267.1 939.3 2292.9 924 2295.6 924 2267.1"/><path class="cls-29" d="M889.9,2480.8s-24.4-4-25.8,7.6l-1.4,11.6H924l-.6-19.2Z"/><rect class="cls-3" x="834" y="2303" width="39" height="178"/><path class="cls-2" d="M1200.3,2121.2v16.4l-19.8,11c36.8,32.9,59.4,0,59.4,0l-19.8-11v-16.4"/><path class="cls-2" d="M1135.8,2302s-14.7,16.9-13.1,17.8c0,0-1,4.2,3-.1l5-5.9-.2,21.5s2.2,3.5,2.5-.6l.1-9.8v-1l.5,13.3a1.79,1.79,0,0,0,2.48-.57h0c1-1.6-.5-13.3-.5-13.3l1.4,11.7a1.9,1.9,0,0,0,2.5-.5v-.1c1-1.6-1.4-11.7-1.4-11.7l1-1.6,2.3,5.7s2.8.2,1.8-1.8l-1.2-19.4Z"/><circle class="cls-2" cx="1218" cy="2083.6" r="44.9"/><path class="cls-5" d="M1218.9,2084.3s-1.2-14.6,12.2-8.2C1231.1,2076.1,1231.7,2087.1,1218.9,2084.3Z"/><circle class="cls-6" cx="1224.8" cy="2079" r="4.3"/><path d="M1220.7,2067.2h17.7a1.58,1.58,0,0,1,1.6,1.56h0a1.58,1.58,0,0,1-1.56,1.6H1220.7a1.58,1.58,0,0,1-1.6-1.56h0a1.58,1.58,0,0,1,1.56-1.6h0Z"/><path class="cls-1" d="M1208,2086.7a4.6,4.6,0,0,0-.4.8c-1,1.7-3.6,5.7-5.7,6.7h6.1"/><path class="cls-7" d="M1180.6,2059.1s-5.8-39.1,17.7-43.3h38.1s16.4.5,21.2,19v24.3Z"/><path class="cls-8" d="M1218.8,2012.2s-2.7-.3-2.5,2.8h5.8a2.88,2.88,0,0,0-2.93-2.83h0A2.31,2.31,0,0,0,1218.8,2012.2Z"/><path class="cls-8" d="M1257.5,2049.3h33.9s-.1,8.9-8,9.5l-25.9.3Z"/><path class="cls-8" d="M1180.1,2044.1s6.4-2,8.8,4v11l-8.3-.3Z"/><polygon class="cls-9" points="1180.5 2056.6 1188.9 2056.6 1188.9 2059.1 1180.6 2059.1 1180.5 2056.6"/><path class="cls-5" d="M1187.7,2075.4s11.3-9.3,13.7,5.3C1201.3,2080.7,1192.7,2087.5,1187.7,2075.4Z"/><circle class="cls-6" cx="1195.4" cy="2077.2" r="4.3"/><path d="M1186.8,2067.2h17.7a1.58,1.58,0,0,1,1.6,1.56h0a1.58,1.58,0,0,1-1.56,1.6H1186.8a1.58,1.58,0,0,1-1.6-1.56h0a1.58,1.58,0,0,1,1.56-1.6h0Z"/><ellipse class="cls-10" cx="1211.6" cy="2114.8" rx="9.4" ry="2.8"/><path class="cls-2" d="M1276.1,2289s14.7,16.9,13.1,17.8c0,0,1,4.2-3-.1l-5-5.9.2,21.5s-2.2,3.5-2.5-.6l-.1-9.8v-1l-.5,13.3a1.79,1.79,0,0,1-2.48-.57h0c-1-1.6.5-13.3.5-13.3l-1.4,11.7a1.9,1.9,0,0,1-2.5-.5v-.1c-1-1.6,1.4-11.7,1.4-11.7l-1-1.6-2.3,5.7s-2.8.2-1.8-1.8l1.2-19.4Z"/><path class="cls-11" d="M1285.6,2228.2l-9.8-51.1s-2.9-30.5-36.1-29.5c0,0-17.6,33.4-59.5,0,0,0-43.9-7.9-40,24.6l-10.7,133.6,15.6,3.9,17.6-119.8s0-16.7,11.7-12.8l2.9,128.7,74.2-5.9-2-117.9s12.7-5.9,12.7,7.9l5.8,42.2v40.8h15Z"/><polygon class="cls-11" points="1268 2267.1 1283.3 2267.1 1283.3 2292.9 1268 2295.6 1268 2267.1"/><rect class="cls-3" x="1094.04" y="2372.16" width="177.94" height="38.99" transform="translate(-1355.8 3212.6) rotate(-81.6)"/><path d="M1165.9,2473.8s-24.4-4-25.8,7.6l-1.4,11.6h61.4l-.6-19.2Z"/><polyline class="cls-3" points="1227.6 2483.5 1223.1 2385.6 1220.7 2387.2"/><polyline class="cls-3" points="1208 2303.6 1248.3 2300 1263.1 2483.5 1221.6 2483.5"/><ellipse class="cls-4" cx="1227.2" cy="2327.3" rx="2.5" ry="3.1"/><ellipse class="cls-4" cx="1227.2" cy="2338.2" rx="2.5" ry="3.1"/><path class="cls-4" d="M1223.1,2325.2s-2.8,33.8,6.4,27.6v3.8s-9.2,7.1-9.4-30.5Z"/><polygon class="cls-5" points="1263.5 2482.1 1260.9 2482.3 1250.8 2314.4 1253.3 2314.1 1263.5 2482.1"/><polygon class="cls-5" points="1257.1 2482.1 1254.6 2482.3 1244.4 2314.4 1246.9 2314.1 1257.1 2482.1"/><path class="cls-29" d="M1237.9,2480.8s-24.4-4-25.8,7.6l-1.4,11.6h61.4l-.6-19.2Z"/><path class="cls-2" d="M1570.3,2121.2v16.4l-19.8,11c36.8,32.9,59.4,0,59.4,0l-19.8-11v-16.4"/><circle class="cls-2" cx="1588" cy="2083.6" r="44.9"/><path class="cls-5" d="M1588.9,2084.3s-1.2-14.6,12.2-8.2C1601.1,2076.1,1601.7,2087.1,1588.9,2084.3Z"/><circle class="cls-6" cx="1594.8" cy="2079" r="4.3"/><path d="M1590.7,2067.2h17.7a1.58,1.58,0,0,1,1.6,1.56h0a1.58,1.58,0,0,1-1.56,1.6H1590.7a1.58,1.58,0,0,1-1.6-1.56h0a1.58,1.58,0,0,1,1.56-1.6h0Z"/><path class="cls-1" d="M1578,2086.7a4.6,4.6,0,0,0-.4.8c-1,1.7-3.6,5.7-5.7,6.7h6.1"/><path class="cls-7" d="M1550.6,2059.1s-5.8-39.1,17.7-43.3h38.1s16.4.5,21.2,19v24.3Z"/><path class="cls-8" d="M1588.8,2012.2s-2.7-.3-2.5,2.8h5.8a2.88,2.88,0,0,0-2.93-2.83h0A2.31,2.31,0,0,0,1588.8,2012.2Z"/><path class="cls-8" d="M1627.5,2049.3h33.9s-.1,8.9-8,9.5l-25.9.3Z"/><path class="cls-8" d="M1550.1,2044.1s6.4-2,8.8,4v11l-8.3-.3Z"/><polygon class="cls-9" points="1550.5 2056.6 1558.9 2056.6 1558.9 2059.1 1550.6 2059.1 1550.5 2056.6"/><path class="cls-5" d="M1557.7,2075.4s11.3-9.3,13.7,5.3C1571.3,2080.7,1562.7,2087.5,1557.7,2075.4Z"/><circle class="cls-6" cx="1565.4" cy="2077.2" r="4.3"/><path d="M1556.8,2067.2h17.7a1.58,1.58,0,0,1,1.6,1.56h0a1.58,1.58,0,0,1-1.56,1.6H1556.8a1.58,1.58,0,0,1-1.6-1.56h0a1.58,1.58,0,0,1,1.56-1.6h0Z"/><ellipse class="cls-10" cx="1581.6" cy="2114.8" rx="9.4" ry="2.8"/><rect class="cls-3" x="1468.46" y="2372.26" width="183.7" height="39" transform="translate(-959.51 3735.48) rotate(-84.95)"/><path d="M1546.9,2480.8s-24.4-4-25.8,7.6l-1.4,11.6h61.4l-.6-19.2Z"/><polygon class="cls-3" points="1593 2327.2 1583.3 2305.1 1588 2305 1593 2327.2"/><polygon class="cls-3" points="1586 2301.9 1610 2415 1672 2454 1689 2426 1646 2399 1619 2300 1586 2301.9"/><ellipse class="cls-4" cx="1606.46" cy="2319.95" rx="2.5" ry="3.1" transform="translate(-439.46 376.47) rotate(-11.77)"/><ellipse class="cls-4" cx="1608.66" cy="2330.67" rx="2.5" ry="3.1" transform="translate(-441.6 377.14) rotate(-11.77)"/><path class="cls-4" d="M1593.1,2308.6s4.1,33.7,11.9,25.7l.8,3.8s-7.5,8.8-15.4-27.9Z"/><path class="cls-29" d="M1677.1,2446.4s-17.9,17-9.5,25.2l8.4,8.1,37-49-15.7-11.1Z"/><polygon class="cls-5" points="1643 2400 1642.1 2400.3 1615.8 2305.6 1616.8 2305.3 1643 2400"/><polyline class="cls-5" points="1621.9 2341.5 1638.3 2400.9 1637.3 2401.2 1611 2306.3 1612 2306 1621.9 2341.5"/><polyline class="cls-5" points="1659.8 2412.4 1685.9 2432.2 1685.3 2433 1643.7 2401.4 1644.3 2400.6 1659.8 2412.4"/><polyline class="cls-5" points="1663.6 2409.9 1688.9 2429.2 1688.3 2430 1647.8 2399.3 1648.4 2398.4 1663.6 2409.9"/><path class="cls-11" d="M1625.9,2180.8a13.39,13.39,0,0,0-6.3,1.2l2,117.9-74.2,5.9-.9-38.8-2-89.9c-1.8-.6-3.5.6-5.1,3.2L1537,2191l16,55-1,27-12-14-14-39c-12-17-8-62-8-62,1-9,17.6-11.1,17.6-11.1a72.29,72.29,0,0,1,14.7.7c42,33.4,59.5,0,59.5,0,12.4-.4,20.6,3.7,26,8.9,0,0,11.2,5.4,9.2,21.4l-35,78-15-10Z"/><path class="cls-2" d="M1588,2262.6s-21.8,5-21.2,6.6c0,0-3.3,2.8,2.5,1.7l7.4-1.8-12.9,17.2s-.3,4.1,2.4,1l5.9-7.8.6-.8-7.4,11a1.76,1.76,0,0,0,2.28,1h.12c1.7-.7,7.4-11,7.4-11l-5.7,10.3a1.76,1.76,0,0,0,2.28,1h.12c1.7-.7,5.7-10.3,5.7-10.3l1.7-.7-1.5,6s2.2,1.8,2.6-.4l10.5-16.3Z"/><polygon class="cls-11" points="1610 2256 1590.8 2273.8 1588 2263 1602 2239 1610 2256"/><path class="cls-2" d="M1928.3,2121.2v16.4l-19.8,11c36.8,32.9,59.4,0,59.4,0l-19.8-11v-16.4"/><circle class="cls-2" cx="1946" cy="2083.6" r="44.9"/><path class="cls-5" d="M1946.9,2084.3s-1.2-14.6,12.2-8.2C1959.1,2076.1,1959.7,2087.1,1946.9,2084.3Z"/><circle class="cls-6" cx="1952.8" cy="2079" r="4.3"/><path d="M1948.7,2067.2h17.7a1.58,1.58,0,0,1,1.6,1.56h0a1.58,1.58,0,0,1-1.56,1.6H1948.7a1.58,1.58,0,0,1-1.6-1.56h0a1.58,1.58,0,0,1,1.56-1.6h0Z"/><path class="cls-1" d="M1936,2086.7a4.6,4.6,0,0,0-.4.8c-1,1.7-3.6,5.7-5.7,6.7h6.1"/><path class="cls-7" d="M1908.6,2059.1s-5.8-39.1,17.7-43.3h38.1s16.4.5,21.2,19v24.3Z"/><path class="cls-8" d="M1946.8,2012.2s-2.7-.3-2.5,2.8h5.8a2.88,2.88,0,0,0-2.93-2.83h0A2.31,2.31,0,0,0,1946.8,2012.2Z"/><path class="cls-8" d="M1985.5,2049.3h33.9s-.1,8.9-8,9.5l-25.9.3Z"/><path class="cls-8" d="M1908.1,2044.1s6.4-2,8.8,4v11l-8.3-.3Z"/><polygon class="cls-9" points="1908.5 2056.6 1916.9 2056.6 1916.9 2059.1 1908.6 2059.1 1908.5 2056.6"/><path class="cls-5" d="M1915.7,2075.4s11.3-9.3,13.7,5.3C1929.3,2080.7,1920.7,2087.5,1915.7,2075.4Z"/><circle class="cls-6" cx="1923.4" cy="2077.2" r="4.3"/><path d="M1914.8,2067.2h17.7a1.58,1.58,0,0,1,1.6,1.56h0a1.58,1.58,0,0,1-1.56,1.6H1914.8a1.58,1.58,0,0,1-1.6-1.56h0a1.58,1.58,0,0,1,1.56-1.6h0Z"/><ellipse class="cls-10" cx="1939.6" cy="2114.8" rx="9.4" ry="2.8"/><rect class="cls-3" x="1832.12" y="2368.58" width="178.32" height="39.03" transform="translate(-541.7 4212.39) rotate(-87.71)"/><path d="M1913.9,2480.8s-24.4-4-25.8,7.6l-1.4,11.6h61.4l-.6-19.2Z"/><path class="cls-2" d="M1787.9,2186.1s-18.9,11.9-19.7,10.2c0,0-4.3.3.5-3l6.6-4-21.3-3.1s-3.1-2.7,1-2.4l9.7,1.4.9.1-13-2.5a1.84,1.84,0,0,1,.9-2.4h.1c1.7-.7,13,2.5,13,2.5l-11.3-3.2a1.84,1.84,0,0,1,.9-2.4h.1c1.7-.7,11.3,3.2,11.3,3.2l1.7-.7-5.3-3.2s.3-2.8,2.1-1.5l18.9,4.1Z"/><polyline class="cls-3" points="1955.6 2483.5 1951.1 2385.6 1948.7 2387.2"/><polyline class="cls-3" points="1936 2303.6 1976.3 2300 1991.1 2483.5 1949.6 2483.5"/><ellipse class="cls-4" cx="1955.2" cy="2327.3" rx="2.5" ry="3.1"/><ellipse class="cls-4" cx="1955.2" cy="2338.2" rx="2.5" ry="3.1"/><path class="cls-4" d="M1951.1,2325.2s-2.8,33.8,6.4,27.6v3.8s-9.2,7.1-9.4-30.5Z"/><polygon class="cls-5" points="1991.5 2482.1 1988.9 2482.3 1978.8 2314.4 1981.3 2314.1 1991.5 2482.1"/><polygon class="cls-5" points="1985.1 2482.1 1982.6 2482.3 1972.4 2314.4 1974.9 2314.1 1985.1 2482.1"/><path class="cls-29" d="M1965.9,2480.8s-24.4-4-25.8,7.6l-1.4,11.6h61.4l-.6-19.2Z"/><path class="cls-11" d="M1882.3,2150.4a36.41,36.41,0,0,1,11.2-3.4,72.29,72.29,0,0,1,14.7.7c42,33.4,59.5,0,59.5,0a38.55,38.55,0,0,1,15.7,2.4s10.6,1,10.6,7c0,0,6,11.1-16.5,25.1l2,117.9-74.2,5.9-.9-38.8-2-89.9-48.5,5.8-54,6-15,4-4-18,90-17Z"/><path class="cls-2" d="M1836,2197.9s-13.6,17.8-14.8,16.5c0,0-4,1.8-.6-3l4.7-6-21,4.6s-3.9-1.4.1-2.6l9.6-2.1.9-.2-13.1,2.2a1.76,1.76,0,0,1,0-2.48h0l.1-.1c1.3-1.3,13.1-2.2,13.1-2.2l-11.8.9a1.87,1.87,0,0,1,0-2.6l.1-.1c1.3-1.3,11.8-.9,11.8-.9l1.3-1.3-6.1-1.1s-.7-2.8,1.4-2.2l19.2-2.8Z"/><path class="cls-2" d="M2259.6,2118.3l2.9,16.2-17.6,14.3c42,25.9,58.5-10.4,58.5-10.4l-21.4-7.3-2.9-16.2"/><circle class="cls-2" cx="2270.5" cy="2079.2" r="44.9"/><path class="cls-5" d="M2271.5,2079.7s-3.8-14.1,10.5-10.2C2282.1,2069.5,2284.6,2080.2,2271.5,2079.7Z"/><circle class="cls-6" cx="2276.4" cy="2073.5" r="4.3"/><path d="M2270.3,2062.5l17.4-3.1a1.46,1.46,0,0,1,1.76,1.06v.24h0a1.46,1.46,0,0,1-1.06,1.76h-.24l-17.4,3.1a1.46,1.46,0,0,1-1.76-1.06v-.24h0A1.64,1.64,0,0,1,2270.3,2062.5Z"/><path class="cls-1" d="M2261.2,2083.9s-.1.3-.3.8c-.7,1.8-2.5,6.2-4.4,7.6l6-1.1"/><path class="cls-7" d="M2229.4,2061.6s-12.6-37.5,9.9-45.8l16.9-3,.6-.1,19.9-3.5s16.2-2.3,24.1,15l4.3,23.9Z"/><path class="cls-8" d="M2258.8,2008.7s-2.7.2-2,3.2l5.7-1a2.84,2.84,0,0,0-3.29-2.3h0A2.6,2.6,0,0,0,2258.8,2008.7Z"/><path class="cls-8" d="M2303.4,2038.4l33.4-5.9s1.4,8.7-6.2,10.8l-25.4,4.9Z"/><path class="cls-8" d="M2226.3,2046.9s6-3.1,9.4,2.4l1.9,10.9-8.3,1.1Z"/><polygon class="cls-9" points="2228.9 2059.1 2237.2 2057.7 2237.6 2060.1 2229.4 2061.6 2228.9 2059.1"/><path class="cls-5" d="M2239.2,2076.4s9.5-11.2,14.4,2.8C2253.6,2079.2,2246.3,2087.4,2239.2,2076.4Z"/><circle class="cls-6" cx="2247.1" cy="2076.8" r="4.3"/><path d="M2236.9,2068.4l17.4-3.1a1.46,1.46,0,0,1,1.76,1.06v.24h0a1.46,1.46,0,0,1-1.06,1.76h-.24l-17.4,3.1a1.46,1.46,0,0,1-1.76-1.06v-.24h0A1.72,1.72,0,0,1,2236.9,2068.4Z"/><ellipse class="cls-10" cx="2248.81" cy="2112.71" rx="9.35" ry="2.79" transform="translate(-328.01 415.45) rotate(-9.84)"/><rect class="cls-3" x="2189.76" y="2368.33" width="178.32" height="39.03" transform="translate(-198.1 4569.51) rotate(-87.71)"/><path d="M2271.9,2480.8s-24.4-4-25.8,7.6l-1.4,11.6h61.4l-.6-19.2Z"/><path class="cls-2" d="M2153.3,2227.2s-20.9,7.9-20,9.5c0,0-2.9,3.3,2.7,1.4l7.1-2.8-10.4,18.8s.3,4.1,2.5.7l4.7-8.6.4-.8-5.8,11.9a1.73,1.73,0,0,0,2.33.74h.17c1.6-.9,5.8-11.9,5.8-11.9l-4.3,11a1.73,1.73,0,0,0,2.33.74h.17c1.6-.9,4.3-11,4.3-11l1.6-.9-.6,6.1s2.4,1.5,2.5-.7l8.1-17.6Z"/><polyline class="cls-3" points="2313.6 2483.5 2309.1 2385.6 2306.7 2387.2"/><polyline class="cls-3" points="2294 2303.6 2334.3 2300 2349.1 2483.5 2307.6 2483.5"/><ellipse class="cls-4" cx="2313.2" cy="2327.3" rx="2.5" ry="3.1"/><ellipse class="cls-4" cx="2313.2" cy="2338.2" rx="2.5" ry="3.1"/><path class="cls-4" d="M2309.1,2325.2s-2.8,33.8,6.4,27.6v3.8s-9.2,7.1-9.4-30.5Z"/><polygon class="cls-5" points="2349.5 2482.1 2346.9 2482.3 2336.8 2314.4 2339.3 2314.1 2349.5 2482.1"/><polygon class="cls-5" points="2343.1 2482.1 2340.6 2482.3 2330.4 2314.4 2332.9 2314.1 2343.1 2482.1"/><path class="cls-29" d="M2323.9,2480.8s-24.4-4-25.8,7.6l-1.4,11.6h61.4l-.6-19.2Z"/><path class="cls-11" d="M2319.5,2170l18.3,116.5-72.6,16.2-6.3-38.3-14.5-88.7c-1.8-.4-3.4,1.1-4.6,3.9l-53.5,38.5-26.1,22.9-13.7-18.3,74.2-70.7a35.27,35.27,0,0,1,10.6-4.9,65.4,65.4,0,0,1,14.7-1.3c46.2,27.2,58.9-8.3,58.9-8.3a40,40,0,0,1,15.8.2s10.6-.5,11.5,5.4C2332.3,2142.9,2339.8,2153.1,2319.5,2170Z"/><path class="cls-2" d="M2233.8,2242.1s-1.9,22.3-3.7,21.9c0,0-2.4,3.7-2.1-2.2l.8-7.6-15.3,15.1s-4,.9-1.3-2.2l7-6.9.7-.7-9.9,8.9a1.84,1.84,0,0,1-1.4-2.19h0v-.1c.5-1.8,9.9-8.9,9.9-8.9l-9.4,7.1a1.71,1.71,0,0,1-1.35-2,1.33,1.33,0,0,1,.05-.19v-.1c.4-1.8,9.4-7.1,9.4-7.1l.4-1.8-5.7,2.3s-2.1-1.9,0-2.6l14.7-12.6Z"/><polygon class="cls-30" points="2331.3 2156.6 2239.3 2249.9 2218.8 2240.6 2307.4 2152.4 2331.3 2156.6"/><path class="cls-11" d="M2338,2286s2,14-1,14l-72,3Z"/><polygon class="cls-11" points="1960.3 2164 1979 2179.9 1827.3 2209 1824 2191.8 1960.3 2164"/><path class="cls-2" d="M135.6,2825.2v16.3l-19.7,10.9c36.5,32.6,59,0,59,0l-19.6-10.9v-16.3"/><circle class="cls-2" cx="140.14" cy="2788.9" r="44.6" transform="translate(-85.33 5.6) rotate(-1.75)"/><path class="cls-2" d="M237,2895.8s-1.9-22.1-.1-22c0,0,1.7-4,2.4,1.8l.6,7.6,12.4-17.3s3.8-1.5,1.7,2l-5.6,7.9-.5.8,8.1-10.4a1.87,1.87,0,0,1,1.7,1.9v.1c-.1,1.8-8.1,10.4-8.1,10.4l8-8.5a1.87,1.87,0,0,1,1.7,1.9v.1c-.1,1.8-8,8.5-8,8.5l-.1,1.8,5.2-3.2s2.4,1.5.4,2.5l-12.2,14.8Z"/><path class="cls-11" d="M105.1,2963.6l1.3-78.9s-12.6-5.9-12.6,7.9l-5.9,42.2s-1.9,7.9,5.8,6.9l31-3.9,1,16.7-37.8,3.9s-23.2,3.9-17.4-27.5l9.7-51s2.9-30.4,35.8-29.4c0,0,17.4,33.4,59,0,0,0,22-3.7,27.8,5.9l8.7,41.6,2.9,18.4,19.3-29.4,13,8-15,29s-17.9,31.1-37.5,1.6l-13.4-45.7-1.9,83.8Z"/><path class="cls-7" d="M179.4,2767.6s5.8-38.8-17.6-43H124s-16.3.5-21,18.9v24.1Z"/><path class="cls-8" d="M148.5,2720s2.6-.3,2.5,2.8h-5.7S145.1,2719.8,148.5,2720Z"/><path class="cls-8" d="M103.1,2757.8H69.4s.1,8.8,7.9,9.4l25.7.3Z"/><path class="cls-8" d="M179.9,2752.7s-6.4-1.9-8.8,4v10.9l8.3-.3Z"/><polygon class="cls-9" points="179.5 2765.1 171.1 2765.1 171.1 2767.6 179.4 2767.6 179.5 2765.1"/><polygon class="cls-3" points="179 2999 228.2 2985.6 206 2977.2 179 2985 179 2999"/><polygon class="cls-3" points="179 2979.4 196.3 2973.5 179 2967 179 2979.4"/><polygon class="cls-3" points="179 2999 112.9 2999 105 2964 179 2964 179 2999"/><path class="cls-31" d="M189.7,2682.7c2.6-2.8,5.5-4.9,9.4-5,4.8,0,8.4,2,10.5,6.2s1.8,8.8-1.4,12.3c-5.9,6.4-12.2,12.4-18.9,19.1-2-2.2-3.7-4.3-5.6-6.2L172,2697.4c-4.8-4.8-5.1-11.6-.8-16.1,4.5-4.8,11.5-4.9,16.6-.3Z"/><path class="cls-2" d="M517.6,2825.2v16.3l-19.7,10.9c36.5,32.6,59,0,59,0l-19.7-10.9v-16.3"/><circle class="cls-2" cx="530.1" cy="2797.45" r="44.71" transform="translate(-2307.07 3036.63) rotate(-84.09)"/><path class="cls-2" d="M619,2895.8s-1.9-22.1-.1-22c0,0,1.7-4,2.4,1.8l.5,7.6,12.4-17.3s3.8-1.5,1.7,2l-5.6,7.9-.5.8,8.2-10.4a1.87,1.87,0,0,1,1.7,1.9v.1c-.1,1.8-8.2,10.4-8.2,10.4l8-8.5a1.87,1.87,0,0,1,1.7,1.9v.1c-.1,1.8-8,8.5-8,8.5l-.2,1.8,5.2-3.2s2.4,1.5.4,2.5l-12.2,14.8Z"/><path class="cls-11" d="M487.1,2963.6l1.3-78.9s-12.6-5.9-12.6,7.9l-5.9,42.2s-1.9,7.9,5.8,6.9l31-3.9,1,16.7-37.8,3.9s-23.2,3.9-17.4-27.5l9.7-51s2.9-30.4,35.8-29.4c0,0,17.4,33.4,59,0,0,0,22-3.7,27.8,5.9l8.7,41.6,2.9,18.4,19.3-29.4,13,8-15,29s-17.9,31.1-37.5,1.6l-13.3-45.7-1.9,83.8Z"/><path class="cls-7" d="M561.4,2767.6s5.8-38.8-17.6-43H506s-16.3.5-21,18.9v24.1Z"/><path class="cls-8" d="M530.5,2720s2.6-.3,2.5,2.8h-5.7S527.1,2719.8,530.5,2720Z"/><path class="cls-8" d="M485.1,2757.8H451.5s.1,8.8,7.9,9.4l25.7.3Z"/><path class="cls-8" d="M561.9,2752.7s-6.4-1.9-8.8,4v10.9l8.3-.3Z"/><polygon class="cls-9" points="561.5 2765.1 553.1 2765.1 553.1 2767.6 561.4 2767.6 561.5 2765.1"/><polygon class="cls-3" points="561 2999 610.2 2985.6 588 2977.2 561 2985 561 2999"/><polygon class="cls-3" points="561 2979.4 578.3 2973.5 561 2967 561 2979.4"/><polygon class="cls-3" points="561 2999 494.9 2999 487 2964 561 2964 561 2999"/><path class="cls-31" d="M571.7,2682.7c2.6-2.8,5.5-4.9,9.4-5,4.8,0,8.4,2,10.5,6.2s1.8,8.8-1.4,12.3c-5.9,6.4-12.2,12.4-18.8,19.1-2-2.2-3.7-4.3-5.6-6.2-3.8-3.9-7.8-7.8-11.7-11.7-4.8-4.8-5.1-11.6-.8-16.1,4.5-4.8,11.5-4.9,16.6-.3Z"/><path class="cls-31" d="M517.7,2649.7c2.6-2.8,5.5-4.9,9.4-5,4.8,0,8.4,2,10.5,6.2s1.8,8.8-1.4,12.3c-5.9,6.4-12.2,12.4-18.8,19.1-2-2.2-3.7-4.3-5.6-6.2l-11.7-11.7c-4.8-4.8-5.1-11.6-.8-16.1,4.5-4.8,11.5-4.9,16.6-.3Z"/><path class="cls-2" d="M851.6,2825.2v16.3l-19.7,10.9c36.5,32.6,59,0,59,0l-19.7-10.9v-16.3"/><circle class="cls-2" cx="856.1" cy="2788.9" r="44.6"/><path class="cls-2" d="M953,2895.8s-1.9-22.1-.1-22c0,0,1.7-4,2.4,1.8l.5,7.6,12.4-17.3s3.8-1.5,1.7,2l-5.6,7.9-.5.8,8.2-10.4a1.87,1.87,0,0,1,1.7,1.9v.1c-.1,1.8-8.2,10.4-8.2,10.4l8-8.5a1.87,1.87,0,0,1,1.7,1.9v.1c-.1,1.8-8,8.5-8,8.5l-.2,1.8,5.2-3.2s2.4,1.5.4,2.5l-12.2,14.8Z"/><path class="cls-11" d="M821.1,2963.6l1.3-78.9s-12.6-5.9-12.6,7.9l-5.8,42.2s-1.9,7.9,5.8,6.9l31-3.9,1,16.7-37.8,3.9s-23.2,3.9-17.4-27.5l9.7-51s2.9-30.4,35.8-29.4c0,0,17.4,33.4,59,0,0,0,22-3.7,27.8,5.9l8.7,41.6,2.9,18.4,19.3-29.4,13,8-15,29s-17.9,31.1-37.5,1.6L897,2879.9l-1.9,83.8Z"/><path class="cls-7" d="M895.4,2767.6s5.8-38.8-17.6-43H840s-16.3.5-21,18.9v24.1Z"/><path class="cls-8" d="M864.5,2720s2.6-.3,2.5,2.8h-5.7S861.1,2719.8,864.5,2720Z"/><path class="cls-8" d="M819.1,2757.8H785.5s.1,8.8,7.9,9.4l25.7.3v-9.7Z"/><path class="cls-8" d="M895.9,2752.7s-6.4-1.9-8.8,4v10.9l8.3-.3Z"/><polygon class="cls-9" points="895.5 2765.1 887.1 2765.1 887.1 2767.6 895.4 2767.6 895.5 2765.1"/><polygon class="cls-3" points="895 2999 944.2 2985.6 922 2977.2 895 2985 895 2999"/><polygon class="cls-3" points="895 2979.4 912.3 2973.5 895 2967 895 2979.4"/><polygon class="cls-3" points="895 2999 828.9 2999 821 2964 895 2964 895 2999"/><path class="cls-31" d="M905.7,2682.7c2.6-2.8,5.5-4.9,9.4-5,4.8,0,8.4,2,10.5,6.2s1.8,8.8-1.4,12.3c-5.9,6.4-12.2,12.4-18.8,19.1-2-2.2-3.7-4.3-5.6-6.2-3.8-3.9-7.8-7.8-11.7-11.7-4.8-4.8-5.1-11.6-.8-16.1,4.5-4.8,11.5-4.9,16.6-.3Z"/><path class="cls-31" d="M851.7,2649.7c2.6-2.8,5.5-4.9,9.4-5,4.8,0,8.4,2,10.5,6.2s1.8,8.8-1.4,12.3c-5.9,6.4-12.2,12.4-18.8,19.1-2-2.2-3.7-4.3-5.6-6.2-3.8-3.9-7.8-7.8-11.7-11.7-4.8-4.8-5.1-11.6-.8-16.1,4.5-4.8,11.5-4.9,16.6-.3Z"/><path class="cls-31" d="M902.7,2601.7c2.6-2.8,5.5-4.9,9.4-5,4.8,0,8.4,2,10.5,6.2s1.8,8.8-1.4,12.3c-5.9,6.4-12.2,12.4-18.8,19.1-2-2.2-3.7-4.3-5.6-6.2-3.8-3.9-7.8-7.8-11.7-11.7-4.8-4.8-5.1-11.6-.8-16.1,4.5-4.8,11.5-4.9,16.6-.3Z"/><path class="cls-19" d="M952.3,2885.6l4.6-15.2,4.3-12.4c1.8-3.9,5.7-1.8,5.7-1.8l11,3.9c5,1.1,2.8,5.3,2.8,5.3l-9.2,26.5a3.9,3.9,0,0,1-5,1.8l-12-4.6-1.3-.5.6-1.6"/><path class="cls-20" d="M977.7,2860.2l-1.4,3.5-8.8,24-4.4,4.7,3.3,1.3a3.81,3.81,0,0,0,5-1.8l9.2-26.5S982.7,2861.3,977.7,2860.2Z"/><path class="cls-21" d="M964.7,2853.3l-2.7-.8c-.2-.1-.3-.3-.2-.4h0c.1-.2.3-.3.4-.2l2.7.8c.2.1.3.3.2.4h0C965.1,2853.2,964.9,2853.3,964.7,2853.3Z"/><circle class="cls-21" cx="960.9" cy="2888.6" r="1.2"/><path class="cls-19" d="M956.9,2870.4l-5.1,13.8-.2.6a2.82,2.82,0,0,0,1.15,3.82h0a3,3,0,0,0,.75.28Z"/><path class="cls-18" d="M970.5,2888.7l-16.6-5.8a.83.83,0,0,1-.5-1l7.4-21.2a.83.83,0,0,1,1-.5l16.6,5.8a.83.83,0,0,1,.5,1l-7.4,21.2C971.3,2888.6,970.9,2888.9,970.5,2888.7Z"/><rect class="cls-22" x="954.65" y="2865.44" width="23" height="17.8" transform="matrix(0.33, -0.94, 0.94, 0.33, -2065.98, 2836.19)"/><rect class="cls-27" x="963.28" y="2868.01" width="8" height="12" transform="translate(-2064.42 2807.93) rotate(-70.15)"/><line class="cls-28" x1="960" y1="2875.7" x2="974" y2="2872.3"/><line class="cls-28" x1="962.7" y1="2868.2" x2="971.3" y2="2879.8"/><path class="cls-19" d="M618.3,2885.6l4.6-15.2,4.3-12.4c1.8-3.9,5.7-1.8,5.7-1.8l11,3.9c5,1.1,2.8,5.3,2.8,5.3l-9.2,26.5a3.9,3.9,0,0,1-5,1.8l-12-4.6-1.3-.5.6-1.6"/><path class="cls-20" d="M643.7,2860.2l-1.4,3.5-8.8,24-4.4,4.7,3.3,1.3a3.81,3.81,0,0,0,5-1.8l9.2-26.5S648.7,2861.3,643.7,2860.2Z"/><path class="cls-21" d="M637.9,2861.6l-2.7-.8c-.2-.1-.3-.3-.2-.4h0c.1-.2.3-.3.4-.2l2.7.8c.2.1.3.3.2.4h0C638.3,2861.6,638.1,2861.7,637.9,2861.6Z"/><circle class="cls-21" cx="626.9" cy="2888.6" r="1.2"/><path class="cls-19" d="M622.9,2870.4l-5.1,13.8-.2.6a2.82,2.82,0,0,0,1.15,3.82h0a3,3,0,0,0,.75.28Z"/><path class="cls-18" d="M636.5,2888.7l-16.6-5.8a.83.83,0,0,1-.5-1l7.4-21.2a.83.83,0,0,1,1-.5l16.6,5.8a.83.83,0,0,1,.5,1l-7.4,21.2A.87.87,0,0,1,636.5,2888.7Z"/><rect class="cls-22" x="620.68" y="2865.43" width="23" height="17.8" transform="matrix(0.33, -0.94, 0.94, 0.33, -2289.56, 2520.98)"/><rect class="cls-27" x="629.26" y="2868.02" width="8" height="12" transform="translate(-2285.03 2493.75) rotate(-70.15)"/><line class="cls-28" x1="626" y1="2875.7" x2="640" y2="2872.3"/><line class="cls-28" x1="628.7" y1="2868.2" x2="637.3" y2="2879.8"/><path class="cls-19" d="M237.3,2884.6l4.6-15.2,4.3-12.4c1.8-3.9,5.6-1.8,5.6-1.8l11,3.9c5,1.1,2.8,5.3,2.8,5.3l-9.2,26.5a3.9,3.9,0,0,1-5,1.8l-12-4.6-1.3-.5.6-1.6"/><path class="cls-20" d="M262.7,2859.2l-1.4,3.5-8.8,24-4.4,4.7,3.3,1.3a3.81,3.81,0,0,0,5-1.8l9.2-26.5S267.7,2860.3,262.7,2859.2Z"/><path class="cls-21" d="M256.9,2860.6l-2.7-.8c-.2-.1-.3-.3-.2-.4h0c.1-.2.3-.3.4-.2l2.7.8c.2.1.3.3.2.4h0C257.3,2860.6,257.1,2860.7,256.9,2860.6Z"/><circle class="cls-21" cx="245.9" cy="2887.6" r="1.2"/><path class="cls-19" d="M241.9,2869.4l-5.1,13.8-.2.6a2.82,2.82,0,0,0,1.15,3.82h0a3,3,0,0,0,.75.28Z"/><path class="cls-18" d="M254.9,2898.7l-16.5-5.8a.83.83,0,0,1-.5-1l7.4-21.2a.83.83,0,0,1,1-.5l16.5,5.8a.83.83,0,0,1,.5,1l-7.4,21.2A.83.83,0,0,1,254.9,2898.7Z"/><rect class="cls-22" x="239.71" y="2864.41" width="23" height="17.8" transform="matrix(0.33, -0.94, 0.94, 0.33, -2543.66, 2160.73)"/><rect class="cls-27" x="248.23" y="2867.03" width="8" height="12" transform="translate(-2535.75 2134.71) rotate(-70.15)"/><line class="cls-28" x1="245" y1="2874.7" x2="259" y2="2871.3"/><line class="cls-28" x1="247.7" y1="2867.2" x2="256.3" y2="2878.8"/><path class="cls-2" d="M260.22,3295.19s-5.27,22.34-3.39,22.46c0,0,1.13,4.32,2.7-1.48l1.69-7.68,10,19.58s3.64,2.14,2-1.75l-4.58-8.93-.44-.86,6.78,11.8a1.84,1.84,0,0,0,2-1.67h0v-.09c.13-1.88-6.77-11.8-6.77-11.8l6.9,9.92a1.88,1.88,0,0,0,2-1.71h0v-.05c.12-1.88-6.9-9.92-6.9-9.92l.12-1.88,4.85,4.08s2.67-1.21.79-2.52l-10.28-17Z"/><path class="cls-2" d="M81,3301.06s-12,19.56-10.26,20.27c0,0-.28,4.45,3-.56l4-6.76,3.4,21.74s2.79,3.16,2.46-1l-1.55-9.91-.15-1,2.74,13.32a1.85,1.85,0,0,0,2.44-.95h0v-.05c.71-1.75-2.74-13.33-2.74-13.33l3.45,11.58a1.84,1.84,0,0,0,2.43-.94h0v-.06c.71-1.75-3.44-11.58-3.44-11.58l.71-1.75,3.32,5.39s2.91-.31,1.54-2.14L88,3303.9Z"/><path class="cls-1" d="M163.23,3055.91l-.67,1c-1.56,2.1-5.48,7.1-8.72,8.45h9.39"/><path class="cls-2" d="M154.53,3111.78v16.84l-20.31,11.23c37.71,33.69,60.92,0,60.92,0l-20.31-11.23v-16.84"/><path class="cls-11" d="M131.32,3128.07s42.1,50.32,68,0c0,0,51.82-6.71,51.82,40.25l25.91,127.48-25.91,6.71L222,3201.87s-9.71-20.13-22.67-13.42L209.05,3326l-77.73,3.35V3191.81s-22.67-13.42-25.91,10.06l-6.47,114.05-29.15-10.06S73,3141.49,92.46,3141.49C92.46,3141.49,131.32,3124.71,131.32,3128.07Z"/><polygon class="cls-3" points="131.32 3312.67 213.47 3306.14 229.55 3483.09 184.5 3483.09 179.57 3388.72 176.97 3390.19 179.57 3483.09 141.23 3483.09 131.32 3312.67"/><ellipse class="cls-4" cx="174.24" cy="3338.21" rx="2.67" ry="2.95"/><ellipse class="cls-4" cx="174.24" cy="3348.72" rx="2.67" ry="2.95"/><path class="cls-4" d="M170.36,3335.26s-3.09,32.62,7,26.59v3.7s-10,6.85-10.19-29.38Z"/><polygon class="cls-5" points="223.49 3481.75 220.71 3481.98 209.67 3319.99 212.44 3319.76 223.49 3481.75"/><polygon class="cls-5" points="216.58 3481.75 213.8 3481.98 202.76 3319.99 205.53 3319.76 216.58 3481.75"/><path d="M218.51,3480.29s25-4.13,26.48,7.8l1.47,11.92H183.54l.66-19.72Z"/><path d="M144.76,3480.29s-25-4.13-26.47,7.8L116.82,3500h62.92l-.66-19.72Z"/><circle class="cls-2" cx="166.47" cy="3073.23" r="46.03"/><path class="cls-5" d="M182.43,3068.94s-1.27-14.93,12.47-8.42C194.9,3060.52,195.54,3071.77,182.43,3068.94Z"/><circle class="cls-6" cx="188.46" cy="3063.5" r="4.36"/><rect x="180.63" y="3056.37" width="21.4" height="3.26" rx="0.78" ry="0.78"/><path class="cls-1" d="M166.47,3076s-.17.3-.46.78c-1,1.73-3.65,5.83-5.82,6.9h6.28"/><path class="cls-7" d="M128.19,3048.11s-6-40.1,18.15-44.43h39s16.8.54,21.67,19.5v24.93Z"/><path class="cls-8" d="M167.29,3000s-2.73-.27-2.59,2.91h5.89S170.82,2999.82,167.29,3000Z"/><path class="cls-8" d="M207,3038h34.75s-.14,9.07-8.2,9.75l-26.55.35Z"/><path class="cls-8" d="M127.67,3032.72s6.62-2,9.06,4.08v11.31l-8.54-.34Z"/><polygon class="cls-9" points="128.1 3045.53 136.73 3045.53 136.73 3048.11 128.19 3048.11 128.1 3045.53"/><path class="cls-5" d="M142.68,3068.94s-1.26-14.93,12.47-8.42C155.15,3060.52,155.79,3071.77,142.68,3068.94Z"/><circle class="cls-6" cx="148.71" cy="3063.5" r="4.36"/><rect x="140.88" y="3056.37" width="21.4" height="3.26" rx="0.78" ry="0.78"/><path class="cls-10" d="M177,3104.73s8.51.15,13.18-3.72c0,0,2.2,4.31-3.57,4.61A30.2,30.2,0,0,1,177,3104.73Z"/><path class="cls-2" d="M610.22,3295.19s-5.27,22.34-3.39,22.46c0,0,1.13,4.32,2.7-1.48l1.69-7.68,10,19.58s3.64,2.14,2-1.75l-4.58-8.93-.44-.86,6.78,11.8a1.84,1.84,0,0,0,2-1.67h0v-.09c.13-1.88-6.77-11.8-6.77-11.8l6.9,9.92a1.88,1.88,0,0,0,2-1.71h0v-.05c.12-1.88-6.9-9.92-6.9-9.92l.12-1.88,4.85,4.08s2.67-1.21.79-2.52l-10.28-17Z"/><path class="cls-2" d="M431,3301.06s-12,19.56-10.26,20.27c0,0-.28,4.45,3-.56l4-6.76,3.4,21.74s2.79,3.16,2.46-1l-1.55-9.91-.15-1,2.74,13.32a1.85,1.85,0,0,0,2.44-.95h0v-.05c.71-1.75-2.74-13.33-2.74-13.33l3.45,11.58a1.84,1.84,0,0,0,2.43-.94h0v-.06c.71-1.75-3.44-11.58-3.44-11.58l.71-1.75,3.32,5.39s2.91-.31,1.54-2.14L438,3303.9Z"/><path class="cls-1" d="M513.23,3055.91l-.67,1c-1.56,2.1-5.48,7.1-8.72,8.45h9.39"/><path class="cls-2" d="M504.53,3111.78v16.84l-20.31,11.23c37.71,33.69,60.92,0,60.92,0l-20.31-11.23v-16.84"/><path class="cls-11" d="M481.32,3128.07s42.1,50.32,68,0c0,0,51.82-6.71,51.82,40.25l25.91,127.48-25.91,6.71L572,3201.87s-9.71-20.13-22.67-13.42L559.05,3326l-77.73,3.35V3191.81s-22.67-13.42-25.91,10.06l-6.47,114.05-29.15-10.06s3.21-164.37,22.67-164.37C442.46,3141.49,481.32,3124.71,481.32,3128.07Z"/><polygon class="cls-3" points="481.32 3312.67 563.47 3306.14 579.55 3483.09 534.5 3483.09 529.57 3388.72 526.97 3390.19 529.57 3483.09 491.23 3483.09 481.32 3312.67"/><ellipse class="cls-4" cx="524.24" cy="3338.21" rx="2.67" ry="2.95"/><ellipse class="cls-4" cx="524.24" cy="3348.72" rx="2.67" ry="2.95"/><path class="cls-4" d="M520.36,3335.26s-3.09,32.62,7,26.59v3.7s-10,6.85-10.19-29.38Z"/><polygon class="cls-5" points="573.49 3481.75 570.71 3481.98 559.67 3319.99 562.44 3319.76 573.49 3481.75"/><polygon class="cls-5" points="566.58 3481.75 563.8 3481.98 552.76 3319.99 555.53 3319.76 566.58 3481.75"/><path d="M568.51,3480.29s25-4.13,26.48,7.8l1.47,11.92H533.54l.66-19.72Z"/><path d="M494.76,3480.29s-25-4.13-26.47,7.8L466.82,3500h62.92l-.66-19.72Z"/><circle class="cls-2" cx="516.47" cy="3073.2" r="46.03" transform="translate(-2021.81 1265.32) rotate(-45)"/><path class="cls-5" d="M532.43,3068.94s-1.27-14.93,12.47-8.42C544.9,3060.52,545.54,3071.77,532.43,3068.94Z"/><circle class="cls-6" cx="538.46" cy="3063.5" r="4.36"/><rect x="530.63" y="3056.37" width="21.4" height="3.26" rx="0.78" ry="0.78"/><path class="cls-1" d="M516.47,3076s-.17.3-.46.78c-1,1.73-3.65,5.83-5.82,6.9h6.28"/><path class="cls-7" d="M478.19,3048.11s-6-40.1,18.15-44.43h39s16.8.54,21.67,19.5v24.93Z"/><path class="cls-8" d="M517.29,3000s-2.73-.27-2.59,2.91h5.89S520.82,2999.82,517.29,3000Z"/><path class="cls-8" d="M557,3038h34.75s-.14,9.07-8.2,9.75l-26.55.35Z"/><path class="cls-8" d="M477.67,3032.72s6.62-2,9.06,4.08v11.31l-8.54-.34Z"/><polygon class="cls-9" points="478.1 3045.53 486.73 3045.53 486.73 3048.11 478.19 3048.11 478.1 3045.53"/><path class="cls-5" d="M492.68,3068.94s-1.26-14.93,12.47-8.42C505.15,3060.52,505.79,3071.77,492.68,3068.94Z"/><circle class="cls-6" cx="498.71" cy="3063.5" r="4.36"/><rect x="490.88" y="3056.37" width="21.4" height="3.26" rx="0.78" ry="0.78"/><path class="cls-10" d="M526.56,3103.77s8.79.3,13.61-7.53c0,0,2.27,8.73-3.68,9.33A17.25,17.25,0,0,1,526.56,3103.77Z"/><path class="cls-2" d="M960.22,3295.19s-5.27,22.34-3.39,22.46c0,0,1.13,4.32,2.7-1.48l1.69-7.68,10,19.58s3.64,2.14,2-1.75l-4.58-8.93-.44-.86,6.78,11.8a1.84,1.84,0,0,0,2-1.67h0v-.09c.13-1.88-6.77-11.8-6.77-11.8l6.9,9.92a1.88,1.88,0,0,0,2-1.71h0v-.05c.12-1.88-6.9-9.92-6.9-9.92l.12-1.88,4.85,4.08s2.67-1.21.79-2.52l-10.28-17Z"/><path class="cls-2" d="M781,3301.06s-12,19.56-10.26,20.27c0,0-.28,4.45,3-.56l4-6.76,3.4,21.74s2.79,3.16,2.46-1l-1.55-9.91-.15-1,2.74,13.32a1.85,1.85,0,0,0,2.44-.95h0v-.05c.71-1.75-2.74-13.33-2.74-13.33l3.45,11.58a1.84,1.84,0,0,0,2.43-.94h0v-.06c.71-1.75-3.44-11.58-3.44-11.58l.71-1.75,3.32,5.39s2.91-.31,1.54-2.14L788,3303.9Z"/><path class="cls-1" d="M863.23,3055.91l-.67,1c-1.56,2.1-5.48,7.1-8.72,8.45h9.39"/><path class="cls-2" d="M854.53,3111.78v16.84l-20.31,11.23c37.71,33.69,60.92,0,60.92,0l-20.31-11.23v-16.84"/><path class="cls-11" d="M831.32,3128.07s42.1,50.32,68,0c0,0,51.82-6.71,51.82,40.25l25.91,127.48-25.91,6.71L922,3201.87s-9.71-20.13-22.67-13.42L909.05,3326l-77.73,3.35V3191.81s-22.67-13.42-25.91,10.06l-6.47,114.05-29.15-10.06s3.21-164.37,22.67-164.37C792.46,3141.49,831.32,3124.71,831.32,3128.07Z"/><polygon class="cls-3" points="831.32 3312.67 913.47 3306.14 929.55 3483.09 884.5 3483.09 879.57 3388.72 876.97 3390.19 879.57 3483.09 841.23 3483.09 831.32 3312.67"/><ellipse class="cls-4" cx="874.24" cy="3338.21" rx="2.67" ry="2.95"/><ellipse class="cls-4" cx="874.24" cy="3348.72" rx="2.67" ry="2.95"/><path class="cls-4" d="M870.36,3335.26s-3.09,32.62,7,26.59v3.7s-10,6.85-10.19-29.38Z"/><polygon class="cls-5" points="923.49 3481.75 920.71 3481.98 909.67 3319.99 912.44 3319.76 923.49 3481.75"/><polygon class="cls-5" points="916.58 3481.75 913.8 3481.98 902.76 3319.99 905.53 3319.76 916.58 3481.75"/><path d="M918.51,3480.29s25-4.13,26.48,7.8l1.47,11.92H883.54l.66-19.72Z"/><path d="M844.76,3480.29s-25-4.13-26.47,7.8L816.82,3500h62.92l-.66-19.72Z"/><circle class="cls-2" cx="866.47" cy="3073.23" r="46.03"/><path class="cls-5" d="M882.43,3068.94s-1.27-14.93,12.47-8.42C894.9,3060.52,895.54,3071.77,882.43,3068.94Z"/><circle class="cls-6" cx="888.46" cy="3063.5" r="4.36"/><rect x="880.63" y="3056.37" width="21.4" height="3.26" rx="0.78" ry="0.78"/><path class="cls-1" d="M866.47,3076s-.17.3-.46.78c-1,1.73-3.65,5.83-5.82,6.9h6.28"/><path class="cls-7" d="M828.19,3048.11s-6-40.1,18.15-44.43h39s16.8.54,21.67,19.5v24.93Z"/><path class="cls-8" d="M867.29,3000s-2.73-.27-2.59,2.91h5.89S870.82,2999.82,867.29,3000Z"/><path class="cls-8" d="M907,3038h34.75s-.14,9.07-8.2,9.75l-26.55.35Z"/><path class="cls-8" d="M827.67,3032.72s6.62-2,9.06,4.08v11.31l-8.54-.34Z"/><polygon class="cls-9" points="828.1 3045.53 836.73 3045.53 836.73 3048.11 828.19 3048.11 828.1 3045.53"/><path class="cls-5" d="M842.68,3068.94s-1.26-14.93,12.47-8.42C855.15,3060.52,855.79,3071.77,842.68,3068.94Z"/><circle class="cls-6" cx="848.71" cy="3063.5" r="4.36"/><rect x="840.88" y="3056.37" width="21.4" height="3.26" rx="0.78" ry="0.78"/><path class="cls-10" d="M876.56,3102.71s8.79.47,13.61-11.7c0,0,2.27,13.57-3.68,14.51A12.5,12.5,0,0,1,876.56,3102.71Z"/></svg>
