<svg id="Layer_1" data-name="Layer 1" xmlns="http://www.w3.org/2000/svg" xmlns:xlink="http://www.w3.org/1999/xlink" viewBox="0 0 2100 2500"><defs><style>.cls-1{fill:#f96908;}.cls-2{fill:#079929;}.cls-3{fill:#15e8f9;}.cls-4{fill:#1651f7;}.cls-5{fill:#ae19f4;}.cls-6{fill:#d18f82;}.cls-7{fill:#fcad95;}.cls-8{fill:#002053;}.cls-9{stroke:#002b6f;}.cls-10,.cls-11,.cls-27,.cls-43,.cls-56,.cls-57,.cls-9{stroke-miterlimit:10;}.cls-10,.cls-56,.cls-62,.cls-67,.cls-68,.cls-69{fill:#fff;}.cls-10,.cls-11{stroke:#fff;}.cls-12{fill:#bd0000;}.cls-13{fill:#700b0b;}.cls-14{fill:#c69d9d;}.cls-15{fill:#a8736c;}.cls-16{fill:#f8f8f8;}.cls-17{fill:#c41707;}.cls-18{fill:#dbdce6;}.cls-19{fill:#f7da0b;}.cls-20{fill:#f2a694;opacity:0.6;}.cls-21{fill:#f7c4c9;}.cls-22{fill:#f797eb;}.cls-23{fill:#a28eef;}.cls-24{fill:#34c691;}.cls-25{fill:#e2ea3b;}.cls-26{fill:#eda08e;}.cls-27,.cls-57{fill:none;}.cls-27{stroke:#000;stroke-width:0.01px;}.cls-28{fill:#4667d1;}.cls-29{fill:#505151;}.cls-30{fill:#020202;}.cls-31,.cls-32{fill:#5a5b5b;}.cls-31{opacity:0.26;}.cls-32{opacity:0.8;}.cls-33{fill:#dee0e0;}.cls-34{fill:#5c26ef;}.cls-35{fill:#7660e2;}.cls-36{fill:#8a9cf9;}.cls-37{fill:#c0cbf9;}.cls-38{fill:#ced6ef;}.cls-39{fill:#e1e5ef;}.cls-40{fill:#353536;}.cls-41{fill:#c6c6c9;}.cls-42{fill:#6a696f;}.cls-43{fill:#f7f7e4;stroke:#d4d4d6;}.cls-44{fill:#c1f7d4;}.cls-45{fill:#acefc1;}.cls-46{fill:#88e5a2;}.cls-47{fill:#64dd80;}.cls-48{fill:#48cc5a;}.cls-49{fill:#16a81d;}.cls-50{fill:#ce453e;}.cls-51{fill:#cc5552;}.cls-52{fill:#cc6262;}.cls-53{fill:#c67575;}.cls-54{fill:#c18080;}.cls-55{fill:#bc8a8a;}.cls-56{stroke:#edebeb;stroke-width:0.02px;}.cls-57{stroke:#020202;stroke-width:0.1px;}.cls-58{fill:#4572ef;}.cls-59{fill:#a8dcef;}.cls-60{font-size:12px;}.cls-60,.cls-63{font-family:OpenSans, Open Sans;}.cls-61{fill:#fdfeff;}.cls-63{font-size:11.35px;}.cls-64{fill:#e48105;}.cls-65{fill:#313131;}.cls-66,.cls-67,.cls-68,.cls-69{isolation:isolate;}.cls-67,.cls-68,.cls-69{font-size:34.79px;font-family:Futura-Bold, Futura;font-weight:700;}.cls-68{letter-spacing:-0.06em;}.cls-69{letter-spacing:-0.03em;}</style></defs><title>Martin_spritesheet</title><rect class="cls-1" x="-1" width="350" height="500"/><rect class="cls-2" x="699" width="350" height="500"/><rect class="cls-3" x="1049" width="350" height="500"/><rect class="cls-4" x="1399" width="350" height="500"/><rect class="cls-5" x="1749" width="350" height="500"/><path class="cls-6" d="M171.73,52.9s.24.36.67,1c1.55,2.13,5.48,7.18,8.72,8.5h-9.39"/><path class="cls-7" d="M186.58,128v16.14L206,154.93c-36.14,32.27-58.37,0-58.37,0l19.45-10.76V128"/><path class="cls-7" d="M250,305.52s14.44,16.58,12.91,17.53c0,0,1,4.16-3-.05l-4.86-5.75.23,21.08s-2.13,3.43-2.48-.59l-.11-9.61v-.93l-.48,13a1.76,1.76,0,0,1-2.48-.59c-1-1.54.47-13,.47-13l-1.42,11.49a1.77,1.77,0,0,1-2.49-.59c-.94-1.54,1.43-11.49,1.43-11.49l-.95-1.54-2.29,5.62s-2.8.17-1.8-1.78l1.13-19Z"/><polygon class="cls-8" points="208.81 310.24 134.59 303.59 120.06 483.79 160.76 483.79 165.22 387.68 167.57 389.18 165.22 483.79 199.86 483.79 208.81 310.24"/><ellipse class="cls-9" cx="170.04" cy="336.25" rx="2.41" ry="3"/><ellipse class="cls-9" cx="170.04" cy="346.95" rx="2.41" ry="3"/><path class="cls-9" d="M173.54,333.24s2.79,33.22-6.29,27.08v3.77s9,7,9.2-29.93Z"/><polygon class="cls-10" points="125.54 482.42 128.04 482.66 138.02 317.69 135.51 317.45 125.54 482.42"/><polygon class="cls-10" points="131.78 482.42 134.28 482.66 144.26 317.69 141.76 317.45 131.78 482.42"/><path d="M125.28,481.11s-24-4-25.37,7.47L98.5,500h60.29l-.64-18.89Z"/><path d="M201.69,481.11s23.95-4,25.36,7.47L228.46,500H168.18l.63-18.89Z"/><circle class="cls-7" cx="175.14" cy="91.1" r="44.1"/><path class="cls-10" d="M162.72,90.82s1.21-14.32-11.94-8.07C150.78,82.75,150.16,93.53,162.72,90.82Z"/><circle class="cls-11" cx="156.95" cy="85.61" r="4.18"/><rect x="143.94" y="74.94" width="20.5" height="3.12" rx="1.56" ry="1.56" transform="translate(308.38 153) rotate(-180)"/><path class="cls-6" d="M175.14,93.76s.16.29.44.75c1,1.65,3.5,5.58,5.58,6.61h-6"/><path class="cls-12" d="M211.81,67s5.71-38.42-17.39-42.57H157S141,25,136.28,43.15V67Z"/><path class="cls-13" d="M174.36,21s2.6-.26,2.48,2.79h-5.65S171,20.76,174.36,21Z"/><path class="cls-13" d="M136.28,57.36H103s.13,8.69,7.86,9.34l25.44.33Z"/><path class="cls-13" d="M212.31,52.28s-6.34-1.93-8.67,3.91V67l8.17-.33Z"/><polygon class="cls-14" points="211.9 64.56 203.64 64.56 203.64 67.03 211.81 67.03 211.9 64.56"/><path class="cls-10" d="M199.15,84s-11.06-9.17-13.44,5.2C185.71,89.15,194.22,95.81,199.15,84Z"/><circle class="cls-11" cx="191.58" cy="85.71" r="4.18"/><rect x="182.03" y="74.94" width="20.5" height="3.12" rx="1.56" ry="1.56" transform="translate(384.55 153) rotate(-180)"/><path class="cls-15" d="M197.85,112.52s-17.64,5.17-29.35.63c0,0-2.35,9.32,9.81,6.56A72.62,72.62,0,0,0,197.85,112.52Z"/><path class="cls-16" d="M147.84,154s17.25,32.8,58.45,0c0,0,43.11-7.72,39.28,24.11l10.54,131.21-15.33,3.86-17.25-117.7s0-16.4-11.49-12.54l-2.88,126.38-72.81-5.79,1.91-115.77s-12.45-5.79-12.45,7.72L120.06,237s-1.92,7.72,5.75,6.76l30.66-3.86.95,16.4-37.36,3.86s-23,3.86-17.25-27l9.58-50.16S115.27,153,147.84,154Z"/><path class="cls-17" d="M164.26,232.42a.87.87,0,0,0,.45,1.06.92.92,0,0,0,.38.73s-.26,1.06.19,1.51a15.54,15.54,0,0,0,.64,3.46l.77,6.76s.25,2.57.7,2.84a10,10,0,0,0,.45,3.13s-.07,2.91.76,3.58v1.11s.52,1.9,9.91,1.4c0,0,6.58-.11,5.37-2.74,0,0,.64-.44.83-6.14,0,0,.32-.11.83-6.76,0,0,.38-.72.45-3.8,0,0,.25-.16.12-.72,0,0,.51,0,.39-2.4,0,0,.38.33.25-1.46a.94.94,0,0,0,.32-.78s.45.06.39-.78Z"/><ellipse class="cls-18" cx="175.86" cy="232.47" rx="11.65" ry="1.7"/><path class="cls-7" d="M164.52,242.45l1.94.29,18.9,2.87s3,2.66-1,2.36l-9.5-1.44-.92-.14L186.74,249a1.78,1.78,0,0,1-1,2.36c-1.67.68-12.78-2.57-12.78-2.57L184.08,252a1.77,1.77,0,0,1-1,2.36c-1.67.69-11.1-3.25-11.1-3.25l-1.68.68,5.18,3.17s-.29,2.79-2.05,1.48l-18.57-4.17-2.74-6.69s7.51-4.66,13.19-7.64h.25l.48,1.45Z"/><path class="cls-16" d="M463,229.5l32-4"/><path class="cls-16" d="M463,179.16l-6,43.29"/><line class="cls-16" x1="496" y1="242.59" x2="457" y2="246.62"/><line class="cls-16" x1="495" y1="225.47" x2="496" y2="242.59"/><polygon class="cls-16" points="530 142 540 152 528.98 158.43 518.98 148.71 530 142"/><rect class="cls-19" x="349" width="350" height="500"/><path class="cls-7" d="M530.58,128v16.14L550,154.93c-36.14,32.27-58.37,0-58.37,0l19.45-10.76V128"/><path class="cls-7" d="M594,305.52s14.44,16.58,12.91,17.53c0,0,1,4.16-3-.05l-4.86-5.75.23,21.08s-2.13,3.43-2.48-.59l-.11-9.61v-.93l-.48,13a1.76,1.76,0,0,1-2.48-.59c-1-1.54.47-13,.47-13l-1.42,11.49a1.77,1.77,0,0,1-2.49-.59c-.94-1.54,1.43-11.49,1.43-11.49l-1-1.54-2.29,5.62s-2.8.17-1.8-1.78l1.13-19Z"/><polygon class="cls-8" points="552.82 310.24 478.59 303.59 464.06 483.79 504.76 483.79 509.21 387.68 511.57 389.18 509.21 483.79 543.86 483.79 552.82 310.24"/><ellipse class="cls-9" cx="514.04" cy="336.25" rx="2.41" ry="3"/><ellipse class="cls-9" cx="514.04" cy="346.95" rx="2.41" ry="3"/><path class="cls-9" d="M517.54,333.24s2.79,33.22-6.29,27.08v3.77s9,7,9.2-29.93Z"/><polygon class="cls-10" points="469.54 482.42 472.04 482.66 482.02 317.69 479.51 317.45 469.54 482.42"/><polygon class="cls-10" points="475.78 482.42 478.29 482.66 488.26 317.69 485.76 317.45 475.78 482.42"/><path d="M469.28,481.11s-24-4-25.37,7.47L442.5,500h60.29l-.64-18.89Z"/><path d="M545.69,481.11s23.95-4,25.36,7.47L572.46,500H512.18l.63-18.89Z"/><circle class="cls-7" cx="519.14" cy="91.1" r="44.1"/><path class="cls-10" d="M506.72,90.82s1.21-14.32-11.94-8.07C494.78,82.75,494.16,93.53,506.72,90.82Z"/><circle class="cls-11" cx="500.95" cy="85.61" r="4.18"/><rect x="487.94" y="74.94" width="20.5" height="3.12" rx="1.56" ry="1.56" transform="translate(996.38 153) rotate(-180)"/><path class="cls-6" d="M519.14,93.76s.16.29.44.75c1,1.65,3.5,5.58,5.58,6.61h-6"/><path class="cls-12" d="M555.81,67s5.71-38.42-17.39-42.57H501S485,25,480.28,43.15V67Z"/><path class="cls-13" d="M518.36,21s2.6-.26,2.48,2.79h-5.65S515,20.76,518.36,21Z"/><path class="cls-13" d="M480.28,57.36H447s.13,8.69,7.86,9.34l25.44.33Z"/><path class="cls-13" d="M556.31,52.28s-6.34-1.93-8.67,3.91V67l8.17-.33Z"/><polygon class="cls-14" points="555.9 64.56 547.64 64.56 547.64 67.03 555.81 67.03 555.9 64.56"/><path class="cls-10" d="M543.15,84s-11.06-9.17-13.44,5.2C529.71,89.15,538.22,95.81,543.15,84Z"/><circle class="cls-11" cx="535.58" cy="85.71" r="4.18"/><rect x="526.03" y="74.94" width="20.5" height="3.12" rx="1.56" ry="1.56" transform="translate(1072.55 153) rotate(-180)"/><path class="cls-15" d="M541.85,112.52s-17.64,5.17-29.35.63c0,0-2.35,9.32,9.81,6.56A72.62,72.62,0,0,0,541.85,112.52Z"/><path class="cls-16" d="M456.39,182.93S459.27,153,491.84,154c0,0,12.94,24.61,43.18,9.88A83.94,83.94,0,0,0,550.29,154s43.11-7.72,39.28,24.11l10.54,131.21-15.33,3.86-17.25-117.7s0-16.4-11.49-12.54l-2.88,126.38-72.81-5.79,1.91-115.77s-12.45-5.79-12.45,7.72c0,0,25.87-21.23,42.15-22.19l22-13.41,9.58,9.58-23,13.41-41.2,22S441.06,223.23,456.39,182.93Z"/><path class="cls-17" d="M536.27,147.6a.88.88,0,0,0,.9.72.89.89,0,0,0,.68.45s.29,1,.89,1.23a14.84,14.84,0,0,0,2.23,2.73l3.91,5.56s1.46,2.13,2,2.16a9.91,9.91,0,0,0,1.9,2.53s1.34,2.58,2.39,2.77l.53,1s1.36,1.42,9.36-3.53c0,0,5.72-3.25,3.4-5,0,0,.34-.7-2.22-5.79,0,0,.22-.25-2.52-6.33,0,0,0-.82-1.43-3.55,0,0,.15-.26-.23-.69,0,0,.45-.25-.82-2.29,0,0,.5.11-.47-1.4a1,1,0,0,0-.1-.84s.42-.17,0-.87Z"/><ellipse class="cls-18" cx="546.46" cy="142.08" rx="11.65" ry="1.7" transform="translate(-1.15 279.66) rotate(-28.68)"/><path class="cls-7" d="M541.3,156.27l1.85-.67,18-6.55s3.95.87.27,2.54l-9,3.29-.88.32,12.45-3.88a1.78,1.78,0,0,1,.27,2.55c-1.14,1.4-12.45,3.87-12.45,3.87l11.31-2.47a1.78,1.78,0,0,1,.27,2.54c-1.14,1.41-11.31,2.48-11.31,2.48l-1.14,1.4,6.07.3s1.08,2.58-1.09,2.28l-18.29,5.25L531.94,165s2.44-4.31,5.16-8.72l.46-.75c.14-.22.28-.44.41-.66.63-1,1.27-2,1.87-2.91l1.34.93Z"/><polygon class="cls-20" points="530.61 142.59 530 142.03 535.65 133 536 133.45 530.61 142.59"/><path class="cls-7" d="M888.58,128v16.14L908,154.93c-36.14,32.27-58.37,0-58.37,0l19.45-10.76V128"/><path class="cls-7" d="M952,305.52s14.44,16.58,12.91,17.53c0,0,1,4.16-3-.05l-4.86-5.75.23,21.08s-2.13,3.43-2.48-.59l-.11-9.61v-.93l-.48,13a1.76,1.76,0,0,1-2.48-.59c-1-1.54.47-13,.47-13l-1.42,11.49a1.77,1.77,0,0,1-2.49-.59c-.94-1.54,1.43-11.49,1.43-11.49l-1-1.54-2.29,5.62s-2.8.17-1.8-1.78l1.13-19Z"/><polygon class="cls-8" points="910.82 310.24 836.59 303.59 822.06 483.79 862.76 483.79 867.22 387.68 869.57 389.18 867.22 483.79 901.86 483.79 910.82 310.24"/><ellipse class="cls-9" cx="872.04" cy="336.25" rx="2.41" ry="3"/><ellipse class="cls-9" cx="872.04" cy="346.95" rx="2.41" ry="3"/><path class="cls-9" d="M875.54,333.24s2.79,33.22-6.29,27.08v3.77s9,7,9.2-29.93Z"/><polygon class="cls-10" points="827.54 482.42 830.04 482.66 840.02 317.69 837.51 317.45 827.54 482.42"/><polygon class="cls-10" points="833.78 482.42 836.28 482.66 846.26 317.69 843.76 317.45 833.78 482.42"/><path d="M827.28,481.11s-24-4-25.37,7.47L800.5,500h60.29l-.64-18.89Z"/><path d="M903.69,481.11s23.95-4,25.36,7.47L930.46,500H870.18l.63-18.89Z"/><circle class="cls-7" cx="877.14" cy="91.1" r="44.1"/><path class="cls-10" d="M864.72,90.82s1.21-14.32-11.94-8.07C852.78,82.75,852.16,93.53,864.72,90.82Z"/><circle class="cls-11" cx="858.95" cy="85.61" r="4.18"/><rect x="845.94" y="74.94" width="20.5" height="3.12" rx="1.56" ry="1.56" transform="translate(1712.38 153) rotate(-180)"/><path class="cls-6" d="M877.14,93.76s.16.29.44.75c1,1.65,3.5,5.58,5.58,6.61h-6"/><path class="cls-12" d="M913.81,67s5.71-38.42-17.39-42.57H859S843,25,838.28,43.15V67Z"/><path class="cls-13" d="M876.36,21s2.6-.26,2.48,2.79h-5.65S873,20.76,876.36,21Z"/><path class="cls-13" d="M838.28,57.36H805s.13,8.69,7.86,9.34l25.44.33Z"/><path class="cls-13" d="M914.31,52.28s-6.34-1.93-8.67,3.91V67l8.17-.33Z"/><polygon class="cls-14" points="913.9 64.56 905.64 64.56 905.64 67.03 913.81 67.03 913.9 64.56"/><path class="cls-10" d="M901.15,84s-11.06-9.17-13.44,5.2C887.71,89.15,896.22,95.81,901.15,84Z"/><circle class="cls-11" cx="893.58" cy="85.71" r="4.18"/><rect x="884.03" y="74.94" width="20.5" height="3.12" rx="1.56" ry="1.56" transform="translate(1788.55 153) rotate(-180)"/><path class="cls-17" d="M887.47,126.76a.88.88,0,0,0,1.08.4.9.9,0,0,0,.79.21s.6.92,1.23.89a15.34,15.34,0,0,0,3,1.91l5.45,4.06s2,1.57,2.56,1.44a10,10,0,0,0,2.59,1.81s2.07,2,3.13,1.89l.81.76s1.74.93,7.8-6.27c0,0,4.42-4.88,1.67-5.79,0,0,.11-.77-3.91-4.81,0,0,.14-.31-4.36-5.22,0,0-.27-.78-2.47-2.93,0,0,.06-.3-.44-.59,0,0,.35-.37-1.49-1.92,0,0,.51,0-.88-1.18a1,1,0,0,0-.35-.77s.34-.29-.31-.81Z"/><ellipse class="cls-18" cx="895.44" cy="118.33" rx="11.65" ry="1.7" transform="translate(196.59 690.54) rotate(-46.84)"/><path class="cls-7" d="M895,133.42l1.55-1.21,15-11.82s4-.41,1.05,2.33L905,128.66l-.73.58,10.62-7.57A1.78,1.78,0,0,1,916,124c-.65,1.69-10.62,7.56-10.62,7.56l10-5.87a1.77,1.77,0,0,1,1.05,2.33c-.64,1.69-10,5.87-10,5.87l-.65,1.69L911.6,134s1.83,2.12-.32,2.51l-15.75,10.69-6.76-2.57s1-4.86,2.19-9.9c.06-.28.13-.57.2-.85s.13-.51.19-.76c.29-1.15.58-2.28.87-3.34l1.56.46Z"/><path class="cls-16" d="M840.26,187.75l-1.91,115.77,72.81,5.79L914,182.93c11.49-3.86,11.49,12.54,11.49,12.54l17.25,117.7,15.33-3.86L947.57,178.1C951.4,146.27,908.29,154,908.29,154A83.94,83.94,0,0,1,893,163.87C862.78,178.6,849.84,154,849.84,154s-40.24-3.7-30.66,30.79c0,0,3.84,14.37,14.38,11.5l71.85-47.91-20.12-8.62L832.6,179Z"/><circle class="cls-15" cx="885.29" cy="119.63" r="4.79"/><path class="cls-7" d="M1305.6,294s15.08,17.31,13.47,18.3c0,0,1,4.34-3.08-.06l-5.08-6,.25,22s-2.23,3.58-2.6-.62l-.11-10v-1l-.5,13.6a1.84,1.84,0,0,1-2.59-.62c-1-1.61.49-13.6.49-13.6l-1.48,12a1.85,1.85,0,0,1-2.6-.62c-1-1.6,1.49-12,1.49-12l-1-1.6-2.39,5.87s-2.92.16-1.87-1.87l1.17-19.83Z"/><polygon class="cls-16" points="1236.11 146.8 1245 141 1254 152 1244.61 157.48 1236.11 146.8"/><polygon class="cls-16" points="523.98 165.71 533.98 175.43 545 169 535 159 523.98 165.71"/><polygon class="cls-20" points="1246.12 142.32 1245.57 141.69 1252.13 133.3 1252.44 133.79 1246.12 142.32"/><path class="cls-7" d="M1236.65,124.5v16.33l19.7,10.89c-36.58,32.67-59.08,0-59.08,0L1217,140.83V124.5"/><polygon class="cls-8" points="1259.16 308.93 1184.03 302.19 1169.32 484.59 1210.52 484.59 1215.03 387.31 1217.41 388.83 1215.03 484.59 1250.1 484.59 1259.16 308.93"/><ellipse class="cls-9" cx="1219.91" cy="335.25" rx="2.44" ry="3.04"/><ellipse class="cls-9" cx="1219.91" cy="346.08" rx="2.44" ry="3.04"/><path class="cls-9" d="M1223.45,332.21s2.83,33.63-6.37,27.41v3.81s9.13,7.06,9.32-30.29Z"/><polygon class="cls-10" points="1174.87 483.21 1177.4 483.45 1187.5 316.47 1184.97 316.23 1174.87 483.21"/><polygon class="cls-10" points="1181.18 483.21 1183.72 483.45 1193.82 316.47 1191.29 316.23 1181.18 483.21"/><path d="M1174.6,481.88s-24.24-4-25.67,7.56L1147.5,501h61l-.64-19.12Z"/><path d="M1251.94,481.88s24.25-4,25.68,7.56L1279,501h-61l.64-19.12Z"/><circle class="cls-7" cx="1225.08" cy="87.12" r="44.63"/><path class="cls-10" d="M1212.5,86.83s1.23-14.49-12.09-8.17C1200.41,78.66,1199.79,89.58,1212.5,86.83Z"/><circle class="cls-11" cx="1206.66" cy="81.56" r="4.23"/><rect x="1193.5" y="70.76" width="20.75" height="3.16" rx="1.58" ry="1.58" transform="translate(2407.74 144.68) rotate(-180)"/><path class="cls-6" d="M1225.08,89.81s.16.29.43.75c1,1.68,3.55,5.66,5.65,6.7h-6.08"/><path class="cls-12" d="M1262.19,62.75s5.79-38.88-17.6-43.09h-37.83s-16.3.53-21,18.92V62.75Z"/><path class="cls-13" d="M1224.28,16.12s2.64-.27,2.51,2.82h-5.72S1220.85,15.92,1224.28,16.12Z"/><path class="cls-13" d="M1185.74,53H1152s.13,8.8,8,9.45l25.75.33Z"/><path class="cls-13" d="M1262.7,47.83s-6.42-2-8.78,4v11l8.27-.33Z"/><polygon class="cls-14" points="1262.28 60.26 1253.92 60.26 1253.92 62.75 1262.19 62.75 1262.28 60.26"/><path class="cls-10" d="M1249.38,79.88s-11.2-9.28-13.61,5.27C1235.77,85.15,1244.39,91.88,1249.38,79.88Z"/><circle class="cls-11" cx="1241.71" cy="81.67" r="4.23"/><rect x="1232.04" y="70.76" width="20.75" height="3.16" rx="1.58" ry="1.58" transform="translate(2484.84 144.68) rotate(-180)"/><path class="cls-16" d="M1162.53,180.06s2.91-30.27,35.88-29.29c0,0,13.1,24.91,43.71,10a84.69,84.69,0,0,0,15.45-10s43.64-7.81,39.76,24.41L1308,308l-15.52,3.9L1275,192.76s0-16.6-11.64-12.7L1260.48,308l-73.7-5.86L1188.72,185s-12.61-5.86-12.61,7.81c0,0,26.18-21.49,42.67-22.46l22.3-13.57,9.7,9.69L1227.51,180l-41.7,22.31S1147,220.86,1162.53,180.06Z"/><path class="cls-17" d="M1246.86,143a.88.88,0,0,0,.88.76.9.9,0,0,0,.67.49s.24,1.08.84,1.29a15.28,15.28,0,0,0,2.12,2.86l3.71,5.81s1.37,2.22,1.9,2.28a9.86,9.86,0,0,0,1.8,2.64s1.23,2.67,2.28,2.91l.5,1s1.31,1.5,9.63-3.13c0,0,5.93-3,3.66-4.88,0,0,.38-.69-2-5.95,0,0,.24-.25-2.25-6.52,0,0,0-.83-1.28-3.65,0,0,.16-.27-.21-.72,0,0,.47-.22-.72-2.35,0,0,.5.13-.41-1.44a1,1,0,0,0-.06-.85s.44-.15,0-.88Z"/><ellipse class="cls-18" cx="1257.43" cy="137.88" rx="11.79" ry="1.72" transform="translate(67.14 566.07) rotate(-26.04)"/><path class="cls-7" d="M1251.55,152l1.9-.6,18.47-5.78s3.95,1.06.15,2.58l-9.29,2.91-.89.28,12.76-3.34a1.78,1.78,0,0,1,.15,2.58C1273.59,152,1262,154,1262,154l11.55-2a1.79,1.79,0,0,1,.15,2.58c-1.22,1.37-11.55,2-11.55,2l-1.22,1.36,6.12.58s1,2.67-1.2,2.26l-18.74,4.46-5.47-4.86s2.67-4.25,5.62-8.58l.5-.74.45-.64c.68-1,1.37-2,2-2.85l1.3,1Z"/><path class="cls-15" d="M1226.51,116.52s-.82-2.47,1.65-2.47a9.78,9.78,0,0,0,9,0s2.46,0,1.64,1.65c0,0-2.46,8.2-5.74,9C1233.08,124.72,1228.16,121.44,1226.51,116.52Z"/><rect class="cls-21" y="500" width="350" height="500"/><rect class="cls-22" x="349" y="500" width="350" height="500"/><rect class="cls-23" x="699" y="500" width="350" height="500"/><rect class="cls-24" x="1399" y="500" width="350" height="500"/><rect class="cls-25" x="1749" y="500" width="350" height="500"/><path class="cls-7" d="M1576.58,123v16.14L1596,149.93c-36.14,32.27-58.37,0-58.37,0l19.45-10.76V123"/><path class="cls-7" d="M1640,300.52s14.44,16.58,12.91,17.53c0,0,1,4.16-3-.05l-4.86-5.75.23,21.08s-2.13,3.43-2.48-.59l-.11-9.61v-.93l-.48,13a1.76,1.76,0,0,1-2.48-.59c-1-1.54.47-13,.47-13l-1.42,11.49a1.77,1.77,0,0,1-2.49-.59c-.94-1.54,1.43-11.49,1.43-11.49l-1-1.54-2.29,5.62s-2.8.17-1.8-1.78l1.13-19Z"/><polygon class="cls-8" points="1598.82 305.24 1524.59 298.59 1510.06 478.79 1550.77 478.79 1555.21 382.68 1557.57 384.18 1555.21 478.79 1589.86 478.79 1598.82 305.24"/><ellipse class="cls-9" cx="1560.04" cy="331.25" rx="2.41" ry="3"/><ellipse class="cls-9" cx="1560.04" cy="341.95" rx="2.41" ry="3"/><path class="cls-9" d="M1563.54,328.24s2.79,33.22-6.29,27.08v3.77s9,7,9.2-29.93Z"/><polygon class="cls-10" points="1515.54 477.42 1518.04 477.66 1528.02 312.69 1525.52 312.45 1515.54 477.42"/><polygon class="cls-10" points="1521.78 477.42 1524.29 477.66 1534.26 312.69 1531.76 312.45 1521.78 477.42"/><path d="M1515.28,476.11s-24-4-25.37,7.47L1488.5,495h60.29l-.64-18.89Z"/><path d="M1591.69,476.11s24-4,25.36,7.47l1.41,11.42h-60.28l.63-18.89Z"/><circle class="cls-7" cx="1565.14" cy="86.1" r="44.1"/><path class="cls-10" d="M1552.72,85.82s1.21-14.32-11.94-8.07C1540.78,77.75,1540.16,88.53,1552.72,85.82Z"/><circle class="cls-11" cx="1546.95" cy="80.61" r="4.18"/><rect x="1533.94" y="69.94" width="20.5" height="3.12" rx="1.56" ry="1.56" transform="translate(3088.38 143) rotate(-180)"/><path class="cls-6" d="M1565.14,88.76s.16.29.44.75c1,1.65,3.5,5.58,5.58,6.61h-6"/><path class="cls-12" d="M1601.81,62s5.71-38.42-17.39-42.57H1547S1531,20,1526.28,38.15V62Z"/><path class="cls-13" d="M1564.36,16s2.6-.26,2.48,2.79h-5.65S1561,15.76,1564.36,16Z"/><path class="cls-13" d="M1526.28,52.36H1493s.13,8.69,7.86,9.34l25.44.33Z"/><path class="cls-13" d="M1602.31,47.28s-6.34-1.93-8.67,3.91V62l8.17-.33Z"/><polygon class="cls-14" points="1601.9 59.56 1593.64 59.56 1593.64 62.03 1601.81 62.03 1601.9 59.56"/><path class="cls-10" d="M1589.15,79s-11.06-9.17-13.44,5.2C1575.71,84.15,1584.22,90.81,1589.15,79Z"/><circle class="cls-11" cx="1581.58" cy="80.71" r="4.18"/><rect x="1572.03" y="69.94" width="20.5" height="3.12" rx="1.56" ry="1.56" transform="translate(3164.55 143) rotate(-180)"/><path class="cls-15" d="M1587.85,107.52s-17.64,5.17-29.35.63c0,0-2.35,9.32,9.81,6.56A72.62,72.62,0,0,0,1587.85,107.52Z"/><path class="cls-16" d="M1537.84,149s17.25,32.8,58.45,0c0,0,43.11-7.72,39.28,24.11l10.54,131.21-15.33,3.86-17.25-117.7s0-16.4-11.49-12.54l-2.88,126.38-72.81-5.79,1.91-115.77s-12.45-5.79-12.45,7.72L1510.06,232s-1.92,7.72,5.75,6.76l30.66-3.86,1,16.4-37.36,3.86s-23,3.86-17.25-27l9.58-50.16S1505.27,148,1537.84,149Z"/><path class="cls-17" d="M1554.26,227.42a.87.87,0,0,0,.45,1.06.92.92,0,0,0,.38.73s-.26,1.06.19,1.51a15.54,15.54,0,0,0,.64,3.46l.77,6.76s.25,2.57.7,2.84a10,10,0,0,0,.45,3.13s-.07,2.91.76,3.58v1.11s.52,1.9,9.91,1.4c0,0,6.58-.11,5.37-2.74,0,0,.64-.44.83-6.14,0,0,.32-.11.83-6.76,0,0,.38-.72.45-3.8,0,0,.25-.16.12-.72,0,0,.51,0,.39-2.4,0,0,.38.33.25-1.46a.94.94,0,0,0,.32-.78s.45.06.39-.78Z"/><ellipse class="cls-18" cx="1565.86" cy="227.47" rx="11.65" ry="1.7"/><path class="cls-7" d="M1554.52,237.45l1.94.29,18.9,2.87s3.05,2.66-1,2.36l-9.5-1.44-.92-.14,12.78,2.57a1.78,1.78,0,0,1-1,2.36c-1.67.68-12.78-2.57-12.78-2.57l11.11,3.25a1.77,1.77,0,0,1-1,2.36c-1.67.69-11.1-3.25-11.1-3.25l-1.68.68,5.18,3.17s-.29,2.79-2,1.48l-18.57-4.17-2.74-6.69s7.51-4.66,13.19-7.64h.25l.48,1.45Z"/><path class="cls-7" d="M178.26,616.72v16.63l20,11.09c-37.23,33.25-60.14,0-60.14,0l20.05-11.09V616.72"/><path class="cls-7" d="M243.58,799.61s14.89,17.09,13.3,18.06c0,0,1,4.29-3,0l-5-5.93.24,21.72s-2.2,3.54-2.56-.61l-.11-9.9v-1l-.49,13.43a1.84,1.84,0,0,1-2.57-.61c-1-1.59.49-13.43.49-13.43l-1.46,11.84a1.82,1.82,0,0,1-2.56-.61c-1-1.59,1.46-11.84,1.46-11.84l-1-1.58-2.37,5.79s-2.88.17-1.84-1.84l1.16-19.57Z"/><polygon class="cls-8" points="201.17 804.47 124.69 797.62 109.71 983.3 151.66 983.3 156.24 884.27 158.67 885.81 156.24 983.3 191.94 983.3 201.17 804.47"/><ellipse class="cls-9" cx="161.21" cy="831.27" rx="2.49" ry="3.09"/><ellipse class="cls-9" cx="161.21" cy="842.3" rx="2.49" ry="3.09"/><path class="cls-9" d="M164.82,828.18s2.87,34.23-6.48,27.89V860s9.28,7.18,9.48-30.84Z"/><polygon class="cls-10" points="115.36 981.89 117.94 982.13 128.22 812.15 125.64 811.91 115.36 981.89"/><polygon class="cls-10" points="121.79 981.89 124.37 982.13 134.66 812.15 132.07 811.91 121.79 981.89"/><path d="M115.09,980.53s-24.68-4.07-26.14,7.7L87.5,1000h62.12L149,980.53Z"/><path d="M193.82,980.53s24.69-4.07,26.14,7.7l1.45,11.77H159.29l.66-19.47Z"/><circle class="cls-7" cx="166.47" cy="578.67" r="45.44"/><rect x="134.32" y="562.02" width="21.12" height="3.22" rx="1.58" ry="1.58" transform="translate(289.77 1127.26) rotate(180)"/><path class="cls-6" d="M166.47,581.41l.45.77c1,1.71,3.61,5.76,5.75,6.82h-6.2"/><path class="cls-12" d="M204.26,553.87s5.88-39.59-17.92-43.87H147.82s-16.58.54-21.4,19.26v24.61Z"/><path class="cls-13" d="M165.66,506.39s2.69-.27,2.56,2.88H162.4S162.17,506.19,165.66,506.39Z"/><path class="cls-13" d="M126.42,543.9H92.12s.13,9,8.09,9.63l26.21.34Z"/><path class="cls-13" d="M204.77,538.67s-6.53-2-8.94,4v11.17l8.43-.34Z"/><polygon class="cls-14" points="204.35 551.33 195.83 551.33 195.83 553.87 204.26 553.87 204.35 551.33"/><rect x="173.56" y="562.02" width="21.12" height="3.22" rx="1.58" ry="1.58" transform="translate(368.25 1127.26) rotate(180)"/><path class="cls-16" d="M138.34,643.47s17.77,33.8,60.22,0c0,0,44.43-8,40.48,24.85L249.9,803.51l-15.8,4L216.33,686.21s0-16.9-11.84-12.92l-3,130.22-75-6,2-119.29s-12.83-6-12.83,8L109.71,729s-2,7.95,5.93,7l31.59-4,1,16.9-38.51,4S86,756.79,91.94,725l9.87-51.69S104.78,642.47,138.34,643.47Z"/><path class="cls-17" d="M155.26,724.29a.9.9,0,0,0,.46,1.09.93.93,0,0,0,.39.75s-.26,1.09.2,1.55a16.05,16.05,0,0,0,.66,3.57l.79,7s.26,2.65.72,2.94a10.2,10.2,0,0,0,.47,3.22s-.07,3,.79,3.68v1.16s.52,1.95,10.2,1.43c0,0,6.78-.11,5.53-2.82,0,0,.66-.46.86-6.33,0,0,.33-.11.85-7,0,0,.4-.75.46-3.91,0,0,.27-.17.14-.75,0,0,.52,0,.39-2.47,0,0,.4.34.27-1.5a1,1,0,0,0,.32-.81s.47.06.4-.8Z"/><ellipse class="cls-18" cx="167.21" cy="724.34" rx="12.01" ry="1.75"/><path class="cls-7" d="M155.53,734.62l2,.3,19.47,3s3.14,2.74-1,2.43l-9.79-1.49-.95-.14,13.17,2.65a1.82,1.82,0,0,1-1,2.43c-1.72.71-13.17-2.65-13.17-2.65l11.45,3.36a1.82,1.82,0,0,1-1,2.43c-1.72.7-11.44-3.36-11.44-3.36l-1.72.71,5.33,3.26s-.3,2.88-2.11,1.53l-19.13-4.3-2.83-6.89s7.74-4.8,13.59-7.87h.26l.49,1.49Z"/><path class="cls-26" d="M140.81,574.28s8.35-5.57,15.3,0A13.1,13.1,0,0,1,140.81,574.28Z"/><line class="cls-27" x1="141.24" y1="574.28" x2="155.7" y2="574.28"/><path class="cls-26" d="M176.35,573.29s8.35-5.56,15.3,0A13.1,13.1,0,0,1,176.35,573.29Z"/><line class="cls-27" x1="176.78" y1="573.29" x2="191.24" y2="573.29"/><rect class="cls-15" x="151.18" y="600.17" width="36.53" height="2.96" rx="1.45" ry="1.45"/><path class="cls-7" d="M503.32,621.24v16.44l-19.81,11c36.79,32.87,59.43,0,59.43,0l-19.81-11V621.24"/><path class="cls-7" d="M438.76,802s-14.71,16.88-13.14,17.84c0,0-1,4.24,3-.05l5-5.86-.24,21.47s2.17,3.5,2.53-.6L436,825v-1l.48,13.27a1.82,1.82,0,0,0,2.54-.6c1-1.57-.49-13.27-.49-13.27l1.45,11.7a1.8,1.8,0,0,0,2.53-.61c1-1.56-1.45-11.69-1.45-11.69l1-1.57,2.33,5.72s2.85.17,1.83-1.81L445,805.83Z"/><polygon class="cls-8" points="480.68 806.78 556.25 800 571.05 983.49 529.6 983.49 525.07 885.63 522.67 887.16 525.07 983.49 489.79 983.49 480.68 806.78"/><ellipse class="cls-9" cx="520.16" cy="833.26" rx="2.46" ry="3.06"/><ellipse class="cls-9" cx="520.16" cy="844.16" rx="2.46" ry="3.06"/><path class="cls-9" d="M516.59,830.2S513.75,864,523,857.77v3.84s-9.17,7.1-9.37-30.47Z"/><polygon class="cls-10" points="565.47 982.1 562.92 982.34 552.76 814.36 555.31 814.13 565.47 982.1"/><polygon class="cls-10" points="559.12 982.1 556.56 982.34 546.4 814.36 548.96 814.13 559.12 982.1"/><path d="M565.74,980.76s24.39-4,25.82,7.61L593,1000H531.62l.64-19.24Z"/><path d="M487.93,980.76s-24.39-4-25.82,7.61L460.67,1000h61.38l-.64-19.24Z"/><circle class="cls-7" cx="514.96" cy="583.64" r="44.9"/><path class="cls-10" d="M515.9,584.33s-1.23-14.57,12.16-8.22C528.06,576.11,528.69,587.1,515.9,584.33Z"/><circle class="cls-11" cx="521.78" cy="579.02" r="4.25"/><rect x="516.1" y="567.19" width="20.87" height="3.18" rx="1.59" ry="1.59"/><path class="cls-6" d="M505,586.66s-.16.29-.44.76c-1,1.69-3.57,5.69-5.68,6.74H505"/><path class="cls-12" d="M477.62,559.13s-5.81-39.12,17.71-43.35h38.06s16.39.53,21.15,19v24.32Z"/><path class="cls-13" d="M515.76,512.22s-2.65-.27-2.52,2.84H519S519.21,512,515.76,512.22Z"/><path class="cls-13" d="M554.54,549.29h33.9s-.14,8.85-8,9.51l-25.9.33Z"/><path class="cls-13" d="M477.12,544.12s6.45-2,8.83,4v11l-8.33-.33Z"/><polygon class="cls-14" points="477.54 556.62 485.95 556.62 485.95 559.13 477.62 559.13 477.54 556.62"/><path class="cls-10" d="M484.66,575.38s11.27-9.33,13.69,5.3C498.35,580.68,489.68,587.46,484.66,575.38Z"/><circle class="cls-11" cx="492.37" cy="577.18" r="4.25"/><rect x="482.2" y="567.19" width="20.87" height="3.18" rx="1.59" ry="1.59"/><path class="cls-16" d="M542.76,647.68s-17.56,33.39-59.51,0c0,0-43.9-7.86-40,24.55l-10.73,133.6,15.61,3.93,17.56-119.84s0-16.7,11.7-12.77l2.93,128.68,74.15-5.89-2-117.88s12.69-5.9,12.69,7.86l5.85,42.24s2,7.85-5.85,6.87L534,735.1l-1,16.7,38,3.93s23.42,3.93,17.56-27.5l-9.75-51.08S575.93,646.69,542.76,647.68Z"/><path class="cls-17" d="M526,727.54a.89.89,0,0,1-.45,1.08.92.92,0,0,1-.39.74s.26,1.08-.2,1.54a15.5,15.5,0,0,1-.65,3.52l-.78,6.88s-.26,2.62-.72,2.9a10,10,0,0,1-.45,3.19s.06,3-.78,3.64v1.13s-.52,1.94-10.09,1.43c0,0-6.7-.12-5.46-2.79,0,0-.65-.46-.85-6.26,0,0-.32-.11-.84-6.88,0,0-.39-.74-.46-3.86,0,0-.26-.17-.13-.74,0,0-.52,0-.39-2.45,0,0-.39.34-.26-1.48a1,1,0,0,1-.33-.79s-.45,0-.39-.8Z"/><ellipse class="cls-18" cx="514.23" cy="727.59" rx="11.86" ry="1.73"/><path class="cls-7" d="M525.78,737.75l-2,.3L504.55,741s-3.1,2.71,1,2.41l9.67-1.47.94-.15-13,2.62a1.8,1.8,0,0,0,1,2.4c1.7.7,13-2.61,13-2.61l-11.31,3.31a1.8,1.8,0,0,0,1,2.4c1.7.7,11.31-3.31,11.31-3.31l1.7.7-5.27,3.22s.29,2.84,2.08,1.51l18.91-4.25,2.8-6.81s-7.66-4.74-13.44-7.78h-.25l-.49,1.48Z"/><ellipse class="cls-15" cx="504.52" cy="611.72" rx="5.37" ry="8.78"/><path class="cls-7" d="M847.39,621.08v16.44l-19.58,11c36.35,32.88,58.72,0,58.72,0l-19.57-11V621.08"/><path class="cls-7" d="M783.6,801.89s-14.53,16.89-13,17.86c0,0-1,4.24,3,0l4.89-5.86-.23,21.47s2.14,3.5,2.5-.6l.1-9.79V824l.48,13.27a1.78,1.78,0,0,0,2.51-.6c.95-1.57-.48-13.27-.48-13.27l1.43,11.7a1.77,1.77,0,0,0,2.5-.61c1-1.56-1.43-11.7-1.43-11.7l1-1.57,2.31,5.73s2.81.17,1.8-1.81l-1.13-19.36Z"/><polygon class="cls-8" points="825.02 806.7 899.69 799.92 914.31 983.49 873.36 983.49 868.88 885.58 866.51 887.11 868.88 983.49 834.02 983.49 825.02 806.7"/><ellipse class="cls-9" cx="864.03" cy="833.19" rx="2.43" ry="3.06"/><ellipse class="cls-9" cx="864.03" cy="844.09" rx="2.43" ry="3.06"/><path class="cls-9" d="M860.51,830.13s-2.81,33.84,6.33,27.58v3.84s-9.07,7.11-9.26-30.48Z"/><polygon class="cls-10" points="908.8 982.1 906.28 982.33 896.24 814.29 898.76 814.05 908.8 982.1"/><polygon class="cls-10" points="902.52 982.1 900 982.33 889.96 814.29 892.48 814.05 902.52 982.1"/><path d="M909.06,980.75s24.1-4,25.52,7.61L936,1000H875.35l.64-19.25Z"/><path d="M832.19,980.75s-24.1-4-25.52,7.61L805.25,1000H865.9l-.64-19.25Z"/><ellipse class="cls-7" cx="858.89" cy="583.46" rx="44.37" ry="44.92"/><path class="cls-10" d="M863.68,584.16s-1.22-14.59,12-8.23C875.69,575.93,876.31,586.92,863.68,584.16Z"/><ellipse class="cls-11" cx="869.49" cy="578.85" rx="4.2" ry="4.25"/><rect x="864.84" y="570.91" width="20.63" height="3.18" rx="1.57" ry="1.57"/><path class="cls-6" d="M852,586.49l-.43.76c-1,1.68-3.53,5.69-5.62,6.73H852"/><path class="cls-12" d="M822,559s-5.75-39.14,17.5-43.37h37.6s16.2.53,20.9,19V559Z"/><path class="cls-13" d="M859.68,512s-2.62-.27-2.49,2.84h5.68S863.09,511.81,859.68,512Z"/><path class="cls-13" d="M898,549.1h33.49s-.13,8.85-7.9,9.51L898,559Z"/><path class="cls-13" d="M821.5,543.92s6.38-2,8.73,4v11l-8.23-.34Z"/><polygon class="cls-14" points="821.91 556.43 830.23 556.43 830.23 558.95 822 558.95 821.91 556.43"/><path class="cls-10" d="M829,575.2s11.14-9.33,13.53,5.31C842.48,580.51,833.92,587.29,829,575.2Z"/><ellipse class="cls-11" cx="836.57" cy="577" rx="4.2" ry="4.25"/><rect x="827.49" y="568.96" width="20.63" height="3.18" rx="1.57" ry="1.57"/><path class="cls-16" d="M886.36,647.53s-17.35,33.41-58.8,0c0,0-43.38-7.87-39.52,24.57L777.43,805.75l15.43,3.93,17.35-119.9s0-16.7,11.57-12.77l2.89,128.74,73.26-5.9L896,681.92s12.53-5.89,12.53,7.86L914.31,732s1.93,7.86-5.78,6.88L877.68,735l-1,16.71,37.59,3.93s23.14,3.93,17.35-27.52L922,677S919.13,646.54,886.36,647.53Z"/><path class="cls-17" d="M869.84,727.43a.89.89,0,0,1-.45,1.08.93.93,0,0,1-.38.74s.25,1.08-.2,1.53a15.53,15.53,0,0,1-.64,3.53l-.77,6.88s-.26,2.62-.71,2.9a10,10,0,0,1-.45,3.19s.07,3-.77,3.64v1.14s-.51,1.93-10,1.42c0,0-6.63-.11-5.4-2.79,0,0-.65-.45-.84-6.25,0,0-.32-.12-.84-6.89,0,0-.38-.74-.45-3.87,0,0-.25-.17-.12-.74,0,0-.52,0-.39-2.44,0,0-.39.34-.26-1.48a1,1,0,0,1-.32-.8s-.45.06-.38-.79Z"/><ellipse class="cls-18" cx="858.17" cy="727.47" rx="11.72" ry="1.73"/><path class="cls-7" d="M869.58,737.64l-2,.3-19,2.92s-3.06,2.71,1,2.41l9.56-1.47.93-.15-12.86,2.62a1.81,1.81,0,0,0,1,2.4c1.68.7,12.86-2.61,12.86-2.61l-11.18,3.31a1.82,1.82,0,0,0,1,2.41c1.69.7,11.18-3.32,11.18-3.32l1.68.7-5.21,3.23s.29,2.84,2.06,1.51l18.68-4.25,2.77-6.82s-7.56-4.74-13.27-7.78h-.26l-.48,1.48Z"/><path class="cls-15" d="M870.68,614.78a12.12,12.12,0,0,0,10.16-5.68s1.69,6.59-2.75,7A12.68,12.68,0,0,1,870.68,614.78Z"/><rect class="cls-28" x="1049" y="500" width="350" height="500"/><path class="cls-7" d="M1202.78,621.08v16.44l-19.82,11c36.81,32.88,59.46,0,59.46,0l-19.82-11V621.08"/><polygon class="cls-8" points="1180.13 806.7 1255.74 799.92 1270.54 983.49 1229.08 983.49 1224.54 885.58 1222.14 887.11 1224.54 983.49 1189.25 983.49 1180.13 806.7"/><ellipse class="cls-9" cx="1219.63" cy="833.19" rx="2.46" ry="3.06"/><ellipse class="cls-9" cx="1219.63" cy="844.09" rx="2.46" ry="3.06"/><path class="cls-9" d="M1216.06,830.13s-2.84,33.84,6.41,27.58v3.84s-9.18,7.11-9.37-30.48Z"/><polygon class="cls-10" points="1264.96 982.1 1262.41 982.33 1252.24 814.29 1254.8 814.05 1264.96 982.1"/><polygon class="cls-10" points="1258.6 982.1 1256.05 982.33 1245.88 814.29 1248.44 814.05 1258.6 982.1"/><path d="M1265.23,980.75s24.4-4,25.84,7.61l1.43,11.64h-61.41l.65-19.25Z"/><path d="M1187.39,980.75s-24.4-4-25.84,7.61l-1.43,11.64h61.41l-.65-19.25Z"/><circle class="cls-7" cx="1214.43" cy="583.46" r="44.92"/><path class="cls-10" d="M1219.27,584.16s-1.23-14.59,12.17-8.23C1231.44,575.93,1232.07,586.92,1219.27,584.16Z"/><circle class="cls-11" cx="1225.16" cy="578.85" r="4.25"/><rect x="1220.45" y="570.91" width="20.88" height="3.18" rx="1.59" ry="1.59"/><path class="cls-6" d="M1207.4,586.49s-.16.29-.44.76c-1,1.68-3.57,5.69-5.68,6.73h6.12"/><path class="cls-12" d="M1177.07,559s-5.81-39.14,17.72-43.37h38.08s16.39.53,21.15,19V559Z"/><path class="cls-13" d="M1215.23,512s-2.66-.27-2.52,2.84h5.75S1218.68,511.81,1215.23,512Z"/><path class="cls-13" d="M1254,549.1h33.92s-.14,8.85-8,9.51L1254,559Z"/><path class="cls-13" d="M1176.57,543.92s6.45-2,8.83,4v11l-8.33-.34Z"/><polygon class="cls-14" points="1176.99 556.43 1185.4 556.43 1185.4 558.95 1177.07 558.95 1176.99 556.43"/><path class="cls-10" d="M1184.12,575.2s11.27-9.33,13.69,5.31C1197.81,580.51,1189.14,587.29,1184.12,575.2Z"/><circle class="cls-11" cx="1191.83" cy="577" r="4.25"/><rect x="1182.63" y="568.96" width="20.88" height="3.18" rx="1.59" ry="1.59"/><path class="cls-16" d="M1176.85,677.2l2.28,101.1,0,2.12.6,26.33,74.17-5.93-2-118.68s12.69-5.93,12.69,7.92l5.85,42.52s2,7.91-5.85,6.92l-31.23-4-1,16.81,38.06,4s23.43,3.95,17.57-27.69l-9.76-51.43s-2.93-30.66-36.11-29.67c0,0-17.57,33.63-59.54,0,0,0-43.92-7.91-40,24.73l12,94.25,14.64,34.38,14.64-8.84-.54-1.52-10.2-28.93-6.83-84.47Z"/><path class="cls-17" d="M1225.52,727.43a.89.89,0,0,1-.46,1.08.92.92,0,0,1-.39.74s.26,1.08-.2,1.53a15.66,15.66,0,0,1-.65,3.53l-.78,6.88s-.26,2.62-.71,2.9a10.19,10.19,0,0,1-.46,3.19s.07,3-.78,3.64v1.14s-.52,1.93-10.09,1.42c0,0-6.7-.11-5.47-2.79,0,0-.65-.45-.84-6.25,0,0-.33-.12-.85-6.89,0,0-.39-.74-.46-3.87,0,0-.26-.17-.13-.74,0,0-.52,0-.39-2.44,0,0-.39.34-.26-1.48a1,1,0,0,1-.32-.8s-.46.06-.39-.79Z"/><ellipse class="cls-18" cx="1213.7" cy="727.47" rx="11.87" ry="1.73"/><path class="cls-7" d="M1225.25,737.64l-2,.3L1204,740.86s-3.1,2.71,1,2.41l9.68-1.47.94-.15-13,2.62a1.8,1.8,0,0,0,1,2.4c1.71.7,13-2.61,13-2.61l-11.31,3.31a1.81,1.81,0,0,0,1,2.41c1.7.7,11.32-3.32,11.32-3.32l1.7.7-5.28,3.23s.3,2.84,2.09,1.51l18.92-4.25,2.79-6.82s-7.65-4.74-13.43-7.78h-.26l-.48,1.48Z"/><path class="cls-15" d="M1226.37,614.78a12.32,12.32,0,0,0,10.28-5.68s1.71,6.59-2.79,7A12.92,12.92,0,0,1,1226.37,614.78Z"/><path class="cls-7" d="M1180,808.34l1.51,7.52c.89,5.8-1.82,2.39-1.82,2.39-1.73.63-5.83-21.4-5.83-21.4l6.92-2.52,15.88,11.12"/><polygon class="cls-16" points="1167.25 795.98 1169.34 800.9 1183.98 792.11 1182.58 788.08 1167.25 795.98"/><path class="cls-7" d="M1541.56,622.19v16.3l-19.66,10.87c36.51,32.61,59,0,59,0l-19.65-10.87v-16.3"/><polygon class="cls-8" points="1519.09 806.28 1594.08 799.56 1608.77 981.62 1567.64 981.62 1563.14 884.52 1560.76 886.04 1563.14 981.62 1528.14 981.62 1519.09 806.28"/><ellipse class="cls-9" cx="1558.27" cy="832.56" rx="2.44" ry="3.03"/><ellipse class="cls-9" cx="1558.27" cy="843.37" rx="2.44" ry="3.03"/><path class="cls-9" d="M1554.73,829.52s-2.81,33.57,6.36,27.36v3.81s-9.1,7-9.29-30.24Z"/><polygon class="cls-10" points="1603.23 980.24 1600.7 980.48 1590.62 813.81 1593.15 813.57 1603.23 980.24"/><polygon class="cls-10" points="1596.92 980.24 1594.39 980.48 1584.31 813.81 1586.84 813.57 1596.92 980.24"/><path d="M1603.49,978.91s24.21-4,25.63,7.55l1.43,11.54h-60.91l.64-19.09Z"/><path d="M1526.3,978.91s-24.21-4-25.63,7.55L1499.25,998h60.9l-.64-19.09Z"/><circle class="cls-7" cx="1553.11" cy="584.88" r="44.55"/><path class="cls-10" d="M1557.92,585.56s-1.23-14.46,12.07-8.15C1570,577.41,1570.61,588.31,1557.92,585.56Z"/><circle class="cls-11" cx="1563.75" cy="580.3" r="4.22"/><rect x="1559.08" y="572.43" width="20.71" height="3.15" rx="1.58" ry="1.58"/><path class="cls-6" d="M1546.14,587.88s-.16.29-.43.75c-1,1.67-3.54,5.64-5.64,6.68h6.07"/><path class="cls-12" d="M1516.06,560.56s-5.77-38.81,17.58-43h37.76s16.26.52,21,18.88v24.13Z"/><path class="cls-13" d="M1553.91,514s-2.64-.26-2.51,2.82h5.71S1557.33,513.81,1553.91,514Z"/><path class="cls-13" d="M1592.38,550.79H1626s-.13,8.79-7.94,9.44l-25.7.33Z"/><path class="cls-13" d="M1515.56,545.66s6.41-1.95,8.77,4v10.95l-8.27-.33Z"/><polygon class="cls-14" points="1515.98 558.07 1524.33 558.07 1524.33 560.56 1516.06 560.56 1515.98 558.07"/><path class="cls-10" d="M1523.05,576.68s11.18-9.25,13.58,5.26C1536.63,581.94,1528,588.67,1523.05,576.68Z"/><circle class="cls-11" cx="1530.7" cy="578.47" r="4.22"/><rect x="1521.58" y="570.49" width="20.71" height="3.15" rx="1.58" ry="1.58"/><path class="cls-15" d="M1565,615.94a12.24,12.24,0,0,0,10.2-5.64s1.7,6.54-2.76,7A12.91,12.91,0,0,1,1565,615.94Z"/><path class="cls-7" d="M1464.08,739.85s-13.83-17.39-15-16c0,0-4-1.73-.49,2.94l4.82,5.89-20.9-4.1s-3.8,1.49.13,2.58l9.53,1.87.92.18-13-1.92a1.79,1.79,0,0,0,.14,2.58c1.35,1.23,13,1.92,13,1.92l-11.68-.69a1.79,1.79,0,0,0,.14,2.58c1.35,1.22,11.67.69,11.67.69l1.36,1.22-6,1.25s-.67,2.75,1.44,2.11l19.09,2.36Z"/><path class="cls-16" d="M1515.84,677.85l2.27,100.27,0,2.1.59,26.12,73.57-5.89-1.93-117.7s12.58-5.88,12.58,7.85l5.81,42.17s1.93,7.85-5.81,6.87l-31-3.92-1,16.67,37.75,3.92s23.23,3.93,17.42-27.46l-9.68-51s-2.9-30.41-35.81-29.43c0,0-17.43,33.35-59,0,0,0-22-3.74-27.78,5.94L1485.16,696l-2.9,18.4-6.78,18.39h-23.23v16.45h23.23s16.46,1,20.33-2.9Z"/><path class="cls-17" d="M1575.73,730.56a.9.9,0,0,1-.46,1.08.92.92,0,0,1-.38.73s.25,1.07-.2,1.52a15.81,15.81,0,0,1-.64,3.5l-.78,6.83s-.26,2.59-.71,2.88a9.85,9.85,0,0,1-.45,3.16s.06,2.93-.77,3.61V755s-.52,1.91-10,1.41c0,0-6.65-.12-5.42-2.77,0,0-.65-.45-.84-6.2,0,0-.33-.12-.84-6.83,0,0-.39-.74-.46-3.84,0,0-.25-.17-.12-.73,0,0-.52,0-.39-2.43,0,0-.39.34-.26-1.47a1,1,0,0,1-.32-.79s-.45.06-.39-.79Z"/><ellipse class="cls-18" cx="1564.01" cy="730.61" rx="11.77" ry="1.72"/><path class="cls-7" d="M1575.46,740.69l-2,.3-19.1,2.9s-3.07,2.69,1,2.39l9.6-1.46.93-.14L1553,747.27a1.78,1.78,0,0,0,1,2.38c1.69.7,12.91-2.59,12.91-2.59l-11.22,3.29a1.79,1.79,0,0,0,1,2.38c1.69.7,11.22-3.29,11.22-3.29l1.69.7-5.23,3.2s.29,2.81,2.07,1.49l18.76-4.21,2.77-6.76s-7.59-4.71-13.33-7.72h-.25l-.48,1.47Z"/><rect class="cls-29" x="1434.9" y="717.93" width="19.43" height="24.42" rx="0.76" ry="0.76" transform="translate(-160.15 518.61) rotate(-19.3)"/><path class="cls-30" d="M1458.91,741.5l-4.67-15.45-4.31-12.57c-1.79-4-5.74-1.8-5.74-1.8l-11.14,4c-5,1.08-2.88,5.39-2.88,5.39l9.34,27a3.9,3.9,0,0,0,5,1.79l12.23-4.67,1.36-.51-.65-1.64"/><path class="cls-31" d="M1433.05,715.63l1.44,3.6,9,24.43,4.47,4.81-3.4,1.29a3.9,3.9,0,0,1-5-1.79l-9.34-27S1428,716.71,1433.05,715.63Z"/><rect class="cls-32" x="1438.44" y="715.99" width="3.59" height="0.72" rx="0.36" ry="0.36" transform="translate(-146.23 450.73) rotate(-16.94)"/><circle class="cls-32" cx="1450.11" cy="744.55" r="1.26"/><path class="cls-30" d="M1454.24,726.05l5.19,14,.21.56s1.57,2.92-1.92,4.12Z"/><rect class="cls-33" x="1435.47" y="718.33" width="18.12" height="23.38" transform="translate(-160.12 518.57) rotate(-19.3)"/><path class="cls-7" d="M1456.73,732.43l-3.51,2.27s-1.94,0-1-2.27l3.68-2.57Z"/><rect class="cls-34" x="-1" y="1000" width="350" height="500"/><rect class="cls-35" x="349" y="1000" width="350" height="500"/><rect class="cls-36" x="699" y="1000" width="350" height="500"/><rect class="cls-37" x="1049" y="1000" width="350" height="500"/><rect class="cls-38" x="1399" y="1000" width="350" height="500"/><rect class="cls-39" x="1749" y="1000" width="350" height="500"/><path class="cls-7" d="M156.56,1124.19v16.3l-19.66,10.87c36.51,32.61,59,0,59,0l-19.65-10.87v-16.3"/><polygon class="cls-8" points="134.09 1308.28 209.08 1301.56 223.77 1483.62 182.64 1483.62 178.14 1386.52 175.76 1388.04 178.14 1483.62 143.14 1483.62 134.09 1308.28"/><ellipse class="cls-9" cx="173.27" cy="1334.56" rx="2.44" ry="3.03"/><ellipse class="cls-9" cx="173.27" cy="1345.37" rx="2.44" ry="3.03"/><path class="cls-9" d="M169.73,1331.52s-2.81,33.57,6.36,27.36v3.81s-9.1,7-9.29-30.24Z"/><polygon class="cls-10" points="218.23 1482.24 215.7 1482.48 205.62 1315.81 208.15 1315.57 218.23 1482.24"/><polygon class="cls-10" points="211.93 1482.24 209.39 1482.48 199.31 1315.81 201.84 1315.57 211.93 1482.24"/><path d="M218.49,1480.91s24.21-4,25.63,7.55l1.43,11.54H184.64l.64-19.09Z"/><path d="M141.3,1480.91s-24.21-4-25.63,7.55L114.25,1500h60.9l-.64-19.09Z"/><circle class="cls-7" cx="168.11" cy="1086.88" r="44.55"/><path class="cls-10" d="M172.92,1087.56s-1.23-14.46,12.07-8.15C185,1079.41,185.61,1090.31,172.92,1087.56Z"/><circle class="cls-11" cx="178.75" cy="1082.3" r="4.22"/><rect x="174.08" y="1074.43" width="20.71" height="3.15" rx="1.58" ry="1.58"/><path class="cls-6" d="M161.14,1089.88s-.16.29-.43.75c-1,1.67-3.54,5.64-5.64,6.68h6.07"/><path class="cls-12" d="M131.06,1062.56s-5.77-38.81,17.58-43H186.4s16.26.52,21,18.88v24.13Z"/><path class="cls-13" d="M168.91,1016s-2.64-.26-2.51,2.82h5.71S172.33,1015.81,168.91,1016Z"/><path class="cls-13" d="M207.38,1052.79H241s-.13,8.79-7.94,9.44l-25.7.33Z"/><path class="cls-13" d="M130.56,1047.66s6.41-2,8.77,3.95v11l-8.27-.33Z"/><polygon class="cls-14" points="130.98 1060.07 139.33 1060.07 139.33 1062.56 131.06 1062.56 130.98 1060.07"/><path class="cls-10" d="M138.05,1078.68s11.18-9.25,13.58,5.26C151.63,1083.94,143,1090.67,138.05,1078.68Z"/><circle class="cls-11" cx="145.7" cy="1080.47" r="4.22"/><rect x="136.58" y="1072.49" width="20.71" height="3.15" rx="1.58" ry="1.58"/><path class="cls-15" d="M180,1117.94a12.24,12.24,0,0,0,10.2-5.64s1.7,6.54-2.76,7A12.91,12.91,0,0,1,180,1117.94Z"/><path class="cls-7" d="M79.37,1193.64s-6.34-21.3-8-20.5c0,0-3-3.08-1.55,2.55l2.28,7.26-17.86-11.6s-4.09,0-.84,2.44l8.14,5.29.79.51L51,1173a1.8,1.8,0,0,0-.84,2.45c.81,1.64,11.38,6.64,11.38,6.64l-10.57-5a1.79,1.79,0,0,0-.84,2.44c.8,1.64,10.57,5,10.57,5l.8,1.64-6-1.08s-1.65,2.3.56,2.49l16.82,9.31Z"/><path class="cls-16" d="M117.46,1225.57l13.38-45.72,2.27,100.27,0,2.1.59,26.12,73.57-5.89-1.93-117.7s12.58-5.88,12.58,7.85l5.81,42.17s1.93,7.85-5.81,6.87l-31-3.92-1,16.67,37.75,3.92s23.23,3.93,17.42-27.46l-9.68-51s-2.9-30.41-35.81-29.43c0,0-17.43,33.35-59,0,0,0-22-3.74-27.78,5.94L100.16,1198l-2.9,18.4L78,1187l-13,8,15,29S97.93,1255.14,117.46,1225.57Z"/><path class="cls-17" d="M190.73,1232.56a.9.9,0,0,1-.46,1.08.92.92,0,0,1-.38.73s.25,1.07-.2,1.52a15.81,15.81,0,0,1-.64,3.5l-.78,6.83s-.26,2.59-.71,2.88a9.85,9.85,0,0,1-.45,3.16s.06,2.93-.77,3.61V1257s-.52,1.91-10,1.41c0,0-6.65-.12-5.42-2.77,0,0-.65-.45-.84-6.2,0,0-.33-.12-.84-6.83,0,0-.39-.74-.46-3.84,0,0-.25-.17-.12-.73,0,0-.52,0-.39-2.43,0,0-.39.34-.26-1.47a1,1,0,0,1-.32-.79s-.45.06-.39-.79Z"/><ellipse class="cls-18" cx="179.01" cy="1232.61" rx="11.77" ry="1.72"/><path class="cls-7" d="M190.46,1242.69l-2,.3-19.1,2.9s-3.07,2.69,1,2.39l9.6-1.46.93-.14L168,1249.27a1.78,1.78,0,0,0,1,2.38c1.69.7,12.91-2.59,12.91-2.59l-11.22,3.29a1.79,1.79,0,0,0,1,2.38c1.69.7,11.22-3.29,11.22-3.29l1.69.7-5.23,3.2s.29,2.81,2.07,1.49l18.76-4.21,2.77-6.76s-7.59-4.71-13.33-7.72h-.25l-.48,1.47Z"/><path class="cls-30" d="M76.05,1192l-2-16-2.12-13.12c-1.1-4.2-5.36-2.74-5.36-2.74l-11.64,2c-5.14.21-3.75,4.82-3.75,4.82l4.64,28.14a3.9,3.9,0,0,0,4.65,2.62l12.85-2.53,1.42-.28-.36-1.73"/><path class="cls-31" d="M54.94,1162.09l.8,3.78,4.72,25.6,3.59,5.5-3.57.7a3.9,3.9,0,0,1-4.65-2.62l-4.64-28.14S49.8,1162.3,54.94,1162.09Z"/><rect class="cls-32" x="60.1" y="1163.65" width="3.59" height="0.72" rx="0.36" ry="0.36" transform="matrix(0.99, -0.13, 0.13, 0.99, -145.09, 16.88)"/><circle class="cls-32" cx="66.85" cy="1193.48" r="1.26"/><path class="cls-30" d="M74.06,1175.94l2.74,14.68.11.59s1,3.14-2.58,3.74Z"/><rect class="cls-29" x="54.16" y="1166.14" width="19.43" height="24.42" rx="0.76" ry="0.76" transform="translate(-194.58 26.92) rotate(-9.55)"/><rect class="cls-33" x="54.76" y="1166.52" width="18.12" height="23.38" transform="translate(-194.56 26.91) rotate(-9.55)"/><rect class="cls-40" x="59.32" y="1174.63" width="8.96" height="6.95" rx="1.67" ry="1.67" transform="translate(-200.28 28.21) rotate(-9.83)"/><circle class="cls-41" cx="63.79" cy="1177.99" r="2.02"/><circle class="cls-42" cx="63.79" cy="1177.99" r="1.34"/><rect class="cls-40" x="60.44" y="1173.65" width="1.79" height="1.34" transform="translate(-199.67 27.73) rotate(-9.83)"/><path class="cls-7" d="M75.43,1182.65l-3.85,1.65s-1.91-.33-.57-2.41l4.06-1.9Z"/><line class="cls-16" x1="437" y1="1147" x2="418" y2="1153"/><path class="cls-7" d="M509.56,1123.19v16.3l-19.66,10.87c36.51,32.61,59,0,59,0l-19.65-10.87v-16.3"/><path class="cls-7" d="M433.93,1155.86s-.42-22.21-2.21-21.88c0,0-2.1-3.78-2.18,2l.25,7.61-14.11-16s-3.92-1.13-1.46,2.13l6.43,7.27.63.71-9.19-9.44a1.79,1.79,0,0,0-1.46,2.13c.33,1.79,9.18,9.44,9.18,9.44l-8.85-7.65a1.8,1.8,0,0,0-1.46,2.13c.33,1.8,8.85,7.65,8.85,7.65l.34,1.79-5.53-2.66s-2.21,1.78-.14,2.55l13.72,13.48Z"/><path class="cls-30" d="M437.11,1148.9l-3.32-15.79-3.22-12.9c-1.45-4.09-5.57-2.28-5.57-2.28l-11.44,3c-5.1.64-3.32,5.12-3.32,5.12l7,27.65a3.9,3.9,0,0,0,4.85,2.22l12.59-3.6,1.4-.4-.51-1.69"/><path class="cls-31" d="M413.56,1120.91l1.13,3.7,6.84,25.11,4,5.18-3.49,1a3.9,3.9,0,0,1-4.85-2.22l-7-27.65S408.46,1121.55,413.56,1120.91Z"/><rect class="cls-32" x="418.86" y="1121.88" width="3.59" height="0.72" rx="0.36" ry="0.36" transform="translate(-224.3 112.09) rotate(-12.01)"/><circle class="cls-32" cx="428.08" cy="1151.19" r="1.26"/><path class="cls-30" d="M433.79,1133.11l4,14.39.16.58s1.31,3-2.26,3.94Z"/><rect class="cls-29" x="414.12" y="1124.15" width="19.43" height="24.42" rx="0.76" ry="0.76" transform="translate(-268.82 140.78) rotate(-14.37)"/><rect class="cls-33" x="414.71" y="1124.54" width="18.12" height="23.38" transform="translate(-268.79 140.76) rotate(-14.37)"/><rect class="cls-40" x="419.27" y="1132.65" width="8.96" height="6.95" rx="1.67" ry="1.67" transform="translate(-273.72 144.22) rotate(-14.66)"/><circle class="cls-41" cx="423.72" cy="1136.01" r="2.02"/><circle class="cls-42" cx="423.72" cy="1136.01" r="1.34"/><rect class="cls-40" x="420.07" y="1131.89" width="1.79" height="1.34" transform="translate(-272.91 143.4) rotate(-14.66)"/><path class="cls-7" d="M435.72,1139.68l-3.7,2s-1.93-.16-.77-2.35l3.88-2.24Z"/><polygon class="cls-8" points="487.09 1307.28 562.08 1300.56 576.77 1482.62 535.64 1482.62 531.14 1385.52 528.76 1387.04 531.14 1482.62 496.14 1482.62 487.09 1307.28"/><ellipse class="cls-9" cx="526.27" cy="1333.56" rx="2.44" ry="3.03"/><ellipse class="cls-9" cx="526.27" cy="1344.37" rx="2.44" ry="3.03"/><path class="cls-9" d="M522.73,1330.52s-2.81,33.57,6.36,27.36v3.81s-9.1,7-9.29-30.24Z"/><polygon class="cls-10" points="571.23 1481.24 568.7 1481.48 558.62 1314.81 561.15 1314.57 571.23 1481.24"/><polygon class="cls-10" points="564.92 1481.24 562.39 1481.48 552.31 1314.81 554.84 1314.57 564.92 1481.24"/><path d="M571.49,1479.91s24.21-4,25.63,7.55l1.43,11.54H537.64l.64-19.09Z"/><path d="M494.3,1479.91s-24.21-4-25.63,7.55L467.25,1499h60.9l-.64-19.09Z"/><path class="cls-16" d="M453.16,1197l8.71-41.62c5.81-9.68,27.78-5.94,27.78-5.94,41.62,33.35,59.05,0,59.05,0,32.91-1,35.81,29.43,35.81,29.43l9.68,51c5.81,31.39-17.42,27.46-17.42,27.46L539,1253.39l1-16.67,31,3.92c7.74,1,5.81-6.87,5.81-6.87L571,1191.6c0-13.73-12.58-7.85-12.58-7.85l1.93,117.7-73.57,5.89-.59-26.12,0-2.1-2.27-100.27-6,20.53c-11.44,30.19-31.05,19.18-38.16,13.84A30.66,30.66,0,0,1,437,1211c-3,0-15-55-15-55l14-4,13,45S451.32,1200,453.16,1197Z"/><path class="cls-17" d="M543.73,1231.56a.9.9,0,0,1-.46,1.08.92.92,0,0,1-.38.73s.25,1.07-.2,1.52a15.81,15.81,0,0,1-.64,3.5l-.78,6.83s-.26,2.59-.71,2.88a9.85,9.85,0,0,1-.45,3.16s.06,2.93-.77,3.61V1256s-.52,1.91-10,1.41c0,0-6.65-.12-5.42-2.77,0,0-.65-.45-.84-6.2,0,0-.33-.12-.84-6.83,0,0-.39-.74-.46-3.84,0,0-.25-.17-.12-.73,0,0-.52,0-.39-2.43,0,0-.39.34-.26-1.47a1,1,0,0,1-.32-.79s-.45.06-.39-.79Z"/><ellipse class="cls-18" cx="532.01" cy="1231.61" rx="11.77" ry="1.72"/><path class="cls-7" d="M543.46,1241.69l-2,.3-19.1,2.9s-3.07,2.69,1,2.39l9.6-1.46.93-.14L521,1248.27a1.78,1.78,0,0,0,1,2.38c1.69.7,12.91-2.59,12.91-2.59l-11.22,3.29a1.79,1.79,0,0,0,1,2.38c1.69.7,11.22-3.29,11.22-3.29l1.69.7-5.23,3.2s.29,2.81,2.07,1.49l18.76-4.21,2.77-6.76s-7.59-4.71-13.33-7.72h-.25l-.48,1.47Z"/><path class="cls-7" d="M912.56,1122.19v16.3l-19.66,10.87c36.51,32.61,59,0,59,0l-19.65-10.87v-16.3"/><circle class="cls-7" cx="924.11" cy="1084.88" r="44.55"/><path class="cls-10" d="M928.92,1083.56s-1.23-14.46,12.07-8.15C941,1075.41,941.61,1086.31,928.92,1083.56Z"/><circle class="cls-11" cx="934.75" cy="1078.3" r="4.22"/><rect x="929.08" y="1073.43" width="20.71" height="3.15" rx="1.58" ry="1.58"/><path class="cls-6" d="M917.14,1087.88s-.16.29-.43.75c-1,1.67-3.54,5.64-5.64,6.68h6.07"/><path class="cls-12" d="M887.06,1060.56s-5.77-38.81,17.58-43H942.4s16.26.52,21,18.88v24.13Z"/><path class="cls-13" d="M924.91,1014s-2.64-.26-2.51,2.82h5.71S928.33,1013.81,924.91,1014Z"/><path class="cls-13" d="M963.38,1050.79H997s-.13,8.79-7.94,9.44l-25.7.33Z"/><path class="cls-13" d="M886.56,1045.66s6.41-2,8.77,3.95v11l-8.27-.33Z"/><polygon class="cls-14" points="886.98 1058.07 895.33 1058.07 895.33 1060.56 887.06 1060.56 886.98 1058.07"/><path class="cls-10" d="M894.94,1082.72s.08-14.52,12.75-7C907.69,1075.68,907.33,1086.59,894.94,1082.72Z"/><circle class="cls-11" cx="901.22" cy="1078" r="4.22"/><rect x="895.58" y="1072.49" width="20.71" height="3.15" rx="1.58" ry="1.58"/><path class="cls-15" d="M936,1115.94a12.24,12.24,0,0,0,10.2-5.64s1.7,6.54-2.76,7A12.91,12.91,0,0,1,936,1115.94Z"/><path class="cls-7" d="M836.93,1154.86s-.42-22.21-2.21-21.88c0,0-2.1-3.78-2.18,2l.25,7.61-14.11-16s-3.92-1.13-1.46,2.13l6.43,7.27.63.71-9.19-9.44a1.79,1.79,0,0,0-1.46,2.13c.33,1.79,9.18,9.44,9.18,9.44l-8.85-7.65a1.8,1.8,0,0,0-1.46,2.13c.33,1.8,8.85,7.65,8.85,7.65l.34,1.79-5.53-2.66s-2.21,1.78-.14,2.55l13.72,13.48Z"/><path class="cls-30" d="M840.11,1147.9l-3.32-15.79-3.22-12.9c-1.45-4.09-5.57-2.28-5.57-2.28l-11.44,3c-5.1.64-3.32,5.12-3.32,5.12l7,27.65a3.9,3.9,0,0,0,4.85,2.22l12.59-3.6,1.4-.4-.51-1.69"/><path class="cls-31" d="M816.56,1119.91l1.13,3.7,6.84,25.11,4,5.18-3.49,1a3.9,3.9,0,0,1-4.85-2.22l-7-27.65S811.46,1120.55,816.56,1119.91Z"/><rect class="cls-32" x="821.86" y="1120.88" width="3.59" height="0.72" rx="0.36" ry="0.36" transform="translate(-215.27 195.92) rotate(-12.01)"/><circle class="cls-32" cx="831.08" cy="1150.19" r="1.26"/><path class="cls-30" d="M836.79,1132.11l4,14.39.16.58s1.31,3-2.26,3.94Z"/><rect class="cls-29" x="817.12" y="1123.15" width="19.43" height="24.42" rx="0.76" ry="0.76" transform="translate(-255.96 240.78) rotate(-14.37)"/><rect class="cls-33" x="817.71" y="1123.54" width="18.12" height="23.38" transform="translate(-255.92 240.76) rotate(-14.37)"/><rect class="cls-40" x="822.27" y="1131.65" width="8.96" height="6.95" rx="1.67" ry="1.67" transform="translate(-260.35 246.17) rotate(-14.66)"/><circle class="cls-41" cx="826.72" cy="1135.01" r="2.02"/><circle class="cls-42" cx="826.72" cy="1135.01" r="1.34"/><rect class="cls-40" x="823.07" y="1130.89" width="1.79" height="1.34" transform="matrix(0.97, -0.25, 0.25, 0.97, -259.54, 245.35)"/><path class="cls-7" d="M838.72,1138.68l-3.7,2s-1.93-.16-.77-2.35l3.88-2.24Z"/><polygon class="cls-8" points="890.09 1306.28 965.08 1299.56 979.77 1481.62 938.64 1481.62 934.14 1384.52 931.76 1386.04 934.14 1481.62 899.14 1481.62 890.09 1306.28"/><ellipse class="cls-9" cx="929.27" cy="1332.56" rx="2.44" ry="3.03"/><ellipse class="cls-9" cx="929.27" cy="1343.37" rx="2.44" ry="3.03"/><path class="cls-9" d="M925.73,1329.52s-2.81,33.57,6.36,27.36v3.81s-9.1,7-9.29-30.24Z"/><polygon class="cls-10" points="974.23 1480.24 971.7 1480.48 961.62 1313.81 964.15 1313.57 974.23 1480.24"/><polygon class="cls-10" points="967.92 1480.24 965.39 1480.48 955.31 1313.81 957.84 1313.57 967.92 1480.24"/><path d="M974.49,1478.91s24.21-4,25.63,7.55l1.43,11.54H940.64l.64-19.09Z"/><path d="M897.3,1478.91s-24.21-4-25.63,7.55L870.25,1498h60.9l-.64-19.09Z"/><path class="cls-16" d="M856.16,1196l8.71-41.62c5.81-9.68,27.78-5.94,27.78-5.94,41.62,33.35,59.05,0,59.05,0,32.91-1,35.81,29.43,35.81,29.43l9.68,51c5.81,31.39-17.42,27.46-17.42,27.46L942,1252.39l1-16.67,31,3.92c7.74,1,5.81-6.87,5.81-6.87L974,1190.6c0-13.73-12.58-7.85-12.58-7.85l1.93,117.7-73.57,5.89-.59-26.12,0-2.1-2.27-100.27-6,20.53c-11.44,30.19-31.05,19.18-38.16,13.84A30.66,30.66,0,0,1,840,1210c-3,0-15-55-15-55l14-4,13,45S854.32,1199,856.16,1196Z"/><path class="cls-17" d="M946.73,1230.56a.9.9,0,0,1-.46,1.08.92.92,0,0,1-.38.73s.25,1.07-.2,1.52a15.81,15.81,0,0,1-.64,3.5l-.78,6.83s-.26,2.59-.71,2.88a9.85,9.85,0,0,1-.45,3.16s.06,2.93-.77,3.61V1255s-.52,1.91-10,1.41c0,0-6.65-.12-5.42-2.77,0,0-.65-.45-.84-6.2,0,0-.33-.12-.84-6.83,0,0-.39-.74-.46-3.84,0,0-.25-.17-.12-.73,0,0-.52,0-.39-2.43,0,0-.39.34-.26-1.47a1,1,0,0,1-.32-.79s-.45.06-.39-.79Z"/><ellipse class="cls-18" cx="935.01" cy="1230.61" rx="11.77" ry="1.72"/><path class="cls-7" d="M946.46,1240.69l-2,.3-19.1,2.9s-3.07,2.69,1,2.39l9.6-1.46.93-.14L924,1247.27a1.78,1.78,0,0,0,1,2.38c1.69.7,12.91-2.59,12.91-2.59l-11.22,3.29a1.79,1.79,0,0,0,1,2.38c1.69.7,11.22-3.29,11.22-3.29l1.69.7-5.23,3.2s.29,2.81,2.07,1.49l18.76-4.21,2.77-6.76s-7.59-4.71-13.33-7.72h-.25l-.48,1.47Z"/><polygon class="cls-43" points="813 1125.94 760.5 1194 787.72 1143.44 743 1168.72 778 1131.78 733.28 1139.56 774.11 1118.17 760.5 1089 813 1125.94"/><path class="cls-7" d="M1913.56,624.19v16.3l-19.66,10.87c36.51,32.61,59,0,59,0l-19.65-10.87v-16.3"/><polygon class="cls-8" points="1891.09 808.28 1966.08 801.56 1980.77 983.62 1939.64 983.62 1935.14 886.52 1932.76 888.04 1935.14 983.62 1900.14 983.62 1891.09 808.28"/><ellipse class="cls-9" cx="1930.27" cy="834.56" rx="2.44" ry="3.03"/><ellipse class="cls-9" cx="1930.27" cy="845.37" rx="2.44" ry="3.03"/><path class="cls-9" d="M1926.73,831.52s-2.81,33.57,6.36,27.36v3.81s-9.1,7-9.29-30.24Z"/><polygon class="cls-10" points="1975.23 982.24 1972.7 982.48 1962.62 815.81 1965.15 815.57 1975.23 982.24"/><polygon class="cls-10" points="1968.92 982.24 1966.39 982.48 1956.31 815.81 1958.84 815.57 1968.92 982.24"/><path d="M1975.49,980.91s24.21-4,25.63,7.55l1.43,11.54h-60.91l.64-19.09Z"/><path d="M1898.3,980.91s-24.21-4-25.63,7.55l-1.42,11.54h60.9l-.64-19.09Z"/><circle class="cls-7" cx="1925.11" cy="586.88" r="44.55"/><path class="cls-10" d="M1929.92,587.56s-1.23-14.46,12.07-8.15C1942,579.41,1942.61,590.31,1929.92,587.56Z"/><circle class="cls-11" cx="1935.75" cy="582.3" r="4.22"/><rect x="1931.08" y="574.43" width="20.71" height="3.15" rx="1.58" ry="1.58"/><path class="cls-6" d="M1918.14,589.88s-.16.29-.43.75c-1,1.67-3.54,5.64-5.64,6.68h6.07"/><path class="cls-12" d="M1888.06,562.56s-5.77-38.81,17.58-43h37.76s16.26.52,21,18.88v24.13Z"/><path class="cls-13" d="M1925.91,516s-2.64-.26-2.51,2.82h5.71S1929.33,515.81,1925.91,516Z"/><path class="cls-13" d="M1964.38,552.79H1998s-.13,8.79-7.94,9.44l-25.7.33Z"/><path class="cls-13" d="M1887.56,547.66s6.41-1.95,8.77,4v10.95l-8.27-.33Z"/><polygon class="cls-14" points="1887.98 560.07 1896.33 560.07 1896.33 562.56 1888.06 562.56 1887.98 560.07"/><path class="cls-10" d="M1895.05,578.68s11.18-9.25,13.58,5.26C1908.63,583.94,1900,590.67,1895.05,578.68Z"/><circle class="cls-11" cx="1902.7" cy="580.47" r="4.22"/><rect x="1893.58" y="572.49" width="20.71" height="3.15" rx="1.58" ry="1.58"/><path class="cls-15" d="M1937,617.94a12.24,12.24,0,0,0,10.2-5.64s1.7,6.54-2.76,7A12.91,12.91,0,0,1,1937,617.94Z"/><path class="cls-7" d="M1836.08,741.85s-13.83-17.39-15-16c0,0-4-1.73-.49,2.94l4.82,5.89-20.9-4.1s-3.8,1.49.13,2.58l9.53,1.87.92.18-13-1.92a1.79,1.79,0,0,0,.14,2.58c1.35,1.23,13,1.92,13,1.92l-11.68-.69a1.79,1.79,0,0,0,.14,2.58c1.35,1.22,11.67.69,11.67.69l1.36,1.22-6,1.25s-.67,2.75,1.44,2.11l19.09,2.36Z"/><path class="cls-16" d="M1887.84,679.85l2.27,100.27,0,2.1.59,26.12,73.57-5.89-1.93-117.7s12.58-5.88,12.58,7.85l5.81,42.17s1.93,7.85-5.81,6.87l-31-3.92-1,16.67,37.75,3.92s23.23,3.93,17.42-27.46l-9.68-51s-2.9-30.41-35.81-29.43c0,0-17.43,33.35-59,0,0,0-22-3.74-27.78,5.94L1857.16,698l-2.9,18.4-6.78,18.39h-23.23v16.45h23.23s16.46,1,20.33-2.9Z"/><path class="cls-17" d="M1947.73,732.56a.9.9,0,0,1-.46,1.08.92.92,0,0,1-.38.73s.25,1.07-.2,1.52a15.81,15.81,0,0,1-.64,3.5l-.78,6.83s-.26,2.59-.71,2.88a9.85,9.85,0,0,1-.45,3.16s.06,2.93-.77,3.61V757s-.52,1.91-10,1.41c0,0-6.65-.12-5.42-2.77,0,0-.65-.45-.84-6.2,0,0-.33-.12-.84-6.83,0,0-.39-.74-.46-3.84,0,0-.25-.17-.12-.73,0,0-.52,0-.39-2.43,0,0-.39.34-.26-1.47a1,1,0,0,1-.32-.79s-.45.06-.39-.79Z"/><ellipse class="cls-18" cx="1936.01" cy="732.61" rx="11.77" ry="1.72"/><path class="cls-7" d="M1947.46,742.69l-2,.3-19.1,2.9s-3.07,2.69,1,2.39l9.6-1.46.93-.14L1925,749.27a1.78,1.78,0,0,0,1,2.38c1.69.7,12.91-2.59,12.91-2.59l-11.22,3.29a1.79,1.79,0,0,0,1,2.38c1.69.7,11.22-3.29,11.22-3.29l1.69.7-5.23,3.2s.29,2.81,2.07,1.49l18.76-4.21,2.77-6.76s-7.59-4.71-13.33-7.72h-.25l-.48,1.47Z"/><path class="cls-30" d="M1830.91,743.5l-4.67-15.45-4.31-12.57c-1.79-4-5.74-1.8-5.74-1.8l-11.14,4c-5,1.08-2.88,5.39-2.88,5.39l9.34,27a3.9,3.9,0,0,0,5,1.79l12.23-4.67,1.36-.51-.65-1.64"/><path class="cls-31" d="M1805.05,717.63l1.44,3.6,9,24.43,4.47,4.81-3.4,1.29a3.9,3.9,0,0,1-5-1.79l-9.34-27S1800,718.71,1805.05,717.63Z"/><rect class="cls-32" x="1810.44" y="717.99" width="3.59" height="0.72" rx="0.36" ry="0.36" transform="translate(-130.68 559.21) rotate(-16.94)"/><circle class="cls-32" cx="1822.11" cy="746.55" r="1.26"/><path class="cls-30" d="M1826.24,728.05l5.19,14,.21.56s1.57,2.92-1.92,4.12Z"/><rect class="cls-29" x="1806.9" y="719.93" width="19.43" height="24.42" rx="0.76" ry="0.76" transform="translate(-139.9 641.7) rotate(-19.3)"/><rect class="cls-33" x="1807.47" y="720.33" width="18.12" height="23.38" transform="translate(-139.86 641.66) rotate(-19.3)"/><rect class="cls-40" x="1812.02" y="728.44" width="8.96" height="6.95" rx="1.67" ry="1.67" transform="translate(-140.25 651.41) rotate(-19.59)"/><circle class="cls-41" cx="1816.47" cy="731.81" r="2.02"/><circle class="cls-42" cx="1816.47" cy="731.81" r="1.34"/><rect class="cls-40" x="1812.53" y="727.94" width="1.79" height="1.34" transform="translate(-139.32 650.18) rotate(-19.59)"/><path class="cls-7" d="M1828.73,734.43l-3.51,2.27s-1.94,0-1-2.27l3.68-2.57Z"/><circle class="cls-7" cx="518.11" cy="1085.88" r="44.55"/><path class="cls-10" d="M522.92,1084.56s-1.23-14.46,12.07-8.15C535,1076.41,535.61,1087.31,522.92,1084.56Z"/><circle class="cls-11" cx="528.75" cy="1079.3" r="4.22"/><rect x="523.08" y="1074.43" width="20.71" height="3.15" rx="1.58" ry="1.58"/><path class="cls-6" d="M511.14,1088.88s-.16.29-.43.75c-1,1.67-3.54,5.64-5.64,6.68h6.07"/><path class="cls-12" d="M481.06,1061.56s-5.77-38.81,17.58-43H536.4s16.26.52,21,18.88v24.13Z"/><path class="cls-13" d="M518.91,1015s-2.64-.26-2.51,2.82h5.71S522.33,1014.81,518.91,1015Z"/><path class="cls-13" d="M557.38,1051.79H591s-.13,8.79-7.94,9.44l-25.7.33Z"/><path class="cls-13" d="M480.56,1046.66s6.41-2,8.77,3.95v11l-8.27-.33Z"/><polygon class="cls-14" points="480.98 1059.07 489.33 1059.07 489.33 1061.56 481.06 1061.56 480.98 1059.07"/><path class="cls-10" d="M488.94,1083.72s.08-14.52,12.75-7C501.69,1076.68,501.33,1087.59,488.94,1083.72Z"/><circle class="cls-11" cx="495.22" cy="1079" r="4.22"/><rect x="489.58" y="1073.49" width="20.71" height="3.15" rx="1.58" ry="1.58"/><path class="cls-15" d="M530,1116.94a12.24,12.24,0,0,0,10.2-5.64s1.7,6.54-2.76,7A12.91,12.91,0,0,1,530,1116.94Z"/><rect class="cls-44" x="1" y="1500" width="350" height="500"/><rect class="cls-45" x="349" y="1500" width="350" height="500"/><rect class="cls-46" x="699" y="1500" width="350" height="500"/><rect class="cls-47" x="1049" y="1500" width="350" height="500"/><rect class="cls-48" x="1399" y="1500" width="350" height="500"/><rect class="cls-49" x="1749" y="1500" width="350" height="500"/><path class="cls-7" d="M123.56,1825.19v16.3l-19.66,10.87c36.51,32.61,59,0,59,0l-19.65-10.87v-16.3"/><circle class="cls-7" cx="135.11" cy="1787.88" r="44.55"/><path class="cls-7" d="M225,1895.84s-1.9-22.14-.08-22c0,0,1.69-4,2.37,1.8l.55,7.59,12.37-17.34s3.78-1.53,1.67,2l-5.64,7.9-.54.77,8.15-10.35a1.78,1.78,0,0,1,1.67,2c-.14,1.83-8.15,10.35-8.15,10.35l8-8.52a1.78,1.78,0,0,1,1.67,2c-.14,1.82-8,8.53-8,8.53l-.15,1.82,5.22-3.23s2.38,1.54.41,2.53l-12.24,14.83Z"/><path class="cls-16" d="M93.14,1963.62l1.3-78.87s-12.59-5.88-12.59,7.85L76,1934.77s-1.93,7.85,5.81,6.87l31-3.92,1,16.67L76,1958.31s-23.23,3.93-17.42-27.46l9.68-51s2.9-30.41,35.82-29.43c0,0,17.42,33.35,59,0,0,0,22-3.74,27.78,5.94l8.71,41.62,2.91,18.4L221.81,1887l13,8-15,29s-17.92,31.14-37.46,1.57L169,1879.85l-1.89,83.79Z"/><path class="cls-12" d="M174.39,1766.56s5.77-38.81-17.58-43H119.05s-16.26.52-21,18.88v24.13Z"/><path class="cls-13" d="M136.54,1720s2.64-.26,2.51,2.82h-5.71S133.12,1719.81,136.54,1720Z"/><path class="cls-13" d="M98.07,1756.79H64.43s.13,8.79,7.94,9.44l25.7.33Z"/><path class="cls-13" d="M174.89,1751.66s-6.4-2-8.77,3.95v11l8.27-.33Z"/><polygon class="cls-14" points="174.47 1764.07 166.13 1764.07 166.13 1766.56 174.39 1766.56 174.47 1764.07"/><polygon class="cls-8" points="167 1999 216.18 1985.62 194.01 1977.22 167 1985.04 167 1999"/><polygon class="cls-8" points="167 1979.38 184.31 1973.54 167 1966.98 167 1979.38"/><polygon class="cls-8" points="167 1999 100.94 1999 93 1964 167 1964 167 1999"/><path class="cls-7" d="M484.56,1825.19v16.3l-19.66,10.87c36.51,32.61,59,0,59,0l-19.65-10.87v-16.3"/><circle class="cls-7" cx="496.11" cy="1787.88" r="44.55"/><path class="cls-7" d="M605.66,1938.29s20.87-7.62,21.21-5.82c0,0,4.28.59-1.12,2.76l-7.18,2.51,20,7.41s2.47,3.26-1.46,2.13l-9.1-3.38-.88-.32,12.11,5.16a1.78,1.78,0,0,1-1.45,2.13c-1.8.34-12.12-5.16-12.12-5.16l10.32,5.5a1.79,1.79,0,0,1-1.46,2.13c-1.79.34-10.32-5.5-10.32-5.5l-1.79.33,4.47,4.2s-.86,2.7-2.33,1.05l-17.51-8Z"/><path class="cls-16" d="M560.65,1898l-8.71-41.62c-5.81-9.68-27.78-5.94-27.78-5.94-41.62,33.35-59,0-59,0-32.92-1-35.82,29.43-35.82,29.43l-9.68,51c-5.81,31.39,17.42,27.46,17.42,27.46l37.76-3.92-1-16.67-31,3.92c-7.74,1-5.81-6.87-5.81-6.87l5.81-42.17c0-13.73,12.59-7.85,12.59-7.85l-1.3,78.87,73.94,0,1.89-83.79,13.38,45.72L609,1949l3-17-48-18Z"/><path class="cls-12" d="M535.39,1766.56s5.77-38.81-17.58-43H480.05s-16.26.52-21,18.88v24.13Z"/><path class="cls-13" d="M497.54,1720s2.64-.26,2.51,2.82h-5.71S494.12,1719.81,497.54,1720Z"/><path class="cls-13" d="M459.07,1756.79H425.43s.13,8.79,7.94,9.44l25.7.33Z"/><path class="cls-13" d="M535.89,1751.66s-6.4-2-8.77,3.95v11l8.27-.33Z"/><polygon class="cls-14" points="535.47 1764.07 527.13 1764.07 527.13 1766.56 535.39 1766.56 535.47 1764.07"/><polygon class="cls-8" points="528 1999 577.18 1985.62 555.01 1977.22 528 1985.04 528 1999"/><polygon class="cls-8" points="528 1979.38 545.31 1973.54 528 1966.98 528 1979.38"/><polygon class="cls-8" points="528 1999 461.94 1999 454 1964 528 1964 528 1999"/><path class="cls-7" d="M854.56,1826.19v16.3l-19.66,10.87c36.51,32.61,59,0,59,0l-19.65-10.87v-16.3"/><circle class="cls-7" cx="866.11" cy="1788.88" r="44.55"/><path class="cls-7" d="M956,1896.84s-1.9-22.14-.08-22c0,0,1.69-4,2.37,1.8l.55,7.59,12.37-17.34s3.78-1.53,1.67,2l-5.64,7.9-.54.77,8.15-10.35a1.78,1.78,0,0,1,1.67,2c-.14,1.83-8.15,10.35-8.15,10.35l8-8.52a1.78,1.78,0,0,1,1.67,2c-.14,1.82-8,8.53-8,8.53l-.15,1.82,5.22-3.23s2.38,1.54.41,2.53l-12.24,14.83Z"/><path class="cls-16" d="M824.14,1964.62l1.3-78.87s-12.59-5.88-12.59,7.85L807,1935.77s-1.93,7.85,5.81,6.87l31-3.92,1,16.67L807,1959.31s-23.23,3.93-17.42-27.46l9.68-51s2.9-30.41,35.82-29.43c0,0,17.42,33.35,59,0,0,0,22-3.74,27.78,5.94l8.71,41.62,2.91,18.4L952.81,1888l13,8-15,29s-17.92,31.14-37.46,1.57L900,1880.85l-1.89,83.79Z"/><path class="cls-12" d="M905.39,1767.56s5.77-38.81-17.58-43H850.05s-16.26.52-21,18.88v24.13Z"/><path class="cls-13" d="M867.54,1721s2.64-.26,2.51,2.82h-5.71S864.12,1720.81,867.54,1721Z"/><path class="cls-13" d="M829.07,1757.79H795.43s.13,8.79,7.94,9.44l25.7.33Z"/><path class="cls-13" d="M905.89,1752.66s-6.4-2-8.77,3.95v11l8.27-.33Z"/><polygon class="cls-14" points="905.47 1765.07 897.13 1765.07 897.13 1767.56 905.39 1767.56 905.47 1765.07"/><polygon class="cls-8" points="898 2000 947.18 1986.62 925.01 1978.22 898 1986.04 898 2000"/><polygon class="cls-8" points="898 1980.38 915.31 1974.54 898 1967.98 898 1980.38"/><polygon class="cls-8" points="898 2000 831.94 2000 824 1965 898 1965 898 2000"/><path class="cls-30" d="M955.27,1885.64l4.59-15.2,4.25-12.37c1.76-3.89,5.65-1.77,5.65-1.77l11,3.89c4.95,1.06,2.83,5.3,2.83,5.3L974.36,1892a3.84,3.84,0,0,1-5,1.77l-12-4.6-1.33-.51.64-1.61"/><path class="cls-31" d="M980.72,1860.19l-1.41,3.53-8.84,24-4.4,4.73,3.34,1.28a3.84,3.84,0,0,0,5-1.77l9.19-26.51S985.67,1861.25,980.72,1860.19Z"/><rect class="cls-32" x="971.88" y="1860.54" width="3.53" height="0.71" rx="0.35" ry="0.35" transform="translate(1362.84 3924.74) rotate(-163.06)"/><circle class="cls-32" cx="963.93" cy="1888.64" r="1.24"/><path class="cls-30" d="M959.86,1870.44l-5.1,13.77-.21.55s-1.54,2.88,1.89,4.06Z"/><rect class="cls-29" x="959.79" y="1862.45" width="19.12" height="24.03" rx="0.76" ry="0.76" transform="translate(1264.53 3963.99) rotate(-160.7)"/><rect class="cls-33" x="960.51" y="1862.84" width="17.83" height="23" transform="translate(1264.73 3963.78) rotate(-160.7)"/><rect class="cls-50" y="2000" width="350" height="500"/><rect class="cls-51" x="349" y="2000" width="350" height="500"/><rect class="cls-52" x="699" y="2000" width="350" height="500"/><rect class="cls-53" x="1049" y="2000" width="350" height="500"/><rect class="cls-54" x="1399" y="2000" width="350" height="500"/><rect class="cls-55" x="1749" y="2000" width="350" height="500"/><rect class="cls-56" x="964" y="1870" width="12" height="8" transform="translate(694.11 -218.05) rotate(19.85)"/><line class="cls-57" x1="963" y1="1875.72" x2="977" y2="1872.28"/><line class="cls-57" x1="965.72" y1="1868.2" x2="974.28" y2="1879.8"/><rect class="cls-33" x="24" y="2015" width="305" height="469" rx="12" ry="12"/><rect class="cls-58" x="36" y="2047" width="151" height="97" rx="12" ry="12"/><rect class="cls-33" x="372" y="2016" width="305" height="469" rx="12" ry="12"/><rect class="cls-58" x="384" y="2048" width="151" height="97" rx="12" ry="12"/><rect class="cls-59" x="515" y="2180" width="151" height="97" rx="12" ry="12"/><text class="cls-60"><tspan x="56.9" y="2080.82">Hej Martin, tak for </tspan><tspan x="56.9" y="2095.22">hjlpen i gr, det </tspan><tspan x="56.9" y="2109.62">var sdt af dig. </tspan></text><text class="cls-60" transform="translate(533.78 2204.48)">Det var s lidt Sara, <tspan x="0" y="14.4">hber du har det </tspan><tspan x="0" y="28.8">godt nu og ikke har </tspan><tspan x="0" y="43.2">for slemme tmmer</tspan><tspan x="112.44" y="43.2">-</tspan><tspan x="0" y="57.6">mnd. </tspan></text><text class="cls-60"><tspan x="397.56" y="2084.57">Hej Martin, tak for </tspan><tspan x="397.56" y="2098.97">hjlpen i gr, det var </tspan><tspan x="397.56" y="2113.38" xml:space="preserve">sdt af dig.  </tspan></text><rect class="cls-61" x="81" y="2022" width="192" height="21"/><text class="cls-60" transform="translate(161.62 2035.72)">Sara</text><rect class="cls-62" x="432" y="2022" width="192" height="21"/><text class="cls-60" transform="translate(512.62 2035.72)">Sara</text><rect class="cls-33" x="722" y="2015" width="305" height="469" rx="12" ry="12"/><rect class="cls-58" x="734" y="2047" width="151" height="97" rx="12" ry="12"/><rect class="cls-59" x="865" y="2179" width="151" height="97" rx="12" ry="12"/><rect class="cls-58" x="734" y="2298" width="151" height="97" rx="12" ry="12"/><text class="cls-60" transform="translate(878.88 2199.7)">Det var s lidt Sara, <tspan x="0" y="14.4">hber du har det godt </tspan><tspan x="0" y="28.8">og ikke har for </tspan><tspan x="0" y="43.2">slemme tmmer</tspan><tspan x="93.11" y="43.2">-</tspan><tspan x="0" y="57.6" xml:space="preserve">mnd.  </tspan></text><text class="cls-60" transform="translate(746 2321.11)">Jeg har det godt nu, <tspan x="0" y="14.4">endnu engang tak, du </tspan><tspan x="0" y="28.8">var nu meget sd. </tspan></text><text class="cls-60"><tspan x="748.87" y="2085.05">Hej Martin, tak for </tspan><tspan x="748.87" y="2099.45">hjlpen i gr, det var </tspan><tspan x="748.87" y="2113.85" xml:space="preserve">sdt af dig.  </tspan></text><rect class="cls-62" x="783" y="2020" width="192" height="21"/><text class="cls-60" transform="translate(863.62 2033.72)">Sara</text><rect class="cls-33" x="1072" y="2015" width="305" height="469" rx="12" ry="12"/><rect class="cls-58" x="1084" y="2047" width="151" height="97" rx="12" ry="12"/><rect class="cls-59" x="1215" y="2179" width="151" height="97" rx="12" ry="12"/><rect class="cls-58" x="1084" y="2298" width="151" height="97" rx="12" ry="12"/><text class="cls-60" transform="translate(1228.88 2199.7)">Det var s lidt Sara, <tspan x="0" y="14.4">hber du har det godt </tspan><tspan x="0" y="28.8">og ikke har for </tspan><tspan x="0" y="43.2">slemme tmmer</tspan><tspan x="93.11" y="43.2">-</tspan><tspan x="0" y="57.6" xml:space="preserve">mnd.  </tspan></text><text class="cls-60" transform="translate(1096 2321.11)">Jeg har det godt nu, <tspan x="0" y="14.4">endnu engang tak, du </tspan><tspan x="0" y="28.8">var nu meget sd.</tspan></text><text class="cls-60"><tspan x="1098.87" y="2085.05">Hej Martin, tak for </tspan><tspan x="1098.87" y="2099.45">hjlpen i gr, det var </tspan><tspan x="1098.87" y="2113.85" xml:space="preserve">sdt af dig.  </tspan></text><rect class="cls-62" x="1133" y="2020" width="192" height="21"/><text class="cls-60" transform="translate(1213.62 2033.72)">Sara</text><rect class="cls-59" x="1279" y="2423" width="54.48" height="35" rx="12" ry="12"/><text class="cls-63" transform="translate(1287.97 2440.73) scale(3.8 1)">...</text><image width="552" height="416" transform="translate(1436 2208) scale(0.5)" xlink:href="../../../../../Library/Mobile Documents/com~apple~Grab/Documents/privat_snak_scorer.png"/><path class="cls-64" d="M1478.05,2130.23V2097h178.68s14.9-5,12.41,17.55v40.1s1.24,13.76-6.2,13.76H1533.73l-25.93,20.25V2169H1487c0-.29-10.37,2.19-10.37-5.26S1478.05,2130.23,1478.05,2130.23Z"/><path class="cls-65" d="M1443,2092.37v-52.6s0-10.26,10-10.26h203.09s11.24-5.12,13.08,13.47v49.35s0,9.26-9,9.26H1486.5l-23.66,19.33v-18.67h-11.13C1451.71,2101.06,1443,2092.37,1443,2092.37Z"/><g class="cls-66"><text class="cls-67" transform="translate(1469.65 2076.51)"><tspan xml:space="preserve">  PRI</tspan></text></g><text class="cls-68" transform="translate(1553.86 2076.51)">V</text><text class="cls-69" transform="translate(1579.3 2076.51)">A</text><text class="cls-67" transform="translate(1606.04 2076.51)">T</text><text class="cls-67" transform="translate(1515.62 2145.02)">S</text><text class="cls-67" transform="translate(1538.08 2145.02)">N</text><text class="cls-67" transform="translate(1569.86 2145.02)">AK</text><path class="cls-65" d="M1443,2092s1,10,9,10Z"/></svg>
