<svg id="Layer_1" data-name="Layer 1" xmlns="http://www.w3.org/2000/svg" viewBox="0 0 1050 500"><defs><style>.cls-1{fill:#00bd1a;}.cls-2,.cls-3{fill:#fcad95;}.cls-3{stroke:#fcad95;}.cls-10,.cls-3,.cls-7,.cls-8,.cls-9{stroke-miterlimit:10;}.cls-4{fill:#d18f82;}.cls-5{fill:#f8f8f8;}.cls-6{fill:#002053;}.cls-7{stroke:#002b6f;}.cls-8{fill:#fff;}.cls-8,.cls-9{stroke:#fff;}.cls-10{fill:#774c0c;stroke:#d1ffd5;}.cls-11{fill:#bd0000;}.cls-12{fill:#700b0b;}.cls-13{fill:#c69d9d;}.cls-14{fill:#a8736c;}.cls-15{fill:#00d3f1;}.cls-16{fill:#2000bd;}</style></defs><title>martin_karakter_speakcycle</title><rect class="cls-1" width="350" height="500"/><path class="cls-2" d="M260.22,295.18s-5.27,22.34-3.39,22.46c0,0,1.13,4.32,2.7-1.48l1.69-7.68,10,19.58s3.64,2.14,2-1.75l-4.58-8.93-.44-.86,6.78,11.8a1.84,1.84,0,0,0,2-1.76c.13-1.88-6.77-11.8-6.77-11.8l6.9,9.92a1.86,1.86,0,0,0,2-1.76c.12-1.88-6.9-9.92-6.9-9.92l.12-1.88,4.85,4.08s2.67-1.21.79-2.52l-10.28-17Z" transform="translate(0 0)"/><path class="cls-2" d="M81,301.05s-12,19.56-10.26,20.27c0,0-.28,4.45,3-.56l4-6.76,3.4,21.74s2.79,3.16,2.46-1l-1.55-9.91-.15-1,2.74,13.32a1.85,1.85,0,0,0,2.46-1c.71-1.75-2.74-13.33-2.74-13.33l3.45,11.58a1.84,1.84,0,0,0,2.45-1c.71-1.75-3.44-11.58-3.44-11.58l.71-1.75,3.32,5.39s2.91-.31,1.54-2.14L88,303.89Z" transform="translate(0 0)"/><path class="cls-3" d="M100.86,121.92" transform="translate(0 0)"/><path class="cls-4" d="M163.23,55.9l-.67,1C161,59,157.08,64,153.84,65.35h9.39" transform="translate(0 0)"/><path class="cls-2" d="M154.53,111.77v16.84l-20.31,11.23c37.71,33.69,60.92,0,60.92,0l-20.31-11.23V111.77" transform="translate(0 0)"/><path class="cls-5" d="M131.32,128.06s42.1,50.32,68,0c0,0,51.82-6.71,51.82,40.25l25.91,127.48-25.91,6.71L222,201.86s-9.71-20.13-22.67-13.42L209.05,326l-77.73,3.35V191.8s-22.67-13.42-25.91,10.06L98.94,315.91,69.79,305.85S73,141.48,92.46,141.48C92.46,141.48,131.32,124.7,131.32,128.06Z" transform="translate(0 0)"/><polygon class="cls-6" points="131.32 312.66 213.47 306.13 229.55 483.08 184.5 483.08 179.57 388.71 176.97 390.18 179.57 483.08 141.23 483.08 131.32 312.66"/><ellipse class="cls-7" cx="174.24" cy="338.2" rx="2.67" ry="2.95"/><ellipse class="cls-7" cx="174.24" cy="348.71" rx="2.67" ry="2.95"/><path class="cls-7" d="M170.36,335.25s-3.09,32.62,7,26.59v3.7s-10,6.85-10.19-29.38Z" transform="translate(0 0)"/><polygon class="cls-8" points="223.49 481.74 220.71 481.97 209.67 319.98 212.44 319.75 223.49 481.74"/><polygon class="cls-8" points="216.58 481.74 213.8 481.97 202.76 319.98 205.53 319.75 216.58 481.74"/><path d="M218.51,480.28s25-4.13,26.48,7.8L246.46,500H183.54l.66-19.72Z" transform="translate(0 0)"/><path d="M144.76,480.28s-25-4.13-26.47,7.8L116.82,500h62.92l-.66-19.72Z" transform="translate(0 0)"/><circle class="cls-2" cx="166.47" cy="73.22" r="46.03"/><path class="cls-8" d="M182.43,68.93S181.16,54,194.9,60.51C194.9,60.51,195.54,71.76,182.43,68.93Z" transform="translate(0 0)"/><circle class="cls-9" cx="188.46" cy="63.49" r="4.36"/><rect x="180.63" y="56.36" width="21.4" height="3.26" rx="0.78" ry="0.78"/><path class="cls-4" d="M166.47,76s-.17.3-.46.78c-1,1.73-3.65,5.83-5.82,6.9h6.28" transform="translate(0 0)"/><path class="cls-10" d="M207,48.1" transform="translate(0 0)"/><path class="cls-11" d="M128.19,48.1s-6-40.1,18.15-44.43h39s16.8.54,21.67,19.5V48.1Z" transform="translate(0 0)"/><path class="cls-12" d="M167.29,0s-2.73-.27-2.59,2.91h5.89S170.82-.19,167.29,0Z" transform="translate(0 0)"/><path class="cls-12" d="M207,38h34.75s-.14,9.07-8.2,9.75L207,48.1Z" transform="translate(0 0)"/><path class="cls-12" d="M127.67,32.71s6.62-2,9.06,4.08V48.1l-8.54-.34Z" transform="translate(0 0)"/><polygon class="cls-13" points="128.1 45.52 136.73 45.52 136.73 48.1 128.19 48.1 128.1 45.52"/><path class="cls-8" d="M142.68,68.93S141.42,54,155.15,60.51C155.15,60.51,155.79,71.76,142.68,68.93Z" transform="translate(0 0)"/><circle class="cls-9" cx="148.71" cy="63.49" r="4.36"/><rect x="140.88" y="56.36" width="21.4" height="3.26" rx="0.78" ry="0.78"/><path class="cls-14" d="M177,104.72s8.51.15,13.18-3.72c0,0,2.2,4.31-3.57,4.61A30.28,30.28,0,0,1,177,104.72Z" transform="translate(0 0)"/><rect class="cls-15" x="350" width="350" height="500"/><path class="cls-2" d="M610.22,295.18s-5.27,22.34-3.39,22.46c0,0,1.13,4.32,2.7-1.48l1.69-7.68,10,19.58s3.64,2.14,2-1.75l-4.58-8.93-.44-.86,6.78,11.8a1.84,1.84,0,0,0,2-1.76c.13-1.88-6.77-11.8-6.77-11.8l6.9,9.92a1.86,1.86,0,0,0,2-1.76c.12-1.88-6.9-9.92-6.9-9.92l.12-1.88,4.85,4.08s2.67-1.21.79-2.52l-10.28-17Z" transform="translate(0 0)"/><path class="cls-2" d="M431,301.05s-12,19.56-10.26,20.27c0,0-.28,4.45,3-.56l4-6.76,3.4,21.74s2.79,3.16,2.46-1l-1.55-9.91-.15-1,2.74,13.32a1.85,1.85,0,0,0,2.46-1c.71-1.75-2.74-13.33-2.74-13.33l3.45,11.58a1.84,1.84,0,0,0,2.45-1c.71-1.75-3.44-11.58-3.44-11.58l.71-1.75,3.32,5.39s2.91-.31,1.54-2.14L438,303.89Z" transform="translate(0 0)"/><path class="cls-3" d="M450.86,121.92" transform="translate(0 0)"/><path class="cls-4" d="M513.23,55.9l-.67,1C511,59,507.08,64,503.84,65.35h9.39" transform="translate(0 0)"/><path class="cls-2" d="M504.53,111.77v16.84l-20.31,11.23c37.71,33.69,60.92,0,60.92,0l-20.31-11.23V111.77" transform="translate(0 0)"/><path class="cls-5" d="M481.32,128.06s42.1,50.32,68,0c0,0,51.82-6.71,51.82,40.25l25.91,127.48-25.91,6.71L572,201.86s-9.71-20.13-22.67-13.42L559.05,326l-77.73,3.35V191.8s-22.67-13.42-25.91,10.06l-6.47,114.05-29.15-10.06S423,141.48,442.46,141.48C442.46,141.48,481.32,124.7,481.32,128.06Z" transform="translate(0 0)"/><polygon class="cls-6" points="481.32 312.66 563.47 306.13 579.55 483.08 534.5 483.08 529.57 388.71 526.97 390.18 529.57 483.08 491.23 483.08 481.32 312.66"/><ellipse class="cls-7" cx="524.24" cy="338.2" rx="2.67" ry="2.95"/><ellipse class="cls-7" cx="524.24" cy="348.71" rx="2.67" ry="2.95"/><path class="cls-7" d="M520.36,335.25s-3.09,32.62,7,26.59v3.7s-10,6.85-10.19-29.38Z" transform="translate(0 0)"/><polygon class="cls-8" points="573.49 481.74 570.71 481.97 559.67 319.98 562.44 319.75 573.49 481.74"/><polygon class="cls-8" points="566.58 481.74 563.8 481.97 552.76 319.98 555.53 319.75 566.58 481.74"/><path d="M568.51,480.28s25-4.13,26.48,7.8L596.46,500H533.54l.66-19.72Z" transform="translate(0 0)"/><path d="M494.76,480.28s-25-4.13-26.47,7.8L466.82,500h62.92l-.66-19.72Z" transform="translate(0 0)"/><circle class="cls-2" cx="516.47" cy="73.22" r="46.03"/><path class="cls-8" d="M532.43,68.93S531.16,54,544.9,60.51C544.9,60.51,545.54,71.76,532.43,68.93Z" transform="translate(0 0)"/><circle class="cls-9" cx="538.46" cy="63.49" r="4.36"/><rect x="530.63" y="56.36" width="21.4" height="3.26" rx="0.78" ry="0.78"/><path class="cls-4" d="M516.47,76s-.17.3-.46.78c-1,1.73-3.65,5.83-5.82,6.9h6.28" transform="translate(0 0)"/><path class="cls-10" d="M557,48.1" transform="translate(0 0)"/><path class="cls-11" d="M478.19,48.1s-6-40.1,18.15-44.43h39s16.8.54,21.67,19.5V48.1Z" transform="translate(0 0)"/><path class="cls-12" d="M517.29,0s-2.73-.27-2.59,2.91h5.89S520.82-.19,517.29,0Z" transform="translate(0 0)"/><path class="cls-12" d="M557,38h34.75s-.14,9.07-8.2,9.75L557,48.1Z" transform="translate(0 0)"/><path class="cls-12" d="M477.67,32.71s6.62-2,9.06,4.08V48.1l-8.54-.34Z" transform="translate(0 0)"/><polygon class="cls-13" points="478.1 45.52 486.73 45.52 486.73 48.1 478.19 48.1 478.1 45.52"/><path class="cls-8" d="M492.68,68.93S491.42,54,505.15,60.51C505.15,60.51,505.79,71.76,492.68,68.93Z" transform="translate(0 0)"/><circle class="cls-9" cx="498.71" cy="63.49" r="4.36"/><rect x="490.88" y="56.36" width="21.4" height="3.26" rx="0.78" ry="0.78"/><path class="cls-14" d="M526.56,103.76s8.79.3,13.61-7.53c0,0,2.27,8.73-3.68,9.33A17.22,17.22,0,0,1,526.56,103.76Z" transform="translate(0 0)"/><rect class="cls-16" x="700" width="350" height="500"/><path class="cls-2" d="M960.22,295.18s-5.27,22.34-3.39,22.46c0,0,1.13,4.32,2.7-1.48l1.69-7.68,10,19.58s3.64,2.14,2-1.75l-4.58-8.93-.44-.86,6.78,11.8a1.84,1.84,0,0,0,2-1.76c.13-1.88-6.77-11.8-6.77-11.8l6.9,9.92a1.86,1.86,0,0,0,2-1.76c.12-1.88-6.9-9.92-6.9-9.92l.12-1.88,4.85,4.08s2.67-1.21.79-2.52l-10.28-17Z" transform="translate(0 0)"/><path class="cls-2" d="M781,301.05s-12,19.56-10.26,20.27c0,0-.28,4.45,3-.56l4-6.76,3.4,21.74s2.79,3.16,2.46-1l-1.55-9.91-.15-1,2.74,13.32a1.85,1.85,0,0,0,2.46-1c.71-1.75-2.74-13.33-2.74-13.33l3.45,11.58a1.84,1.84,0,0,0,2.45-1c.71-1.75-3.44-11.58-3.44-11.58l.71-1.75,3.32,5.39s2.91-.31,1.54-2.14L788,303.89Z" transform="translate(0 0)"/><path class="cls-3" d="M800.86,121.92" transform="translate(0 0)"/><path class="cls-4" d="M863.23,55.9l-.67,1C861,59,857.08,64,853.84,65.35h9.39" transform="translate(0 0)"/><path class="cls-2" d="M854.53,111.77v16.84l-20.31,11.23c37.71,33.69,60.92,0,60.92,0l-20.31-11.23V111.77" transform="translate(0 0)"/><path class="cls-5" d="M831.32,128.06s42.1,50.32,68,0c0,0,51.82-6.71,51.82,40.25l25.91,127.48-25.91,6.71L922,201.86s-9.71-20.13-22.67-13.42L909.05,326l-77.73,3.35V191.8s-22.67-13.42-25.91,10.06l-6.47,114.05-29.15-10.06S773,141.48,792.46,141.48C792.46,141.48,831.32,124.7,831.32,128.06Z" transform="translate(0 0)"/><polygon class="cls-6" points="831.32 312.66 913.47 306.13 929.55 483.08 884.5 483.08 879.57 388.71 876.97 390.18 879.57 483.08 841.23 483.08 831.32 312.66"/><ellipse class="cls-7" cx="874.24" cy="338.2" rx="2.67" ry="2.95"/><ellipse class="cls-7" cx="874.24" cy="348.71" rx="2.67" ry="2.95"/><path class="cls-7" d="M870.36,335.25s-3.09,32.62,7,26.59v3.7s-10,6.85-10.19-29.38Z" transform="translate(0 0)"/><polygon class="cls-8" points="923.49 481.74 920.71 481.97 909.67 319.98 912.44 319.75 923.49 481.74"/><polygon class="cls-8" points="916.58 481.74 913.8 481.97 902.76 319.98 905.53 319.75 916.58 481.74"/><path d="M918.51,480.28s25-4.13,26.48,7.8L946.46,500H883.54l.66-19.72Z" transform="translate(0 0)"/><path d="M844.76,480.28s-25-4.13-26.47,7.8L816.82,500h62.92l-.66-19.72Z" transform="translate(0 0)"/><circle class="cls-2" cx="866.47" cy="73.22" r="46.03"/><path class="cls-8" d="M882.43,68.93S881.16,54,894.9,60.51C894.9,60.51,895.54,71.76,882.43,68.93Z" transform="translate(0 0)"/><circle class="cls-9" cx="888.46" cy="63.49" r="4.36"/><rect x="880.63" y="56.36" width="21.4" height="3.26" rx="0.78" ry="0.78"/><path class="cls-4" d="M866.47,76s-.17.3-.46.78c-1,1.73-3.65,5.83-5.82,6.9h6.28" transform="translate(0 0)"/><path class="cls-10" d="M907,48.1" transform="translate(0 0)"/><path class="cls-11" d="M828.19,48.1s-6-40.1,18.15-44.43h39s16.8.54,21.67,19.5V48.1Z" transform="translate(0 0)"/><path class="cls-12" d="M867.29,0s-2.73-.27-2.59,2.91h5.89S870.82-.19,867.29,0Z" transform="translate(0 0)"/><path class="cls-12" d="M907,38h34.75s-.14,9.07-8.2,9.75L907,48.1Z" transform="translate(0 0)"/><path class="cls-12" d="M827.67,32.71s6.62-2,9.06,4.08V48.1l-8.54-.34Z" transform="translate(0 0)"/><polygon class="cls-13" points="828.1 45.52 836.73 45.52 836.73 48.1 828.19 48.1 828.1 45.52"/><path class="cls-8" d="M842.68,68.93S841.42,54,855.15,60.51C855.15,60.51,855.79,71.76,842.68,68.93Z" transform="translate(0 0)"/><circle class="cls-9" cx="848.71" cy="63.49" r="4.36"/><rect x="840.88" y="56.36" width="21.4" height="3.26" rx="0.78" ry="0.78"/><path class="cls-14" d="M876.56,102.7s8.79.47,13.61-11.7c0,0,2.27,13.57-3.68,14.51A12.5,12.5,0,0,1,876.56,102.7Z" transform="translate(0 0)"/></svg>
