<svg id="Spritesheet" xmlns="http://www.w3.org/2000/svg" width="1400" height="500" viewBox="0 0 1400 500"><defs><style>.cls-1,.cls-20,.cls-22{fill:#fcad95;}.cls-2,.cls-4,.cls-8{fill:#fff;}.cls-2,.cls-3,.cls-4{stroke:#fff;}.cls-12,.cls-13,.cls-14,.cls-15,.cls-2,.cls-3,.cls-4{stroke-miterlimit:10;}.cls-13,.cls-14,.cls-15,.cls-4{stroke-width:0.25px;}.cls-5{fill:#ffc364;}.cls-6{fill:#faffff;}.cls-7{fill:#f86744;}.cls-9{fill:#23a6e8;}.cls-10{fill:#91e5f9;}.cls-11,.cls-12,.cls-13{fill:#f19538;}.cls-12{stroke:#f19538;}.cls-13,.cls-15{stroke:#020100;}.cls-14,.cls-15{fill:none;}.cls-14{stroke:#050300;}.cls-16{fill:#160b03;opacity:0.4;}.cls-17{fill:#d18f82;}.cls-18{opacity:0.44;}.cls-19{fill:#cfe0e9;}.cls-20{opacity:0.68;}.cls-21{fill:#eba495;}.cls-22{opacity:0.74;}</style></defs><title>sara_walkcycle</title><path class="cls-1" d="M241.6,260.446a1.552,1.552,0,0,0,1.758-1.467l-7.5-17.395h.012l-.039-.063-.177-.41-.089-.011-.116-.183.02-.8.045-.008-4.77-27.862c-2.483-5.461-10.644-32.163-10.644-32.163l-.171-1.54-1.048-3.669c-3.033-30.088-10.79-35.016-10.79-35.016l-5.77,21.489L215.1,195c.291,1.182.588,2.222.89,3.152l0,.022L228.7,241.29c-1.364,4.086-4.508,14.131-3.92,18.324,0,0,.494,7.019,4.275-8.026l3.269,9.224,3.235,9.128a1.552,1.552,0,0,0,1.758-1.468l-3.5-7.478.252-1.7,4.505,11.1a1.552,1.552,0,0,0,1.758-1.467l-4.757-9.406.253-1.7,4.757,9.406a1.552,1.552,0,0,0,1.758-1.467l-4.757-9.406.253-1.7Z"/><rect class="cls-1" x="135.471" y="30.858" width="66.554" height="82.155" rx="33.277" ry="33.277"/><path class="cls-1" d="M162.775,110.808v10.239l-11.945,6.826c22.184,20.478,35.837,0,35.837,0l-11.946-6.826V110.808"/><path class="cls-2" d="M173.014,74.971s1.707-20.479,18.772-8.533C191.786,66.438,190.08,81.8,173.014,74.971Z"/><circle class="cls-3" cx="182.4" cy="68.998" r="5.973"/><path class="cls-4" d="M159.362,74.971s-1.706-20.479-18.772-8.533C140.59,66.438,142.3,81.8,159.362,74.971Z"/><circle class="cls-3" cx="149.976" cy="68.998" r="5.973"/><path class="cls-5" d="M160.29,110.808h2.485S161.218,112.514,160.29,110.808Z"/><ellipse class="cls-6" cx="184.619" cy="66.263" rx="1.538" ry="1.363" transform="translate(-3.043 123.341) rotate(-36.661)"/><ellipse class="cls-6" cx="152.195" cy="66.263" rx="1.538" ry="1.363" transform="translate(-9.457 103.982) rotate(-36.661)"/><path class="cls-7" d="M160.215,92.889s5.12-3.413,8.533-1.706c0,0,5.12-1.707,8.533,1.706,0,0,0,6.826-8.533,6.826C168.748,99.715,160.215,99.715,160.215,92.889Z"/><path class="cls-8" d="M162.775,95.354s6.826-3.626,11.946,0C174.721,95.354,167.9,98.98,162.775,95.354Z"/><path class="cls-1" d="M113.633,252.078s-14.121,14.277-2.214,24.839c0,0,1.287.922.963-1.343l-1.612-3.187-.325-2.266,2.9,4.109s1.287.922.962-1.343l-2.9-4.109,3.861,2.765s2.249-.421.962-1.343l-4.185-5.031s5.461-2.186,5.136-4.451l.974,6.795a1.573,1.573,0,0,0,2.249-.421l1.263-15.356s-.87-.946-1.994-2.139a64.6,64.6,0,0,1-6.459,2.181Z"/><path class="cls-1" d="M140.59,132.992s-10.239,0-13.652,17.066l-5.119,46.076s-5.12,3.413-8.533,54.608v1.152A66.983,66.983,0,0,0,119,256.185a70.27,70.27,0,0,0,1.11-7.149Z"/><path class="cls-9" d="M135.471,132.992s-8.533-1.706-11.946,6.826c0,0-5.119,11.946-5.119,32.424,0,0,6.826,6.826,27.3,5.12C145.71,177.362,157.656,138.112,135.471,132.992Z"/><path class="cls-10" d="M150.83,228.558a39.65,39.65,0,0,0,5.119-32.424L145.71,177.362s10.239-39.25-10.239-44.37l15.359-5.119h39.25s6.826,1.706,22.184,34.13c0,0,3.413,15.359-8.532,20.478l-5.12,32.424,6.826,13.653S181.547,245.623,150.83,228.558Z"/><path class="cls-1" d="M198.717,294.512s15.023,37.456,8.812,75.328c0,0,4.3,45.1.381,59.614,0,0,4.726,15.354,5.478,20.392,0,0,9.3,19.523,7.224,28.009a17.817,17.817,0,0,1-13.074,6.175s-10.993-2.311-12.98-7.469l4.011-28.157L177.208,296.2"/><path class="cls-11" d="M195.8,467.83h24.111s2.277,9.167.242,10.563c0,0-5.8,6.172-11.984,5.637,0,0-12.385-1.77-13.626-7.947Z"/><path class="cls-11" d="M198.282,450.417a18.611,18.611,0,0,1,15.292-.172l.55,1.214a23.935,23.935,0,0,0-16.038.334Z"/><path class="cls-1" d="M149.159,296.324s-12.174,38.468-3.14,75.774c0,0-.906,45.294,4.089,59.476,0,0-3.562,15.662-3.934,20.742,0,0-7.814,20.16-5.1,28.467a17.831,17.831,0,0,0,13.5,5.187s10.79-3.122,12.384-8.413l-6.111-27.78,9.9-153.453"/><path class="cls-11" d="M141.531,467.958h23.312L167,477.446s-2.481,6.177-12.408,8.647c0,0-8.685,1.236-13.649-4.941C140.945,481.152,139.634,473.292,141.531,467.958Z"/><path class="cls-11" d="M146.287,451.183a20.275,20.275,0,0,1,14.823-.194l.225,1.021s-10.218-1.836-15.3.683Z"/><path class="cls-12" d="M206.2,228.871a56.8,56.8,0,0,1-12.415,4.654c-19.055,4.679-35.536-1.9-42.534-5.244-4.49,8.728-8.829,18.013-13.35,27.668-6.8,14.517-13.836,30.4-14.811,35.86,0,0-3.132,9.127-5.984,27.766a26.973,26.973,0,0,1,4.858.552c31.647,6.782,64.916,2.69,97.067.244,5.513-.9,11.024-1.742,16.528-2.471-3.169-22.422-8.464-48.331-16.85-59.715A89.338,89.338,0,0,1,206.2,228.871Z"/><path class="cls-13" d="M180.885,235.121s3.852,20.768.484,29.352"/><path class="cls-14" d="M209.6,240.32l-8.352,3.171s2.732,27.788,21.747,22.265"/><path class="cls-14" d="M144.744,241.06l8.563,2.553s-.673,27.912-20.044,23.793"/><rect class="cls-15" x="176.292" y="235.781" width="1.88" height="1.871" rx="0.146" ry="0.146" transform="translate(2.552 -1.889) rotate(0.615)"/><path class="cls-9" d="M190.08,127.873s3.413-1.707,10.239,0l15.358,15.358-8.882,7.8Z"/><path class="cls-5" d="M149.123,39.134s-34.13,49.489,13.652,71.674v8.532s-42.663-17.065-39.25-58.022c0,0,0-34.13,22.185-37.543,0,0,34.13-29.011,59.728,11.946,0,0,11.946,11.945,5.12,58.021,0,0,6.826,27.3-11.946,35.837,0,0,5.12,8.533,0,11.946,0,0,6.826,3.413-1.706,13.652,0,0,6.826,10.239,0,18.772,0,0-1.707,6.826,3.413,8.532,0,0-10.239,1.707-10.239-13.652,0,0-1.707-10.239,3.413-13.652,0,0-5.12-6.826,0-10.239,0,0-5.12-6.826-1.707-11.946,0,0-3.413,0-3.413-5.119l-13.652-6.826v-8.533s49.489-27.3,1.706-66.554C176.427,45.96,167.9,35.721,149.123,39.134Z"/><path class="cls-16" d="M159.362,179.068s11.093,8,22.185,0C181.547,179.068,170.455,189.734,159.362,179.068Z"/><path class="cls-16" d="M188.373,180.775s9.386,5.12,18.772,0C207.145,180.775,197.759,187.6,188.373,180.775Z"/><path class="cls-17" d="M166.188,78.141s.135.141.368.369c.844.823,2.983,2.775,4.752,3.287h-5.12"/><path class="cls-1" d="M569.27,448.6c-.752-5.038-5.479-20.392-5.479-20.392,2.651-9.817,1.541-33.625.546-48.007a87.9,87.9,0,0,1-17.993,9.195l8.107,57.762-3.465,24.319c.029-.095.046-.195.077-.288h0a25.066,25.066,0,0,1,1.121-5.2c5.413-4.135,13.635-2.132,13.635-2.132,5.6,1.869,8.442,4.435,9.829,6.185l.788,1.126c.1.175.177.316.239.44C575.736,462.172,569.27,448.6,569.27,448.6Z"/><path class="cls-11" d="M550.986,471.474a16.623,16.623,0,0,0-.588,4.921l.694.109a5.513,5.513,0,0,1-.652-1.192Z"/><path class="cls-11" d="M576.723,472.084c0-.038,0-.074-.007-.111-.01-.122-.026-.247-.038-.37-.062-.124-.136-.265-.239-.44a10.336,10.336,0,0,0-.788-1.126c-1.387-1.75-4.234-4.316-9.829-6.185,0,0-8.222-2-13.635,2.132a25.066,25.066,0,0,0-1.121,5.2h0c-.031.093-.048.193-.077.288l-.546,3.838a5.513,5.513,0,0,0,.652,1.192,144.814,144.814,0,0,0,23.249,2.219,13.727,13.727,0,0,0,2.153-2.117A14.52,14.52,0,0,0,576.723,472.084Z"/><path class="cls-1" d="M563.41,368.591c6.212-37.872-8.812-75.328-8.812-75.328l-21.508,1.685,13.254,94.445a87.9,87.9,0,0,0,17.993-9.195C563.861,373.317,563.41,368.591,563.41,368.591Z"/><path class="cls-11" d="M554.164,449.168A18.611,18.611,0,0,1,569.456,449l.55,1.214a23.936,23.936,0,0,0-16.038.334Z"/><g class="cls-18"><path class="cls-19" d="M557.443,386.057a.329.329,0,0,1,.021.06c.087.473-1.066,1.082-2.576,1.36s-2.8.12-2.891-.353a.332.332,0,0,1,0-.063c-.409.268-.633.549-.586.8.112.611,1.741.823,3.637.474s3.342-1.128,3.229-1.739C558.23,386.345,557.921,386.162,557.443,386.057Z"/></g><rect class="cls-1" x="491.723" y="21.695" width="66.554" height="82.155" rx="33.277" ry="33.277"/><path class="cls-1" d="M519.027,101.645v10.239l-11.945,6.826c22.184,20.478,35.836,0,35.836,0l-11.945-6.826V101.645"/><path class="cls-2" d="M529.266,65.808s1.707-20.479,18.772-8.533C548.038,57.275,546.332,72.634,529.266,65.808Z"/><circle class="cls-3" cx="538.652" cy="59.835" r="5.973"/><path class="cls-4" d="M515.614,65.808s-1.706-20.479-18.772-8.533C496.842,57.275,498.549,72.634,515.614,65.808Z"/><circle class="cls-3" cx="506.228" cy="59.835" r="5.973"/><path class="cls-5" d="M516.542,101.645h2.485S517.47,103.351,516.542,101.645Z"/><ellipse class="cls-6" cx="540.871" cy="57.1" rx="1.538" ry="1.363" transform="translate(72.902 334.241) rotate(-36.661)"/><ellipse class="cls-6" cx="508.447" cy="57.1" rx="1.538" ry="1.363" transform="translate(66.488 314.881) rotate(-36.661)"/><path class="cls-7" d="M516.467,83.726s5.12-3.413,8.533-1.706c0,0,5.12-1.707,8.533,1.706,0,0,0,6.826-8.533,6.826C525,90.552,516.467,90.552,516.467,83.726Z"/><path class="cls-8" d="M519.027,86.191s6.826-3.626,11.946,0C530.973,86.191,524.147,89.818,519.027,86.191Z"/><path class="cls-1" d="M563.4,132.362s8.532,3.413,17.065,32.424l1.706,3.413,3.414-29.011s-3.414-15.359-1.707-20.478c0,0,1.707-6.826,3.413,8.532l5.147-8.577,5.092-8.488a1.672,1.672,0,0,1,1.707,1.707l-5.12,6.826v1.706l6.826-10.239a1.672,1.672,0,0,1,1.707,1.707l-6.826,8.532v1.707l6.826-8.533a1.671,1.671,0,0,1,1.706,1.707l-6.826,8.532v1.707l5.12-5.12a1.671,1.671,0,0,1,1.706,1.707l-11.945,17.065v46.076s-3.413,18.772-11.946,0L561.69,154.547Z"/><path class="cls-1" d="M496.842,123.829s-10.239,0-13.652,17.066l-5.119,46.076s-5.12,3.413-8.533,54.608v1.707s-20.478-3.413-22.185,13.652c0,0,0,1.707,1.707,0h0l1.706-3.413h0l1.707-1.706-1.707,5.119s0,1.707,1.707,0l1.706-5.119v5.119s1.707,1.707,1.707,0l1.706-6.826s5.12,3.413,6.826,1.707l-5.119,5.119a1.672,1.672,0,0,0,1.706,1.707l13.653-8.533s1.706-8.533,1.706-10.239Z"/><path class="cls-9" d="M491.723,123.829s-8.533-1.706-11.946,6.827c0,0-5.119,11.945-5.119,32.423,0,0,6.826,6.827,27.3,5.12C501.962,168.2,513.908,128.949,491.723,123.829Z"/><path class="cls-10" d="M507.082,219.4a39.65,39.65,0,0,0,5.119-32.424L501.962,168.2s10.239-39.25-10.239-44.37l15.359-5.119h39.25s6.826,1.706,22.184,34.13c0,0,3.413,15.359-8.532,20.479l-5.12,32.423L561.69,219.4S537.8,236.46,507.082,219.4Z"/><path class="cls-20" d="M507.89,381.191l10.346-84.531-20.668-1.241s-12.626,34.12-8.333,69.95c-.042-.024-.085-.045-.128-.07.086,3.228.234,7.312.484,11.714-.044.688-.089,1.418-.136,2.2.093.08.189.152.283.23.7,10.971,2.07,23.262,4.718,29.12,0,0-3.259,13.381-3.523,17.7,0,0-7.467,17.31-4.536,24.285,0,0,4.914,4.5,13.793,4.04,0,0,10.861-2.935,12.359-7.466l-6.811-23.4Z"/><path class="cls-11" d="M486.836,437.2l23.618.852,1.861,9.16s-2.727,5.821-12.869,7.823c0,0-8.843.865-13.658-5.227C485.788,449.809,484.731,442.238,486.836,437.2Z"/><path class="cls-11" d="M491.405,424.757a22.312,22.312,0,0,1,15-.574l.252.937s-10.387-1.425-15.473,1.039Z"/><path class="cls-12" d="M478.215,310.964c31.647,6.782,64.916,2.69,97.067.244,5.513-.9,11.024-1.741,16.527-2.47-3.168-22.423-8.463-48.332-16.85-59.716a89.348,89.348,0,0,1-12.508-29.314,56.8,56.8,0,0,1-12.415,4.654c-19.055,4.679-35.536-1.9-42.534-5.244-4.49,8.728-8.83,18.014-13.35,27.668-6.8,14.517-13.836,30.4-14.811,35.86,0,0-3.132,9.127-5.984,27.766A26.973,26.973,0,0,1,478.215,310.964Z"/><path class="cls-13" d="M537.137,225.958s3.852,20.768.484,29.353"/><path class="cls-14" d="M565.851,231.157l-8.352,3.171s2.732,27.788,21.747,22.265"/><path class="cls-14" d="M501,231.9l8.563,2.553s-.673,27.912-20.044,23.793"/><rect class="cls-15" x="532.544" y="226.618" width="1.88" height="1.871" rx="0.146" ry="0.146" transform="translate(2.474 -5.714) rotate(0.615)"/><path class="cls-9" d="M546.332,118.71s3.413-1.707,10.239,0l15.358,15.359-8.882,7.8Z"/><path class="cls-5" d="M505.375,29.971s-34.13,49.489,13.652,71.674v8.532s-42.663-17.065-39.25-58.021c0,0,0-34.131,22.185-37.544,0,0,34.13-29.011,59.728,11.946,0,0,11.946,11.945,5.12,58.021,0,0,6.826,27.305-11.946,35.837,0,0,5.12,8.533,0,11.946,0,0,6.826,3.413-1.706,13.652,0,0,6.826,10.239,0,18.772,0,0-1.707,6.826,3.413,8.533,0,0-10.239,1.706-10.239-13.653,0,0-1.707-10.239,3.413-13.652,0,0-5.12-6.826,0-10.239,0,0-5.12-6.826-1.707-11.946,0,0-3.413,0-3.413-5.119l-13.652-6.826v-8.533s49.489-27.3,1.706-66.554C532.679,36.8,524.147,26.558,505.375,29.971Z"/><path class="cls-16" d="M515.614,169.906s11.093,8,22.185,0C537.8,169.906,526.707,180.571,515.614,169.906Z"/><path class="cls-16" d="M544.625,171.612s9.386,5.12,18.772,0C563.4,171.612,554.011,178.438,544.625,171.612Z"/><path class="cls-17" d="M522.44,68.978s.135.142.368.369c.844.823,2.983,2.776,4.752,3.287h-5.12"/><g class="cls-18"><path class="cls-19" d="M500.774,379.22a.229.229,0,0,1,0,.064c-.079.474-1.37.654-2.885.4s-2.677-.841-2.6-1.316a.282.282,0,0,1,.02-.06c-.476.113-.782.3-.824.556-.1.613,1.357,1.366,3.259,1.683s3.526.077,3.628-.536C501.416,379.759,501.188,379.481,500.774,379.22Z"/></g><path class="cls-1" d="M946.088,260.446a1.552,1.552,0,0,0,1.758-1.467l-7.5-17.395h.012l-.039-.063-.177-.41-.089-.011-.116-.183.02-.8.045-.008-4.77-27.862c-2.483-5.461-10.644-32.163-10.644-32.163l-.171-1.54-1.048-3.669c-3.033-30.088-10.79-35.016-10.79-35.016l-5.77,21.489L919.594,195c.291,1.182.588,2.222.89,3.152l0,.022L933.2,241.29c-1.364,4.086-4.508,14.131-3.92,18.324,0,0,.494,7.019,4.275-8.026l3.269,9.224,3.235,9.128a1.552,1.552,0,0,0,1.758-1.468l-3.5-7.478.253-1.7,4.5,11.1a1.552,1.552,0,0,0,1.758-1.467l-4.757-9.406.252-1.7,4.758,9.406a1.552,1.552,0,0,0,1.758-1.467l-4.757-9.406.253-1.7Z"/><rect class="cls-1" x="839.963" y="30.858" width="66.554" height="82.155" rx="33.277" ry="33.277"/><path class="cls-1" d="M867.267,110.808v10.239l-11.945,6.826c22.184,20.478,35.836,0,35.836,0l-11.945-6.826V110.808"/><path class="cls-2" d="M877.506,74.971s1.707-20.479,18.772-8.533C896.278,66.438,894.572,81.8,877.506,74.971Z"/><circle class="cls-3" cx="886.892" cy="68.998" r="5.973"/><path class="cls-4" d="M863.854,74.971s-1.706-20.479-18.772-8.533C845.082,66.438,846.789,81.8,863.854,74.971Z"/><circle class="cls-3" cx="854.468" cy="68.998" r="5.973"/><path class="cls-5" d="M864.782,110.808h2.485S865.71,112.514,864.782,110.808Z"/><ellipse class="cls-6" cx="889.111" cy="66.263" rx="1.538" ry="1.363" transform="translate(136.32 543.982) rotate(-36.661)"/><ellipse class="cls-6" cx="856.687" cy="66.263" rx="1.538" ry="1.363" transform="translate(129.906 524.622) rotate(-36.661)"/><path class="cls-7" d="M864.707,92.889s5.12-3.413,8.533-1.706c0,0,5.12-1.707,8.533,1.706,0,0,0,6.826-8.533,6.826C873.24,99.715,864.707,99.715,864.707,92.889Z"/><path class="cls-8" d="M867.267,95.354s6.826-3.626,11.946,0C879.213,95.354,872.387,98.98,867.267,95.354Z"/><path class="cls-1" d="M818.125,252.078S804,266.355,815.911,276.917c0,0,1.287.922.963-1.343l-1.612-3.187-.325-2.266,2.9,4.109s1.287.922.962-1.343l-2.9-4.109,3.861,2.765s2.249-.421.962-1.343l-4.185-5.031s5.46-2.186,5.136-4.451l.974,6.795a1.573,1.573,0,0,0,2.249-.421l1.263-15.356s-.87-.946-1.994-2.139a64.6,64.6,0,0,1-6.459,2.181Z"/><path class="cls-1" d="M845.082,132.992s-10.239,0-13.652,17.066l-5.119,46.076s-5.12,3.413-8.533,54.608v1.152a66.983,66.983,0,0,0,5.716,4.291,70.27,70.27,0,0,0,1.11-7.149Z"/><path class="cls-9" d="M839.963,132.992s-8.533-1.706-11.946,6.826c0,0-5.119,11.946-5.119,32.424,0,0,6.826,6.826,27.3,5.12C850.2,177.362,862.148,138.112,839.963,132.992Z"/><path class="cls-10" d="M855.322,228.558a39.65,39.65,0,0,0,5.119-32.424L850.2,177.362s10.239-39.25-10.239-44.37l15.359-5.119h39.25s6.826,1.706,22.184,34.13c0,0,3.413,15.359-8.532,20.478l-5.12,32.424,6.826,13.653S886.039,245.623,855.322,228.558Z"/><path class="cls-1" d="M903.209,294.512s15.023,37.456,8.812,75.328c0,0,4.3,45.1.381,59.614,0,0,4.726,15.354,5.478,20.392,0,0,9.3,19.523,7.224,28.009a17.817,17.817,0,0,1-13.074,6.175s-10.993-2.311-12.98-7.469l4.011-28.157L881.7,296.2"/><path class="cls-11" d="M900.294,467.83h24.111s2.277,9.167.242,10.563c0,0-5.8,6.172-11.985,5.637,0,0-12.384-1.77-13.625-7.947Z"/><path class="cls-11" d="M902.774,450.417a18.611,18.611,0,0,1,15.292-.172l.55,1.214a23.935,23.935,0,0,0-16.038.334Z"/><path class="cls-1" d="M853.651,296.324s-12.174,38.468-3.14,75.774c0,0-.906,45.294,4.089,59.476,0,0-3.562,15.662-3.934,20.742,0,0-7.814,20.16-5.1,28.467a17.831,17.831,0,0,0,13.5,5.187s10.789-3.122,12.384-8.413l-6.111-27.78,9.895-153.453"/><path class="cls-11" d="M846.023,467.958h23.312l2.159,9.488s-2.481,6.177-12.408,8.647c0,0-8.685,1.236-13.649-4.941C845.437,481.152,844.126,473.292,846.023,467.958Z"/><path class="cls-11" d="M850.779,451.183a20.275,20.275,0,0,1,14.823-.194l.225,1.021s-10.218-1.836-15.3.683Z"/><path class="cls-12" d="M910.691,228.871a56.8,56.8,0,0,1-12.415,4.654c-19.055,4.679-35.536-1.9-42.534-5.244-4.49,8.728-8.83,18.013-13.35,27.668-6.8,14.517-13.836,30.4-14.811,35.86,0,0-3.132,9.127-5.984,27.766a26.973,26.973,0,0,1,4.858.552c31.647,6.782,64.916,2.69,97.067.244,5.513-.9,11.024-1.742,16.528-2.471-3.169-22.422-8.464-48.331-16.851-59.715A89.348,89.348,0,0,1,910.691,228.871Z"/><path class="cls-13" d="M885.377,235.121s3.852,20.768.484,29.352"/><path class="cls-14" d="M914.091,240.32l-8.352,3.171s2.732,27.788,21.747,22.265"/><path class="cls-14" d="M849.236,241.06l8.563,2.553s-.673,27.912-20.044,23.793"/><rect class="cls-15" x="880.784" y="235.781" width="1.88" height="1.871" rx="0.146" ry="0.146" transform="translate(2.592 -9.452) rotate(0.615)"/><path class="cls-9" d="M894.572,127.873s3.413-1.707,10.239,0l15.358,15.358-8.882,7.8Z"/><path class="cls-5" d="M853.615,39.134s-34.13,49.489,13.652,71.674v8.532s-42.663-17.065-39.25-58.022c0,0,0-34.13,22.185-37.543,0,0,34.13-29.011,59.728,11.946,0,0,11.946,11.945,5.12,58.021,0,0,6.826,27.3-11.946,35.837,0,0,5.12,8.533,0,11.946,0,0,6.826,3.413-1.706,13.652,0,0,6.826,10.239,0,18.772,0,0-1.707,6.826,3.413,8.532,0,0-10.239,1.707-10.239-13.652,0,0-1.707-10.239,3.413-13.652,0,0-5.12-6.826,0-10.239,0,0-5.12-6.826-1.707-11.946,0,0-3.413,0-3.413-5.119l-13.652-6.826v-8.533s49.489-27.3,1.706-66.554C880.919,45.96,872.387,35.721,853.615,39.134Z"/><path class="cls-16" d="M863.854,179.068s11.093,8,22.185,0C886.039,179.068,874.947,189.734,863.854,179.068Z"/><path class="cls-16" d="M892.865,180.775s9.386,5.12,18.772,0C911.637,180.775,902.251,187.6,892.865,180.775Z"/><path class="cls-17" d="M870.68,78.141s.135.141.368.369c.844.823,2.983,2.775,4.752,3.287h-5.12"/><g class="cls-18"><path class="cls-19" d="M907.586,386.781a.226.226,0,0,1,.021.06c.088.473-1.066,1.081-2.575,1.36s-2.8.12-2.891-.353a.266.266,0,0,1,0-.063c-.409.268-.632.549-.586.8.113.611,1.741.823,3.637.474s3.342-1.128,3.23-1.739C908.373,387.069,908.064,386.886,907.586,386.781Z"/></g><g class="cls-18"><path class="cls-19" d="M862.93,387.848a.273.273,0,0,1,0,.064c-.091.472-1.387.618-2.894.326s-2.655-.911-2.563-1.383a.271.271,0,0,1,.022-.06c-.479.1-.79.281-.839.534-.118.61,1.321,1.4,3.213,1.768s3.524.169,3.642-.441C863.558,388.4,863.337,388.12,862.93,387.848Z"/></g><path class="cls-21" d="M1282.108,226.541l-.141-2.577-1.116-3.7-3.713-19.856-.142-.438-.044-.231c-.031-.071-.067-.138-.1-.209l-9.775-30.089-.773-2.849c-2.63-30.125-10.32-35.157-10.32-35.157l-6.058,21.41,12.086,33.15c.029.327.053.535.053.535l1.067,3.392c.021.069.043.139.065.206l10.61,33.749c-1.494,4.285-3.423,10.582-3.167,13.9,0,0,.117,6.9,4.056-6.728l2.421,9.7,2.4,9.6s1.293.584,1.587-1l-2.7-8.069.294-1.579,3.408,11.811s1.293.583,1.587-1l-3.7-10.231.294-1.579,3.7,10.231s1.293.584,1.587-1l-3.7-10.231.293-1.58,3,6.489s1.293.584,1.587-.995Z"/><path class="cls-1" d="M1179.719,185.665l1.258-7.134,9.182-52.028s-10.239,0-13.652,17.066l-4.816,43.342-.262,2.355-.042.379a2.854,2.854,0,0,0-.639.914,5.532,5.532,0,0,0,.891,2.547,5.38,5.38,0,0,0,.424.56,5.6,5.6,0,0,0,.731.714,5.566,5.566,0,1,0,6.925-8.715Z"/><rect class="cls-1" x="1185.039" y="24.369" width="66.554" height="82.155" rx="33.277" ry="33.277"/><path class="cls-1" d="M1212.344,104.319v10.239l-11.946,6.826c22.185,20.478,35.837,0,35.837,0l-11.946-6.826V104.319"/><path class="cls-2" d="M1222.583,68.482s1.706-20.479,18.772-8.533C1241.355,59.949,1239.648,75.308,1222.583,68.482Z"/><circle class="cls-3" cx="1231.969" cy="62.509" r="5.973"/><path class="cls-4" d="M1208.931,68.482s-1.707-20.479-18.772-8.533C1190.159,59.949,1191.865,75.308,1208.931,68.482Z"/><circle class="cls-3" cx="1199.545" cy="62.509" r="5.973"/><path class="cls-5" d="M1209.859,104.319h2.485S1210.786,106.025,1209.859,104.319Z"/><ellipse class="cls-6" cx="1234.188" cy="59.774" rx="1.538" ry="1.363" transform="translate(208.458 748.738) rotate(-36.661)"/><ellipse class="cls-6" cx="1201.764" cy="59.774" rx="1.538" ry="1.363" transform="translate(202.044 729.378) rotate(-36.661)"/><path class="cls-7" d="M1209.784,86.4s5.119-3.413,8.532-1.706c0,0,5.12-1.707,8.533,1.706,0,0,0,6.826-8.533,6.826C1218.316,93.226,1209.784,93.226,1209.784,86.4Z"/><path class="cls-8" d="M1212.344,88.865s6.826-3.626,11.945,0C1224.289,88.865,1217.463,92.491,1212.344,88.865Z"/><path class="cls-9" d="M1185.039,126.5s-8.532-1.706-11.945,6.827c0,0-5.12,11.945-5.12,32.423,0,0,6.826,6.827,27.3,5.12C1195.278,170.873,1207.224,131.623,1185.039,126.5Z"/><path class="cls-10" d="M1261.833,155.514c-15.359-32.424-22.185-34.13-22.185-34.13H1200.4l-15.359,5.119c20.479,5.12,10.239,44.37,10.239,44.37l10.24,18.772a39.652,39.652,0,0,1-5.12,32.424c30.717,17.065,54.609,0,54.609,0l-6.826-13.653,5.119-32.423C1265.246,170.873,1261.833,155.514,1261.833,155.514Z"/><path class="cls-1" d="M1259.963,376.192c6.121-48.908-8.683-97.28-8.683-97.28l-21.195,2.177,11.457,106.985a81.306,81.306,0,0,0,19.338,3.177C1260.409,382.327,1259.963,376.192,1259.963,376.192Z"/><path class="cls-1" d="M1260.028,418.505c2.644-6.49,1.542-22.218.549-31.742a157.938,157.938,0,0,1-19.6-1.628l9.721,45.913-4.006,18.638c1.985,3.415,12.964,4.944,12.964,4.944,8.754-.257,13.057-4.087,13.057-4.087,2.077-5.617-7.215-18.54-7.215-18.54C1264.748,428.668,1260.028,418.505,1260.028,418.505Z"/><path class="cls-11" d="M1247.936,443.907h24.08s2.274,6.068.242,6.992c0,0-5.8,4.085-11.969,3.731,0,0-12.369-1.172-13.609-5.26Z"/><path class="cls-11" d="M1250.413,432.38a27.217,27.217,0,0,1,15.272-.113l.549.8a35.437,35.437,0,0,0-16.017.222Z"/><path class="cls-22" d="M1212.982,458.617l-2.6-68.827c-.029,0-.058-.007-.087-.012l5.3-76.964h-23.044s-12.852,38.061-3.494,75.18c-.026,0-.053-.005-.079-.009.025.061.046.123.07.184,0,0,3.747,41.938,10.564,54.593,0,0-2.178,14.794-2.047,19.522,0,0-3.7,11.451-3.693,20.116,9.425,1.161,19.1,2.061,28.454,1.117Z"/><path class="cls-11" d="M1222.324,483.509l-3.249-8.45-24.924,2.1a16.172,16.172,0,0,0-.47,5.231C1203.168,483.557,1212.9,484.47,1222.324,483.509Z"/><path class="cls-11" d="M1194.124,477.76a24.824,24.824,0,0,1,.957-5.844c5.255-4.333,13.546-2.638,13.546-2.638,9.4,2.754,11.327,7.724,11.327,7.724l-.04.1C1211.405,476.21,1202.65,476.876,1194.124,477.76Z"/><path class="cls-11" d="M1196.34,461.227a24.727,24.727,0,0,1,15.827-1.513l.347.923s-11.116-.777-16.291,2.008Z"/><path class="cls-12" d="M1268.276,251.7a89.324,89.324,0,0,1-12.508-29.314,56.794,56.794,0,0,1-12.416,4.654c-19.054,4.679-35.536-1.9-42.534-5.244-4.49,8.728-8.829,18.013-13.349,27.668-6.8,14.517-13.837,30.4-14.811,35.86,0,0-3.133,9.127-5.985,27.766a26.963,26.963,0,0,1,4.858.552c31.647,6.782,64.916,2.69,97.067.244,5.513-.9,11.024-1.741,16.528-2.471C1281.957,288.989,1276.662,263.08,1268.276,251.7Z"/><path class="cls-13" d="M1230.453,228.632s3.852,20.768.485,29.353"/><path class="cls-14" d="M1259.167,233.831,1250.815,237s2.733,27.788,21.748,22.265"/><path class="cls-14" d="M1194.312,234.571l8.564,2.553s-.673,27.912-20.045,23.793"/><rect class="cls-15" x="1225.86" y="229.292" width="1.88" height="1.871" rx="0.146" ry="0.146" transform="translate(2.542 -13.157) rotate(0.615)"/><path class="cls-9" d="M1239.648,121.384s3.413-1.707,10.239,0l15.359,15.359-8.882,7.8Z"/><path class="cls-5" d="M1198.691,32.645s-34.13,49.489,13.653,71.674v8.532s-42.663-17.065-39.25-58.021c0,0,0-34.131,22.184-37.544,0,0,34.131-29.011,59.729,11.946,0,0,11.945,11.945,5.119,58.021,0,0,6.826,27.305-11.945,35.837,0,0,5.119,8.533,0,11.946,0,0,6.826,3.413-1.707,13.652,0,0,6.826,10.239,0,18.772,0,0-1.706,6.826,3.413,8.533,0,0-10.239,1.706-10.239-13.653,0,0-1.707-10.239,3.413-13.652,0,0-5.12-6.826,0-10.239,0,0-5.12-6.826-1.706-11.946,0,0-3.414,0-3.414-5.119l-13.652-6.826v-8.533s49.489-27.3,1.707-66.554C1226,39.471,1217.463,29.232,1198.691,32.645Z"/><path class="cls-16" d="M1208.931,172.58s11.092,8,22.184,0C1231.115,172.58,1220.023,183.245,1208.931,172.58Z"/><path class="cls-16" d="M1237.941,174.286s9.386,5.12,18.772,0C1256.713,174.286,1247.327,181.112,1237.941,174.286Z"/><path class="cls-17" d="M1215.757,71.652s.134.142.368.369c.844.823,2.982,2.776,4.751,3.287h-5.119"/><path class="cls-1" d="M1227.774,140.585c-.323-1.247-2.934-.57-2.934-.57l-6.865,5.768c2.288-1.922-3.9-4.31-3.9-4.31l10.122-3.952c2.611-.676-.323-1.246-.323-1.246l-7.834,2.029,7.511-3.276c2.288-1.923-.323-1.246-.323-1.246l-7.511,3.275,2.289-1.923,4.9-2.6c2.289-1.923-.323-1.247-.323-1.247-20.8,6.462-18.9,16.562-17.394,20.227l-.006-.012-1.472,1.249a24.681,24.681,0,0,0-1.815,2.266l-20.915,23.513-1.258,7.134a5.537,5.537,0,0,1,1.923,5.912c5.444-5.833,13.942-16.157,26.957-34.431l.08-.13c4.177-1.462,8.622-3.077,8.622-3.077Z"/><g class="cls-18"><path class="cls-19" d="M1252.255,381.444a.228.228,0,0,1,0,.064c-.1.47-1.4.6-2.9.279s-2.639-.954-2.54-1.424a.275.275,0,0,1,.023-.06c-.481.093-.8.269-.848.52-.127.608,1.3,1.423,3.185,1.82s3.52.227,3.648-.381C1252.874,382.01,1252.657,381.723,1252.255,381.444Z"/></g><g class="cls-18"><path class="cls-19" d="M1202.455,389.64a.333.333,0,0,1,0,.063c-.054.478-1.334.727-2.859.556s-2.719-.7-2.665-1.176a.278.278,0,0,1,.017-.061c-.47.138-.765.343-.794.6-.069.617,1.428,1.292,3.344,1.507s3.526-.111,3.6-.729C1203.124,390.144,1202.882,389.879,1202.455,389.64Z"/></g></svg>
