<svg id="Layer_1" data-name="Layer 1" xmlns="http://www.w3.org/2000/svg" viewBox="0 0 1750 2000"><defs><style>.cls-1{fill:#ffc364;}.cls-2,.cls-24,.cls-3{fill:none;}.cls-3{stroke:#050300;}.cls-14,.cls-21,.cls-23,.cls-24,.cls-3,.cls-6,.cls-7{stroke-miterlimit:10;}.cls-23,.cls-24,.cls-3,.cls-6{stroke-width:0.25px;}.cls-27,.cls-29,.cls-4{fill:#fcad95;}.cls-5{fill:#23a6e8;}.cls-21,.cls-22,.cls-6{fill:#fff;}.cls-21,.cls-6,.cls-7{stroke:#fff;}.cls-8{fill:#faffff;}.cls-9{fill:#d18f82;}.cls-10{fill:#f86744;}.cls-11{fill:#91e5f9;}.cls-12{fill:#160b03;opacity:0.4;}.cls-12,.cls-27,.cls-29{isolation:isolate;}.cls-13,.cls-14,.cls-23{fill:#f19538;}.cls-14{stroke:#f19538;}.cls-15{fill:#c41707;}.cls-16{fill:#dbdce6;}.cls-17{fill:#050505;}.cls-18{fill:#dd9385;}.cls-19{fill:#f79d89;}.cls-20{fill:#1e1e1e;}.cls-23,.cls-24{stroke:#020100;}.cls-25{opacity:0.44;}.cls-26{fill:#cfe0e9;}.cls-27{opacity:0.68;}.cls-28{fill:#eba495;}.cls-29{opacity:0.74;}</style></defs><title>sara_spritesheet</title><path class="cls-1" d="M146.94,102.16l2.6-.18S148,103.87,146.94,102.16Z"/><line class="cls-2" x1="186.62" y1="319.7" x2="164.57" y2="321"/><path class="cls-3" d="M222.13,288.32l7.28,2.17s1.49,28.31-14.86,25.08"/><path class="cls-4" d="M177,185.1s13.43.43,17.29,19.89l5,52.39s6.59,4.08,9.22,62.19l-.06,1.93s27-3,28.6,16.39c0,0-.06,1.93-2.24-.07h0l-2.12-3.94h0l-2.17-2,2,5.87s-.06,1.93-2.24-.08l-2-5.86-.18,5.79s-2.3,1.86-2.24-.07l-2-7.8s-6.84,3.65-9,1.65l6.53,6a2,2,0,0,1-2.11,1.88l-.19,0L201.58,329s-1.93-9.73-1.87-11.67Z"/><path class="cls-5" d="M169.71,186.53s4.48-2.24,13.43,0l20.15,20.15-11.65,10.23Z"/><path class="cls-4" d="M150.65,61.81h0a43.66,43.66,0,0,1,43.66,43.66h0v20.46a43.65,43.65,0,0,1-43.65,43.66h0A43.65,43.65,0,0,1,107,125.93h0V105.47a43.65,43.65,0,0,1,43.65-43.66Z"/><path class="cls-4" d="M142.82,166.69v13.44l-15.67,9c29.1,26.87,47,0,47,0l-15.67-9V166.69"/><path class="cls-6" d="M186.3,117.35s-5.06-19.15-19.3-4.94C167,112.41,171.24,126.7,186.3,117.35Z"/><circle class="cls-7" cx="176.38" cy="113.26" r="5.76"/><ellipse class="cls-8" cx="178.03" cy="110.3" rx="1.48" ry="1.31" transform="translate(-24.35 164.19) rotate(-46.69)"/><path class="cls-9" d="M190.42,124.51l.3.3a11.77,11.77,0,0,0,3.87,2.67h-4.17"/><path class="cls-1" d="M125.51,164.83c-1.71-.32-3.43-.61-5.17-.8-3.7-.4-7.28-.48-10.54-1.23.37.27.74.53,1.14.79,0,0-9.17,9.81-2.77,15.53,0,0-10.38,2.73-.76,18.18,0,0-12,11.61-4.34,24.41,0,0,.82,9.31-6.77,10.25,0,0,14,4.78,17.55-15.2,0,0,4.76-12.89-1.64-18.61,0,0,8.77-7.59,2.37-13.31,0,0,8.77-7.6,5.16-15.11C119.74,169.73,124.07,170.49,125.51,164.83Z"/><path class="cls-1" d="M127.15,162.66l-1.8,3.1L110,163.21s-20.92-53.89,1-76.07c0,0,2.86-25.62,36-25.18,0,0,17.75-4.32,29.27,8.27,0,0,4.68,1.44,9.38,8.29C185.72,78.52,129,130.21,127.15,162.66Z"/><path class="cls-10" d="M172.63,144.84s5.05-3.36,8.54-1.87c0,0,5.1-1.76,8.64,1.33,0,0,.2,6.39-8.39,6.66C181.42,151,172.83,151.23,172.63,144.84Z"/><path class="cls-11" d="M121.2,296.2A119,119,0,0,0,122,309a52.4,52.4,0,0,0,2.39-34.59l-2.69-4.93C121.46,278.41,121.24,287.31,121.2,296.2Z"/><path class="cls-11" d="M198.29,229.68c-20.15-42.54-29.1-44.78-29.1-44.78H132.1a5.74,5.74,0,0,1-1.27.79c-.07.07-.12.14-.2.21-6.34,6.12-5.66,16.54-7.48,24.73,0,19-.81,37.89-1.38,56.84-.29,9.57-.52,19.15-.57,28.73,0,7.91,1.32,15.64,1.81,23.48,37.7,17.71,66.32-2.69,66.32-2.69l-9-17.91,6.72-42.54C202.77,249.82,198.29,229.68,198.29,229.68Z"/><path class="cls-12" d="M168.22,253.38s12.32,6.72,24.63,0C192.85,253.38,180.54,262.34,168.22,253.38Z"/><path class="cls-4" d="M203,360.31s24.29-6.08,25.8,12.15c0,0,7.33,69.15,2.76,91.57l.14.48a106.43,106.43,0,0,0-15.51,1.86l-12.73-88.19Z"/><path class="cls-4" d="M213.79,438.44,215,483.21s-1.17,16.53,5.32,16.36l45.44-1.24s19.16-12.31-11.93-20.89l-11.36.3s-11.3,2.67-8.38-9.2l-.83-30.63Z"/><path class="cls-13" d="M253.83,477.44s31.09,8.58,11.93,20.89l-11.36.31Z"/><polygon class="cls-13" points="234.66 475.82 214.82 476.36 214.5 471.32 234.16 470.78 234.66 475.82"/><path class="cls-13" d="M215,489.1l39.12-1.1.28,10.6-34.08.93S215.09,499.71,215,489.1Z"/><path class="cls-4" d="M193.35,364.81s3.62,73.4-2.13,96.81l.11.51a99.17,99.17,0,0,0-15.59,1.09l-8-93.79"/><path class="cls-4" d="M174.83,433.6l-1.17,47.32s-2.06,17.39,4.43,17.57l45.45,1.26s19.78-11.91-10.81-22.73l-11.36-.32s-11.42,2.18-7.87-10.18l.81-32.38Z"/><path class="cls-13" d="M212.73,477s30.59,10.82,10.81,22.73l-11.36-.32Z"/><polygon class="cls-13" points="193.68 474.24 173.84 473.69 173.79 468.34 193.45 468.89 193.68 474.24"/><path class="cls-13" d="M173.32,487.14l39.14,1.09-.28,11.2-34.09-.94S172.86,498.34,173.32,487.14Z"/><path class="cls-4" d="M207,375.92s-15.52-.56-17.86-5.83l15.6-4Z"/><path class="cls-4" d="M170,377.19s-15.52-.7-17.87-7.34l15.61-5Z"/><path class="cls-14" d="M136.55,374.32c22.77-1.09,55.75-2.85,71.21-4.05q9.53-1.18,19-2.23c-4.73-13.78-12.09-29.64-22.34-36.35,0,0-11.06-7.61-15.88-17.67a105.76,105.76,0,0,1-14.16,3.41c-21.86,3.71-41.26.32-49.53-1.46C124.88,316,100.27,376.07,136.55,374.32Z"/><path class="cls-4" d="M498.65,63.81h0a43.66,43.66,0,0,1,43.66,43.66h0v20.46a43.65,43.65,0,0,1-43.65,43.66h0A43.65,43.65,0,0,1,455,127.93h0V107.47a43.65,43.65,0,0,1,43.65-43.66Z"/><path class="cls-4" d="M490.82,168.69v13.44l-15.67,9c29.1,26.87,47,0,47,0l-15.67-9V168.69"/><path class="cls-6" d="M534.3,119.35s-5.06-19.15-19.26-4.94C515,114.41,519.24,128.7,534.3,119.35Z"/><circle class="cls-7" cx="524.38" cy="115.26" r="5.76"/><ellipse class="cls-8" cx="526.04" cy="112.3" rx="1.48" ry="1.31" transform="translate(83.49 418.04) rotate(-46.69)"/><path class="cls-9" d="M538.42,126.51l.3.3a11.77,11.77,0,0,0,3.87,2.67h-4.17"/><path class="cls-1" d="M473.51,166.83c-1.71-.32-3.43-.61-5.17-.8-3.7-.4-7.28-.48-10.54-1.23.37.27.74.53,1.14.79,0,0-9.17,9.81-2.77,15.53,0,0-10.38,2.73-.76,18.18,0,0-12,11.61-4.34,24.41,0,0,.82,9.31-6.77,10.25,0,0,14,4.78,17.55-15.2,0,0,4.76-12.89-1.64-18.61,0,0,8.77-7.59,2.37-13.31,0,0,8.77-7.6,5.16-15.11C467.74,171.73,472.07,172.49,473.51,166.83Z"/><path class="cls-1" d="M475.15,164.66l-1.8,3.1L458,165.21s-20.92-53.89,1-76.07c0,0,2.86-25.62,36-25.18,0,0,17.75-4.32,29.27,8.27,0,0,4.68,1.44,9.38,8.29C533.72,80.52,477,132.21,475.15,164.66Z"/><path class="cls-10" d="M520.63,146.84s5-3.36,8.54-1.87c0,0,5.1-1.76,8.64,1.33,0,0,.2,6.39-8.39,6.66C529.42,153,520.83,153.23,520.63,146.84Z"/><path class="cls-4" d="M551,362.31s24.29-6.08,25.8,12.15c0,0,7.33,69.15,2.76,91.57l.14.48a106.43,106.43,0,0,0-15.51,1.86l-12.73-88.19Z"/><path class="cls-4" d="M561.79,440.44,563,485.21s-1.17,16.53,5.32,16.36l45.44-1.24s19.16-12.31-11.93-20.89l-11.36.3s-11.3,2.67-8.38-9.2l-.83-30.63Z"/><path class="cls-13" d="M601.83,479.44s31.09,8.58,11.93,20.89l-11.36.31Z"/><polygon class="cls-13" points="582.66 477.82 562.82 478.36 562.5 473.32 582.16 472.78 582.66 477.82"/><path class="cls-13" d="M563,491.1l39.12-1.1.28,10.6-34.08.93S563.09,501.71,563,491.1Z"/><path class="cls-4" d="M541.35,366.81s3.62,73.4-2.13,96.81l.11.51a99.17,99.17,0,0,0-15.59,1.09l-8-93.79"/><path class="cls-4" d="M522.83,435.6l-1.17,47.32s-2.06,17.39,4.43,17.57l45.45,1.26s19.78-11.91-10.81-22.73l-11.36-.32s-11.42,2.18-7.87-10.18l.81-32.38Z"/><path class="cls-13" d="M560.73,479s30.59,10.82,10.81,22.73l-11.36-.32Z"/><polygon class="cls-13" points="541.68 476.24 521.84 475.69 521.79 470.34 541.45 470.89 541.68 476.24"/><path class="cls-13" d="M521.32,489.14l39.14,1.09-.28,11.2-34.09-.94S520.86,500.34,521.32,489.14Z"/><path class="cls-4" d="M555,377.92s-15.52-.56-17.86-5.83l15.6-4Z"/><path class="cls-4" d="M518,379.19s-15.52-.7-17.87-7.34l15.61-5Z"/><path class="cls-14" d="M484.55,376.32c22.77-1.09,55.75-2.85,71.21-4.05q9.53-1.18,19-2.23c-4.73-13.78-12.09-29.64-22.34-36.35,0,0-11.06-7.61-15.88-17.67a105.76,105.76,0,0,1-14.16,3.41c-21.86,3.71-41.26.32-49.53-1.46C472.88,318,448.27,378.07,484.55,376.32Z"/><path class="cls-4" d="M889.61,185.38s13.43.28,17.44,22.76l5.46,60.57s6.63,4.62,9.71,71.86l-.05,2.24s27-3.92,28.73,18.51c0,0,0,2.24-2.24-.05h0l-2.14-4.52h0l-2.2-2.28,2.1,6.76s0,2.24-2.24-.05l-2.09-6.76-.14,6.71s-2.29,2.2-2.24,0l-2.05-9s-6.81,4.34-9,2.05l6.57,6.86a2.19,2.19,0,0,1-2.19,2.19H933l-17.68-11.57s-2-11.23-2-13.47Z"/><path class="cls-4" d="M863.66,60.81h0a43.65,43.65,0,0,1,43.65,43.66h0v20.46a43.65,43.65,0,0,1-43.65,43.66h0A43.66,43.66,0,0,1,820,124.93h0V104.47a43.65,43.65,0,0,1,43.65-43.66Z"/><path class="cls-4" d="M855.82,165.69v13.44l-15.67,9c29.1,26.87,47,0,47,0l-15.67-9V165.69"/><path class="cls-6" d="M899.3,116.35s-5.06-19.15-19.3-4.94C880,111.41,884.24,125.7,899.3,116.35Z"/><circle class="cls-7" cx="889.38" cy="112.26" r="5.76"/><ellipse class="cls-8" cx="891.04" cy="109.31" rx="1.48" ry="1.31" transform="translate(200.3 682.7) rotate(-46.69)"/><path class="cls-5" d="M882.71,185.53s4.48-2.24,13.43,0l20.15,20.15-11.65,10.23Z"/><path class="cls-9" d="M903.42,123.51l.3.3a11.77,11.77,0,0,0,3.87,2.67h-4.17"/><path class="cls-1" d="M838.51,163.83c-1.71-.32-3.43-.61-5.17-.8-3.7-.4-7.28-.48-10.54-1.23.37.27.74.53,1.14.79,0,0-9.17,9.81-2.77,15.53,0,0-10.38,2.73-.76,18.18,0,0-12,11.61-4.34,24.41,0,0,.82,9.31-6.77,10.25,0,0,14,4.78,17.55-15.2,0,0,4.76-12.89-1.64-18.61,0,0,8.77-7.59,2.37-13.31,0,0,8.77-7.6,5.16-15.11C832.74,168.73,837.07,169.49,838.51,163.83Z"/><path class="cls-1" d="M840.15,161.66l-1.8,3.1L823,162.21s-20.92-53.89,1-76.07c0,0,2.86-25.62,36-25.18,0,0,17.75-4.32,29.27,8.27,0,0,4.68,1.44,9.38,8.29C898.72,77.52,842,129.21,840.15,161.66Z"/><path class="cls-10" d="M885.63,143.84s5-3.36,8.54-1.87c0,0,5.1-1.76,8.64,1.33,0,0,.2,6.39-8.39,6.66C894.42,150,885.83,150.23,885.63,143.84Z"/><path class="cls-11" d="M834.2,295.2A119,119,0,0,0,835,308a52.4,52.4,0,0,0,2.39-34.59l-2.69-4.93C834.46,277.41,834.24,286.31,834.2,295.2Z"/><path class="cls-11" d="M911.29,228.68c-20.15-42.54-29.1-44.78-29.1-44.78H845.1a5.74,5.74,0,0,1-1.27.79c-.07.07-.12.14-.2.21-6.34,6.12-5.66,16.54-7.48,24.73,0,19-.81,37.89-1.38,56.84-.29,9.57-.52,19.15-.57,28.73,0,7.91,1.32,15.64,1.81,23.48,37.7,17.71,66.32-2.69,66.32-2.69l-9-17.91,6.72-42.54C915.77,248.82,911.29,228.68,911.29,228.68Z"/><path class="cls-12" d="M881.22,252.38s12.32,6.72,24.63,0C905.85,252.38,893.54,261.34,881.22,252.38Z"/><path class="cls-4" d="M916,359.31s24.29-6.08,25.8,12.15c0,0,7.33,69.15,2.76,91.57l.14.48a106.43,106.43,0,0,0-15.51,1.86l-12.73-88.19Z"/><path class="cls-4" d="M926.79,437.44,928,482.21s-1.17,16.53,5.32,16.36l45.44-1.24s19.16-12.31-11.93-20.89l-11.36.3s-11.3,2.67-8.38-9.2l-.83-30.63Z"/><path class="cls-13" d="M966.83,476.44s31.09,8.58,11.93,20.89l-11.36.31Z"/><polygon class="cls-13" points="947.66 474.82 927.82 475.36 927.5 470.32 947.16 469.78 947.66 474.82"/><path class="cls-13" d="M928,488.1l39.12-1.1.28,10.6-34.08.93S928.09,498.71,928,488.1Z"/><path class="cls-4" d="M906.35,363.81s3.62,73.4-2.13,96.81l.11.51a99.17,99.17,0,0,0-15.59,1.09l-8-93.79"/><path class="cls-4" d="M887.83,432.6l-1.17,47.32s-2.06,17.39,4.43,17.57l45.45,1.26s19.78-11.91-10.81-22.73l-11.36-.32s-11.42,2.18-7.87-10.18l.81-32.38Z"/><path class="cls-13" d="M925.73,476s30.59,10.82,10.81,22.73l-11.36-.32Z"/><polygon class="cls-13" points="906.68 473.24 886.84 472.69 886.79 467.34 906.45 467.89 906.68 473.24"/><path class="cls-13" d="M886.32,486.14l39.14,1.09-.28,11.2-34.09-.94S885.86,497.34,886.32,486.14Z"/><path class="cls-4" d="M920,374.92s-15.52-.56-17.86-5.83l15.6-4Z"/><path class="cls-4" d="M883,376.19s-15.52-.7-17.87-7.34l15.61-5Z"/><path class="cls-14" d="M849.55,373.32c22.77-1.09,55.75-2.85,71.21-4.05q9.53-1.18,19-2.23c-4.73-13.78-12.09-29.64-22.34-36.35,0,0-11.06-7.61-15.88-17.67a105.76,105.76,0,0,1-14.16,3.41c-21.86,3.71-41.26.32-49.53-1.46C837.88,315,813.27,375.07,849.55,373.32Z"/><path class="cls-4" d="M835.12,239.49l11.36-13.94L863.86,257l18.94,21.86s-7.4,24.59-18.73.34Z"/><path class="cls-5" d="M849.35,184.59s-11.2-2.24-15.68,9c0,0-6.71,15.67-6.71,42.53,0,0,8.95,9,35.82,6.72C862.78,242.8,878.45,191.31,849.35,184.59Z"/><path class="cls-15" d="M943.15,256.09a1.09,1.09,0,0,0,.56,1.34,1.14,1.14,0,0,0,.49.91s-.33,1.34.24,1.91c0,0,.32,3.6.81,4.37l1,8.54s.33,3.25.89,3.6a12.59,12.59,0,0,0,.57,3.95s-.08,3.67,1,4.52v1.41s.64,2.4,12.51,1.76c0,0,8.31-.14,6.78-3.46,0,0,.81-.56,1-7.76,0,0,.4-.14,1-8.53,0,0,.48-.92.56-4.8,0,0,.33-.21.17-.92,0,0,.64,0,.48-3,0,0,.49.42.32-1.84a1.22,1.22,0,0,0,.41-1s.56.07.48-1Z"/><ellipse class="cls-16" cx="957.8" cy="256.15" rx="14.72" ry="2.15"/><path class="cls-4" d="M881.05,277.9l65.15-13.59,12.71,4,12.57,4s.6,2.3-1.56,2.87l-10.47-4.59-2.17.58,15.41,5.74a2.28,2.28,0,0,1-1.54,2.86h0l-13.24-6.31-2.17.57L969,280.38a2.32,2.32,0,0,1-1.55,2.88h0L954.17,277l-2.17.57,8.31,5.17s.61,2.3-1.55,2.87l-25.88-10.33-58.42,15.55"/><path class="cls-4" d="M1257,375.92s-15.52-.56-17.86-5.83l15.6-4Z"/><path class="cls-4" d="M1220,377.19s-15.52-.7-17.87-7.34l15.61-5Z"/><path class="cls-15" d="M1260.15,204.09a1.09,1.09,0,0,0,.56,1.34,1.14,1.14,0,0,0,.49.91s-.33,1.34.24,1.91c0,0,.32,3.6.81,4.37l1,8.54s.33,3.25.89,3.6a12.3,12.3,0,0,0,.57,4s-.08,3.67,1,4.52v1.41s.64,2.4,12.51,1.76c0,0,8.31-.14,6.78-3.46,0,0,.81-.56,1-7.76,0,0,.4-.14,1-8.53,0,0,.48-.92.56-4.8,0,0,.33-.21.17-.92,0,0,.64,0,.48-3,0,0,.49.42.32-1.84a1.19,1.19,0,0,0,.41-1s.56.07.48-1Z"/><ellipse class="cls-16" cx="1274.8" cy="204.15" rx="14.72" ry="2.15"/><path class="cls-4" d="M1224.33,186.61s13.37-1.3,20,20.54l12.56,59.51s7.12,3.81,18.1,70.22l.22,2.23s26.3-7.07,30.71,15c0,0,.22,2.23-2.23.22h0l-2.66-4.24h0l-2.45-2,2.88,6.47s.22,2.23-2.23.22l-2.88-6.47L1297,355s-2,2.45-2.23.22l-3.1-8.69s-6.25,5.1-8.7,3.09l7.34,6a2.19,2.19,0,0,1-1.92,2.43h-.08l-18.91-9.4s-3.32-10.92-3.54-13.15Z"/><path class="cls-4" d="M1200.66,61.81h0a43.65,43.65,0,0,1,43.65,43.66h0v20.46a43.65,43.65,0,0,1-43.65,43.66h0A43.66,43.66,0,0,1,1157,125.93h0V105.47a43.65,43.65,0,0,1,43.65-43.66Z"/><path class="cls-4" d="M1192.82,166.69v13.44l-15.67,9c29.1,26.87,47,0,47,0l-15.67-9V166.69"/><path class="cls-6" d="M1236.3,117.35s-5.06-19.15-19.26-4.94C1217,112.41,1221.24,126.7,1236.3,117.35Z"/><circle class="cls-7" cx="1226.38" cy="113.26" r="5.76"/><ellipse class="cls-8" cx="1228.05" cy="110.31" rx="1.48" ry="1.31" transform="translate(305.41 928.24) rotate(-46.69)"/><path class="cls-5" d="M1219.71,186.53s4.48-2.24,13.43,0l20.15,20.15-11.65,10.23Z"/><path class="cls-9" d="M1240.42,124.51l.3.3a11.77,11.77,0,0,0,3.87,2.67h-4.17"/><path class="cls-1" d="M1175.51,164.83c-1.71-.32-3.43-.61-5.17-.8-3.7-.4-7.28-.48-10.54-1.23.37.27.74.53,1.14.79,0,0-9.17,9.81-2.77,15.53,0,0-10.38,2.73-.76,18.18,0,0-12,11.61-4.34,24.41,0,0,.82,9.31-6.77,10.25,0,0,14,4.78,17.55-15.2,0,0,4.76-12.89-1.64-18.61,0,0,8.77-7.59,2.37-13.31,0,0,8.77-7.6,5.16-15.11C1169.74,169.73,1174.07,170.49,1175.51,164.83Z"/><path class="cls-1" d="M1177.15,162.66l-1.8,3.1L1160,163.21s-20.92-53.89,1-76.07c0,0,2.86-25.62,36-25.18,0,0,17.75-4.32,29.27,8.27,0,0,4.68,1.44,9.38,8.29C1235.72,78.52,1179,130.21,1177.15,162.66Z"/><path class="cls-10" d="M1222.63,144.84s5-3.36,8.54-1.87c0,0,5.1-1.76,8.64,1.33,0,0,.2,6.39-8.39,6.66C1231.42,151,1222.83,151.23,1222.63,144.84Z"/><path class="cls-11" d="M1171.2,296.2a119,119,0,0,0,.8,12.8,52.4,52.4,0,0,0,2.39-34.59l-2.69-4.93C1171.46,278.41,1171.24,287.31,1171.2,296.2Z"/><path class="cls-11" d="M1248.29,229.68c-20.15-42.54-29.1-44.78-29.1-44.78H1182.1a5.74,5.74,0,0,1-1.27.79c-.07.07-.12.14-.2.21-6.34,6.12-5.66,16.54-7.48,24.73,0,19-.81,37.89-1.38,56.84-.29,9.57-.52,19.15-.57,28.73,0,7.91,1.32,15.64,1.81,23.48,37.7,17.71,66.32-2.69,66.32-2.69l-8.95-17.91,6.72-42.54C1252.77,249.82,1248.29,229.68,1248.29,229.68Z"/><path class="cls-12" d="M1218.22,253.38s12.32,6.72,24.63,0C1242.85,253.38,1230.54,262.34,1218.22,253.38Z"/><path class="cls-4" d="M1253,360.31s24.29-6.08,25.8,12.15c0,0,7.33,69.15,2.76,91.57l.14.48a106.43,106.43,0,0,0-15.51,1.86l-12.73-88.19Z"/><path class="cls-4" d="M1263.79,438.44l1.21,44.77s-1.17,16.53,5.32,16.36l45.44-1.24s19.16-12.31-11.93-20.89l-11.36.3s-11.3,2.67-8.38-9.2l-.83-30.63Z"/><path class="cls-13" d="M1303.83,477.44s31.09,8.58,11.93,20.89l-11.36.31Z"/><polygon class="cls-13" points="1284.66 475.82 1264.82 476.36 1264.5 471.32 1284.16 470.78 1284.66 475.82"/><path class="cls-13" d="M1265,489.1l39.14-1.06.28,10.6-34.08.93S1265.09,499.71,1265,489.1Z"/><path class="cls-4" d="M1243.35,364.81s3.62,73.4-2.13,96.81l.11.51a99.17,99.17,0,0,0-15.59,1.09l-8-93.79"/><path class="cls-4" d="M1224.83,433.6l-1.17,47.32s-2.06,17.39,4.43,17.57l45.45,1.26s19.78-11.91-10.81-22.73l-11.36-.32s-11.42,2.18-7.87-10.18l.81-32.38Z"/><path class="cls-13" d="M1262.73,477s30.59,10.82,10.81,22.73l-11.36-.32Z"/><polygon class="cls-13" points="1243.68 474.24 1223.84 473.69 1223.79 468.34 1243.45 468.89 1243.68 474.24"/><path class="cls-13" d="M1223.32,487.14l39.14,1.09-.28,11.2-34.09-.94S1222.86,498.34,1223.32,487.14Z"/><path class="cls-14" d="M1186.55,374.32c22.77-1.09,55.75-2.85,71.21-4.05q9.52-1.18,19-2.23c-4.73-13.78-12.09-29.64-22.34-36.35,0,0-11.06-7.61-15.88-17.67a105.76,105.76,0,0,1-14.16,3.41c-21.86,3.71-41.26.32-49.53-1.46C1174.88,316,1150.27,376.07,1186.55,374.32Z"/><path class="cls-4" d="M1167.12,223.49l11.36-13.94L1195.86,241l18.94,21.86s-7.4,24.59-18.73.34Z"/><path class="cls-4" d="M1210.1,257l52.14-41.37,13.16-2.09,13-2.07a2.29,2.29,0,0,1-.08,3.25h0l0,0-11.42.59-1.68,1.49,16.34-1.79s1.58,1.79-.1,3.27l-14.67.3-1.67,1.48,14.66-.29s1.58,1.78-.1,3.26l-14.67.3-1.67,1.48,9.74.89s1.57,1.79-.1,3.27l-27.76,2.38L1210,271.45"/><path class="cls-5" d="M1186.35,185.59s-11.2-2.24-15.68,9c0,0-6.71,15.67-6.71,42.53,0,0,9,9,35.82,6.72C1199.78,243.8,1215.45,192.31,1186.35,185.59Z"/><path class="cls-4" d="M525,189.1s13.43.43,17.29,19.89l5,52.39s6.59,4.08,9.22,62.19l-.06,1.93s27-3,28.6,16.39c0,0-.06,1.93-2.24-.07h0l-2.12-3.94h0l-2.17-2,2,5.87s-.06,1.93-2.24-.08l-2-5.86-.18,5.79s-2.3,1.86-2.24-.07l-2-7.8s-6.84,3.65-9,1.65l6.53,6a2,2,0,0,1-2.11,1.88l-.19,0L549.58,333s-1.93-9.73-1.87-11.67Z"/><path class="cls-5" d="M517.71,188.53s4.48-2.24,13.43,0l20.15,20.15-11.65,10.23Z"/><path class="cls-11" d="M470.2,297.3a119.79,119.79,0,0,0,.82,12.84,52.4,52.4,0,0,0,2.39-34.59l-2.69-4.93C470.46,279.51,470.24,288.41,470.2,297.3Z"/><path class="cls-11" d="M547.29,230.78c-20.15-42.54-29.1-44.78-29.1-44.78H481.1a5.74,5.74,0,0,1-1.27.79c-.07.07-.12.14-.2.21-6.34,6.12-5.66,16.54-7.48,24.73,0,19-.81,37.89-1.38,56.84-.29,9.57-.52,19.15-.57,28.73,0,7.91,1.32,15.64,1.81,23.48,37.7,17.72,66.32-2.69,66.32-2.69l-9-17.91,6.72-42.54C551.77,250.93,547.29,230.78,547.29,230.78Z"/><path class="cls-12" d="M517.22,254.48s12.32,6.72,24.63,0C541.85,254.48,529.54,263.44,517.22,254.48Z"/><path class="cls-4" d="M475.7,286l60.14-6.1,23.85,13.33a2.19,2.19,0,0,0,2-2.36h0a.28.28,0,0,0,0-.09l-7.36-6,2.22-.22,12,7.78a2.22,2.22,0,0,0,2-2.4h0v-.06l-12-7.78,2.23-.22,12,7.78a2.2,2.2,0,0,0,2-2.38h0v-.08l-14.26-7.55,2.22-.22,9.59,5.77a2.17,2.17,0,0,0,2-2.33h0s0-.07,0-.11l-11.75-5.52-11.88-5.58c19.82-4.27,10.69-5.59,10.69-5.59-6.91-1.55-26.5,4.94-26.5,4.94l-38.32-.61-11.82,5.39,12-5.14-12.53.31"/><path class="cls-4" d="M475.32,222.68l17.7-3.15-7.36,35.16.06,28.92s-21.65,13.79-14.4-12Z"/><path class="cls-5" d="M484.35,187.59s-11.2-2.24-15.68,9c0,0-6.71,15.67-6.71,42.53,0,0,9,9,35.82,6.72C497.78,245.8,513.45,194.31,484.35,187.59Z"/><path class="cls-4" d="M124.32,219.68l17.7-3.15-7.36,35.16.06,28.92s-21.65,13.79-14.4-12Z"/><path class="cls-4" d="M119,281.06l51.87,31.05L182,337.05a2.19,2.19,0,0,0,3-.69h0a.56.56,0,0,0,0-.08l-2.31-9.21,1.92,1.15,5,13.43a2.19,2.19,0,0,0,3-.69h0a.56.56,0,0,0,.05-.08l-5-13.43,1.92,1.15,5,13.43a2.19,2.19,0,0,0,3-.69h0a.56.56,0,0,0,.05-.08l-6.92-14.58,1.92,1.15L197,338.19a2.19,2.19,0,0,0,3-.69h0a.56.56,0,0,0,0-.08L194,326l-6.19-11.58c18.44,8.43,11.91,1.91,11.91,1.91-4.61-5.37-24.2-11.88-24.2-11.88L145.14,281l-12.7-2.74,12.66,3L134.88,274"/><path class="cls-5" d="M136.35,185.59s-11.2-2.24-15.68,9c0,0-6.71,15.67-6.71,42.53,0,0,9,9,35.82,6.72C149.78,243.8,165.45,192.31,136.35,185.59Z"/><path class="cls-15" d="M1584.93,154.22a14.88,14.88,0,0,0,2.21,1.14s.56,1.26,1.36,1.36c0,0,2.45,2.65,3.31,3l6,6.16s2.24,2.37,2.91,2.3a12.37,12.37,0,0,0,2.86,2.78s2.18,2.95,3.53,3l.89,1s2,1.5,11-6.26c0,0,6.49-5.2,3.25-6.89,0,0,.29-.94-3.92-6.78,0,0,.23-.36-4.39-7.39,0,0-.18-1-2.49-4.14,0,0,.12-.37-.43-.83,0,0,.51-.39-1.48-2.69,0,0,.64,0-.86-1.65a1.25,1.25,0,0,0-.29-1s.49-.29-.22-1.08Z"/><ellipse class="cls-16" cx="1596.55" cy="145.31" rx="14.72" ry="2.15" transform="matrix(0.79, -0.61, 0.61, 0.79, 244.76, 1007.14)"/><path class="cls-4" d="M1571.33,185.61s13.37-1.3,20,20.54l12.56,59.51s7.12,3.81,18.1,70.22l.22,2.23s26.3-7.07,30.71,15c0,0,.22,2.23-2.23.22h0l-2.66-4.24h0l-2.45-2,2.88,6.47s.22,2.23-2.23.22l-2.88-6.47L1644,354s-2,2.45-2.23.22l-3.1-8.69s-6.25,5.1-8.7,3.09l7.34,6a2.19,2.19,0,0,1-1.92,2.43h-.08l-18.91-9.4s-3.32-10.92-3.54-13.15Z"/><path class="cls-4" d="M1547.66,60.81h0a43.65,43.65,0,0,1,43.65,43.66h0v20.46a43.65,43.65,0,0,1-43.65,43.66h0A43.66,43.66,0,0,1,1504,124.93h0V104.47a43.65,43.65,0,0,1,43.65-43.66Z"/><path class="cls-4" d="M1539.82,165.69v13.44l-15.67,9c29.1,26.87,47,0,47,0l-15.67-9V165.69"/><path class="cls-6" d="M1579.3,117.35s-5.06-19.15-19.26-4.94C1560,112.41,1564.24,126.7,1579.3,117.35Z"/><circle class="cls-7" cx="1569.38" cy="113.26" r="5.76"/><ellipse class="cls-8" cx="1571.05" cy="110.32" rx="1.48" ry="1.31" transform="translate(413.12 1177.83) rotate(-46.69)"/><path class="cls-5" d="M1566.71,185.53s4.48-2.24,13.43,0l20.15,20.15-11.65,10.23Z"/><path class="cls-9" d="M1587.42,123.51l.3.3a11.77,11.77,0,0,0,3.87,2.67h-4.17"/><path class="cls-1" d="M1522.51,163.83c-1.71-.32-3.43-.61-5.17-.8-3.7-.4-7.28-.48-10.54-1.23.37.27.74.53,1.14.79,0,0-9.17,9.81-2.77,15.53,0,0-10.38,2.73-.76,18.18,0,0-12,11.61-4.34,24.41,0,0,.82,9.31-6.77,10.25,0,0,14,4.78,17.55-15.2,0,0,4.76-12.89-1.64-18.61,0,0,8.77-7.59,2.37-13.31,0,0,8.77-7.6,5.16-15.11C1516.74,168.73,1521.07,169.49,1522.51,163.83Z"/><path class="cls-1" d="M1524.15,161.66l-1.8,3.1L1507,162.21s-20.92-53.89,1-76.07c0,0,2.86-25.62,36-25.18,0,0,17.75-4.32,29.27,8.27,0,0,4.68,1.44,9.38,8.29C1582.72,77.52,1526,129.21,1524.15,161.66Z"/><path class="cls-11" d="M1518.2,295.2a119,119,0,0,0,.8,12.8,52.4,52.4,0,0,0,2.39-34.59l-2.69-4.93C1518.46,277.41,1518.24,286.31,1518.2,295.2Z"/><path class="cls-11" d="M1595.29,228.68c-20.15-42.54-29.1-44.78-29.1-44.78H1529.1a5.74,5.74,0,0,1-1.27.79c-.07.07-.12.14-.2.21-6.34,6.12-5.66,16.54-7.48,24.73,0,19-.81,37.89-1.38,56.84-.29,9.57-.52,19.15-.57,28.73,0,7.91,1.32,15.64,1.81,23.48,37.7,17.71,66.32-2.69,66.32-2.69l-8.95-17.91,6.72-42.54C1599.77,248.82,1595.29,228.68,1595.29,228.68Z"/><path class="cls-12" d="M1565.22,252.38s12.32,6.72,24.63,0C1589.85,252.38,1577.54,261.34,1565.22,252.38Z"/><path class="cls-4" d="M1600,359.31s24.29-6.08,25.8,12.15c0,0,7.33,69.15,2.76,91.57l.14.48a106.43,106.43,0,0,0-15.51,1.86l-12.73-88.19Z"/><path class="cls-4" d="M1610.79,437.44l1.21,44.77s-1.17,16.53,5.32,16.36l45.44-1.24s19.16-12.31-11.93-20.89l-11.36.3s-11.3,2.67-8.38-9.2l-.83-30.63Z"/><path class="cls-13" d="M1650.83,476.44s31.09,8.58,11.93,20.89l-11.36.31Z"/><polygon class="cls-13" points="1631.66 474.82 1611.82 475.36 1611.5 470.32 1631.16 469.78 1631.66 474.82"/><path class="cls-13" d="M1612,488.1l39.14-1.06.28,10.6-34.08.93S1612.09,498.71,1612,488.1Z"/><path class="cls-4" d="M1590.35,363.81s3.62,73.4-2.13,96.81l.11.51a99.17,99.17,0,0,0-15.59,1.09l-8-93.79"/><path class="cls-4" d="M1571.83,432.6l-1.17,47.32s-2.06,17.39,4.43,17.57l45.45,1.26s19.78-11.91-10.81-22.73l-11.36-.32s-11.42,2.18-7.87-10.18l.81-32.38Z"/><path class="cls-13" d="M1609.73,476s30.59,10.82,10.81,22.73l-11.36-.32Z"/><polygon class="cls-13" points="1590.68 473.24 1570.84 472.69 1570.79 467.34 1590.45 467.89 1590.68 473.24"/><path class="cls-13" d="M1570.32,486.14l39.14,1.09-.28,11.2-34.09-.94S1569.86,497.34,1570.32,486.14Z"/><path class="cls-14" d="M1533.55,373.32c22.77-1.09,55.75-2.85,71.21-4.05q9.52-1.18,19-2.23c-4.73-13.78-12.09-29.64-22.34-36.35,0,0-11.06-7.61-15.88-17.67a105.76,105.76,0,0,1-14.16,3.41c-21.86,3.71-41.26.32-49.53-1.46C1521.88,315,1497.27,375.07,1533.55,373.32Z"/><path class="cls-4" d="M1533,231.56l.24-16.17,19,14.88,16.3,6.91s5.3,22.18-8.38,9.66Z"/><path class="cls-4" d="M1576.84,239.36l13.62-58.9,21.24-18c.51-2.18-1.81-2.72-1.81-2.72l-8.45,4.92.5-2.18,11.78-8.75c.51-2.18-1.81-2.72-1.81-2.72l-11.78,8.75.51-2.18,11.78-8.75a2.31,2.31,0,0,0-1.79-2.72h0L1598.32,157l.51-2.19,9-7.1A2.3,2.3,0,0,0,1606,145h0l-9.42,9.24-9.51,9.33-18.5,63.94-4.51,7.78V250s4,3,7,2A16.8,16.8,0,0,0,1576.84,239.36Z"/><path class="cls-5" d="M1526.28,183.15s-11.14,2.5-10.68,14.55c0,0,.23,17,11.14,41.59,0,0,11.83,4.55,35.46-8.41C1562.2,230.88,1555.6,177.46,1526.28,183.15Z"/><ellipse class="cls-10" cx="1579.5" cy="145" rx="4.5" ry="7"/><path class="cls-4" d="M157.2,839.28a52.19,52.19,0,0,0,28.21-32.75L187,778.42s38.67-36.85,19.29-56.78L227,726.56l30.57,18.92L271,753.76s6.46,6.65,1.18,53.59c0,0-6.83,19.57-23.75,17L220.17,857.1l-1.82,20S179.76,879.68,157.2,839.28Z"/><path class="cls-17" d="M209.5,742.54l3.22,3-4.27,19s18.86,12.86,20.78,31.63c0,0-10.71,13.06-22.13,7.53,0,0-17.42-6.48-14-28.08Z"/><polygon class="cls-17" points="209.41 742.29 219.71 724.29 222.86 725.58 212.29 747.41 208.42 744.73 209.41 742.29"/><polygon class="cls-17" points="187.18 776.49 193.61 775.1 192.8 783.75 186.53 784.48 187.18 776.49"/><path class="cls-17" d="M228.85,797s-.62,17.92,9.42,22.93c0,0,13.39,10.66,24.47,1.16,0,0,5.69-9.14,2.92-16l15-25.27-1-6L260.27,800S250.73,789.68,228.85,797Z"/><rect class="cls-18" x="196.18" y="831.97" width="3.64" height="2.42" rx="1" ry="1" transform="translate(-594.73 509.19) rotate(-54.4)"/><path class="cls-4" d="M252.05,715.67,245,727.15l-18.11-.61c10.7,38.29,40.16,24.77,40.16,24.77l-8.67-15.91,7.08-11.47"/><rect class="cls-4" x="233.57" y="634.87" width="101.12" height="87.64" rx="35.27" ry="35.27" transform="translate(-442.67 564.17) rotate(-58.33)"/><path class="cls-4" d="M136.37,866.54s-64,42.8-80.11,62.26l-.5.23a103.79,103.79,0,0,1,8.82,13.8L148.48,891"/><path class="cls-4" d="M90.06,925.09,51,955.63s-13.34,12.6-17.55,7.25L4,925.43s-2.33-24.08,25.87-5.11l7.37,9.37s5.3,11,13.48.25L77.44,909Z"/><path class="cls-13" d="M29.86,920.32s-28.2-19-25.87,5.11l7.37,9.36Z"/><polygon class="cls-13" points="44.1 934.61 56.97 950.97 61.49 947.67 48.76 931.47 44.1 934.61"/><path class="cls-13" d="M46,959.8,20.61,927.56l-9.25,7.23,22.08,28.09S36.83,967.19,46,959.8Z"/><path class="cls-4" d="M189.52,910.58s-12.05-23.3-27.43-11.86c0,0-59.44,42.14-73.91,61.26l-.47.22A111.31,111.31,0,0,1,97,973.69l78.15-51.09Z"/><path class="cls-4" d="M120.62,956.23l-36,30S72.39,998.66,68,993.43L37.5,956.85s-3.59-23.59,24.69-5.09l7.63,9.15s5.73,10.72,13,.2l24.65-20.56Z"/><path class="cls-13" d="M62.22,951.76s-28.28-18.5-24.69,5.09L45.15,966Z"/><polygon class="cls-13" points="76.77 965.71 90.09 981.69 94.28 978.44 81.08 962.62 76.77 965.71"/><path class="cls-13" d="M80,990.38l-26.27-31.5L45.15,966,68,993.43S71.55,997.64,80,990.38Z"/><path class="cls-4" d="M275.38,765.29s9.2,7.86,7.6,47.65l.68,5,16.51-34.75s2.23-20.59,6.52-26.26c0,0,5-7.79.65,12.09l10-8.53,9.94-8.44a2.2,2.2,0,0,1,1.44,2.76l0,.09-9.27,6.35-.72,2.13,12.84-9.89a2.2,2.2,0,0,1,1.44,2.76l0,.09-12.12,7.76-.72,2.13,12.12-7.76a2.2,2.2,0,0,1,1.43,2.76l0,.09-12.11,7.76-.72,2.13,8.54-4.22a2.2,2.2,0,0,1,1.44,2.76l0,.09-22.1,16.24-19.46,57.47s-12.18,22-14.9-5l-10.44-46.24Z"/><path class="cls-4" d="M231.92,731.41s-11.5-7.19-21.39-3.81c0,0-48.48,28.08-65.18,74.41l-10.61,25.28,9.32,3.68,31-49.57s38.42-41.45,46.42-32.64Z"/><path class="cls-4" d="M146.93,819.19c0,2.24-2.44,13.45-2.44,13.45l-18.35,11a2.21,2.21,0,0,1-2.25-2.17h0v-.1l6.91-6.66c-2.3,2.22-9.08-2.36-9.08-2.36l-2.38,9c0,2.25-2.28,0-2.28,0l.08-6.75-2.36,6.72c-2.3,2.22-2.28,0-2.28,0l2.36-6.71-2.3,2.22h0l-2.33,4.46h0c-2.31,2.22-2.28,0-2.28,0,2.54-22.45,29.82-17.63,29.82-17.63v-2.25"/><path class="cls-10" d="M274,708.71s-6.56.59-8.9-2.76c0,0-5.69-1-7.15-6,0,0,3.5-6.43,11.52-2.06C269.47,697.92,277.5,702.29,274,708.71Z"/><path class="cls-9" d="M278.46,681.42l.16.67c.38,1.5,1.43,5.17,3.06,7l-5.74-3.54"/><path class="cls-19" d="M261.61,657.32s10.72-5.67,16.11,10.16A18.4,18.4,0,0,1,261.61,657.32Z"/><path class="cls-20" d="M261.51,656.42s3.89,10.51,17,10.86C278.47,667.28,265.06,671.79,261.51,656.42Z"/><path class="cls-19" d="M290.18,674.11s10.15-6.65,17,8.6A18.39,18.39,0,0,1,290.18,674.11Z"/><path class="cls-20" d="M290,673.22s4.86,10.1,17.91,9.23C307.91,682.45,295,688.19,290,673.22Z"/><path class="cls-5" d="M214.88,726s-8.09-8.17-18-1.52c0,0-14.32,9-29.27,31.08,0,0,2.48,12.41,26.13,25.77C193.69,781.32,235.41,748,214.88,726Z"/><path class="cls-5" d="M251.91,748.54s-11.47,1.66-12,13.84c0,0-1.15,17.2,7.9,42.78,0,0,11.59,5.49,36.56-5.74C284.38,799.42,282,745.08,251.91,748.54Z"/><path class="cls-11" d="M155.83,839.51A53,53,0,0,0,185,806.67l2-28.53s39.82-36.83,20.39-57.37l21,5.31,30.82,19.69,13.48,8.62s6.47,6.84.45,54.45c0,0-7.2,19.77-24.37,16.92l-29.12,32.83-2.13,20.31S178.21,880.89,155.83,839.51Z"/><path class="cls-1" d="M276.09,636.39s-62.77,32.36-25.56,81.8L245.8,727s-34.74-41.31-8.52-81.84c0,0,18.91-35.35,43.78-26.6,0,0,51.42-11.15,55.25,45.45,0,0,5.76,19-26.83,62.94,0,0-8.05,32.06-32.22,30.51,0,0,.57,11.67-6.62,12.37,0,0,5.18,7.32-9.33,13.2,0,0,1.4,14.38-10.4,19.44,0,0-5.54,6.13-1.19,10.73,0,0-11.55-3.9-3-19.81,0,0,3.9-11.55,11.09-12.25,0,0-1.52-9.91,5.68-10.61,0,0-1.53-9.91,4.84-13.32,0,0-3.53-1.89-.7-7.19l-10.36-14.64,4.73-8.83s66.38-.88,38.63-68C300.59,658.58,297.42,643.25,276.09,636.39Z"/><path class="cls-14" d="M176.88,918.82C156.75,906,127.69,887.18,114.25,878q-8-6-16.14-11.94c11.49-10.07,26.44-20.65,39.26-21.41,0,0,14-1.15,23.64-7.79a108.85,108.85,0,0,0,11.1,10.48c17.93,14.76,37.34,21.79,45.78,24.48C217.89,871.85,209,939.31,176.88,918.82Z"/><rect class="cls-4" x="1634.57" y="634.86" width="101.12" height="87.64" rx="35.27" ry="35.27" transform="translate(222.78 1756.54) rotate(-58.33)"/><path class="cls-4" d="M1653.05,715.67l-7,11.48-18.11-.61c10.7,38.29,40.16,24.77,40.16,24.77l-8.67-15.91,7.08-11.47"/><path class="cls-4" d="M1537.37,866.54s-64,42.8-80.11,62.26l-.5.23a103.79,103.79,0,0,1,8.82,13.8l83.9-51.86"/><path class="cls-4" d="M1491.06,925.09,1452,955.63s-13.34,12.6-17.55,7.25L1405,925.43s-2.33-24.08,25.87-5.11l7.37,9.37s5.3,11,13.48.25l26.73-20.9Z"/><path class="cls-13" d="M1430.86,920.32s-28.2-19-25.87,5.11l7.37,9.36Z"/><polygon class="cls-13" points="1445.11 934.61 1457.97 950.97 1462.49 947.67 1449.76 931.47 1445.11 934.61"/><path class="cls-13" d="M1447,959.8l-25.36-32.24-9.25,7.23,22.08,28.09S1437.83,967.19,1447,959.8Z"/><path class="cls-4" d="M1590.52,910.58s-12-23.3-27.43-11.86c0,0-59.44,42.14-73.91,61.26l-.47.22a111.24,111.24,0,0,1,9.28,13.49l78.15-51.09Z"/><path class="cls-4" d="M1521.62,956.23l-36,30s-12.19,12.38-16.55,7.15l-30.5-36.58s-3.59-23.59,24.69-5.09l7.63,9.15s5.73,10.72,13,.2l24.65-20.56Z"/><path class="cls-13" d="M1463.22,951.76s-28.28-18.5-24.69,5.09l7.62,9.15Z"/><polygon class="cls-13" points="1477.77 965.71 1491.09 981.69 1495.28 978.44 1482.08 962.62 1477.77 965.71"/><path class="cls-13" d="M1481,990.38l-26.27-31.5-8.54,7.12L1469,993.43S1472.55,997.64,1481,990.38Z"/><path class="cls-4" d="M1676.38,765.29s9.2,7.86,7.6,47.65l.68,5,16.51-34.75s2.23-20.59,6.52-26.26c0,0,5-7.79.65,12.09l10-8.53,9.94-8.44a2.2,2.2,0,0,1,1.44,2.76l0,.09-9.27,6.35-.72,2.13,12.84-9.89a2.2,2.2,0,0,1,1.44,2.76l0,.09-12.12,7.76-.72,2.13,12.12-7.76a2.2,2.2,0,0,1,1.43,2.76l0,.09-12.11,7.76-.72,2.13,8.54-4.22a2.19,2.19,0,0,1,1.44,2.76h0l0,.09-22.1,16.24-19.46,57.47s-12.18,22-14.9-5l-10.44-46.24Z"/><path class="cls-4" d="M1632.92,731.41s-11.5-7.19-21.39-3.81c0,0-48.48,28.08-65.18,74.41l-10.61,25.28,9.32,3.68,31-49.57s38.42-41.45,46.42-32.64Z"/><path class="cls-4" d="M1547.93,819.19c0,2.24-2.44,13.45-2.44,13.45l-18.35,11a2.21,2.21,0,0,1-2.25-2.17h0v-.1l6.91-6.66c-2.3,2.22-9.08-2.36-9.08-2.36l-2.38,9c0,2.25-2.28,0-2.28,0l.08-6.75-2.36,6.72c-2.3,2.22-2.28,0-2.28,0l2.36-6.71-2.3,2.22h0l-2.33,4.46h0c-2.31,2.22-2.28,0-2.28,0,2.54-22.45,29.82-17.63,29.82-17.63v-2.25"/><path class="cls-10" d="M1675,708.71s-6.56.59-8.9-2.76c0,0-5.69-1-7.15-6,0,0,3.5-6.43,11.52-2.06C1670.47,697.92,1678.5,702.29,1675,708.71Z"/><path class="cls-9" d="M1679.46,681.42l.16.67c.38,1.5,1.43,5.17,3.06,7l-5.74-3.54"/><path class="cls-19" d="M1662.61,657.32s10.72-5.67,16.11,10.16A18.4,18.4,0,0,1,1662.61,657.32Z"/><path class="cls-20" d="M1662.51,656.42s3.89,10.51,17,10.86C1679.47,667.28,1666.06,671.79,1662.51,656.42Z"/><path class="cls-19" d="M1691.18,674.11s10.15-6.65,17,8.6A18.39,18.39,0,0,1,1691.18,674.11Z"/><path class="cls-20" d="M1691,673.22s4.86,10.1,17.91,9.23C1708.91,682.45,1696,688.19,1691,673.22Z"/><path class="cls-5" d="M1652.91,748.54s-11.47,1.66-12,13.84c0,0-1.15,17.2,7.9,42.78,0,0,11.59,5.49,36.56-5.74C1685.38,799.42,1683,745.08,1652.91,748.54Z"/><path class="cls-4" d="M1557.16,839.79a52.58,52.58,0,0,0,29-32.64l2-28.37s39.59-36.62,20.27-57l20.9,5.29L1660,746.66l13.41,8.57s6.45,6.81.48,54.15c0,0-7.17,19.65-24.24,16.81l-29,32.64L1618.47,879S1579.43,880.94,1557.16,839.79Z"/><path class="cls-14" d="M1577.88,918.82c-20.13-12.86-49.19-31.64-62.63-40.79q-8-6-16.14-11.94c11.49-10.07,26.44-20.65,39.26-21.41,0,0,14-1.15,23.64-7.79a108.85,108.85,0,0,0,11.1,10.48c17.93,14.76,37.34,21.79,45.78,24.48C1618.89,871.85,1610,939.31,1577.88,918.82Z"/><path class="cls-18" d="M1597.75,837.2h0a1,1,0,0,1,.37,1.37l-.5.86a1,1,0,0,1-1.37.37h0a1,1,0,0,1-.36-1.37l.5-.86A1,1,0,0,1,1597.75,837.2Z"/><path class="cls-17" d="M1608.5,748.54l3.22,3-4.27,19s18.86,12.86,20.78,31.63c0,0-10.71,13.06-22.13,7.53,0,0-17.42-6.48-14-28.08Z"/><polygon class="cls-17" points="1608.41 748.29 1618.71 730.29 1621.86 731.58 1611.29 753.41 1607.42 750.73 1608.41 748.29"/><polygon class="cls-17" points="1586.18 782.49 1592.61 781.1 1591.8 789.75 1585.53 790.48 1586.18 782.49"/><path class="cls-17" d="M1672.75,787.82,1659.27,806s-9.54-10.32-31.42-3c0,0-.62,17.92,9.42,22.93,0,0,13.39,10.66,24.47,1.16,0,0,5.69-9.14,2.92-16l10.86-18.25"/><path class="cls-17" d="M1597.36,770.05S1582,781,1587,785l5.09.65Z"/><path class="cls-11" d="M1675.88,787.82c1.79-28-2.58-32.64-2.58-32.64l-13.41-8.57L1629.24,727l-20.9-5.29c10.34,10.94,3.8,26.52-4.52,38.63"/><path class="cls-5" d="M1612.76,762.2c8-11.13,13.48-25.12,3.12-36.21,0,0-8.09-8.17-18.05-1.52,0,0-14.32,9-29.27,31.08,0,0,1.63,8.13,14.79,18.32"/><path class="cls-1" d="M1677.09,636.39s-62.77,32.36-25.56,81.8L1646.8,727s-34.74-41.31-8.52-81.84c0,0,18.91-35.35,43.78-26.6,0,0,51.42-11.15,55.25,45.45,0,0,5.76,19-26.83,62.94,0,0-8,32.06-32.22,30.51,0,0,.57,11.67-6.62,12.37,0,0,5.18,7.32-9.33,13.2,0,0,1.4,14.38-10.4,19.44,0,0-5.54,6.13-1.19,10.73,0,0-11.55-3.9-3-19.81,0,0,3.9-11.55,11.09-12.25,0,0-1.52-9.91,5.68-10.61,0,0-1.53-9.91,4.84-13.32,0,0-3.53-1.89-.7-7.19l-10.36-14.64,4.73-8.83s66.38-.88,38.63-68C1701.59,658.58,1698.42,643.25,1677.09,636.39Z"/><line class="cls-2" x1="918.58" y1="861.78" x2="916.47" y2="881.97"/><line class="cls-2" x1="935.43" y1="842.79" x2="918.58" y2="861.78"/><path class="cls-11" d="M947.54,829.14l-12.11,13.65"/><path class="cls-4" d="M951.05,718.67l-7,11.48-18.11-.61c10.7,38.29,40.16,24.77,40.16,24.77l-8.67-15.91,7.08-11.47"/><path class="cls-4" d="M835.37,869.54s-64,42.8-80.11,62.26l-.5.23a103.79,103.79,0,0,1,8.82,13.8L847.48,894"/><path class="cls-4" d="M789.06,928.09,750,958.63s-13.34,12.6-17.55,7.25L703,928.43s-2.33-24.08,25.87-5.11l7.37,9.37s5.3,11,13.48.25L776.44,912Z"/><path class="cls-13" d="M728.86,923.32s-28.2-19-25.87,5.11l7.37,9.36Z"/><polygon class="cls-13" points="743.11 937.61 755.97 953.97 760.49 950.67 747.75 934.47 743.11 937.61"/><path class="cls-13" d="M745,962.8l-25.36-32.24-9.25,7.23,22.08,28.09S735.83,970.19,745,962.8Z"/><path class="cls-4" d="M888.52,913.58s-12-23.3-27.43-11.86c0,0-59.44,42.14-73.91,61.26l-.47.22A111.31,111.31,0,0,1,796,976.69l78.15-51.09Z"/><path class="cls-4" d="M819.62,959.23l-36,30s-12.19,12.38-16.55,7.15l-30.5-36.58s-3.59-23.59,24.69-5.09l7.63,9.15s5.73,10.72,13,.2l24.65-20.56Z"/><path class="cls-13" d="M761.22,954.76s-28.28-18.5-24.69,5.09l7.62,9.15Z"/><polygon class="cls-13" points="775.77 968.71 789.09 984.69 793.28 981.44 780.08 965.62 775.77 968.71"/><path class="cls-13" d="M779,993.38l-26.27-31.5L744.15,969,767,996.43S770.55,1000.64,779,993.38Z"/><path class="cls-4" d="M974.38,768.29s9.2,7.86,7.6,47.65l.68,5,16.51-34.75s2.23-20.59,6.52-26.26c0,0,5-7.79.65,12.09l10-8.53,9.94-8.44a2.2,2.2,0,0,1,1.44,2.76l0,.09-9.27,6.35-.72,2.13,12.84-9.89a2.2,2.2,0,0,1,1.44,2.76l0,.09-12.12,7.76-.72,2.13,12.12-7.76a2.2,2.2,0,0,1,1.43,2.76l0,.09-12.11,7.76-.72,2.13,8.54-4.22a2.19,2.19,0,0,1,1.44,2.76h0l0,.09-22.1,16.24-19.46,57.47s-12.18,22-14.9-5l-10.44-46.24Z"/><path class="cls-4" d="M930.92,734.41s-11.5-7.19-21.39-3.81c0,0-48.48,28.08-65.18,74.41l-10.61,25.28,9.32,3.68,31-49.57s38.42-41.45,46.42-32.64Z"/><path class="cls-4" d="M845.93,822.19c0,2.24-2.44,13.45-2.44,13.45l-18.35,11a2.21,2.21,0,0,1-2.25-2.17h0v-.1l6.91-6.66c-2.3,2.22-9.08-2.36-9.08-2.36l-2.38,9c0,2.25-2.28,0-2.28,0l.08-6.75-2.36,6.72c-2.3,2.22-2.28,0-2.28,0l2.36-6.71-2.3,2.22h0l-2.33,4.46h0c-2.31,2.22-2.28,0-2.28,0,2.54-22.45,29.82-17.63,29.82-17.63v-2.25"/><path class="cls-10" d="M973,711.71s-6.56.59-8.9-2.76c0,0-5.69-1-7.15-6,0,0,3.5-6.43,11.52-2.06C968.47,700.92,976.5,705.29,973,711.71Z"/><path class="cls-9" d="M977.46,684.42l.16.67c.38,1.5,1.43,5.17,3.06,7l-5.74-3.54"/><path class="cls-19" d="M960.61,660.32s10.72-5.67,16.11,10.16A18.4,18.4,0,0,1,960.61,660.32Z"/><path class="cls-20" d="M960.51,659.42s3.89,10.51,17,10.86C977.47,670.28,964.06,674.79,960.51,659.42Z"/><path class="cls-19" d="M989.18,677.11s10.15-6.65,17,8.6A18.39,18.39,0,0,1,989.18,677.11Z"/><path class="cls-20" d="M989,676.22s4.86,10.1,17.91,9.23C1006.91,685.45,994,691.19,989,676.22Z"/><path class="cls-5" d="M913.88,729s-8.09-8.17-18-1.52c0,0-14.32,9-29.27,31.08,0,0,2.48,12.41,26.13,25.77C892.69,784.32,934.41,751,913.88,729Z"/><path class="cls-5" d="M950.91,751.54s-11.47,1.66-12,13.84c0,0-1.15,17.2,7.9,42.78,0,0,11.59,5.49,36.56-5.74C983.38,802.42,981,748.08,950.91,751.54Z"/><path class="cls-4" d="M855.16,842.79a52.58,52.58,0,0,0,29-32.64l2-28.37s39.59-36.62,20.27-57l20.9,5.29L958,749.66l13.41,8.57s6.45,6.81.48,54.15c0,0-7.17,19.65-24.24,16.81l-29,32.64L916.47,882S877.43,883.94,855.16,842.79Z"/><path class="cls-1" d="M975.09,639.39s-62.77,32.36-25.56,81.8L944.8,730s-34.74-41.31-8.52-81.84c0,0,18.91-35.35,43.78-26.6,0,0,51.42-11.15,55.25,45.45,0,0,5.76,19-26.83,62.94,0,0-8.05,32.06-32.22,30.51,0,0,.57,11.67-6.62,12.37,0,0,5.18,7.32-9.33,13.2,0,0,1.4,14.38-10.4,19.44,0,0-5.54,6.13-1.19,10.73,0,0-11.55-3.9-3-19.81,0,0,3.9-11.55,11.09-12.25,0,0-1.52-9.91,5.68-10.61,0,0-1.53-9.91,4.84-13.32,0,0-3.53-1.89-.7-7.19l-10.36-14.64,4.73-8.83s66.38-.88,38.63-68C999.59,661.58,996.42,646.25,975.09,639.39Z"/><path class="cls-14" d="M875.88,921.82C855.75,909,826.69,890.18,813.25,881q-8-6-16.14-11.94c11.49-10.07,26.44-20.65,39.26-21.41,0,0,14-1.15,23.64-7.79a108.85,108.85,0,0,0,11.1,10.48c17.93,14.76,37.34,21.79,45.78,24.48C916.89,874.85,908,942.31,875.88,921.82Z"/><path class="cls-18" d="M895.75,840.2h0a1,1,0,0,1,.37,1.37h0l-.5.86a1,1,0,0,1-1.37.37h0a1,1,0,0,1-.36-1.37h0l.5-.86a1,1,0,0,1,1.36-.37Z"/><path class="cls-11" d="M884.68,802l1.39-20.21s39.59-36.62,20.27-57l20.9,5.29,30.65,19.59,13.41,8.57s6.45,6.81.48,54.15c0,0-7.17,19.65-24.24,16.81"/><rect class="cls-4" x="932.57" y="637.86" width="101.12" height="87.64" rx="35.27" ry="35.27" transform="translate(-113.21 1160.51) rotate(-58.33)"/><path class="cls-4" d="M951.05,718.67l-7,11.48-18.11-.61c10.7,38.29,40.16,24.77,40.16,24.77l-8.67-15.91,7.08-11.47"/><path class="cls-4" d="M835.37,869.54s-64,42.8-80.11,62.26l-.5.23a103.79,103.79,0,0,1,8.82,13.8L847.48,894"/><path class="cls-4" d="M789.06,928.09,750,958.63s-13.34,12.6-17.55,7.25L703,928.43s-2.33-24.08,25.87-5.11l7.37,9.37s5.3,11,13.48.25L776.44,912Z"/><path class="cls-13" d="M728.86,923.32s-28.2-19-25.87,5.11l7.37,9.36Z"/><polygon class="cls-13" points="743.11 937.61 755.97 953.97 760.49 950.67 747.75 934.47 743.11 937.61"/><path class="cls-13" d="M745,962.8l-25.36-32.24-9.25,7.23,22.08,28.09S735.83,970.19,745,962.8Z"/><path class="cls-4" d="M888.52,913.58s-12-23.3-27.43-11.86c0,0-59.44,42.14-73.91,61.26l-.47.22A111.31,111.31,0,0,1,796,976.69l78.15-51.09Z"/><path class="cls-4" d="M819.62,959.23l-36,30s-12.19,12.38-16.55,7.15l-30.5-36.58s-3.59-23.59,24.69-5.09l7.63,9.15s5.73,10.72,13,.2l24.65-20.56Z"/><path class="cls-13" d="M761.22,954.76s-28.28-18.5-24.69,5.09l7.62,9.15Z"/><polygon class="cls-13" points="775.77 968.71 789.09 984.69 793.28 981.44 780.08 965.62 775.77 968.71"/><path class="cls-13" d="M779,993.38l-26.27-31.5L744.15,969,767,996.43S770.55,1000.64,779,993.38Z"/><path class="cls-4" d="M974.38,768.29s9.2,7.86,7.6,47.65l.68,5,16.51-34.75s2.23-20.59,6.52-26.26c0,0,5-7.79.65,12.09l10-8.53,9.94-8.44a2.2,2.2,0,0,1,1.44,2.76l0,.09-9.27,6.35-.72,2.13,12.84-9.89a2.2,2.2,0,0,1,1.44,2.76l0,.09-12.12,7.76-.72,2.13,12.12-7.76a2.2,2.2,0,0,1,1.43,2.76l0,.09-12.11,7.76-.72,2.13,8.54-4.22a2.19,2.19,0,0,1,1.44,2.76h0l0,.09-22.1,16.24-19.46,57.47s-12.18,22-14.9-5l-10.44-46.24Z"/><path class="cls-4" d="M930.92,734.41s-11.5-7.19-21.39-3.81c0,0-48.48,28.08-65.18,74.41l-10.61,25.28,9.32,3.68,31-49.57s38.42-41.45,46.42-32.64Z"/><path class="cls-4" d="M845.93,822.19c0,2.24-2.44,13.45-2.44,13.45l-18.35,11a2.21,2.21,0,0,1-2.25-2.17h0v-.1l6.91-6.66c-2.3,2.22-9.08-2.36-9.08-2.36l-2.38,9c0,2.25-2.28,0-2.28,0l.08-6.75-2.36,6.72c-2.3,2.22-2.28,0-2.28,0l2.36-6.71-2.3,2.22h0l-2.33,4.46h0c-2.31,2.22-2.28,0-2.28,0,2.54-22.45,29.82-17.63,29.82-17.63v-2.25"/><path class="cls-10" d="M973,711.71s-6.56.59-8.9-2.76c0,0-5.69-1-7.15-6,0,0,3.5-6.43,11.52-2.06C968.47,700.92,976.5,705.29,973,711.71Z"/><path class="cls-9" d="M977.46,684.42l.16.67c.38,1.5,1.43,5.17,3.06,7l-5.74-3.54"/><path class="cls-19" d="M960.61,660.32s10.72-5.67,16.11,10.16A18.4,18.4,0,0,1,960.61,660.32Z"/><path class="cls-20" d="M960.51,659.42s3.89,10.51,17,10.86C977.47,670.28,964.06,674.79,960.51,659.42Z"/><path class="cls-19" d="M989.18,677.11s10.15-6.65,17,8.6A18.39,18.39,0,0,1,989.18,677.11Z"/><path class="cls-20" d="M989,676.22s4.86,10.1,17.91,9.23C1006.91,685.45,994,691.19,989,676.22Z"/><path class="cls-5" d="M913.88,729s-8.09-8.17-18-1.52c0,0-14.32,9-29.27,31.08,0,0,2.48,12.41,26.13,25.77C892.69,784.32,934.41,751,913.88,729Z"/><path class="cls-5" d="M950.91,751.54s-11.47,1.66-12,13.84c0,0-1.15,17.2,7.9,42.78,0,0,11.59,5.49,36.56-5.74C983.38,802.42,981,748.08,950.91,751.54Z"/><path class="cls-4" d="M855.16,842.79a52.58,52.58,0,0,0,29-32.64l2-28.37s39.59-36.62,20.27-57l20.9,5.29L958,749.66l13.41,8.57s6.45,6.81.48,54.15c0,0-7.17,19.65-24.24,16.81l-29,32.64L916.47,882S877.43,883.94,855.16,842.79Z"/><path class="cls-14" d="M875.88,921.82C855.75,909,826.69,890.18,813.25,881q-8-6-16.14-11.94c11.49-10.07,26.44-20.65,39.26-21.41,0,0,14-1.15,23.64-7.79a108.85,108.85,0,0,0,11.1,10.48c17.93,14.76,37.34,21.79,45.78,24.48C916.89,874.85,908,942.31,875.88,921.82Z"/><path class="cls-18" d="M895.75,840.2h0a1,1,0,0,1,.37,1.37h0l-.5.86a1,1,0,0,1-1.37.37h0a1,1,0,0,1-.36-1.37h0l.5-.86a1,1,0,0,1,1.36-.37Z"/><path class="cls-11" d="M884.68,802l1.39-20.21s39.59-36.62,20.27-57l20.9,5.29,30.65,19.59,13.41,8.57s6.45,6.81.48,54.15c0,0-7.17,19.65-24.24,16.81"/><path class="cls-1" d="M975.09,639.39s-62.77,32.36-25.56,81.8L944.8,730s-34.74-41.31-8.52-81.84c0,0,18.91-35.35,43.78-26.6,0,0,51.42-11.15,55.25,45.45,0,0,5.76,19-26.83,62.94,0,0-8.05,32.06-32.22,30.51,0,0,.57,11.67-6.62,12.37,0,0,5.18,7.32-9.33,13.2,0,0,1.4,14.38-10.4,19.44,0,0-5.54,6.13-1.19,10.73,0,0-11.55-3.9-3-19.81,0,0,3.9-11.55,11.09-12.25,0,0-1.52-9.91,5.68-10.61,0,0-1.53-9.91,4.84-13.32,0,0-3.53-1.89-.7-7.19l-10.36-14.64,4.73-8.83s66.38-.88,38.63-68C999.59,661.58,996.42,646.25,975.09,639.39Z"/><line class="cls-2" x1="570.58" y1="859.78" x2="568.47" y2="879.97"/><line class="cls-2" x1="587.43" y1="840.79" x2="570.58" y2="859.78"/><path class="cls-11" d="M599.54,827.14l-12.11,13.65"/><path class="cls-4" d="M603.05,716.67l-7,11.48-18.11-.61c10.7,38.29,40.16,24.77,40.16,24.77l-8.67-15.91,7.08-11.47"/><path class="cls-4" d="M487.37,867.54s-64,42.8-80.11,62.26l-.5.23a103.79,103.79,0,0,1,8.82,13.8L499.48,892"/><path class="cls-4" d="M441.06,926.09,402,956.63s-13.34,12.6-17.55,7.25L355,926.43s-2.33-24.08,25.87-5.11l7.37,9.37s5.3,11,13.48.25L428.44,910Z"/><path class="cls-13" d="M380.86,921.32s-28.2-19-25.87,5.11l7.37,9.36Z"/><polygon class="cls-13" points="395.11 935.61 407.97 951.97 412.49 948.67 399.75 932.47 395.11 935.61"/><path class="cls-13" d="M397,960.8l-25.36-32.24-9.25,7.23,22.08,28.09S387.83,968.19,397,960.8Z"/><path class="cls-4" d="M540.52,911.58s-12-23.3-27.43-11.86c0,0-59.44,42.14-73.91,61.26l-.47.22A111.31,111.31,0,0,1,448,974.69l78.15-51.09Z"/><path class="cls-4" d="M471.62,957.23l-36,30s-12.19,12.38-16.55,7.15l-30.5-36.58s-3.59-23.59,24.69-5.09l7.63,9.15s5.73,10.72,13,.2l24.65-20.56Z"/><path class="cls-13" d="M413.22,952.76s-28.28-18.5-24.69,5.09l7.62,9.15Z"/><polygon class="cls-13" points="427.77 966.71 441.09 982.69 445.28 979.44 432.08 963.62 427.77 966.71"/><path class="cls-13" d="M431,991.38l-26.27-31.5L396.15,967,419,994.43S422.55,998.64,431,991.38Z"/><path class="cls-4" d="M626.38,766.29s9.2,7.86,7.6,47.65l.68,5,16.51-34.75s2.23-20.59,6.52-26.26c0,0,5-7.79.65,12.09l10-8.53,9.94-8.44a2.2,2.2,0,0,1,1.44,2.76l0,.09-9.27,6.35-.72,2.13,12.84-9.89a2.2,2.2,0,0,1,1.44,2.76l0,.09-12.12,7.76-.72,2.13,12.12-7.76a2.2,2.2,0,0,1,1.43,2.76l0,.09-12.11,7.76-.72,2.13,8.54-4.22a2.2,2.2,0,0,1,1.44,2.76l0,.09-22.1,16.24-19.46,57.47s-12.18,22-14.9-5l-10.44-46.24Z"/><path class="cls-4" d="M582.92,732.41s-11.5-7.19-21.39-3.81c0,0-48.48,28.08-65.18,74.41l-10.61,25.28,9.32,3.68,31-49.57s38.42-41.45,46.42-32.64Z"/><path class="cls-4" d="M497.93,820.19c0,2.24-2.44,13.45-2.44,13.45l-18.35,11a2.21,2.21,0,0,1-2.25-2.17h0v-.1l6.91-6.66c-2.3,2.22-9.08-2.36-9.08-2.36l-2.38,9c0,2.25-2.28,0-2.28,0l.08-6.75-2.36,6.72c-2.3,2.22-2.28,0-2.28,0l2.36-6.71-2.3,2.22h0l-2.33,4.46h0c-2.31,2.22-2.28,0-2.28,0,2.54-22.45,29.82-17.63,29.82-17.63v-2.25"/><path class="cls-10" d="M625,709.71s-6.56.59-8.9-2.76c0,0-5.69-1-7.15-6,0,0,3.5-6.43,11.52-2.06C620.47,698.92,628.5,703.29,625,709.71Z"/><path class="cls-9" d="M629.46,682.42l.16.67c.38,1.5,1.43,5.17,3.06,7l-5.74-3.54"/><path class="cls-19" d="M612.61,658.32s10.72-5.67,16.11,10.16A18.4,18.4,0,0,1,612.61,658.32Z"/><path class="cls-20" d="M612.51,657.42s3.89,10.51,17,10.86C629.47,668.28,616.06,672.79,612.51,657.42Z"/><path class="cls-19" d="M641.18,675.11s10.15-6.65,17,8.6A18.39,18.39,0,0,1,641.18,675.11Z"/><path class="cls-20" d="M641,674.22s4.86,10.1,17.91,9.23C658.91,683.45,646,689.19,641,674.22Z"/><path class="cls-5" d="M565.88,727s-8.09-8.17-18-1.52c0,0-14.32,9-29.27,31.08,0,0,2.48,12.41,26.13,25.77C544.69,782.32,586.41,749,565.88,727Z"/><path class="cls-5" d="M602.91,749.54s-11.47,1.66-12,13.84c0,0-1.15,17.2,7.9,42.78,0,0,11.59,5.49,36.56-5.74C635.38,800.42,633,746.08,602.91,749.54Z"/><path class="cls-4" d="M507.16,840.79a52.58,52.58,0,0,0,29-32.64l2-28.37s39.59-36.62,20.27-57l20.9,5.29L610,747.66l13.41,8.57s6.45,6.81.48,54.15c0,0-7.17,19.65-24.24,16.81l-29,32.64L568.47,880S529.43,881.94,507.16,840.79Z"/><path class="cls-1" d="M627.09,637.39s-62.77,32.36-25.56,81.8L596.8,728s-34.74-41.31-8.52-81.84c0,0,18.91-35.35,43.78-26.6,0,0,51.42-11.15,55.25,45.45,0,0,5.76,19-26.83,62.94,0,0-8.05,32.06-32.22,30.51,0,0,.57,11.67-6.62,12.37,0,0,5.18,7.32-9.33,13.2,0,0,1.4,14.38-10.4,19.44,0,0-5.54,6.13-1.19,10.73,0,0-11.55-3.9-3-19.81,0,0,3.9-11.55,11.09-12.25,0,0-1.52-9.91,5.68-10.61,0,0-1.53-9.91,4.84-13.32,0,0-3.53-1.89-.7-7.19l-10.36-14.64,4.73-8.83s66.38-.88,38.63-68C651.59,659.58,648.42,644.25,627.09,637.39Z"/><path class="cls-14" d="M527.88,919.82C507.75,907,478.69,888.18,465.25,879q-8-6-16.14-11.94c11.49-10.07,26.44-20.65,39.26-21.41,0,0,14-1.15,23.64-7.79a108.85,108.85,0,0,0,11.1,10.48c17.93,14.76,37.34,21.79,45.78,24.48C568.89,872.85,560,940.31,527.88,919.82Z"/><path class="cls-18" d="M547.75,838.2h0a1,1,0,0,1,.36,1.37h0l-.5.86a1,1,0,0,1-1.36.37h0a1,1,0,0,1-.37-1.37h0l.5-.86a1,1,0,0,1,1.37-.37Z"/><path class="cls-11" d="M536.68,800l1.39-20.21s39.59-36.62,20.27-57l20.9,5.29,30.65,19.59,13.41,8.57s6.45,6.81.48,54.15c0,0-7.17,19.65-24.24,16.81"/><rect class="cls-4" x="584.56" y="635.86" width="101.12" height="87.64" rx="35.27" ry="35.27" transform="translate(-276.8 863.37) rotate(-58.33)"/><path class="cls-4" d="M603.05,716.67l-7,11.48-18.11-.61c10.7,38.29,40.16,24.77,40.16,24.77l-8.67-15.91,7.08-11.47"/><path class="cls-4" d="M487.37,867.54s-64,42.8-80.11,62.26l-.5.23a103.79,103.79,0,0,1,8.82,13.8L499.48,892"/><path class="cls-4" d="M441.06,926.09,402,956.63s-13.34,12.6-17.55,7.25L355,926.43s-2.33-24.08,25.87-5.11l7.37,9.37s5.3,11,13.48.25L428.44,910Z"/><path class="cls-13" d="M380.86,921.32s-28.2-19-25.87,5.11l7.37,9.36Z"/><polygon class="cls-13" points="395.11 935.61 407.97 951.97 412.49 948.67 399.75 932.47 395.11 935.61"/><path class="cls-13" d="M397,960.8l-25.36-32.24-9.25,7.23,22.08,28.09S387.83,968.19,397,960.8Z"/><path class="cls-4" d="M540.52,911.58s-12-23.3-27.43-11.86c0,0-59.44,42.14-73.91,61.26l-.47.22A111.31,111.31,0,0,1,448,974.69l78.15-51.09Z"/><path class="cls-4" d="M471.62,957.23l-36,30s-12.19,12.38-16.55,7.15l-30.5-36.58s-3.59-23.59,24.69-5.09l7.63,9.15s5.73,10.72,13,.2l24.65-20.56Z"/><path class="cls-13" d="M413.22,952.76s-28.28-18.5-24.69,5.09l7.62,9.15Z"/><polygon class="cls-13" points="427.77 966.71 441.09 982.69 445.28 979.44 432.08 963.62 427.77 966.71"/><path class="cls-13" d="M431,991.38l-26.27-31.5L396.15,967,419,994.43S422.55,998.64,431,991.38Z"/><path class="cls-4" d="M626.38,766.29s9.2,7.86,7.6,47.65l.68,5,16.51-34.75s2.23-20.59,6.52-26.26c0,0,5-7.79.65,12.09l10-8.53,9.94-8.44a2.2,2.2,0,0,1,1.44,2.76l0,.09-9.27,6.35-.72,2.13,12.84-9.89a2.2,2.2,0,0,1,1.44,2.76l0,.09-12.12,7.76-.72,2.13,12.12-7.76a2.2,2.2,0,0,1,1.43,2.76l0,.09-12.11,7.76-.72,2.13,8.54-4.22a2.2,2.2,0,0,1,1.44,2.76l0,.09-22.1,16.24-19.46,57.47s-12.18,22-14.9-5l-10.44-46.24Z"/><path class="cls-4" d="M582.92,732.41s-11.5-7.19-21.39-3.81c0,0-48.48,28.08-65.18,74.41l-10.61,25.28,9.32,3.68,31-49.57s38.42-41.45,46.42-32.64Z"/><path class="cls-4" d="M497.93,820.19c0,2.24-2.44,13.45-2.44,13.45l-18.35,11a2.21,2.21,0,0,1-2.25-2.17h0v-.1l6.91-6.66c-2.3,2.22-9.08-2.36-9.08-2.36l-2.38,9c0,2.25-2.28,0-2.28,0l.08-6.75-2.36,6.72c-2.3,2.22-2.28,0-2.28,0l2.36-6.71-2.3,2.22h0l-2.33,4.46h0c-2.31,2.22-2.28,0-2.28,0,2.54-22.45,29.82-17.63,29.82-17.63v-2.25"/><path class="cls-10" d="M625,709.71s-6.56.59-8.9-2.76c0,0-5.69-1-7.15-6,0,0,3.5-6.43,11.52-2.06C620.47,698.92,628.5,703.29,625,709.71Z"/><path class="cls-9" d="M629.46,682.42l.16.67c.38,1.5,1.43,5.17,3.06,7l-5.74-3.54"/><path class="cls-19" d="M612.61,658.32s10.72-5.67,16.11,10.16A18.4,18.4,0,0,1,612.61,658.32Z"/><path class="cls-20" d="M612.51,657.42s3.89,10.51,17,10.86C629.47,668.28,616.06,672.79,612.51,657.42Z"/><path class="cls-19" d="M641.18,675.11s10.15-6.65,17,8.6A18.39,18.39,0,0,1,641.18,675.11Z"/><path class="cls-20" d="M641,674.22s4.86,10.1,17.91,9.23C658.91,683.45,646,689.19,641,674.22Z"/><path class="cls-5" d="M565.88,727s-8.09-8.17-18-1.52c0,0-14.32,9-29.27,31.08,0,0,2.48,12.41,26.13,25.77C544.69,782.32,586.41,749,565.88,727Z"/><path class="cls-5" d="M602.91,749.54s-11.47,1.66-12,13.84c0,0-1.15,17.2,7.9,42.78,0,0,11.59,5.49,36.56-5.74C635.38,800.42,633,746.08,602.91,749.54Z"/><path class="cls-4" d="M507.16,840.79a52.58,52.58,0,0,0,29-32.64l2-28.37s39.59-36.62,20.27-57l20.9,5.29L610,747.66l13.41,8.57s6.45,6.81.48,54.15c0,0-7.17,19.65-24.24,16.81l-29,32.64L568.47,880S529.43,881.94,507.16,840.79Z"/><path class="cls-14" d="M527.88,919.82C507.75,907,478.69,888.18,465.25,879q-8-6-16.14-11.94c11.49-10.07,26.44-20.65,39.26-21.41,0,0,14-1.15,23.64-7.79a108.85,108.85,0,0,0,11.1,10.48c17.93,14.76,37.34,21.79,45.78,24.48C568.89,872.85,560,940.31,527.88,919.82Z"/><path class="cls-18" d="M547.75,838.2h0a1,1,0,0,1,.36,1.37h0l-.5.86a1,1,0,0,1-1.36.37h0a1,1,0,0,1-.37-1.37h0l.5-.86a1,1,0,0,1,1.37-.37Z"/><path class="cls-11" d="M599.54,827.14c17.07,2.84,24.24-16.81,24.24-16.81,6-47.34-.48-54.15-.48-54.15l-13.41-8.57L579.24,728l-20.9-5.29c19.32,20.43-20.27,57-20.27,57L536.68,800S538,817.61,525,827.81L577.53,852Z"/><path class="cls-1" d="M627.09,637.39s-62.77,32.36-25.56,81.8L596.8,728s-34.74-41.31-8.52-81.84c0,0,18.91-35.35,43.78-26.6,0,0,51.42-11.15,55.25,45.45,0,0,5.76,19-26.83,62.94,0,0-8.05,32.06-32.22,30.51,0,0,.57,11.67-6.62,12.37,0,0,5.18,7.32-9.33,13.2,0,0,1.4,14.38-10.4,19.44,0,0-5.54,6.13-1.19,10.73,0,0-11.55-3.9-3-19.81,0,0,3.9-11.55,11.09-12.25,0,0-1.52-9.91,5.68-10.61,0,0-1.53-9.91,4.84-13.32,0,0-3.53-1.89-.7-7.19l-10.36-14.64,4.73-8.83s66.38-.88,38.63-68C651.59,659.58,648.42,644.25,627.09,637.39Z"/><line class="cls-2" x1="1270.58" y1="857.78" x2="1268.47" y2="877.97"/><line class="cls-2" x1="1287.43" y1="838.79" x2="1270.58" y2="857.78"/><path class="cls-11" d="M1299.54,825.14l-12.11,13.65"/><path class="cls-4" d="M1303.05,714.67l-7,11.48-18.11-.61c10.7,38.29,40.16,24.77,40.16,24.77l-8.67-15.91,7.08-11.47"/><path class="cls-4" d="M1187.37,865.54s-64,42.8-80.11,62.26l-.5.23a103.79,103.79,0,0,1,8.82,13.8l83.9-51.86"/><path class="cls-4" d="M1141.06,924.09,1102,954.63s-13.34,12.6-17.55,7.25L1055,924.43s-2.33-24.08,25.87-5.11l7.37,9.37s5.3,11,13.48.25l26.73-20.9Z"/><path class="cls-13" d="M1080.86,919.32s-28.2-19-25.87,5.11l7.37,9.36Z"/><polygon class="cls-13" points="1095.11 933.61 1107.97 949.97 1112.49 946.67 1099.76 930.47 1095.11 933.61"/><path class="cls-13" d="M1097,958.8l-25.36-32.24-9.25,7.23,22.08,28.09S1087.83,966.19,1097,958.8Z"/><path class="cls-4" d="M1240.52,909.58s-12-23.3-27.43-11.86c0,0-59.44,42.14-73.91,61.26l-.47.22a111.24,111.24,0,0,1,9.28,13.49l78.15-51.09Z"/><path class="cls-4" d="M1171.62,955.23l-36,30s-12.19,12.38-16.55,7.15l-30.5-36.58s-3.59-23.59,24.69-5.09l7.63,9.15s5.73,10.72,13,.2l24.65-20.56Z"/><path class="cls-13" d="M1113.22,950.76s-28.28-18.5-24.69,5.09l7.62,9.15Z"/><polygon class="cls-13" points="1127.77 964.71 1141.09 980.69 1145.28 977.44 1132.08 961.62 1127.77 964.71"/><path class="cls-13" d="M1131,989.38l-26.27-31.5-8.54,7.12L1119,992.43S1122.55,996.64,1131,989.38Z"/><path class="cls-4" d="M1326.38,764.29s9.2,7.86,7.6,47.65l.68,5,16.51-34.75s2.23-20.59,6.52-26.26c0,0,5-7.79.65,12.09l10-8.53,9.94-8.44a2.2,2.2,0,0,1,1.44,2.76l0,.09-9.27,6.35-.72,2.13,12.84-9.89a2.2,2.2,0,0,1,1.44,2.76l0,.09-12.12,7.76-.72,2.13,12.12-7.76a2.2,2.2,0,0,1,1.43,2.76l0,.09-12.11,7.76-.72,2.13,8.54-4.22a2.19,2.19,0,0,1,1.44,2.76h0l0,.09-22.1,16.24-19.46,57.47s-12.18,22-14.9-5l-10.44-46.24Z"/><path class="cls-4" d="M1282.92,730.41s-11.5-7.19-21.39-3.81c0,0-48.48,28.08-65.18,74.41l-10.61,25.28,9.32,3.68,31-49.57s38.42-41.45,46.42-32.64Z"/><path class="cls-4" d="M1197.93,818.19c0,2.24-2.44,13.45-2.44,13.45l-18.35,11a2.21,2.21,0,0,1-2.25-2.17h0v-.1l6.91-6.66c-2.3,2.22-9.08-2.36-9.08-2.36l-2.38,9c0,2.25-2.28,0-2.28,0l.08-6.75-2.36,6.72c-2.3,2.22-2.28,0-2.28,0l2.36-6.71-2.3,2.22h0l-2.33,4.46h0c-2.31,2.22-2.28,0-2.28,0,2.54-22.45,29.82-17.63,29.82-17.63v-2.25"/><path class="cls-10" d="M1325,707.71s-6.56.59-8.9-2.76c0,0-5.69-1-7.15-6,0,0,3.5-6.43,11.52-2.06C1320.47,696.92,1328.5,701.29,1325,707.71Z"/><path class="cls-9" d="M1329.46,680.42l.16.67c.38,1.5,1.43,5.17,3.06,7l-5.74-3.54"/><path class="cls-19" d="M1312.61,656.32s10.72-5.67,16.11,10.16A18.4,18.4,0,0,1,1312.61,656.32Z"/><path class="cls-20" d="M1312.51,655.42s3.89,10.51,17,10.86C1329.47,666.28,1316.06,670.79,1312.51,655.42Z"/><path class="cls-19" d="M1341.18,673.11s10.15-6.65,17,8.6A18.39,18.39,0,0,1,1341.18,673.11Z"/><path class="cls-20" d="M1341,672.22s4.86,10.1,17.91,9.23C1358.91,681.45,1346,687.19,1341,672.22Z"/><path class="cls-5" d="M1265.88,725s-8.09-8.17-18.05-1.52c0,0-14.32,9-29.27,31.08,0,0,2.48,12.41,26.13,25.77C1244.69,780.32,1286.41,747,1265.88,725Z"/><path class="cls-5" d="M1302.91,747.54s-11.47,1.66-12,13.84c0,0-1.15,17.2,7.9,42.78,0,0,11.59,5.49,36.56-5.74C1335.38,798.42,1333,744.08,1302.91,747.54Z"/><path class="cls-4" d="M1207.16,838.79a52.58,52.58,0,0,0,29-32.64l2-28.37s39.59-36.62,20.27-57l20.9,5.29L1310,745.66l13.41,8.57s6.45,6.81.48,54.15c0,0-7.17,19.65-24.24,16.81l-29,32.64L1268.47,878S1229.43,879.94,1207.16,838.79Z"/><path class="cls-1" d="M1327.09,635.39s-62.77,32.36-25.56,81.8L1296.8,726s-34.74-41.31-8.52-81.84c0,0,18.91-35.35,43.78-26.6,0,0,51.42-11.15,55.25,45.45,0,0,5.76,19-26.83,62.94,0,0-8,32.06-32.22,30.51,0,0,.57,11.67-6.62,12.37,0,0,5.18,7.32-9.33,13.2,0,0,1.4,14.38-10.4,19.44,0,0-5.54,6.13-1.19,10.73,0,0-11.55-3.9-3-19.81,0,0,3.9-11.55,11.09-12.25,0,0-1.52-9.91,5.68-10.61,0,0-1.53-9.91,4.84-13.32,0,0-3.53-1.89-.7-7.19l-10.36-14.64,4.73-8.83s66.38-.88,38.63-68C1351.59,657.58,1348.42,642.25,1327.09,635.39Z"/><path class="cls-14" d="M1227.88,917.82c-20.13-12.86-49.19-31.64-62.63-40.79q-8-6-16.14-11.94c11.49-10.07,26.44-20.65,39.26-21.41,0,0,14-1.15,23.64-7.79a108.85,108.85,0,0,0,11.1,10.48c17.93,14.76,37.34,21.79,45.78,24.48C1268.89,870.85,1260,938.31,1227.88,917.82Z"/><path class="cls-18" d="M1252.71,839.52h0a1,1,0,0,1,.37,1.36h0l-.5.87a1,1,0,0,1-1.36.37h0a1,1,0,0,1-.37-1.36h0l.5-.87a1,1,0,0,1,1.36-.37Z"/><path class="cls-11" d="M1236.68,798l1.39-20.21s39.59-36.62,20.27-57l20.9,5.29,30.65,19.59,13.41,8.57s6.45,6.81.48,54.15c0,0-7.17,19.65-24.24,16.81"/><rect class="cls-4" x="1284.57" y="633.86" width="101.12" height="87.64" rx="35.27" ry="35.27" transform="translate(57.39 1458.19) rotate(-58.33)"/><path class="cls-4" d="M1303.05,714.67l-7,11.48-18.11-.61c10.7,38.29,40.16,24.77,40.16,24.77l-8.67-15.91,7.08-11.47"/><path class="cls-4" d="M1187.37,865.54s-64,42.8-80.11,62.26l-.5.23a103.79,103.79,0,0,1,8.82,13.8l83.9-51.86"/><path class="cls-4" d="M1141.06,924.09,1102,954.63s-13.34,12.6-17.55,7.25L1055,924.43s-2.33-24.08,25.87-5.11l7.37,9.37s5.3,11,13.48.25l26.73-20.9Z"/><path class="cls-13" d="M1080.86,919.32s-28.2-19-25.87,5.11l7.37,9.36Z"/><polygon class="cls-13" points="1095.11 933.61 1107.97 949.97 1112.49 946.67 1099.76 930.47 1095.11 933.61"/><path class="cls-13" d="M1097,958.8l-25.36-32.24-9.25,7.23,22.08,28.09S1087.83,966.19,1097,958.8Z"/><path class="cls-4" d="M1240.52,909.58s-12-23.3-27.43-11.86c0,0-59.44,42.14-73.91,61.26l-.47.22a111.24,111.24,0,0,1,9.28,13.49l78.15-51.09Z"/><path class="cls-4" d="M1171.62,955.23l-36,30s-12.19,12.38-16.55,7.15l-30.5-36.58s-3.59-23.59,24.69-5.09l7.63,9.15s5.73,10.72,13,.2l24.65-20.56Z"/><path class="cls-13" d="M1113.22,950.76s-28.28-18.5-24.69,5.09l7.62,9.15Z"/><polygon class="cls-13" points="1127.77 964.71 1141.09 980.69 1145.28 977.44 1132.08 961.62 1127.77 964.71"/><path class="cls-13" d="M1131,989.38l-26.27-31.5-8.54,7.12L1119,992.43S1122.55,996.64,1131,989.38Z"/><path class="cls-4" d="M1326.38,764.29s9.2,7.86,7.6,47.65l.68,5,16.51-34.75s2.23-20.59,6.52-26.26c0,0,5-7.79.65,12.09l10-8.53,9.94-8.44a2.2,2.2,0,0,1,1.44,2.76l0,.09-9.27,6.35-.72,2.13,12.84-9.89a2.2,2.2,0,0,1,1.44,2.76l0,.09-12.12,7.76-.72,2.13,12.12-7.76a2.2,2.2,0,0,1,1.43,2.76l0,.09-12.11,7.76-.72,2.13,8.54-4.22a2.19,2.19,0,0,1,1.44,2.76h0l0,.09-22.1,16.24-19.46,57.47s-12.18,22-14.9-5l-10.44-46.24Z"/><path class="cls-4" d="M1282.92,730.41s-11.5-7.19-21.39-3.81c0,0-48.48,28.08-65.18,74.41l-10.61,25.28,9.32,3.68,31-49.57s38.42-41.45,46.42-32.64Z"/><path class="cls-4" d="M1197.93,818.19c0,2.24-2.44,13.45-2.44,13.45l-18.35,11a2.21,2.21,0,0,1-2.25-2.17h0v-.1l6.91-6.66c-2.3,2.22-9.08-2.36-9.08-2.36l-2.38,9c0,2.25-2.28,0-2.28,0l.08-6.75-2.36,6.72c-2.3,2.22-2.28,0-2.28,0l2.36-6.71-2.3,2.22h0l-2.33,4.46h0c-2.31,2.22-2.28,0-2.28,0,2.54-22.45,29.82-17.63,29.82-17.63v-2.25"/><path class="cls-10" d="M1325,707.71s-6.56.59-8.9-2.76c0,0-5.69-1-7.15-6,0,0,3.5-6.43,11.52-2.06C1320.47,696.92,1328.5,701.29,1325,707.71Z"/><path class="cls-9" d="M1329.46,680.42l.16.67c.38,1.5,1.43,5.17,3.06,7l-5.74-3.54"/><path class="cls-19" d="M1312.61,656.32s10.72-5.67,16.11,10.16A18.4,18.4,0,0,1,1312.61,656.32Z"/><path class="cls-20" d="M1312.51,655.42s3.89,10.51,17,10.86C1329.47,666.28,1316.06,670.79,1312.51,655.42Z"/><path class="cls-19" d="M1341.18,673.11s10.15-6.65,17,8.6A18.39,18.39,0,0,1,1341.18,673.11Z"/><path class="cls-20" d="M1341,672.22s4.86,10.1,17.91,9.23C1358.91,681.45,1346,687.19,1341,672.22Z"/><path class="cls-4" d="M1207.16,838.79a52.58,52.58,0,0,0,29-32.64l2-28.37s39.59-36.62,20.27-57l20.9,5.29L1310,745.66l13.41,8.57s6.45,6.81.48,54.15c0,0-7.17,19.65-24.24,16.81l-29,32.64L1268.47,878S1229.43,879.94,1207.16,838.79Z"/><path class="cls-14" d="M1227.88,917.82c-20.13-12.86-49.19-31.64-62.63-40.79q-8-6-16.14-11.94c11.49-10.07,26.44-20.65,39.26-21.41,0,0,14-1.15,23.64-7.79a108.85,108.85,0,0,0,11.1,10.48c17.93,14.76,37.34,21.79,45.78,24.48C1268.89,870.85,1260,938.31,1227.88,917.82Z"/><path class="cls-18" d="M1252.71,839.52h0a1,1,0,0,1,.37,1.36h0l-.5.87a1,1,0,0,1-1.36.37h0a1,1,0,0,1-.37-1.36h0l.5-.87a1,1,0,0,1,1.36-.37Z"/><path class="cls-1" d="M1327.09,635.39s-62.77,32.36-25.56,81.8L1296.8,726s-34.74-41.31-8.52-81.84c0,0,18.91-35.35,43.78-26.6,0,0,51.42-11.15,55.25,45.45,0,0,5.76,19-26.83,62.94,0,0-8,32.06-32.22,30.51,0,0,.57,11.67-6.62,12.37,0,0,5.18,7.32-9.33,13.2,0,0,1.4,14.38-10.4,19.44,0,0-5.54,6.13-1.19,10.73,0,0-11.55-3.9-3-19.81,0,0,3.9-11.55,11.09-12.25,0,0-1.52-9.91,5.68-10.61,0,0-1.53-9.91,4.84-13.32,0,0-3.53-1.89-.7-7.19l-10.36-14.64,4.73-8.83s66.38-.88,38.63-68C1351.59,657.58,1348.42,642.25,1327.09,635.39Z"/><path class="cls-17" d="M1260.5,744.54l3.22,3-4.27,19s18.86,12.86,20.78,31.63c0,0-10.71,13.06-22.13,7.53,0,0-17.42-6.48-14-28.08Z"/><polygon class="cls-17" points="1260.41 744.29 1270.71 726.29 1273.86 727.58 1263.29 749.41 1259.42 746.73 1260.41 744.29"/><polygon class="cls-17" points="1238.18 778.49 1244.61 777.1 1243.8 785.75 1237.53 786.48 1238.18 778.49"/><path class="cls-17" d="M1324.75,783.82,1311.27,802s-9.54-10.32-31.42-3c0,0-.62,17.92,9.42,22.93,0,0,13.39,10.66,24.47,1.16,0,0,5.69-9.14,2.92-16l10.86-18.25"/><path class="cls-17" d="M1249.36,766.05S1234,777,1239,781l5.09.65Z"/><path class="cls-5" d="M1302.91,747.54s-11.47,1.66-12,13.84c0,0-1.15,17.2,7.9,42.78,0,0,11.59,5.49,36.56-5.74C1335.38,798.42,1333,744.08,1302.91,747.54Z"/><path class="cls-5" d="M1265.88,725s-8.09-8.17-18.05-1.52c0,0-14.32,9-29.27,31.08,0,0,2.48,12.41,26.13,25.77C1244.69,780.32,1286.41,747,1265.88,725Z"/><path class="cls-11" d="M1238.07,777.78s39.59-36.62,20.27-57l20.9,5.29,30.65,19.59,13.41,8.57s6.45,6.81.48,54.15a32.86,32.86,0,0,1-9.07,12.74Z"/><path class="cls-4" d="M241.6,1260.45a1.56,1.56,0,0,0,1.75-1.33s0-.09,0-.14l-7.5-17.4h0l0-.06-.18-.41h-.09l-.11-.18,0-.8h0l-4.77-27.86c-2.48-5.46-10.64-32.17-10.64-32.17l-.17-1.54-1.05-3.66c-3-30.09-10.79-35-10.79-35l-5.77,21.49L215.1,1195c.29,1.18.59,2.22.89,3.15v0l12.71,43.12c-1.36,4.09-4.51,14.13-3.92,18.32,0,0,.49,7,4.28-8l3.26,9.22,3.24,9.13a1.56,1.56,0,0,0,1.75-1.33s0-.09,0-.14l-3.5-7.48.25-1.7,4.5,11.1a1.55,1.55,0,0,0,1.75-1.33.57.57,0,0,0,0-.13l-4.76-9.41.26-1.7,4.76,9.41a1.55,1.55,0,0,0,1.74-1.33.66.66,0,0,0,0-.14l-4.75-9.41.25-1.7Z"/><path class="cls-4" d="M168.75,1030.86h0A33.27,33.27,0,0,1,202,1064.14v15.59A33.27,33.27,0,0,1,168.75,1113h0a33.28,33.28,0,0,1-33.28-33.28v-15.59A33.28,33.28,0,0,1,168.75,1030.86Z"/><path class="cls-4" d="M162.77,1110.81v10.24l-11.94,6.82c22.18,20.48,35.84,0,35.84,0l-11.95-6.82v-10.24"/><path class="cls-21" d="M173,1075s1.71-20.48,18.78-8.53C191.79,1066.44,190.08,1081.8,173,1075Z"/><circle class="cls-7" cx="182.4" cy="1069" r="5.97"/><path class="cls-6" d="M159.36,1075s-1.7-20.48-18.77-8.53C140.59,1066.44,142.3,1081.8,159.36,1075Z"/><circle class="cls-7" cx="149.98" cy="1069" r="5.97"/><path class="cls-1" d="M160.29,1110.81h2.48S161.22,1112.51,160.29,1110.81Z"/><ellipse class="cls-8" cx="184.62" cy="1066.26" rx="1.54" ry="1.36" transform="translate(-600.12 321.16) rotate(-36.66)"/><ellipse class="cls-8" cx="152.2" cy="1066.27" rx="1.54" ry="1.36" transform="translate(-606.54 301.8) rotate(-36.66)"/><path class="cls-10" d="M160.21,1092.89s5.12-3.41,8.54-1.71c0,0,5.12-1.7,8.53,1.71,0,0,0,6.83-8.53,6.83C168.75,1099.71,160.21,1099.71,160.21,1092.89Z"/><path class="cls-22" d="M162.77,1095.35s6.83-3.62,11.95,0C174.72,1095.35,167.9,1099,162.77,1095.35Z"/><path class="cls-4" d="M113.63,1252.08s-14.12,14.27-2.21,24.84c0,0,1.29.92,1-1.35l-1.61-3.18-.32-2.27,2.9,4.11s1.28.92,1-1.34l-2.9-4.11,3.86,2.76s2.25-.42,1-1.34l-4.18-5s5.46-2.19,5.13-4.45l1,6.79a1.56,1.56,0,0,0,2.19-.34h0a.35.35,0,0,1,0-.08l1.26-15.35s-.87-1-2-2.14a64.52,64.52,0,0,1-6.46,2.18Z"/><path class="cls-4" d="M140.59,1133s-10.24,0-13.65,17.07l-5.12,46.07s-5.12,3.42-8.53,54.61v1.15a64.56,64.56,0,0,0,5.71,4.3,72.23,72.23,0,0,0,1.11-7.15Z"/><path class="cls-5" d="M135.47,1133s-8.53-1.7-12,6.83c0,0-5.11,11.94-5.11,32.42,0,0,6.82,6.83,27.3,5.12C145.71,1177.36,157.66,1138.11,135.47,1133Z"/><path class="cls-11" d="M150.83,1228.56a39.66,39.66,0,0,0,5.12-32.43l-10.24-18.77S156,1138.11,135.47,1133l15.36-5.12h39.25s6.83,1.71,22.18,34.13c0,0,3.42,15.36-8.53,20.48l-5.12,32.43,6.83,13.65S181.55,1245.62,150.83,1228.56Z"/><path class="cls-4" d="M198.72,1294.51s15,37.46,8.81,75.33c0,0,4.3,45.1.38,59.61,0,0,4.73,15.36,5.48,20.4,0,0,9.3,19.52,7.22,28a17.81,17.81,0,0,1-13.07,6.18s-11-2.31-13-7.47l4-28.16-21.36-152.2"/><path class="cls-13" d="M195.8,1467.83h24.11s2.28,9.17.24,10.56c0,0-5.8,6.17-12,5.64,0,0-12.39-1.77-13.63-8Z"/><path class="cls-13" d="M198.28,1450.42a18.61,18.61,0,0,1,15.29-.18l.55,1.22a23.91,23.91,0,0,0-16,.33Z"/><path class="cls-4" d="M149.16,1296.32S137,1334.79,146,1372.1c0,0-.91,45.29,4.09,59.47,0,0-3.56,15.67-3.94,20.75,0,0-7.81,20.16-5.1,28.46a17.82,17.82,0,0,0,13.5,5.19s10.79-3.12,12.39-8.41l-6.11-27.78,9.9-153.46"/><path class="cls-13" d="M141.53,1468h23.31l2.16,9.49s-2.48,6.17-12.41,8.64c0,0-8.68,1.24-13.65-4.94C141,1481.15,139.63,1473.29,141.53,1468Z"/><path class="cls-13" d="M146.29,1451.18a20.28,20.28,0,0,1,14.82-.19l.23,1s-10.22-1.84-15.3.68Z"/><path class="cls-14" d="M206.2,1228.87a57.32,57.32,0,0,1-12.41,4.66c-19.06,4.67-35.54-1.9-42.54-5.25-4.49,8.73-8.83,18-13.35,27.67-6.8,14.52-13.83,30.4-14.81,35.86,0,0-3.13,9.13-6,27.76a27.31,27.31,0,0,1,4.85.56c31.65,6.78,64.92,2.69,97.07.24,5.51-.9,11-1.74,16.53-2.47-3.17-22.42-8.46-48.33-16.85-59.71A89.54,89.54,0,0,1,206.2,1228.87Z"/><path class="cls-23" d="M180.88,1235.12s3.86,20.77.49,29.35"/><path class="cls-3" d="M209.6,1240.32l-8.35,3.17s2.73,27.79,21.74,22.27"/><path class="cls-3" d="M144.74,1241.06l8.57,2.55s-.68,27.92-20.05,23.8"/><rect class="cls-24" x="176.3" y="1235.78" width="1.87" height="1.88" rx="0.15" ry="0.15" transform="translate(-1061.32 1400.67) rotate(-89.39)"/><path class="cls-5" d="M190.08,1127.87s3.41-1.7,10.24,0l15.36,15.36-8.89,7.8Z"/><path class="cls-1" d="M149.12,1039.13s-34.13,49.49,13.65,71.68v8.53s-42.66-17.06-39.25-58c0,0,0-34.13,22.19-37.54,0,0,34.13-29,59.73,11.94,0,0,11.94,12,5.12,58,0,0,6.82,27.3-11.95,35.84,0,0,5.12,8.53,0,12,0,0,6.83,3.41-1.7,13.65,0,0,6.82,10.24,0,18.77,0,0-1.71,6.83,3.41,8.53,0,0-10.24,1.71-10.24-13.65,0,0-1.71-10.24,3.41-13.65,0,0-5.12-6.83,0-10.24,0,0-5.12-6.83-1.7-12,0,0-3.42,0-3.42-5.12l-13.65-6.82v-8.54s49.49-27.3,1.71-66.55C176.43,1046,167.9,1035.72,149.12,1039.13Z"/><path class="cls-12" d="M159.36,1179.07s11.1,8,22.19,0C181.55,1179.07,170.46,1189.73,159.36,1179.07Z"/><path class="cls-12" d="M188.37,1180.78s9.39,5.12,18.78,0C207.15,1180.78,197.76,1187.6,188.37,1180.78Z"/><path class="cls-9" d="M166.19,1078.14l.37.37c.84.82,3,2.78,4.75,3.29h-5.12"/><path class="cls-4" d="M569.27,1448.6c-.75-5-5.48-20.39-5.48-20.39,2.65-9.82,1.54-33.63.55-48a88.06,88.06,0,0,1-18,9.2l8.11,57.76L551,1471.48c0-.1,0-.2.07-.29h0a25.64,25.64,0,0,1,1.12-5.2c5.42-4.14,13.64-2.13,13.64-2.13,5.6,1.87,8.44,4.43,9.83,6.18l.79,1.13c.1.17.17.31.24.44C575.74,1462.17,569.27,1448.6,569.27,1448.6Z"/><path class="cls-13" d="M551,1471.47a16.74,16.74,0,0,0-.59,4.93l.69.1a5.71,5.71,0,0,1-.65-1.19Z"/><path class="cls-13" d="M576.72,1472.08V1472c0-.12,0-.24,0-.37l-.24-.44a9.81,9.81,0,0,0-.79-1.12c-1.39-1.75-4.23-4.32-9.83-6.19,0,0-8.22-2-13.63,2.13a24.49,24.49,0,0,0-1.12,5.2h0c0,.1-.05.2-.08.29l-.55,3.84a6,6,0,0,0,.65,1.19,144,144,0,0,0,23.25,2.22,13.13,13.13,0,0,0,2.16-2.12A14.58,14.58,0,0,0,576.72,1472.08Z"/><path class="cls-4" d="M563.41,1368.59c6.21-37.87-8.81-75.33-8.81-75.33L533.09,1295l13.25,94.44a88,88,0,0,0,18-9.19C563.86,1373.32,563.41,1368.59,563.41,1368.59Z"/><path class="cls-13" d="M554.16,1449.17a18.6,18.6,0,0,1,15.3-.17l.55,1.21a23.94,23.94,0,0,0-16,.34Z"/><g class="cls-25"><path class="cls-26" d="M557.44,1386.06a.14.14,0,0,1,0,.06c.09.47-1.06,1.08-2.57,1.36s-2.8.12-2.89-.36a.06.06,0,0,1,0-.06c-.41.27-.64.55-.59.8.11.61,1.74.82,3.64.48s3.34-1.13,3.23-1.74C558.23,1386.34,557.92,1386.16,557.44,1386.06Z"/></g><path class="cls-4" d="M525,1021.7h0A33.28,33.28,0,0,1,558.28,1055h0v15.6A33.28,33.28,0,0,1,525,1103.85h0a33.28,33.28,0,0,1-33.28-33.28V1055A33.28,33.28,0,0,1,525,1021.7Z"/><path class="cls-4" d="M519,1101.65v10.23l-11.95,6.83c22.19,20.48,35.84,0,35.84,0L531,1111.88v-10.23"/><path class="cls-21" d="M529.27,1065.81s1.7-20.48,18.77-8.53C548,1057.28,546.33,1072.63,529.27,1065.81Z"/><circle class="cls-7" cx="538.65" cy="1059.83" r="5.97"/><path class="cls-6" d="M515.61,1065.81s-1.7-20.48-18.77-8.53C496.84,1057.28,498.55,1072.63,515.61,1065.81Z"/><circle class="cls-7" cx="506.23" cy="1059.83" r="5.97"/><path class="cls-1" d="M516.54,1101.65H519S517.47,1103.35,516.54,1101.65Z"/><ellipse class="cls-8" cx="540.87" cy="1057.1" rx="1.54" ry="1.36" transform="translate(-524.18 532.06) rotate(-36.66)"/><ellipse class="cls-8" cx="508.45" cy="1057.1" rx="1.54" ry="1.36" transform="translate(-530.59 512.7) rotate(-36.66)"/><path class="cls-10" d="M516.47,1083.73s5.12-3.42,8.53-1.71c0,0,5.12-1.71,8.53,1.71,0,0,0,6.82-8.53,6.82C525,1090.55,516.47,1090.55,516.47,1083.73Z"/><path class="cls-22" d="M519,1086.19s6.82-3.62,11.94,0C531,1086.19,524.15,1089.82,519,1086.19Z"/><path class="cls-4" d="M563.4,1132.36s8.53,3.42,17.07,32.43l1.7,3.41,3.42-29s-3.42-15.36-1.71-20.48c0,0,1.71-6.83,3.41,8.53l5.15-8.58,5.09-8.48a1.67,1.67,0,0,1,1.71,1.63v.07l-5.12,6.83v1.71l6.82-10.24a1.67,1.67,0,0,1,1.71,1.63v.07l-6.83,8.54v1.7l6.83-8.53a1.68,1.68,0,0,1,1.71,1.64v.07l-6.83,8.53v1.71l5.12-5.12a1.67,1.67,0,0,1,1.71,1.63v.07l-12,17.07v46.07s-3.41,18.78-11.95,0l-18.77-30.71Z"/><path class="cls-4" d="M496.84,1123.83s-10.24,0-13.65,17.07L478.07,1187s-5.12,3.41-8.53,54.61v1.71s-20.48-3.42-22.19,13.65c0,0,0,1.71,1.71,0h0l1.71-3.41h0l1.7-1.71-1.7,5.12s0,1.71,1.7,0l1.71-5.12v5.12s1.71,1.71,1.71,0l1.7-6.83s5.12,3.42,6.83,1.71l-5.12,5.12a1.67,1.67,0,0,0,1.63,1.71H461l13.65-8.54s1.7-8.53,1.7-10.24Z"/><path class="cls-5" d="M491.72,1123.83s-8.53-1.71-11.94,6.83c0,0-5.12,11.94-5.12,32.42,0,0,6.82,6.83,27.3,5.12C502,1168.2,513.91,1129,491.72,1123.83Z"/><path class="cls-11" d="M507.08,1219.4A39.63,39.63,0,0,0,512.2,1187L502,1168.2s10.24-39.25-10.24-44.37l15.36-5.12h39.25s6.83,1.71,22.19,34.13c0,0,3.41,15.36-8.54,20.48l-5.12,32.42,6.83,13.66S537.8,1236.46,507.08,1219.4Z"/><path class="cls-27" d="M507.89,1381.19l10.35-84.53-20.67-1.24s-12.63,34.12-8.33,69.95l-.13-.07c.08,3.23.23,7.31.48,11.71,0,.69-.09,1.42-.13,2.2l.28.23c.7,11,2.07,23.26,4.72,29.12,0,0-3.26,13.38-3.53,17.7,0,0-7.46,17.31-4.53,24.29,0,0,4.91,4.5,13.79,4,0,0,10.86-2.94,12.36-7.47l-6.81-23.4Z"/><path class="cls-13" d="M486.84,1437.2l23.61.85,1.87,9.16s-2.73,5.82-12.87,7.83c0,0-8.85.86-13.66-5.23C485.79,1449.81,484.73,1442.24,486.84,1437.2Z"/><path class="cls-13" d="M491.4,1424.76a22.34,22.34,0,0,1,15-.58l.26.94s-10.39-1.43-15.48,1Z"/><path class="cls-14" d="M478.21,1311c31.65,6.79,64.92,2.69,97.07.25,5.51-.9,11-1.74,16.53-2.47-3.17-22.42-8.46-48.33-16.85-59.72a89.4,89.4,0,0,1-12.51-29.31,56.78,56.78,0,0,1-12.41,4.65c-19.06,4.68-35.54-1.9-42.54-5.24-4.49,8.73-8.83,18-13.35,27.67-6.8,14.51-13.83,30.4-14.81,35.86,0,0-3.13,9.12-6,27.76A27.19,27.19,0,0,1,478.21,1311Z"/><path class="cls-23" d="M537.14,1226s3.85,20.77.48,29.35"/><path class="cls-3" d="M565.85,1231.16l-8.35,3.17s2.73,27.79,21.75,22.26"/><path class="cls-3" d="M501,1231.9l8.56,2.55s-.67,27.91-20,23.8"/><rect class="cls-24" x="532.55" y="1226.61" width="1.87" height="1.88" rx="0.15" ry="0.15" transform="translate(-699.72 1747.83) rotate(-89.39)"/><path class="cls-5" d="M546.33,1118.71s3.41-1.71,10.24,0l15.36,15.36-8.88,7.8Z"/><path class="cls-1" d="M505.38,1030s-34.14,49.49,13.65,71.67v8.54s-42.67-17.07-39.25-58c0,0,0-34.14,22.18-37.55,0,0,34.13-29,59.73,11.95,0,0,11.95,11.94,5.12,58,0,0,6.83,27.3-11.95,35.84,0,0,5.12,8.53,0,11.94,0,0,6.83,3.41-1.7,13.65,0,0,6.82,10.24,0,18.78,0,0-1.71,6.82,3.41,8.53,0,0-10.24,1.7-10.24-13.65,0,0-1.7-10.24,3.42-13.66,0,0-5.12-6.82,0-10.24,0,0-5.12-6.82-1.71-11.94,0,0-3.41,0-3.41-5.12L531,1111.88v-8.53s49.49-27.3,1.71-66.55C532.68,1036.8,524.15,1026.56,505.38,1030Z"/><path class="cls-12" d="M515.61,1169.91s11.1,8,22.19,0C537.8,1169.91,526.71,1180.57,515.61,1169.91Z"/><path class="cls-12" d="M544.63,1171.61s9.38,5.12,18.77,0C563.4,1171.61,554,1178.44,544.63,1171.61Z"/><path class="cls-9" d="M522.44,1069l.37.37c.84.82,3,2.77,4.75,3.28h-5.12"/><g class="cls-25"><path class="cls-26" d="M500.77,1379.22a.06.06,0,0,1,0,.06c-.08.48-1.37.66-2.88.4s-2.68-.84-2.6-1.31a.14.14,0,0,1,0-.06c-.48.11-.78.3-.83.55-.1.62,1.36,1.37,3.26,1.69s3.53.07,3.63-.54C501.42,1379.76,501.19,1379.48,500.77,1379.22Z"/></g><path class="cls-4" d="M946.09,1260.45a1.55,1.55,0,0,0,1.74-1.33s0-.09,0-.14l-7.5-17.4h0l0-.06-.18-.41h-.09l-.11-.18,0-.8h0l-4.77-27.86c-2.48-5.46-10.64-32.17-10.64-32.17l-.17-1.54-1-3.66c-3-30.09-10.79-35-10.79-35l-5.77,21.49L919.59,1195c.3,1.18.59,2.22.89,3.15v0l12.72,43.12c-1.36,4.09-4.51,14.13-3.92,18.32,0,0,.49,7,4.28-8l3.26,9.22,3.24,9.13a1.55,1.55,0,0,0,1.74-1.33.68.68,0,0,0,0-.14l-3.5-7.48.25-1.7,4.5,11.1a1.55,1.55,0,0,0,1.75-1.33s0-.09,0-.13l-4.76-9.41.25-1.7,4.76,9.41a1.56,1.56,0,0,0,1.75-1.33c0-.05,0-.09,0-.14l-4.76-9.41.25-1.7Z"/><rect class="cls-4" x="839.96" y="1030.86" width="66.55" height="82.16" rx="33.28" ry="33.28"/><path class="cls-4" d="M867.27,1110.81v10.24l-11.95,6.82c22.19,20.48,35.84,0,35.84,0l-11.95-6.82v-10.24"/><path class="cls-21" d="M877.51,1075s1.7-20.48,18.77-8.53C896.28,1066.44,894.57,1081.8,877.51,1075Z"/><circle class="cls-7" cx="886.89" cy="1069" r="5.97"/><path class="cls-6" d="M863.85,1075s-1.7-20.48-18.77-8.53C845.08,1066.44,846.79,1081.8,863.85,1075Z"/><circle class="cls-7" cx="854.47" cy="1069" r="5.97"/><path class="cls-1" d="M864.78,1110.81h2.49S865.71,1112.51,864.78,1110.81Z"/><ellipse class="cls-8" cx="889.11" cy="1066.27" rx="1.54" ry="1.36" transform="translate(-460.76 741.8) rotate(-36.66)"/><ellipse class="cls-8" cx="856.69" cy="1066.27" rx="1.54" ry="1.36" transform="translate(-467.18 722.44) rotate(-36.66)"/><path class="cls-10" d="M864.71,1092.89s5.12-3.41,8.53-1.71c0,0,5.12-1.7,8.53,1.71,0,0,0,6.83-8.53,6.83C873.24,1099.71,864.71,1099.71,864.71,1092.89Z"/><path class="cls-22" d="M867.27,1095.35s6.82-3.62,11.94,0C879.21,1095.35,872.39,1099,867.27,1095.35Z"/><path class="cls-4" d="M818.13,1252.08s-14.13,14.27-2.22,24.84c0,0,1.29.92,1-1.35l-1.61-3.18-.32-2.27,2.9,4.11s1.28.92,1-1.34l-2.9-4.11,3.86,2.76s2.25-.42,1-1.34l-4.18-5s5.46-2.19,5.13-4.45l1,6.79a1.56,1.56,0,0,0,2.19-.34h0a.35.35,0,0,1,0-.08l1.26-15.35s-.87-1-2-2.14a64.52,64.52,0,0,1-6.46,2.18Z"/><path class="cls-4" d="M845.08,1133s-10.24,0-13.65,17.07l-5.12,46.07s-5.12,3.42-8.53,54.61v1.15a68.17,68.17,0,0,0,5.71,4.3,66.78,66.78,0,0,0,1.11-7.15Z"/><path class="cls-5" d="M840,1133s-8.53-1.7-11.94,6.83c0,0-5.12,11.94-5.12,32.42,0,0,6.82,6.83,27.3,5.12C850.2,1177.36,862.15,1138.11,840,1133Z"/><path class="cls-11" d="M855.32,1228.56a39.66,39.66,0,0,0,5.12-32.43l-10.24-18.77S860.44,1138.11,840,1133l15.36-5.12h39.25s6.83,1.71,22.18,34.13c0,0,3.42,15.36-8.53,20.48l-5.12,32.43,6.83,13.65S886,1245.62,855.32,1228.56Z"/><path class="cls-4" d="M903.21,1294.51s15,37.46,8.81,75.33c0,0,4.3,45.1.38,59.61,0,0,4.73,15.36,5.48,20.4,0,0,9.3,19.52,7.22,28A17.81,17.81,0,0,1,912,1484s-11-2.31-13-7.47l4-28.16L881.7,1296.2"/><path class="cls-13" d="M900.29,1467.83h24.12s2.27,9.17.24,10.56c0,0-5.8,6.17-12,5.64,0,0-12.38-1.77-13.62-8Z"/><path class="cls-13" d="M902.77,1450.42a18.64,18.64,0,0,1,15.3-.18l.55,1.22a23.94,23.94,0,0,0-16,.33Z"/><path class="cls-4" d="M853.65,1296.32s-12.17,38.47-3.14,75.78c0,0-.91,45.29,4.09,59.47,0,0-3.56,15.67-3.93,20.75,0,0-7.82,20.16-5.1,28.46a17.8,17.8,0,0,0,13.5,5.19s10.78-3.12,12.38-8.41l-6.11-27.78,9.89-153.46"/><path class="cls-13" d="M846,1468h23.32l2.15,9.49s-2.48,6.17-12.4,8.64c0,0-8.69,1.24-13.65-4.94C845.44,1481.15,844.13,1473.29,846,1468Z"/><path class="cls-13" d="M850.78,1451.18a20.28,20.28,0,0,1,14.82-.19l.23,1s-10.22-1.84-15.3.68Z"/><path class="cls-14" d="M910.69,1228.87a57.32,57.32,0,0,1-12.41,4.66c-19.06,4.67-35.54-1.9-42.54-5.25-4.49,8.73-8.83,18-13.35,27.67-6.8,14.52-13.83,30.4-14.81,35.86,0,0-3.13,9.13-6,27.76a27.42,27.42,0,0,1,4.86.56c31.64,6.78,64.91,2.69,97.06.24,5.52-.9,11-1.74,16.53-2.47-3.17-22.42-8.46-48.33-16.85-59.71A89.54,89.54,0,0,1,910.69,1228.87Z"/><path class="cls-23" d="M885.38,1235.12s3.85,20.77.48,29.35"/><path class="cls-3" d="M914.09,1240.32l-8.35,3.17s2.73,27.79,21.75,22.27"/><path class="cls-3" d="M849.24,1241.06l8.56,2.55s-.67,27.92-20,23.8"/><rect class="cls-24" x="880.79" y="1235.77" width="1.87" height="1.88" rx="0.15" ry="0.15" transform="translate(-364.38 2105.11) rotate(-89.39)"/><path class="cls-5" d="M894.57,1127.87s3.42-1.7,10.24,0l15.36,15.36-8.88,7.8Z"/><path class="cls-1" d="M853.61,1039.13s-34.13,49.49,13.66,71.68v8.53s-42.67-17.06-39.25-58c0,0,0-34.13,22.18-37.54,0,0,34.13-29,59.73,11.94,0,0,12,12,5.12,58,0,0,6.83,27.3-11.95,35.84,0,0,5.12,8.53,0,12,0,0,6.83,3.41-1.7,13.65,0,0,6.82,10.24,0,18.77,0,0-1.71,6.83,3.41,8.53,0,0-10.24,1.71-10.24-13.65,0,0-1.7-10.24,3.42-13.65,0,0-5.12-6.83,0-10.24,0,0-5.12-6.83-1.71-12,0,0-3.41,0-3.41-5.12l-13.66-6.82v-8.54s49.49-27.3,1.71-66.55C880.92,1046,872.39,1035.72,853.61,1039.13Z"/><path class="cls-12" d="M863.85,1179.07s11.1,8,22.19,0C886,1179.07,875,1189.73,863.85,1179.07Z"/><path class="cls-12" d="M892.86,1180.78s9.39,5.12,18.78,0C911.64,1180.78,902.25,1187.6,892.86,1180.78Z"/><path class="cls-9" d="M870.68,1078.14l.37.37c.84.82,3,2.78,4.75,3.29h-5.12"/><g class="cls-25"><path class="cls-26" d="M907.59,1386.78l0,.06c.09.47-1.07,1.08-2.58,1.36s-2.8.12-2.89-.35v-.06c-.41.26-.63.54-.59.8.12.61,1.75.82,3.64.47s3.34-1.13,3.23-1.74C908.37,1387.07,908.06,1386.89,907.59,1386.78Z"/></g><g class="cls-25"><path class="cls-26" d="M862.93,1387.85v.06c-.09.47-1.39.62-2.89.33s-2.66-.91-2.57-1.39a.14.14,0,0,0,0-.06c-.47.1-.78.29-.83.54-.12.61,1.32,1.4,3.21,1.77s3.52.17,3.64-.44C863.56,1388.4,863.34,1388.12,862.93,1387.85Z"/></g><path class="cls-28" d="M1282.11,1226.54,1282,1224l-1.12-3.7-3.71-19.85-.14-.44,0-.23a2,2,0,0,0-.1-.21l-9.77-30.09-.78-2.85c-2.63-30.12-10.32-35.15-10.32-35.15l-6,21.41L1262,1186c0,.32.06.53.06.53l1.06,3.39c0,.07,0,.14.07.21l10.61,33.75c-1.5,4.28-3.43,10.58-3.17,13.9,0,0,.12,6.9,4.06-6.73l2.42,9.7,2.4,9.6s1.29.58,1.58-1l-2.7-8.07.3-1.58,3.41,11.81s1.29.59,1.58-1l-3.7-10.23.3-1.58,3.7,10.23s1.29.59,1.58-1l-3.7-10.23.3-1.58,3,6.49s1.29.59,1.58-1Z"/><path class="cls-4" d="M1179.72,1185.67l1.26-7.14,9.18-52s-10.24,0-13.65,17.07l-4.82,43.34-.26,2.36,0,.38a2.78,2.78,0,0,0-.64.91,5.58,5.58,0,0,0,.89,2.55c.13.19.27.38.42.56a5.57,5.57,0,1,0,8.47-7.23,5.3,5.3,0,0,0-.72-.7l-.09-.07Z"/><path class="cls-4" d="M1218.32,1024.37h0a33.28,33.28,0,0,1,33.27,33.28v15.6a33.28,33.28,0,0,1-33.27,33.27h0a33.28,33.28,0,0,1-33.28-33.27v-15.6A33.28,33.28,0,0,1,1218.32,1024.37Z"/><path class="cls-4" d="M1212.34,1104.32v10.24l-11.94,6.82c22.18,20.48,35.83,0,35.83,0l-11.94-6.82v-10.24"/><path class="cls-21" d="M1222.58,1068.48s1.71-20.48,18.77-8.53C1241.35,1060,1239.65,1075.31,1222.58,1068.48Z"/><circle class="cls-7" cx="1231.97" cy="1062.51" r="5.97"/><path class="cls-6" d="M1208.93,1068.48s-1.71-20.48-18.77-8.53C1190.16,1060,1191.86,1075.31,1208.93,1068.48Z"/><circle class="cls-7" cx="1199.55" cy="1062.51" r="5.97"/><path class="cls-1" d="M1209.86,1104.32h2.48S1210.79,1106,1209.86,1104.32Z"/><ellipse class="cls-8" cx="1234.19" cy="1059.78" rx="1.54" ry="1.36" transform="translate(-388.63 946.55) rotate(-36.66)"/><ellipse class="cls-8" cx="1201.77" cy="1059.78" rx="1.54" ry="1.36" transform="translate(-395.04 927.19) rotate(-36.66)"/><path class="cls-10" d="M1209.78,1086.4s5.12-3.41,8.54-1.71c0,0,5.12-1.7,8.53,1.71,0,0,0,6.83-8.53,6.83C1218.32,1093.23,1209.78,1093.23,1209.78,1086.4Z"/><path class="cls-22" d="M1212.34,1088.86s6.83-3.62,12,0C1224.29,1088.86,1217.46,1092.49,1212.34,1088.86Z"/><path class="cls-5" d="M1185,1126.5s-8.53-1.71-12,6.83c0,0-5.12,11.94-5.12,32.42,0,0,6.83,6.83,27.3,5.12C1195.28,1170.87,1207.22,1131.62,1185,1126.5Z"/><path class="cls-11" d="M1261.83,1155.51c-15.36-32.42-22.18-34.13-22.18-34.13H1200.4L1185,1126.5c20.48,5.12,10.24,44.37,10.24,44.37l10.24,18.78a39.63,39.63,0,0,1-5.12,32.42c30.72,17.06,54.61,0,54.61,0l-6.83-13.65,5.12-32.43C1265.25,1170.87,1261.83,1155.51,1261.83,1155.51Z"/><path class="cls-4" d="M1260,1376.19c6.12-48.91-8.68-97.28-8.68-97.28l-21.19,2.18,11.45,107a80.84,80.84,0,0,0,19.34,3.18C1260.41,1382.33,1260,1376.19,1260,1376.19Z"/><path class="cls-4" d="M1260,1418.51c2.64-6.49,1.54-22.22.55-31.75a158.73,158.73,0,0,1-19.6-1.62l9.72,45.91-4,18.64c2,3.41,13,4.94,13,4.94,8.75-.26,13-4.09,13-4.09,2.08-5.61-7.21-18.54-7.21-18.54C1264.75,1428.67,1260,1418.51,1260,1418.51Z"/><path class="cls-13" d="M1247.94,1443.91H1272s2.27,6.06.24,7c0,0-5.8,4.08-12,3.73,0,0-12.37-1.17-13.61-5.26Z"/><path class="cls-13" d="M1250.41,1432.38a27.26,27.26,0,0,1,15.27-.11l.55.8a35.34,35.34,0,0,0-16,.22Z"/><path class="cls-29" d="M1213,1458.62l-2.6-68.83h-.08l5.3-77h-23s-12.85,38.07-3.49,75.18H1189a1.07,1.07,0,0,0,.07.19s3.75,41.94,10.56,54.59c0,0-2.18,14.8-2,19.52,0,0-3.7,11.45-3.7,20.12,9.43,1.16,19.1,2.06,28.46,1.12Z"/><path class="cls-13" d="M1222.32,1483.51l-3.25-8.45-24.92,2.1a16.17,16.17,0,0,0-.47,5.23C1203.17,1483.56,1212.9,1484.47,1222.32,1483.51Z"/><path class="cls-13" d="M1194.12,1477.76a25.1,25.1,0,0,1,1-5.84c5.26-4.34,13.55-2.64,13.55-2.64C1218,1472,1220,1477,1220,1477l0,.1C1211.41,1476.21,1202.65,1476.88,1194.12,1477.76Z"/><path class="cls-13" d="M1196.34,1461.23a24.7,24.7,0,0,1,15.83-1.52l.34.93s-11.11-.78-16.29,2Z"/><path class="cls-14" d="M1268.28,1251.7a89.19,89.19,0,0,1-12.51-29.31,56.67,56.67,0,0,1-12.42,4.65c-19,4.68-35.53-1.9-42.53-5.24-4.49,8.72-8.83,18-13.35,27.66-6.8,14.52-13.84,30.4-14.81,35.86,0,0-3.14,9.13-6,27.77a27.3,27.3,0,0,1,4.86.55c31.65,6.78,64.92,2.69,97.07.25,5.51-.9,11-1.74,16.53-2.47C1282,1289,1276.66,1263.08,1268.28,1251.7Z"/><path class="cls-23" d="M1230.45,1228.63s3.86,20.77.49,29.35"/><path class="cls-3" d="M1259.17,1233.83l-8.36,3.17s2.74,27.79,21.75,22.27"/><path class="cls-3" d="M1194.31,1234.57l8.57,2.55s-.68,27.92-20.05,23.8"/><rect class="cls-24" x="1225.86" y="1229.28" width="1.87" height="1.88" rx="0.15" ry="0.15" transform="translate(-16.52 2443.75) rotate(-89.39)"/><path class="cls-5" d="M1239.65,1121.38s3.41-1.7,10.24,0l15.36,15.36-8.89,7.8Z"/><path class="cls-1" d="M1198.69,1032.65s-34.13,49.48,13.65,71.67v8.53s-42.66-17.06-39.25-58c0,0,0-34.13,22.19-37.54,0,0,34.13-29,59.73,11.94,0,0,11.94,12,5.12,58,0,0,6.82,27.31-12,35.84,0,0,5.12,8.53,0,12,0,0,6.83,3.41-1.71,13.65,0,0,6.83,10.24,0,18.77,0,0-1.7,6.83,3.42,8.53,0,0-10.24,1.71-10.24-13.65,0,0-1.71-10.24,3.41-13.65,0,0-5.12-6.83,0-10.24,0,0-5.12-6.83-1.71-12,0,0-3.41,0-3.41-5.12l-13.65-6.82V1106s49.49-27.3,1.71-66.55C1226,1039.47,1217.46,1029.23,1198.69,1032.65Z"/><path class="cls-12" d="M1208.93,1172.58s11.09,8,22.18,0C1231.11,1172.58,1220,1183.24,1208.93,1172.58Z"/><path class="cls-12" d="M1237.94,1174.29s9.39,5.12,18.77,0C1256.71,1174.29,1247.33,1181.11,1237.94,1174.29Z"/><path class="cls-9" d="M1215.76,1071.65l.37.37c.84.82,3,2.78,4.75,3.29h-5.12"/><path class="cls-4" d="M1227.77,1140.58c-.32-1.24-2.93-.56-2.93-.56l-6.86,5.76c2.28-1.92-3.9-4.31-3.9-4.31l10.12-4c2.61-.68-.33-1.25-.33-1.25l-7.83,2,7.51-3.27c2.29-1.93-.32-1.25-.32-1.25l-7.51,3.28,2.29-1.93,4.9-2.6c2.28-1.92-.33-1.24-.33-1.24-20.8,6.46-18.9,16.56-17.39,20.22h0l-1.47,1.25a24.67,24.67,0,0,0-1.81,2.27L1181,1178.53l-1.26,7.13a5.56,5.56,0,0,1,1.93,5.92c5.44-5.84,13.94-16.16,26.95-34.43l.08-.13c4.18-1.47,8.62-3.08,8.62-3.08Z"/><g class="cls-25"><path class="cls-26" d="M1252.26,1381.44v.07c-.1.47-1.41.6-2.91.28s-2.63-1-2.54-1.43l0-.06c-.48.1-.8.27-.85.52-.13.61,1.3,1.43,3.18,1.82s3.52.23,3.65-.38C1252.87,1382,1252.66,1381.72,1252.26,1381.44Z"/></g><g class="cls-25"><path class="cls-26" d="M1202.45,1389.64a.06.06,0,0,1,0,.06c0,.48-1.33.73-2.85.56s-2.72-.7-2.67-1.18a.14.14,0,0,1,0-.06c-.47.14-.77.34-.8.6-.07.62,1.43,1.29,3.35,1.51s3.52-.11,3.6-.73C1203.12,1390.14,1202.88,1389.88,1202.45,1389.64Z"/></g><rect class="cls-4" x="137.62" y="1518.53" width="68.43" height="84.47" rx="34.21" ry="34.21"/><path class="cls-4" d="M165.69,1600.73v10.53l-12.28,7c22.81,21,36.85,0,36.85,0l-12.29-7v-10.53"/><path class="cls-21" d="M176.22,1563.89s1.75-21.06,19.3-8.78C195.52,1555.11,193.76,1570.91,176.22,1563.89Z"/><circle class="cls-7" cx="185.87" cy="1557.75" r="6.14"/><path class="cls-6" d="M162.18,1563.89s-1.75-21.06-19.3-8.78C142.88,1555.11,144.64,1570.91,162.18,1563.89Z"/><circle class="cls-7" cx="152.53" cy="1557.75" r="6.14"/><path class="cls-1" d="M163.14,1600.73h2.55S164.09,1602.49,163.14,1600.73Z"/><ellipse class="cls-8" cx="188.15" cy="1554.94" rx="1.58" ry="1.4" transform="translate(-891.18 419.92) rotate(-36.66)"/><ellipse class="cls-8" cx="154.81" cy="1554.93" rx="1.58" ry="1.4" transform="translate(-897.77 400.01) rotate(-36.66)"/><path class="cls-10" d="M163.06,1585.29s3.94-4.29,8.77-1c0,0,5.17-2.28,8.78,1,0,0,0,4-8.78,4C171.83,1589.33,163.06,1589.33,163.06,1585.29Z"/><path class="cls-4" d="M211.31,1632.31s8.77,3.51,17.55,33.34l1.75,3.51,3.51-29.83s-3.51-15.79-1.76-21c0,0,1.76-7,3.51,8.77l5.3-8.82,5.23-8.72a1.72,1.72,0,0,1,1.76,1.68v.07l-5.27,7V1620l7-10.52a1.72,1.72,0,0,1,1.76,1.68v.07l-7,8.77v1.76l7-8.78a1.72,1.72,0,0,1,1.75,1.69h0v.07l-7,8.77v1.76l5.27-5.27a1.72,1.72,0,0,1,1.75,1.69h0v.07l-12.28,17.54v47.38s-3.51,19.3-12.28,0l-19.3-31.59Z"/><path class="cls-4" d="M142.88,1623.54s-10.53,0-14,17.55l-5.27,47.37s-5.26,3.51-8.77,56.15v1.75s-21.06-3.51-22.81,14c0,0,0,1.75,1.75,0h0l1.76-3.51h0l1.75-1.76-1.75,5.27s0,1.75,1.75,0l1.71-5.23v5.27s1.75,1.75,1.75,0l1.76-7s5.26,3.51,7,1.75l-5.27,5.27a1.72,1.72,0,0,0,1.69,1.75H106l14-8.77s1.76-8.77,1.76-10.53Z"/><path class="cls-5" d="M137.62,1623.54s-8.77-1.75-12.28,7c0,0-5.27,12.28-5.27,33.34,0,0,7,7,28.08,5.26C148.15,1669.16,160.43,1628.81,137.62,1623.54Z"/><path class="cls-11" d="M153.41,1721.8a40.74,40.74,0,0,0,5.26-33.34l-10.52-19.3s10.52-40.35-10.53-45.62l15.79-5.26h40.35s7,1.75,22.81,35.09c0,0,3.51,15.79-8.77,21l-5.26,33.34,7,14S185,1739.34,153.41,1721.8Z"/><path class="cls-4" d="M202.64,1789.61s15.45,38.51,9.06,77.45c0,0,4.43,46.37.4,61.29,0,0,4.86,15.79,5.63,21,0,0,9.56,20.07,7.43,28.79a18.3,18.3,0,0,1-13.44,6.35s-11.31-2.37-13.35-7.68l4.12-29-22-156.49"/><path class="cls-13" d="M199.65,1967.81h24.79s2.34,9.42.25,10.86c0,0-6,6.34-12.33,5.79,0,0-12.73-1.82-14-8.17Z"/><path class="cls-13" d="M202.2,1949.9a19.11,19.11,0,0,1,15.72-.17l.57,1.24a24.63,24.63,0,0,0-16.49.35Z"/><path class="cls-4" d="M151.69,1796.78s-12.51,39.56-3.23,77.91c0,0-.93,46.57,4.21,61.15,0,0-3.66,16.11-4,21.33,0,0-8,20.73-5.24,29.27a18.34,18.34,0,0,0,13.88,5.33s11.09-3.21,12.73-8.65l-6.28-28.56,10.17-157.78"/><path class="cls-13" d="M143.85,1973.25h24L170,1983s-2.55,6.35-12.76,8.89c0,0-8.93,1.27-14-5.08C143.25,1986.82,141.9,1978.73,143.85,1973.25Z"/><path class="cls-13" d="M148.74,1956a20.83,20.83,0,0,1,15.24-.2l.23,1s-10.51-1.88-15.73.71Z"/><path class="cls-14" d="M123.73,1815.94c32.54,7,66.74,2.77,99.8.26,5.67-.93,11.33-1.8,17-2.54-3.26-23.06-8.7-49.7-17.32-61.4a91.63,91.63,0,0,1-12.86-30.14,58.13,58.13,0,0,1-12.77,4.78c-19.59,4.82-36.53-2-43.73-5.39-4.61,9-9.08,18.52-13.72,28.45-7,14.93-14.23,31.26-15.23,36.87,0,0-3.22,9.38-6.15,28.55A27.82,27.82,0,0,1,123.73,1815.94Z"/><path class="cls-23" d="M184.31,1728.55s4,21.35.5,30.17"/><path class="cls-3" d="M213.83,1733.89l-8.58,3.26s2.81,28.57,22.36,22.89"/><path class="cls-3" d="M147.15,1734.65l8.81,2.63s-.69,28.69-20.61,24.46"/><rect class="cls-24" x="179.57" y="1729.22" width="1.92" height="1.93" rx="0.15" ry="0.15" transform="translate(-1551.51 1891.99) rotate(-89.38)"/><path class="cls-5" d="M193.76,1618.28s3.51-1.76,10.53,0l15.79,15.79-9.13,8Z"/><path class="cls-1" d="M151.66,1527s-35.1,50.88,14,73.69v8.78s-43.83-17.47-40.32-59.62c0,0,0-35.09,22.81-38.6,0,0,35.09-29.83,61.41,12.28,0,0,12.28,12.28,5.26,59.66,0,0,7,28.07-12.28,36.84,0,0,5.26,8.78,0,12.28,0,0,7,3.51-1.76,14,0,0,7,10.53,0,19.3,0,0-1.75,7,3.51,8.77,0,0-10.53,1.76-10.53-14,0,0-1.75-10.53,3.51-14,0,0-5.26-7,0-10.53,0,0-5.26-7-1.75-12.28,0,0-3.51,0-3.51-5.26l-14-7v-8.77s50.89-28.08,1.76-68.43C179.73,1534.06,171,1523.53,151.66,1527Z"/><path class="cls-12" d="M162.18,1670.92s11.41,8.22,22.81,0C185,1670.92,173.59,1681.88,162.18,1670.92Z"/><path class="cls-12" d="M192,1672.67s9.65,5.26,19.3,0C211.31,1672.67,201.66,1679.69,192,1672.67Z"/><path class="cls-9" d="M169.2,1567.15l.38.38c.87.84,3.07,2.85,4.88,3.38H169.2"/><rect class="cls-4" x="487.62" y="1518.53" width="68.43" height="84.47" rx="34.21" ry="34.21"/><path class="cls-4" d="M515.69,1600.73v10.53l-12.28,7c22.81,21,36.85,0,36.85,0l-12.29-7v-10.53"/><path class="cls-21" d="M526.22,1563.89s1.75-21.06,19.3-8.78C545.52,1555.11,543.76,1570.91,526.22,1563.89Z"/><circle class="cls-7" cx="535.87" cy="1557.75" r="6.14"/><path class="cls-6" d="M512.18,1563.89s-1.75-21.06-19.3-8.78C492.88,1555.11,494.64,1570.91,512.18,1563.89Z"/><circle class="cls-7" cx="502.53" cy="1557.75" r="6.14"/><path class="cls-1" d="M513.14,1600.73h2.55S514.09,1602.49,513.14,1600.73Z"/><ellipse class="cls-8" cx="538.16" cy="1554.94" rx="1.58" ry="1.4" transform="translate(-821.95 628.89) rotate(-36.66)"/><ellipse class="cls-8" cx="504.81" cy="1554.94" rx="1.58" ry="1.4" transform="translate(-828.54 608.98) rotate(-36.66)"/><path class="cls-10" d="M513.06,1582.31s5.26-3.51,8.77-1.75c0,0,5.27-1.76,8.78,1.75,0,0,0,7-8.78,7C521.83,1589.33,513.06,1589.33,513.06,1582.31Z"/><path class="cls-22" d="M515.69,1584.84s7-3.72,12.28,0C528,1584.84,521,1588.57,515.69,1584.84Z"/><path class="cls-4" d="M561.31,1632.31s8.77,3.51,17.55,33.34l1.75,3.51,3.51-29.83s-3.51-15.79-1.76-21c0,0,1.76-7,3.51,8.77l5.3-8.82,5.23-8.72a1.72,1.72,0,0,1,1.76,1.68v.07l-5.27,7V1620l7-10.52a1.72,1.72,0,0,1,1.76,1.68v.07l-7,8.77v1.76l7-8.78a1.72,1.72,0,0,1,1.75,1.69h0v.07l-7,8.77v1.76l5.27-5.27a1.72,1.72,0,0,1,1.75,1.69h0v.07l-12.28,17.54v47.38s-3.51,19.3-12.28,0l-19.3-31.59Z"/><path class="cls-4" d="M492.88,1623.54s-10.53,0-14,17.55l-5.27,47.37s-5.26,3.51-8.77,56.15v1.75s-21.06-3.51-22.81,14c0,0,0,1.75,1.75,0h0l1.76-3.51h0l1.75-1.76-1.75,5.27s0,1.75,1.75,0l1.76-5.27v5.27s1.75,1.75,1.75,0l1.76-7s5.26,3.51,7,1.75l-5.27,5.27a1.72,1.72,0,0,0,1.69,1.75h.07l14-8.77s1.76-8.77,1.76-10.53Z"/><path class="cls-5" d="M487.62,1623.54s-8.77-1.75-12.28,7c0,0-5.27,12.28-5.27,33.34,0,0,7,7,28.08,5.26C498.15,1669.16,510.43,1628.81,487.62,1623.54Z"/><path class="cls-11" d="M503.41,1721.8a40.74,40.74,0,0,0,5.26-33.34l-10.52-19.3s10.52-40.35-10.53-45.62l15.79-5.26h40.35s7,1.75,22.81,35.09c0,0,3.51,15.79-8.77,21l-5.26,33.34,7,14S535,1739.34,503.41,1721.8Z"/><path class="cls-4" d="M552.64,1789.61s15.45,38.51,9.06,77.45c0,0,4.43,46.37.4,61.29,0,0,4.86,15.79,5.63,21,0,0,9.56,20.07,7.43,28.79a18.3,18.3,0,0,1-13.44,6.35s-11.31-2.37-13.35-7.68l4.12-29-22-156.49"/><path class="cls-13" d="M549.65,1967.81h24.79s2.34,9.42.25,10.86c0,0-6,6.34-12.33,5.79,0,0-12.73-1.82-14-8.17Z"/><path class="cls-13" d="M552.2,1949.9a19.11,19.11,0,0,1,15.72-.17l.57,1.24a24.63,24.63,0,0,0-16.49.35Z"/><path class="cls-4" d="M501.69,1796.78s-12.51,39.56-3.23,77.91c0,0-.93,46.57,4.21,61.15,0,0-3.66,16.11-4.05,21.33,0,0-8,20.73-5.24,29.27a18.34,18.34,0,0,0,13.88,5.33s11.09-3.21,12.73-8.65l-6.28-28.56,10.17-157.78"/><path class="cls-13" d="M493.85,1973.25h24L520,1983s-2.55,6.35-12.76,8.89c0,0-8.93,1.27-14-5.08C493.25,1986.82,491.9,1978.73,493.85,1973.25Z"/><path class="cls-13" d="M498.74,1956a20.83,20.83,0,0,1,15.24-.2l.23,1s-10.51-1.88-15.73.71Z"/><path class="cls-14" d="M473.73,1815.94c32.54,7,66.74,2.77,99.8.26,5.67-.93,11.33-1.8,17-2.54-3.26-23.06-8.7-49.7-17.32-61.4a91.63,91.63,0,0,1-12.86-30.14,58.13,58.13,0,0,1-12.77,4.78c-19.59,4.82-36.53-2-43.73-5.39-4.61,9-9.08,18.52-13.72,28.45-7,14.93-14.23,31.26-15.23,36.87,0,0-3.22,9.38-6.15,28.55A27.82,27.82,0,0,1,473.73,1815.94Z"/><path class="cls-23" d="M534.31,1728.55s4,21.35.5,30.17"/><path class="cls-3" d="M563.83,1733.89l-8.58,3.26s2.81,28.57,22.36,22.89"/><path class="cls-3" d="M497.15,1734.65l8.81,2.63s-.69,28.69-20.61,24.46"/><rect class="cls-24" x="529.57" y="1729.26" width="1.92" height="1.93" rx="0.15" ry="0.15" transform="translate(-1205.33 2242.01) rotate(-89.38)"/><path class="cls-5" d="M543.76,1618.28s3.51-1.76,10.53,0l15.79,15.79-9.13,8Z"/><path class="cls-1" d="M501.66,1527s-35.1,50.88,14,73.69v8.78s-43.83-17.47-40.32-59.62c0,0,0-35.09,22.81-38.6,0,0,35.09-29.83,61.41,12.28,0,0,12.28,12.28,5.26,59.66,0,0,7,28.07-12.28,36.84,0,0,5.26,8.78,0,12.28,0,0,7,3.51-1.76,14,0,0,7,10.53,0,19.3,0,0-1.75,7,3.51,8.77,0,0-10.53,1.76-10.53-14,0,0-1.75-10.53,3.51-14,0,0-5.26-7,0-10.53,0,0-5.26-7-1.75-12.28,0,0-3.51,0-3.51-5.26l-14-7v-8.77s50.89-28.08,1.76-68.43C529.73,1534.06,521,1523.53,501.66,1527Z"/><path class="cls-12" d="M512.18,1670.92s11.41,8.22,22.81,0C535,1670.92,523.59,1681.88,512.18,1670.92Z"/><path class="cls-12" d="M542,1672.67s9.65,5.26,19.3,0C561.31,1672.67,551.66,1679.69,542,1672.67Z"/><path class="cls-9" d="M519.2,1567.15l.38.38c.87.84,3.07,2.85,4.88,3.38H519.2"/><rect class="cls-4" x="837.62" y="1518.53" width="68.43" height="84.47" rx="34.21" ry="34.21"/><path class="cls-4" d="M865.69,1600.73v10.53l-12.28,7c22.81,21,36.85,0,36.85,0l-12.29-7v-10.53"/><path class="cls-21" d="M876.22,1563.89s1.75-21.06,19.3-8.78C895.52,1555.11,893.76,1570.91,876.22,1563.89Z"/><circle class="cls-7" cx="885.87" cy="1557.75" r="6.14"/><path class="cls-6" d="M862.18,1563.89s-1.75-21.06-19.3-8.78C842.88,1555.11,844.64,1570.91,862.18,1563.89Z"/><circle class="cls-7" cx="852.53" cy="1557.75" r="6.14"/><path class="cls-1" d="M863.14,1600.73h2.55S864.09,1602.49,863.14,1600.73Z"/><ellipse class="cls-8" cx="888.15" cy="1554.95" rx="1.58" ry="1.4" transform="translate(-752.72 837.87) rotate(-36.66)"/><ellipse class="cls-8" cx="854.82" cy="1554.95" rx="1.58" ry="1.4" transform="translate(-759.32 817.96) rotate(-36.66)"/><path class="cls-10" d="M862.06,1582.75s5.68-3.79,9.47-1.89c0,0,5.68-1.9,9.47,1.89,0,0,0,7.58-9.47,7.58C871.53,1590.33,862.06,1590.33,862.06,1582.75Z"/><path class="cls-22" d="M865.69,1585.25s7-5.06,12.28,0C878,1585.25,871,1590.31,865.69,1585.25Z"/><path class="cls-4" d="M911.31,1632.31s8.77,3.51,17.55,33.34l1.75,3.51,3.51-29.83s-3.51-15.79-1.76-21c0,0,1.76-7,3.51,8.77l5.3-8.82,5.23-8.72a1.72,1.72,0,0,1,1.76,1.68v.07l-5.27,7V1620l7-10.52a1.72,1.72,0,0,1,1.76,1.68v.07l-7,8.77v1.76l7-8.78a1.72,1.72,0,0,1,1.75,1.69h0v.07l-7,8.77v1.76l5.27-5.27a1.72,1.72,0,0,1,1.75,1.69h0v.07l-12.28,17.54v47.38s-3.51,19.3-12.28,0l-19.3-31.59Z"/><path class="cls-4" d="M842.88,1623.54s-10.53,0-14,17.55l-5.27,47.37s-5.26,3.51-8.77,56.15v1.75s-21.06-3.51-22.81,14c0,0,0,1.75,1.75,0h0l1.76-3.51h0l1.75-1.76-1.75,5.27s0,1.75,1.75,0l1.76-5.27v5.27s1.75,1.75,1.75,0l1.76-7s5.26,3.51,7,1.75l-5.27,5.27a1.72,1.72,0,0,0,1.69,1.75h.07l14-8.77s1.76-8.77,1.76-10.53Z"/><path class="cls-5" d="M837.62,1623.54s-8.77-1.75-12.28,7c0,0-5.27,12.28-5.27,33.34,0,0,7,7,28.08,5.26C848.15,1669.16,860.43,1628.81,837.62,1623.54Z"/><path class="cls-11" d="M853.41,1721.8a40.74,40.74,0,0,0,5.26-33.34l-10.52-19.3s10.52-40.35-10.53-45.62l15.79-5.26h40.35s7,1.75,22.81,35.09c0,0,3.51,15.79-8.77,21l-5.26,33.34,7,14S885,1739.34,853.41,1721.8Z"/><path class="cls-4" d="M902.64,1789.61s15.45,38.51,9.06,77.45c0,0,4.43,46.37.4,61.29,0,0,4.86,15.79,5.63,21,0,0,9.56,20.07,7.43,28.79a18.3,18.3,0,0,1-13.44,6.35s-11.31-2.37-13.35-7.68l4.12-29-22-156.49"/><path class="cls-13" d="M899.65,1967.81h24.79s2.34,9.42.25,10.86c0,0-6,6.34-12.33,5.79,0,0-12.73-1.82-14-8.17Z"/><path class="cls-13" d="M902.2,1949.9a19.11,19.11,0,0,1,15.72-.17l.57,1.24a24.63,24.63,0,0,0-16.49.35Z"/><path class="cls-4" d="M851.69,1796.78s-12.51,39.56-3.23,77.91c0,0-.93,46.57,4.21,61.15,0,0-3.66,16.11-4,21.33,0,0-8,20.73-5.24,29.27a18.34,18.34,0,0,0,13.88,5.33s11.09-3.21,12.73-8.65l-6.28-28.56,10.17-157.78"/><path class="cls-13" d="M843.85,1973.25h24L870,1983s-2.55,6.35-12.76,8.89c0,0-8.93,1.27-14-5.08C843.25,1986.82,841.9,1978.73,843.85,1973.25Z"/><path class="cls-13" d="M848.74,1956a20.83,20.83,0,0,1,15.24-.2l.23,1s-10.51-1.88-15.73.71Z"/><path class="cls-14" d="M823.73,1815.94c32.54,7,66.74,2.77,99.8.26,5.67-.93,11.33-1.8,17-2.54-3.26-23.06-8.7-49.7-17.32-61.4a91.63,91.63,0,0,1-12.86-30.14,58.13,58.13,0,0,1-12.77,4.78c-19.59,4.82-36.53-2-43.73-5.39-4.61,9-9.08,18.52-13.72,28.45-7,14.93-14.23,31.26-15.23,36.87,0,0-3.22,9.38-6.15,28.55A27.82,27.82,0,0,1,823.73,1815.94Z"/><path class="cls-23" d="M884.31,1728.55s4,21.35.5,30.17"/><path class="cls-3" d="M913.83,1733.89l-8.58,3.26s2.81,28.57,22.36,22.89"/><path class="cls-3" d="M847.15,1734.65l8.81,2.63s-.69,28.69-20.61,24.46"/><rect class="cls-24" x="879.57" y="1729.29" width="1.92" height="1.93" rx="0.15" ry="0.15" transform="translate(-859.15 2592.01) rotate(-89.38)"/><path class="cls-5" d="M893.76,1618.28s3.51-1.76,10.53,0l15.79,15.79-9.13,8Z"/><path class="cls-1" d="M851.66,1527s-35.1,50.88,14,73.69v8.78s-43.83-17.47-40.32-59.62c0,0,0-35.09,22.81-38.6,0,0,35.09-29.83,61.41,12.28,0,0,12.28,12.28,5.26,59.66,0,0,7,28.07-12.28,36.84,0,0,5.26,8.78,0,12.28,0,0,7,3.51-1.76,14,0,0,7,10.53,0,19.3,0,0-1.75,7,3.51,8.77,0,0-10.53,1.76-10.53-14,0,0-1.75-10.53,3.51-14,0,0-5.26-7,0-10.53,0,0-5.26-7-1.75-12.28,0,0-3.51,0-3.51-5.26l-14-7v-8.77s50.89-28.08,1.76-68.43C879.73,1534.06,871,1523.53,851.66,1527Z"/><path class="cls-12" d="M862.18,1670.92s11.41,8.22,22.81,0C885,1670.92,873.59,1681.88,862.18,1670.92Z"/><path class="cls-12" d="M892,1672.67s9.65,5.26,19.3,0C911.31,1672.67,901.66,1679.69,892,1672.67Z"/><path class="cls-9" d="M869.2,1567.15l.38.38c.87.84,3.07,2.85,4.88,3.38H869.2"/></svg>
