<svg id="Layer_1" data-name="Layer 1" xmlns="http://www.w3.org/2000/svg" viewBox="0 0 1050 500"><defs><style>.cls-1{fill:#00809c;}.cls-2{fill:#fcad95;}.cls-19,.cls-3,.cls-5{fill:#fff;}.cls-3,.cls-4,.cls-5{stroke:#fff;}.cls-12,.cls-13,.cls-14,.cls-15,.cls-3,.cls-4,.cls-5{stroke-miterlimit:10;}.cls-13,.cls-14,.cls-15,.cls-5{stroke-width:0.25px;}.cls-6{fill:#ffc364;}.cls-7{fill:#faffff;}.cls-8{fill:#f86744;}.cls-9{fill:#23a6e8;}.cls-10{fill:#91e5f9;}.cls-11,.cls-12,.cls-13{fill:#f19538;}.cls-12{stroke:#f19538;}.cls-13,.cls-15{stroke:#020100;}.cls-14,.cls-15{fill:none;}.cls-14{stroke:#050300;}.cls-16{fill:#160b03;opacity:0.4;}.cls-17{fill:#d18f82;}.cls-18{fill:#d1ce00;}.cls-20{fill:#00aa17;}</style></defs><title>sara_karakter_speakcycle</title><rect class="cls-1" width="350" height="500"/><rect class="cls-2" x="137.62" y="18.53" width="68.43" height="84.47" rx="34.21" ry="34.21"/><path class="cls-2" d="M165.69,100.73v10.53l-12.28,7c22.81,21.05,36.85,0,36.85,0l-12.29-7V100.73" transform="translate(0)"/><path class="cls-3" d="M176.22,63.89s1.75-21.06,19.3-8.78C195.52,55.11,193.76,70.91,176.22,63.89Z" transform="translate(0)"/><circle class="cls-4" cx="185.87" cy="57.75" r="6.14"/><path class="cls-5" d="M162.18,63.89s-1.75-21.06-19.3-8.78C142.88,55.11,144.64,70.91,162.18,63.89Z" transform="translate(0)"/><circle class="cls-4" cx="152.53" cy="57.75" r="6.14"/><path class="cls-6" d="M163.14,100.73h2.55S164.09,102.49,163.14,100.73Z" transform="translate(0)"/><ellipse class="cls-7" cx="188.15" cy="54.93" rx="1.58" ry="1.4" transform="translate(4.42 123.21) rotate(-36.66)"/><ellipse class="cls-7" cx="154.81" cy="54.93" rx="1.58" ry="1.4" transform="translate(-2.17 103.3) rotate(-36.66)"/><path class="cls-8" d="M163.06,85.29s3.94-4.29,8.77-1c0,0,5.17-2.28,8.78,1,0,0,0,4-8.78,4C171.83,89.33,163.06,89.33,163.06,85.29Z" transform="translate(0)"/><path class="cls-2" d="M211.31,132.31s8.77,3.51,17.55,33.34l1.75,3.51,3.51-29.83s-3.51-15.79-1.76-21.05c0,0,1.76-7,3.51,8.77l5.3-8.82,5.23-8.72a1.72,1.72,0,0,1,1.76,1.75l-5.27,7V120l7-10.52a1.72,1.72,0,0,1,1.76,1.75l-7,8.77v1.76l7-8.78a1.72,1.72,0,0,1,1.75,1.76l-7,8.77v1.76l5.27-5.27a1.72,1.72,0,0,1,1.75,1.76l-12.28,17.54v47.38s-3.51,19.3-12.28,0l-19.3-31.59Z" transform="translate(0)"/><path class="cls-2" d="M142.88,123.54s-10.53,0-14,17.55l-5.27,47.37s-5.26,3.51-8.77,56.15v1.75s-21.06-3.51-22.81,14c0,0,0,1.75,1.75,0h0l1.76-3.51h0l1.75-1.76-1.75,5.27s0,1.75,1.75,0L99,255.13v5.27s1.75,1.75,1.75,0l1.76-7s5.26,3.51,7,1.75l-5.27,5.27a1.72,1.72,0,0,0,1.76,1.75l14-8.77s1.76-8.77,1.76-10.53Z" transform="translate(0)"/><path class="cls-9" d="M137.62,123.54s-8.77-1.75-12.28,7c0,0-5.27,12.28-5.27,33.34,0,0,7,7,28.08,5.26C148.15,169.16,160.43,128.81,137.62,123.54Z" transform="translate(0)"/><path class="cls-10" d="M153.41,221.8a40.76,40.76,0,0,0,5.26-33.34l-10.52-19.3s10.52-40.35-10.53-45.62l15.79-5.26h40.35s7,1.75,22.81,35.09c0,0,3.51,15.79-8.77,21l-5.26,33.34,7,14S185,239.34,153.41,221.8Z" transform="translate(0)"/><path class="cls-2" d="M202.64,289.61s15.45,38.51,9.06,77.45c0,0,4.43,46.37.4,61.29,0,0,4.86,15.79,5.63,21,0,0,9.56,20.07,7.43,28.79a18.32,18.32,0,0,1-13.44,6.35s-11.31-2.37-13.35-7.68l4.12-28.95-22-156.49" transform="translate(0)"/><path class="cls-11" d="M199.65,467.81h24.79s2.34,9.42.25,10.86c0,0-6,6.34-12.33,5.79,0,0-12.73-1.82-14-8.17Z" transform="translate(0)"/><path class="cls-11" d="M195.8,469.94" transform="translate(0)"/><path class="cls-11" d="M202.2,449.9a19.12,19.12,0,0,1,15.72-.17l.57,1.24a24.66,24.66,0,0,0-16.49.35Z" transform="translate(0)"/><path class="cls-2" d="M151.69,296.78s-12.51,39.56-3.23,77.91c0,0-.93,46.57,4.21,61.15,0,0-3.66,16.11-4,21.33,0,0-8,20.73-5.24,29.27a18.33,18.33,0,0,0,13.88,5.33s11.09-3.21,12.73-8.65l-6.28-28.56,10.17-157.78" transform="translate(0)"/><path class="cls-11" d="M143.85,473.25h24L170,483s-2.55,6.35-12.76,8.89c0,0-8.93,1.27-14-5.08C143.25,486.82,141.9,478.73,143.85,473.25Z" transform="translate(0)"/><path class="cls-11" d="M148.74,456a20.85,20.85,0,0,1,15.24-.2l.23,1.05s-10.51-1.88-15.73.71Z" transform="translate(0)"/><path class="cls-11" d="M189.27,252.81" transform="translate(0)"/><path class="cls-11" d="M191.14,258.61" transform="translate(0)"/><path class="cls-12" d="M123.73,315.94c32.54,7,66.74,2.77,99.8.26,5.67-.93,11.33-1.8,17-2.54-3.26-23.06-8.7-49.7-17.32-61.4a91.77,91.77,0,0,1-12.86-30.14,58.05,58.05,0,0,1-12.77,4.78c-19.59,4.82-36.53-2-43.73-5.39-4.61,9-9.08,18.52-13.72,28.45-7,14.93-14.23,31.26-15.23,36.87,0,0-3.22,9.38-6.15,28.55A27.84,27.84,0,0,1,123.73,315.94Z" transform="translate(0)"/><path class="cls-13" d="M184.31,228.55s4,21.35.5,30.17" transform="translate(0)"/><path class="cls-14" d="M213.83,233.89l-8.58,3.26s2.81,28.57,22.36,22.89" transform="translate(0)"/><path class="cls-14" d="M147.15,234.65l8.81,2.63s-.69,28.69-20.61,24.46" transform="translate(0)"/><rect class="cls-15" x="179.59" y="229.22" width="1.93" height="1.92" rx="0.15" ry="0.15" transform="translate(2.48 -1.93) rotate(0.62)"/><path class="cls-9" d="M193.76,118.28s3.51-1.76,10.53,0l15.79,15.79-9.13,8Z" transform="translate(0)"/><path class="cls-6" d="M151.66,27s-35.1,50.88,14,73.69v8.78S121.83,92,125.34,49.85c0,0,0-35.09,22.81-38.6,0,0,35.09-29.83,61.41,12.28,0,0,12.28,12.28,5.26,59.66,0,0,7,28.07-12.28,36.84,0,0,5.26,8.78,0,12.28,0,0,7,3.51-1.76,14,0,0,7,10.53,0,19.3,0,0-1.75,7,3.51,8.77,0,0-10.53,1.76-10.53-14,0,0-1.75-10.53,3.51-14,0,0-5.26-7,0-10.53,0,0-5.26-7-1.75-12.28,0,0-3.51,0-3.51-5.26l-14-7v-8.77s50.89-28.08,1.76-68.43C179.73,34.06,171,23.53,151.66,27Z" transform="translate(0)"/><path class="cls-16" d="M162.18,170.92s11.41,8.22,22.81,0C185,170.92,173.59,181.88,162.18,170.92Z" transform="translate(0)"/><path class="cls-16" d="M192,172.67s9.65,5.26,19.3,0C211.31,172.67,201.66,179.69,192,172.67Z" transform="translate(0)"/><path class="cls-17" d="M169.2,67.15l.38.38c.87.84,3.07,2.85,4.88,3.38H169.2" transform="translate(0)"/><rect class="cls-18" x="350" width="350" height="500"/><rect class="cls-2" x="487.62" y="18.53" width="68.43" height="84.47" rx="34.21" ry="34.21"/><path class="cls-2" d="M515.69,100.73v10.53l-12.28,7c22.81,21.05,36.85,0,36.85,0l-12.29-7V100.73" transform="translate(0)"/><path class="cls-3" d="M526.22,63.89s1.75-21.06,19.3-8.78C545.52,55.11,543.76,70.91,526.22,63.89Z" transform="translate(0)"/><circle class="cls-4" cx="535.87" cy="57.75" r="6.14"/><path class="cls-5" d="M512.18,63.89s-1.75-21.06-19.3-8.78C492.88,55.11,494.64,70.91,512.18,63.89Z" transform="translate(0)"/><circle class="cls-4" cx="502.53" cy="57.75" r="6.14"/><path class="cls-6" d="M513.14,100.73h2.55S514.09,102.49,513.14,100.73Z" transform="translate(0)"/><ellipse class="cls-7" cx="538.15" cy="54.93" rx="1.58" ry="1.4" transform="translate(73.66 332.19) rotate(-36.66)"/><ellipse class="cls-7" cx="504.81" cy="54.93" rx="1.58" ry="1.4" transform="translate(67.06 312.28) rotate(-36.66)"/><path class="cls-8" d="M513.06,82.31s5.26-3.51,8.77-1.75c0,0,5.27-1.76,8.78,1.75,0,0,0,7-8.78,7C521.83,89.33,513.06,89.33,513.06,82.31Z" transform="translate(0)"/><path class="cls-19" d="M515.69,84.84s7-3.72,12.28,0C528,84.84,521,88.57,515.69,84.84Z" transform="translate(0)"/><path class="cls-2" d="M561.31,132.31s8.77,3.51,17.55,33.34l1.75,3.51,3.51-29.83s-3.51-15.79-1.76-21.05c0,0,1.76-7,3.51,8.77l5.3-8.82,5.23-8.72a1.72,1.72,0,0,1,1.76,1.75l-5.27,7V120l7-10.52a1.72,1.72,0,0,1,1.76,1.75l-7,8.77v1.76l7-8.78a1.72,1.72,0,0,1,1.75,1.76l-7,8.77v1.76l5.27-5.27a1.72,1.72,0,0,1,1.75,1.76l-12.28,17.54v47.38s-3.51,19.3-12.28,0l-19.3-31.59Z" transform="translate(0)"/><path class="cls-2" d="M492.88,123.54s-10.53,0-14,17.55l-5.27,47.37s-5.26,3.51-8.77,56.15v1.75s-21.06-3.51-22.81,14c0,0,0,1.75,1.75,0h0l1.76-3.51h0l1.75-1.76-1.75,5.27s0,1.75,1.75,0l1.76-5.27v5.27s1.75,1.75,1.75,0l1.76-7s5.26,3.51,7,1.75l-5.27,5.27a1.72,1.72,0,0,0,1.76,1.75l14-8.77s1.76-8.77,1.76-10.53Z" transform="translate(0)"/><path class="cls-9" d="M487.62,123.54s-8.77-1.75-12.28,7c0,0-5.27,12.28-5.27,33.34,0,0,7,7,28.08,5.26C498.15,169.16,510.43,128.81,487.62,123.54Z" transform="translate(0)"/><path class="cls-10" d="M503.41,221.8a40.76,40.76,0,0,0,5.26-33.34l-10.52-19.3s10.52-40.35-10.53-45.62l15.79-5.26h40.35s7,1.75,22.81,35.09c0,0,3.51,15.79-8.77,21l-5.26,33.34,7,14S535,239.34,503.41,221.8Z" transform="translate(0)"/><path class="cls-2" d="M552.64,289.61s15.45,38.51,9.06,77.45c0,0,4.43,46.37.4,61.29,0,0,4.86,15.79,5.63,21,0,0,9.56,20.07,7.43,28.79a18.32,18.32,0,0,1-13.44,6.35s-11.31-2.37-13.35-7.68l4.12-28.95-22-156.49" transform="translate(0)"/><path class="cls-11" d="M549.65,467.81h24.79s2.34,9.42.25,10.86c0,0-6,6.34-12.33,5.79,0,0-12.73-1.82-14-8.17Z" transform="translate(0)"/><path class="cls-11" d="M545.8,469.94" transform="translate(0)"/><path class="cls-11" d="M552.2,449.9a19.12,19.12,0,0,1,15.72-.17l.57,1.24a24.66,24.66,0,0,0-16.49.35Z" transform="translate(0)"/><path class="cls-2" d="M501.69,296.78s-12.51,39.56-3.23,77.91c0,0-.93,46.57,4.21,61.15,0,0-3.66,16.11-4.05,21.33,0,0-8,20.73-5.24,29.27a18.33,18.33,0,0,0,13.88,5.33s11.09-3.21,12.73-8.65l-6.28-28.56,10.17-157.78" transform="translate(0)"/><path class="cls-11" d="M493.85,473.25h24L520,483s-2.55,6.35-12.76,8.89c0,0-8.93,1.27-14-5.08C493.25,486.82,491.9,478.73,493.85,473.25Z" transform="translate(0)"/><path class="cls-11" d="M498.74,456a20.85,20.85,0,0,1,15.24-.2l.23,1.05s-10.51-1.88-15.73.71Z" transform="translate(0)"/><path class="cls-11" d="M539.27,252.81" transform="translate(0)"/><path class="cls-11" d="M541.14,258.61" transform="translate(0)"/><path class="cls-12" d="M473.73,315.94c32.54,7,66.74,2.77,99.8.26,5.67-.93,11.33-1.8,17-2.54-3.26-23.06-8.7-49.7-17.32-61.4a91.77,91.77,0,0,1-12.86-30.14,58.05,58.05,0,0,1-12.77,4.78c-19.59,4.82-36.53-2-43.73-5.39-4.61,9-9.08,18.52-13.72,28.45-7,14.93-14.23,31.26-15.23,36.87,0,0-3.22,9.38-6.15,28.55A27.84,27.84,0,0,1,473.73,315.94Z" transform="translate(0)"/><path class="cls-13" d="M534.31,228.55s4,21.35.5,30.17" transform="translate(0)"/><path class="cls-14" d="M563.83,233.89l-8.58,3.26s2.81,28.57,22.36,22.89" transform="translate(0)"/><path class="cls-14" d="M497.15,234.65l8.81,2.63s-.69,28.69-20.61,24.46" transform="translate(0)"/><rect class="cls-15" x="529.59" y="229.22" width="1.93" height="1.92" rx="0.15" ry="0.15" transform="translate(2.5 -5.68) rotate(0.62)"/><path class="cls-9" d="M543.76,118.28s3.51-1.76,10.53,0l15.79,15.79-9.13,8Z" transform="translate(0)"/><path class="cls-6" d="M501.66,27s-35.1,50.88,14,73.69v8.78S471.83,92,475.34,49.85c0,0,0-35.09,22.81-38.6,0,0,35.09-29.83,61.41,12.28,0,0,12.28,12.28,5.26,59.66,0,0,7,28.07-12.28,36.84,0,0,5.26,8.78,0,12.28,0,0,7,3.51-1.76,14,0,0,7,10.53,0,19.3,0,0-1.75,7,3.51,8.77,0,0-10.53,1.76-10.53-14,0,0-1.75-10.53,3.51-14,0,0-5.26-7,0-10.53,0,0-5.26-7-1.75-12.28,0,0-3.51,0-3.51-5.26l-14-7v-8.77s50.89-28.08,1.76-68.43C529.73,34.06,521,23.53,501.66,27Z" transform="translate(0)"/><path class="cls-16" d="M512.18,170.92s11.41,8.22,22.81,0C535,170.92,523.59,181.88,512.18,170.92Z" transform="translate(0)"/><path class="cls-16" d="M542,172.67s9.65,5.26,19.3,0C561.31,172.67,551.66,179.69,542,172.67Z" transform="translate(0)"/><path class="cls-17" d="M519.2,67.15l.38.38c.87.84,3.07,2.85,4.88,3.38H519.2" transform="translate(0)"/><rect class="cls-20" x="700" width="350" height="500"/><rect class="cls-2" x="837.62" y="18.53" width="68.43" height="84.47" rx="34.21" ry="34.21"/><path class="cls-2" d="M865.69,100.73v10.53l-12.28,7c22.81,21.05,36.85,0,36.85,0l-12.29-7V100.73" transform="translate(0)"/><path class="cls-3" d="M876.22,63.89s1.75-21.06,19.3-8.78C895.52,55.11,893.76,70.91,876.22,63.89Z" transform="translate(0)"/><circle class="cls-4" cx="885.87" cy="57.75" r="6.14"/><path class="cls-5" d="M862.18,63.89s-1.75-21.06-19.3-8.78C842.88,55.11,844.64,70.91,862.18,63.89Z" transform="translate(0)"/><circle class="cls-4" cx="852.53" cy="57.75" r="6.14"/><path class="cls-6" d="M863.14,100.73h2.55S864.09,102.49,863.14,100.73Z" transform="translate(0)"/><ellipse class="cls-7" cx="888.15" cy="54.93" rx="1.58" ry="1.4" transform="translate(142.89 541.17) rotate(-36.66)"/><ellipse class="cls-7" cx="854.81" cy="54.93" rx="1.58" ry="1.4" transform="translate(136.3 521.26) rotate(-36.66)"/><path class="cls-8" d="M862.06,82.75s5.68-3.79,9.47-1.89c0,0,5.68-1.9,9.47,1.89,0,0,0,7.58-9.47,7.58C871.53,90.33,862.06,90.33,862.06,82.75Z" transform="translate(0)"/><path class="cls-19" d="M865.69,85.25s7-5.06,12.28,0C878,85.25,871,90.31,865.69,85.25Z" transform="translate(0)"/><path class="cls-2" d="M911.31,132.31s8.77,3.51,17.55,33.34l1.75,3.51,3.51-29.83s-3.51-15.79-1.76-21.05c0,0,1.76-7,3.51,8.77l5.3-8.82,5.23-8.72a1.72,1.72,0,0,1,1.76,1.75l-5.27,7V120l7-10.52a1.72,1.72,0,0,1,1.76,1.75l-7,8.77v1.76l7-8.78a1.72,1.72,0,0,1,1.75,1.76l-7,8.77v1.76l5.27-5.27a1.72,1.72,0,0,1,1.75,1.76l-12.28,17.54v47.38s-3.51,19.3-12.28,0l-19.3-31.59Z" transform="translate(0)"/><path class="cls-2" d="M842.88,123.54s-10.53,0-14,17.55l-5.27,47.37s-5.26,3.51-8.77,56.15v1.75s-21.06-3.51-22.81,14c0,0,0,1.75,1.75,0h0l1.76-3.51h0l1.75-1.76-1.75,5.27s0,1.75,1.75,0l1.76-5.27v5.27s1.75,1.75,1.75,0l1.76-7s5.26,3.51,7,1.75l-5.27,5.27a1.72,1.72,0,0,0,1.76,1.75l14-8.77s1.76-8.77,1.76-10.53Z" transform="translate(0)"/><path class="cls-9" d="M837.62,123.54s-8.77-1.75-12.28,7c0,0-5.27,12.28-5.27,33.34,0,0,7,7,28.08,5.26C848.15,169.16,860.43,128.81,837.62,123.54Z" transform="translate(0)"/><path class="cls-10" d="M853.41,221.8a40.76,40.76,0,0,0,5.26-33.34l-10.52-19.3s10.52-40.35-10.53-45.62l15.79-5.26h40.35s7,1.75,22.81,35.09c0,0,3.51,15.79-8.77,21l-5.26,33.34,7,14S885,239.34,853.41,221.8Z" transform="translate(0)"/><path class="cls-2" d="M902.64,289.61s15.45,38.51,9.06,77.45c0,0,4.43,46.37.4,61.29,0,0,4.86,15.79,5.63,21,0,0,9.56,20.07,7.43,28.79a18.32,18.32,0,0,1-13.44,6.35s-11.31-2.37-13.35-7.68l4.12-28.95-22-156.49" transform="translate(0)"/><path class="cls-11" d="M899.65,467.81h24.79s2.34,9.42.25,10.86c0,0-6,6.34-12.33,5.79,0,0-12.73-1.82-14-8.17Z" transform="translate(0)"/><path class="cls-11" d="M895.8,469.94" transform="translate(0)"/><path class="cls-11" d="M902.2,449.9a19.12,19.12,0,0,1,15.72-.17l.57,1.24a24.66,24.66,0,0,0-16.49.35Z" transform="translate(0)"/><path class="cls-2" d="M851.69,296.78s-12.51,39.56-3.23,77.91c0,0-.93,46.57,4.21,61.15,0,0-3.66,16.11-4,21.33,0,0-8,20.73-5.24,29.27a18.33,18.33,0,0,0,13.88,5.33s11.09-3.21,12.73-8.65l-6.28-28.56,10.17-157.78" transform="translate(0)"/><path class="cls-11" d="M843.85,473.25h24L870,483s-2.55,6.35-12.76,8.89c0,0-8.93,1.27-14-5.08C843.25,486.82,841.9,478.73,843.85,473.25Z" transform="translate(0)"/><path class="cls-11" d="M848.74,456a20.85,20.85,0,0,1,15.24-.2l.23,1.05s-10.51-1.88-15.73.71Z" transform="translate(0)"/><path class="cls-11" d="M889.27,252.81" transform="translate(0)"/><path class="cls-11" d="M891.14,258.61" transform="translate(0)"/><path class="cls-12" d="M823.73,315.94c32.54,7,66.74,2.77,99.8.26,5.67-.93,11.33-1.8,17-2.54-3.26-23.06-8.7-49.7-17.32-61.4a91.77,91.77,0,0,1-12.86-30.14,58.05,58.05,0,0,1-12.77,4.78c-19.59,4.82-36.53-2-43.73-5.39-4.61,9-9.08,18.52-13.72,28.45-7,14.93-14.23,31.26-15.23,36.87,0,0-3.22,9.38-6.15,28.55A27.84,27.84,0,0,1,823.73,315.94Z" transform="translate(0)"/><path class="cls-13" d="M884.31,228.55s4,21.35.5,30.17" transform="translate(0)"/><path class="cls-14" d="M913.83,233.89l-8.58,3.26s2.81,28.57,22.36,22.89" transform="translate(0)"/><path class="cls-14" d="M847.15,234.65l8.81,2.63s-.69,28.69-20.61,24.46" transform="translate(0)"/><rect class="cls-15" x="879.59" y="229.22" width="1.93" height="1.92" rx="0.15" ry="0.15" transform="translate(2.52 -9.44) rotate(0.62)"/><path class="cls-9" d="M893.76,118.28s3.51-1.76,10.53,0l15.79,15.79-9.13,8Z" transform="translate(0)"/><path class="cls-6" d="M851.66,27s-35.1,50.88,14,73.69v8.78S821.83,92,825.34,49.85c0,0,0-35.09,22.81-38.6,0,0,35.09-29.83,61.41,12.28,0,0,12.28,12.28,5.26,59.66,0,0,7,28.07-12.28,36.84,0,0,5.26,8.78,0,12.28,0,0,7,3.51-1.76,14,0,0,7,10.53,0,19.3,0,0-1.75,7,3.51,8.77,0,0-10.53,1.76-10.53-14,0,0-1.75-10.53,3.51-14,0,0-5.26-7,0-10.53,0,0-5.26-7-1.75-12.28,0,0-3.51,0-3.51-5.26l-14-7v-8.77s50.89-28.08,1.76-68.43C879.73,34.06,871,23.53,851.66,27Z" transform="translate(0)"/><path class="cls-16" d="M862.18,170.92s11.41,8.22,22.81,0C885,170.92,873.59,181.88,862.18,170.92Z" transform="translate(0)"/><path class="cls-16" d="M892,172.67s9.65,5.26,19.3,0C911.31,172.67,901.66,179.69,892,172.67Z" transform="translate(0)"/><path class="cls-17" d="M869.2,67.15l.38.38c.87.84,3.07,2.85,4.88,3.38H869.2" transform="translate(0)"/></svg>
