<?xml version="1.0" encoding="utf-8"?>
<!-- Generator: Adobe Illustrator 22.1.0, SVG Export Plug-In . SVG Version: 6.00 Build 0)  -->
<svg version="1.1" id="Layer_1" xmlns="http://www.w3.org/2000/svg" xmlns:xlink="http://www.w3.org/1999/xlink" x="0px" y="0px"
	 viewBox="0 0 310.6 363" style="enable-background:new 0 0 310.6 363;" xml:space="preserve">
<style type="text/css">
	.st0{fill:#55340C;}
	.st1{fill:#402709;}
	.st2{fill:#3A220C;}
	.st3{fill:none;stroke:#402709;stroke-miterlimit:10;}
	.st4{fill:#020202;}
	.st5{fill:#4C2E0C;}
</style>
<title>Artboard 1</title>
<polygon class="st0" points="310.6,200.1 207,303.6 295.4,198.8 "/>
<polygon class="st1" points="300.9,162.9 310.6,162.9 310.6,200.1 295.4,198.8 296.8,165.6 "/>
<polygon class="st2" points="310.6,177.9 310.6,182.5 306.4,186.3 306.4,180.8 "/>
<polygon class="st1" points="0,75.9 31.8,84.2 31.8,283 198.8,314.7 198.8,346.4 0,309.2 "/>
<polygon class="st0" points="161.5,0 161.5,201.5 191.8,201.5 194.6,9 "/>
<polygon class="st1" points="31.8,84.2 194.6,8.3 161.5,0 0,75.9 "/>
<polygon class="st0" points="31.8,84.2 161.5,23.7 161.5,186.3 31.8,283 "/>
<polygon class="st0" points="31.8,283 161.5,186.3 300.9,193.2 198.8,314.7 "/>
<polygon class="st1" points="192.5,156.2 192,187.8 300.9,193.2 300.9,162.9 "/>
<polygon class="st1" points="191.8,156 184.9,158.7 298.1,167 300.9,162.9 "/>
<polygon class="st1" points="184.9,158.7 184.9,192.3 296.1,198.9 296.8,165.6 "/>
<polygon class="st1" points="31.8,254 31.8,283 198.8,314.7 198.8,276 191.8,276 "/>
<polygon class="st2" points="31.5,281 31.6,284.2 199,313.5 198.9,307.9 31.5,278.2 "/>
<polygon class="st1" points="31.8,254.5 42.8,248.4 207,272.7 198.8,278.8 "/>
<polygon class="st1" points="207,271.9 207,303.5 198.8,313.3 198.8,277.6 "/>
<polygon class="st1" points="198.8,346.4 207,334 207,303.6 198.8,313.3 "/>
<polygon class="st2" points="198.9,307.9 198.8,313.3 207,306.5 207,301.5 "/>
<polygon class="st2" points="31.8,254 36,254.3 33.9,315.5 29.4,314.7 "/>
<polygon class="st2" points="31.8,254 42.8,248.4 45.9,248.9 35.7,254.9 31.8,254.5 "/>
<line class="st3" x1="189.1" y1="190.5" x2="85.6" y2="255.3"/>
<polygon class="st2" points="306.4,180.8 184.9,174.7 184.9,179.6 306.4,186.3 "/>
<polygon class="st2" points="191.8,156 197.1,156.2 190.6,159.1 184.9,158.7 "/>
<polygon class="st2" points="184.9,158.7 184.9,192.3 189.8,192.3 190.5,158.7 "/>
<polygon class="st4" points="45.9,317.8 45.6,340.9 154.6,363 154.6,338.2 "/>
<polygon class="st4" points="154.6,363 167,353.3 166.3,340.4 154.6,338.2 "/>
<polygon class="st4" points="303,207.7 303.7,223.6 295.4,227.7 295.4,215.3 "/>
<polygon class="st4" points="295.4,227.7 283,227.7 295.4,215.3 "/>
<line class="st3" x1="118.7" y1="45.6" x2="125.6" y2="227.7"/>
<polygon class="st5" points="310.6,200.1 310.6,204.3 207,310.1 207,303.6 "/>
<polygon class="st1" points="296.2,191.9 295.4,198.6 300.9,199.3 300.9,191.9 "/>
</svg>
