<svg id="Layer_1" data-name="Layer 1" xmlns="http://www.w3.org/2000/svg" viewBox="0 0 350 500"><defs><style>.cls-1{fill:#55340c;}.cls-2{fill:#402709;}.cls-3{fill:#3a220c;}.cls-4{fill:none;stroke:#402709;stroke-miterlimit:10;}.cls-5{fill:#020202;}.cls-6{fill:#4c2e0c;}</style></defs><title>Artboard 1</title><polygon class="cls-1" points="330.04 282.15 226.53 385.65 314.86 280.75 330.04 282.15"/><polygon class="cls-2" points="320.38 244.87 330.04 244.87 330.04 282.13 314.86 280.75 316.24 247.63 320.38 244.87"/><polygon class="cls-3" points="330.04 259.87 330.04 264.53 325.9 268.33 325.9 262.81 330.04 259.87"/><polygon class="cls-2" points="19.49 157.91 51.24 166.19 51.24 364.95 218.24 396.69 218.24 428.44 19.49 391.17 19.49 157.91"/><polygon class="cls-1" points="180.98 82 180.98 283.51 211.34 283.51 214.1 90.96 180.98 82"/><polygon class="cls-2" points="51.24 166.19 214.1 90.28 180.98 82 19.49 157.91 51.24 166.19"/><polygon class="cls-1" points="51.24 166.19 180.98 105.72 180.98 268.33 51.24 364.95 51.24 166.19"/><polygon class="cls-1" points="51.24 364.95 180.98 268.33 320.38 275.23 218.24 396.69 51.24 364.95"/><polygon class="cls-2" points="211.99 238.2 211.54 269.84 320.38 275.23 320.38 244.87 211.99 238.2"/><polygon class="cls-2" points="211.34 237.97 204.44 240.73 317.62 249.01 320.38 244.87 211.34 237.97"/><polygon class="cls-2" points="204.44 240.73 204.44 274.32 315.61 280.91 316.24 247.63 204.44 240.73"/><polygon class="cls-2" points="51.24 335.96 51.24 364.95 218.24 396.69 218.24 358.05 211.34 358.05 51.24 335.96"/><polygon class="cls-3" points="51.01 362.95 51.05 366.18 218.51 395.46 218.43 389.94 50.97 360.24 51.01 362.95"/><polygon class="cls-2" points="51.24 336.51 62.28 330.44 226.53 354.73 218.24 360.81 51.24 336.51"/><polygon class="cls-2" points="226.53 353.9 226.53 385.5 218.24 395.31 218.24 359.62 226.53 353.9"/><polygon class="cls-2" points="218.24 428.44 226.53 416.01 226.53 385.65 218.24 395.31 218.24 428.44"/><polygon class="cls-3" points="218.43 389.94 218.24 395.31 226.53 388.51 226.53 383.54 218.43 389.94"/><polygon class="cls-3" points="51.24 335.96 55.52 336.33 53.38 397.52 48.94 396.69 51.24 335.96"/><polygon class="cls-3" points="51.24 335.96 62.28 330.44 65.38 330.9 55.15 336.93 51.24 336.51 51.24 335.96"/><line class="cls-4" x1="208.58" y1="272.47" x2="105.06" y2="337.34"/><polygon class="cls-3" points="325.9 262.81 204.44 256.71 204.44 261.59 325.9 268.33 325.9 262.81"/><polygon class="cls-3" points="211.34 237.97 216.58 238.2 210.13 241.08 204.44 240.73 211.34 237.97"/><polygon class="cls-3" points="204.44 240.73 204.44 274.32 209.26 274.32 209.96 240.73 204.44 240.73"/><polygon class="cls-5" points="65.38 399.77 65.04 422.92 174.08 445 174.08 420.16 65.38 399.77"/><polygon class="cls-5" points="174.08 445 186.5 435.34 185.81 422.36 174.08 420.16 174.08 445"/><polygon class="cls-5" points="322.45 289.74 323.14 305.6 314.86 309.74 314.86 297.33 322.45 289.74"/><polygon class="cls-5" points="314.86 309.74 302.45 309.74 314.86 297.32 314.86 309.74"/><line class="cls-4" x1="138.19" y1="127.55" x2="145.09" y2="309.74"/><polygon class="cls-6" points="330.04 282.13 330.04 286.27 226.53 392.15 226.53 385.65 330.04 282.13"/><polygon class="cls-2" points="315.71 273.85 314.86 280.64 320.38 281.25 320.38 273.85 315.71 273.85"/></svg>
