<svg id="Layer_2" data-name="Layer 2" xmlns="http://www.w3.org/2000/svg" viewBox="0 0 348.03 520.29"><defs><style>.cls-1{fill:#938f84;}.cls-2{fill:#333;}.cls-3{fill:#b7b3a9;}</style></defs><title>Artboard 1</title><polygon class="cls-1" points="230.31 371.96 232.04 284.24 161.32 253.04 161.25 350.55 178.19 350.56 180.23 283.38 212.1 294.06 210.06 362.5 230.31 371.96"/><polygon class="cls-1" points="176.02 403.32 177.73 315.6 107.67 284.4 107.6 381.92 124.38 381.93 126.4 314.74 157.98 325.42 155.96 393.86 176.02 403.32"/><polygon class="cls-2" points="177.73 315.6 232.04 284.49 158.69 253.04 107.67 284.4 177.73 315.6"/><path class="cls-1" d="M232,288.21c1.31-1.5,2-96.95,2-96.95l-72.69-30.75-2.7,92.71Z"/><rect class="cls-3" x="215.63" y="197.35" width="8.23" height="70.04" rx="4.11" ry="4.11" transform="translate(439.31 464.91) rotate(-179.96)"/><rect class="cls-3" x="200.08" y="191.76" width="8.23" height="70.04" rx="4.11" ry="4.11" transform="translate(408.23 453.71) rotate(-179.96)"/><rect class="cls-3" x="184.54" y="186.01" width="8.23" height="70.04" rx="4.11" ry="4.11" transform="matrix(-1, 0, 0, -1, 377.15, 442.2)"/><rect class="cls-3" x="169.58" y="177.55" width="8.23" height="70.04" rx="4.11" ry="4.11" transform="translate(347.23 425.26) rotate(-179.96)"/><polygon class="cls-1" points="234.08 191.78 240.43 188.42 169.62 157.36 161.39 160.58 234.08 191.78"/><polygon class="cls-1" points="240.44 187.76 240.3 366.91 229.67 371.96 234.08 191.06 240.44 187.76"/><polygon class="cls-2" points="178.22 324.21 107.67 293.48 107.67 284.4 177.73 315.6 178.22 324.21"/><polygon class="cls-2" points="228.5 286.52 228.49 294.68 178.22 324.21 177.73 315.6 228.5 286.52"/><polygon class="cls-1" points="176.39 324.21 173.55 403.32 181.86 400.53 184.47 320.54 176.39 324.21"/><polygon class="cls-1" points="124.38 381.93 130.13 377.82 131.93 315.56 126.4 314.74 124.38 381.93"/><polygon class="cls-1" points="175.95 336.46 176.39 324.21 228.49 294.68 228.48 307.69 175.95 336.46"/><polygon class="cls-1" points="158.63 329.76 131.78 320.5 131.93 315.56 157.98 325.42 158.63 329.76"/><polygon class="cls-1" points="107.6 381.92 122.46 386.65 130.13 377.82 107.6 381.92"/><polygon class="cls-1" points="128.15 324.21 157.65 336.46 158.63 329.76 126.4 314.74 128.15 324.21"/></svg>
