<?xml version="1.0" encoding="utf-8"?>
<!-- Generator: Adobe Illustrator 22.1.0, SVG Export Plug-In . SVG Version: 6.00 Build 0)  -->
<svg version="1.1" id="Layer_2_1_" xmlns="http://www.w3.org/2000/svg" xmlns:xlink="http://www.w3.org/1999/xlink" x="0px" y="0px"
	 viewBox="0 0 132.8 246" style="enable-background:new 0 0 132.8 246;" xml:space="preserve">
<style type="text/css">
	.st0{fill:#938F84;}
	.st1{fill:#333333;}
	.st2{fill:#B7B3A9;}
</style>
<title>Artboard 1</title>
<polygon class="st0" points="122.7,214.6 124.4,126.9 53.7,95.7 53.7,193.2 70.6,193.2 72.6,126 104.5,136.7 102.5,205.1 "/>
<polygon class="st0" points="68.4,246 70.1,158.2 0.1,127 0,224.6 16.8,224.6 18.8,157.4 50.4,168.1 48.4,236.5 "/>
<polygon class="st1" points="70.1,158.2 124.4,127.1 51.1,95.7 0.1,127 "/>
<path class="st0" d="M124.4,130.8c1.3-1.5,2-96.9,2-96.9L53.7,3.1L51,95.9L124.4,130.8z"/>
<path class="st2" d="M112.1,110L112.1,110c-2.3,0-4.1-1.8-4.1-4.1l0-61.8c0-2.3,1.8-4.1,4.1-4.1l0,0c2.3,0,4.1,1.8,4.1,4.1l0,61.8
	C116.2,108.2,114.4,110,112.1,110z"/>
<path class="st2" d="M96.6,104.4L96.6,104.4c-2.3,0-4.1-1.8-4.1-4.1l0-61.8c0-2.3,1.8-4.1,4.1-4.1l0,0c2.3,0,4.1,1.8,4.1,4.1l0,61.8
	C100.7,102.6,98.8,104.4,96.6,104.4z"/>
<path class="st2" d="M80.9,98.8L80.9,98.8c-2.3,0-4.1-1.8-4.1-4.1V32.9c0-2.3,1.8-4.1,4.1-4.1h0c2.3,0,4.1,1.8,4.1,4.1v61.8
	C85,97,83.2,98.8,80.9,98.8z"/>
<path class="st2" d="M66.1,90.2L66.1,90.2c-2.3,0-4.1-1.8-4.1-4.1l0-61.8c0-2.3,1.8-4.1,4.1-4.1l0,0c2.3,0,4.1,1.8,4.1,4.1l0,61.8
	C70.2,88.4,68.3,90.2,66.1,90.2z"/>
<polygon class="st0" points="126.5,34.4 132.8,31.1 62,0 53.8,3.2 "/>
<polygon class="st0" points="132.8,30.4 132.7,209.6 122.1,214.6 126.5,33.7 "/>
<polygon class="st1" points="70.6,166.8 0.1,136.1 0.1,127 70.1,158.2 "/>
<polygon class="st1" points="120.9,129.2 120.9,137.3 70.6,166.8 70.1,158.2 "/>
<polygon class="st0" points="68.8,166.8 66,246 74.3,243.2 76.9,163.2 "/>
<polygon class="st0" points="16.8,224.6 22.5,220.5 24.3,158.2 18.8,157.4 "/>
<polygon class="st0" points="68.3,179.1 68.8,166.8 120.9,137.3 120.9,150.3 "/>
<polygon class="st0" points="51,172.4 24.2,163.1 24.3,158.2 50.4,168.1 "/>
<polygon class="st0" points="0,224.6 14.9,229.3 22.5,220.5 "/>
<polygon class="st0" points="20.5,166.8 50,179.1 51,172.4 18.8,157.4 "/>
</svg>
