<svg id="Layer_1" data-name="Layer 1" xmlns="http://www.w3.org/2000/svg" viewBox="0 0 24 37"><defs><style>.cls-1{fill:#020202;}.cls-2,.cls-3{fill:#5a5b5b;}.cls-2{opacity:0.26;}.cls-3{opacity:0.8;}.cls-4{fill:#505151;}.cls-5{fill:#dee0e0;}</style></defs><title>Artboard 1</title><path class="cls-1" d="M22.16,17.85,22,32.78v.6s.42,3.28-3.26,3.17Z"/><path class="cls-1" d="M21,34l1.14-16.1.45-13.28C22.34.23,17.88.84,17.88.84L6.07.56c-5.09-.78-4.61,4-4.61,4L.59,33.08a3.9,3.9,0,0,0,4.06,3.47H19.19l0-1.76"/><path class="cls-2" d="M6.07.56l.06,3.87-.32,26,2.47,6.09H4.65A3.9,3.9,0,0,1,.59,33.08L1.46,4.57S1-.22,6.07.56Z"/><rect class="cls-3" x="10.73" y="3.44" width="3.59" height="0.72" rx="0.36" ry="0.36" transform="translate(0.29 -0.85) rotate(3.94)"/><circle class="cls-3" cx="11.7" cy="33.67" r="1.26"/><rect class="cls-4" x="1.98" y="6.03" width="19.43" height="24.42" rx="0.76" ry="0.76" transform="translate(0.51 -0.31) rotate(1.58)"/><rect class="cls-5" x="2.61" y="6.41" width="18.12" height="23.38" transform="translate(0.5 -0.31) rotate(1.58)"/></svg>
